<?xml version="1.0" encoding="utf-8"?>
<!-- Generator: Adobe Illustrator 23.0.3, SVG Export Plug-In . SVG Version: 6.00 Build 0)  -->
<svg version="1.1" xmlns="http://www.w3.org/2000/svg" xmlns:xlink="http://www.w3.org/1999/xlink" x="0px" y="0px"
	 viewBox="0 0 595.28 841.89" style="enable-background:new 0 0 595.28 841.89;" xml:space="preserve">
<style type="text/css">
	.st0{clip-path:url(#SVGID_2_);}
	.st1{fill:#1C315C;}
	.st2{fill:#FEFDFD;}
	.st3{fill:#EF3A28;}
	.st4{fill:#CCD1DA;}
	.st5{fill:#CCD0DA;}
	.st6{fill:#FFFFFF;}
	.st7{fill:#88888A;}
	.st8{fill:none;stroke:#FFFFFF;stroke-width:0.18;stroke-linecap:round;stroke-linejoin:round;stroke-miterlimit:1.414;}
</style>
<g id="Vrstva_1">
	<g>
		<defs>
			<rect id="SVGID_1_" width="595.28" height="841.89"/>
		</defs>
		<clipPath id="SVGID_2_">
			<use xlink:href="#SVGID_1_"  style="overflow:visible;"/>
		</clipPath>
		<g class="st0">
			<g>
				<path class="st1" d="M0,0.15c198.57,0,397.13,0,595.7,0c0,20.8,0,41.6,0,62.4c-0.22,0.01-0.44,0.01-0.67,0.02
					c-6.49,0.23-12.98,0.48-19.46,0.7c-4.46,0.15-8.92,0.29-13.38,0.42c-7.11,0.21-14.22,0.42-21.34,0.59
					c-3.79,0.09-7.59,0.12-11.38,0.18c-6.45,0.09-12.9,0.19-19.35,0.27c-4.22,0.06-8.43,0.12-12.65,0.15
					c-5.93,0.04-11.86,0.1-17.79,0.08c-11.54-0.02-23.08-0.08-34.62-0.15c-3.03-0.02-6.05-0.1-9.08-0.14
					c-6.74-0.1-13.49-0.21-20.23-0.31c-6.9-0.1-13.79-0.18-20.69-0.29c-5.06-0.08-10.12-0.19-15.17-0.29
					c-4.78-0.1-9.57-0.2-14.35-0.3c-5.4-0.11-10.81-0.22-16.21-0.31c-3.92-0.06-7.84-0.08-11.76-0.15
					c-4.49-0.08-8.97-0.19-13.46-0.29c-6.64-0.15-13.29-0.3-19.93-0.45c-4.96-0.11-9.91-0.21-14.87-0.31
					c-7.91-0.15-15.82-0.28-23.73-0.44c-6.3-0.13-12.59-0.3-18.89-0.44c-4.66-0.11-9.32-0.22-13.98-0.31
					c-5.58-0.11-11.16-0.18-16.74-0.29c-6-0.13-12-0.3-17.99-0.44c-6.49-0.16-12.98-0.36-19.48-0.45
					c-8.71-0.11-17.42-0.17-26.13-0.17c-9.75,0-19.5,0.07-29.26,0.12c-5.53,0.03-11.06,0.08-16.59,0.13
					c-3.13,0.03-6.25,0.06-9.38,0.13c-5.45,0.13-10.91,0.28-16.36,0.44c-6.19,0.19-12.39,0.39-18.58,0.62
					c-4.11,0.15-8.22,0.36-12.33,0.57c-5.1,0.26-10.2,0.47-15.29,0.85c-6.87,0.51-13.72,1.15-20.58,1.75
					c-2.32,0.2-4.63,0.45-6.94,0.72C4.74,65.05,2.4,65.38,0,65.7C0,43.78,0,21.96,0,0.15z"/>
				<path class="st2" d="M0,0.15C0,21.96,0,43.78,0,65.7c2.4-0.32,4.74-0.65,7.09-0.93c2.31-0.27,4.62-0.51,6.94-0.72
					c6.86-0.6,13.72-1.24,20.58-1.75c5.09-0.38,10.19-0.59,15.29-0.85c4.11-0.21,8.22-0.42,12.33-0.57
					c6.19-0.23,12.38-0.43,18.58-0.62c5.45-0.17,10.9-0.32,16.36-0.44c3.12-0.07,6.25-0.1,9.38-0.13c5.53-0.05,11.06-0.1,16.59-0.13
					c9.75-0.05,19.5-0.13,29.26-0.12c8.71,0,17.42,0.06,26.13,0.17c6.49,0.08,12.99,0.29,19.48,0.45c6,0.14,12,0.31,17.99,0.44
					c5.58,0.12,11.16,0.19,16.74,0.29c4.66,0.09,9.32,0.2,13.98,0.31c6.3,0.15,12.59,0.31,18.89,0.44
					c7.91,0.16,15.82,0.29,23.73,0.44c4.96,0.09,9.91,0.2,14.87,0.31c6.64,0.14,13.29,0.3,19.93,0.45c4.49,0.1,8.97,0.21,13.46,0.29
					c3.92,0.07,7.84,0.08,11.76,0.15c5.4,0.09,10.81,0.2,16.21,0.31c4.78,0.09,9.57,0.2,14.35,0.3c5.06,0.1,10.12,0.21,15.17,0.29
					c6.89,0.11,13.79,0.19,20.69,0.29c6.74,0.1,13.49,0.2,20.23,0.31c3.03,0.05,6.05,0.13,9.08,0.14
					c11.54,0.06,23.08,0.12,34.62,0.15c5.93,0.01,11.86-0.04,17.79-0.08c4.22-0.03,8.43-0.09,12.65-0.15
					c6.45-0.09,12.9-0.18,19.35-0.27c3.79-0.05,7.59-0.08,11.38-0.18c7.11-0.18,14.22-0.39,21.34-0.59
					c4.46-0.13,8.92-0.26,13.38-0.42c6.49-0.22,12.98-0.47,19.46-0.7c0.22-0.01,0.44-0.01,0.67-0.02c0,0.65,0,1.29,0,1.94
					c-3.04,0.14-6.08,0.28-9.12,0.42c-6.93,0.31-13.87,0.63-20.8,0.94c-7.38,0.33-14.76,0.7-22.14,0.99
					c-5.13,0.21-10.26,0.33-15.39,0.49c-7.31,0.23-14.62,0.49-21.93,0.7c-3.5,0.1-6.99,0.1-10.49,0.15
					c-6.35,0.1-12.7,0.22-19.04,0.29c-6.87,0.08-13.75,0.14-20.62,0.15c-8.56,0.01-17.12-0.02-25.69-0.04
					c-4.39-0.01-8.78-0.02-13.18-0.05c-4.84-0.04-9.67-0.09-14.51-0.15c-8.46-0.1-16.92-0.2-25.37-0.3
					c-4.07-0.05-8.13-0.08-12.2-0.13c-3.82-0.05-7.64-0.1-11.46-0.17c-5.36-0.1-10.71-0.21-16.07-0.35
					c-7.93-0.21-15.86-0.45-23.79-0.67c-6.49-0.18-12.99-0.34-19.48-0.52c-8.1-0.22-16.21-0.46-24.31-0.67
					c-4.98-0.13-9.97-0.23-14.95-0.36c-6.49-0.17-12.99-0.39-19.48-0.55c-4.76-0.12-9.52-0.18-14.28-0.28
					c-9.37-0.2-18.74-0.41-28.11-0.61c-4.56-0.1-9.12-0.22-13.68-0.29c-6.6-0.11-13.19-0.19-19.79-0.28
					c-3.52-0.05-7.05-0.08-10.57-0.12c-6.08-0.07-12.15-0.24-18.23-0.2c-13.64,0.08-27.29,0.23-40.93,0.43
					c-5.95,0.08-11.9,0.31-17.84,0.53c-4.56,0.17-9.11,0.42-13.67,0.64c-3.57,0.17-7.13,0.32-10.7,0.54
					c-5.74,0.35-11.48,0.73-17.21,1.13c-3.51,0.24-7.02,0.49-10.53,0.79c-4.59,0.4-9.18,0.83-13.77,1.29
					c-2.12,0.21-4.23,0.49-6.33,0.74c0,2.57,0,5.09,0,7.57c3.88-0.5,7.7-1.03,11.54-1.49c5.54-0.66,11.07-1.31,16.62-1.87
					c3.89-0.4,7.8-0.66,11.71-0.94c6.5-0.46,13.01-0.92,19.51-1.31c4.48-0.27,8.96-0.43,13.44-0.63c8.62-0.39,17.23-0.82,25.85-1.13
					c7.56-0.27,15.12-0.43,22.68-0.6c7.39-0.17,14.77-0.32,22.16-0.44c5.36-0.09,10.72-0.15,16.07-0.15
					c8.29-0.01,16.57,0.02,24.86,0.08c9.63,0.06,19.25,0.17,28.88,0.26c4.44,0.04,8.88,0.1,13.32,0.15
					c5.73,0.07,11.46,0.13,17.19,0.2c4.74,0.05,9.48,0.1,14.21,0.15c4.84,0.05,9.67,0.1,14.51,0.15c5.01,0.05,10.02,0.11,15.03,0.15
					c7.91,0.05,15.83,0.08,23.74,0.13c8.26,0.05,16.52,0.11,24.79,0.17c6.03,0.04,12.06,0.1,18.08,0.15
					c6.48,0.05,12.95,0.1,19.43,0.15c7.32,0.05,14.64,0.1,21.96,0.15c6.45,0.04,12.9,0.07,19.35,0.1c5.63,0.03,11.27,0.09,16.9,0.07
					c15.36-0.05,30.72-0.14,46.08-0.22c3.13-0.02,6.25-0.08,9.37-0.15c7.78-0.16,15.57-0.33,23.35-0.5
					c5.5-0.12,11.01-0.19,16.51-0.36c7.75-0.24,15.51-0.56,23.26-0.83c4.86-0.17,9.71-0.3,14.57-0.49
					c5.42-0.21,10.85-0.48,16.27-0.71c2.85-0.12,5.7-0.24,8.54-0.36c1.95-0.08,3.9-0.16,5.85-0.24c0,0.35,0,0.69,0,1.04
					c-0.26,0.05-0.52,0.13-0.78,0.14c-1.89,0.11-3.77,0.19-5.66,0.3c-2.37,0.14-4.75,0.32-7.12,0.44c-2.33,0.12-4.67,0.2-7,0.31
					c-1.81,0.09-3.62,0.2-5.43,0.29c-1.96,0.1-3.92,0.2-5.88,0.3c-2.01,0.1-4.02,0.22-6.04,0.29c-3.23,0.12-6.45,0.2-9.68,0.3
					c-1.52,0.05-3.05,0.07-4.57,0.14c-1.96,0.09-3.92,0.22-5.89,0.3c-1.77,0.07-3.55,0.08-5.32,0.14c-2.39,0.09-4.77,0.24-7.15,0.3
					c-3.26,0.08-6.53,0.1-9.79,0.16c-2.17,0.04-4.34,0.1-6.51,0.15c-2.54,0.05-5.09,0.1-7.64,0.15c-3.17,0.05-6.33,0.12-9.5,0.15
					c-7.82,0.06-15.63,0.11-23.45,0.15c-6.43,0.03-12.85,0.05-19.28,0.06c-6.15,0-12.31-0.02-18.46-0.04
					c-13.1-0.04-26.2-0.09-39.3-0.15c-6.14-0.03-12.28-0.1-18.43-0.16c-3.89-0.04-7.77-0.09-11.66-0.15
					c-2.65-0.04-5.29-0.1-7.93-0.15c-3.29-0.05-6.58-0.12-9.87-0.15c-3.5-0.03-7-0.03-10.5-0.05c-0.07-0.03-0.14-0.05-0.2-0.08
					c-5.97-0.06-11.94-0.11-17.91-0.18c-3.74-0.04-7.47-0.1-11.21-0.15c-4.11-0.05-8.22-0.1-12.33-0.15
					c-3.13-0.04-6.25-0.1-9.38-0.09c-6.59,0.03-13.19,0.11-19.78,0.13c-3.91,0.02-7.81-0.02-11.72-0.05
					c-3.56-0.03-7.13-0.1-10.69-0.15c-3.54-0.05-7.08-0.1-10.61-0.15c-3.32-0.05-6.64-0.1-9.95-0.13c-5.33-0.05-10.67-0.11-16-0.11
					c-12.06,0-24.12,0.02-36.18,0.06c-5.03,0.02-10.07,0.11-15.1,0.17c-3.54,0.04-7.07,0.1-10.61,0.15
					c-3.69,0.05-7.38,0.09-11.07,0.15c-5.7,0.09-11.39,0.19-17.08,0.3c-1.98,0.04-3.95,0.11-5.93,0.14
					c-2.54,0.05-5.09,0.09-7.63,0.13c-2.4,0.04-4.79,0.07-7.19,0.14c-2.44,0.07-4.87,0.18-7.31,0.3c-1.92,0.09-3.84,0.23-5.76,0.32
					c-2.26,0.11-4.52,0.2-6.78,0.3c-2.31,0.1-4.62,0.19-6.93,0.3c-1.86,0.09-3.72,0.18-5.58,0.3c-1.9,0.13-3.8,0.31-5.7,0.44
					c-1.64,0.11-3.28,0.18-4.92,0.29c-2.4,0.15-4.8,0.29-7.19,0.47c-2.21,0.17-4.42,0.39-6.63,0.58c-1.8,0.16-3.6,0.31-5.4,0.46
					c-1.32,0.11-2.64,0.19-3.95,0.31c-2.01,0.18-4.02,0.39-6.04,0.59c-0.58,0.06-1.17,0.08-1.75,0.16
					c-1.71,0.23-3.41,0.52-5.12,0.72c-1.62,0.19-3.26,0.28-4.88,0.47c-2.58,0.31-5.16,0.68-7.73,1.03c-0.32,0.04-0.61,0.1-0.6,0.55
					C0.01,79.83,0,81.51,0,83.22c0.81-0.16,1.57-0.31,2.33-0.46c2.31-0.43,4.61-0.88,6.93-1.29c1.55-0.27,3.12-0.48,4.68-0.72
					c2.04-0.31,4.08-0.64,6.12-0.95c1.35-0.2,2.71-0.38,4.06-0.55c1.79-0.22,3.58-0.42,5.38-0.63c1.12-0.13,2.23-0.26,3.35-0.39
					c1.97-0.22,3.95-0.46,5.92-0.66c1.37-0.13,2.75-0.17,4.11-0.31c2.62-0.27,5.24-0.62,7.86-0.87c2.12-0.2,4.25-0.3,6.38-0.46
					c1.71-0.13,3.41-0.31,5.12-0.44c2.08-0.16,4.15-0.3,6.23-0.43c2.73-0.17,5.47-0.3,8.2-0.46c2.27-0.14,4.55-0.32,6.82-0.45
					c1.91-0.11,3.83-0.2,5.74-0.28c1.63-0.07,3.25-0.1,4.88-0.17c2.04-0.09,4.08-0.21,6.12-0.29c2.36-0.1,4.73-0.17,7.09-0.27
					c2.44-0.1,4.88-0.23,7.31-0.32c1.85-0.07,3.7-0.1,5.55-0.13c2.75-0.05,5.5-0.09,8.24-0.14c1.83-0.04,3.66-0.1,5.49-0.15
					c2.15-0.05,4.3-0.1,6.46-0.15c2.47-0.06,4.94-0.13,7.41-0.18c3.07-0.06,6.13-0.11,9.2-0.15c4.39-0.05,8.78-0.09,13.17-0.12
					c4.57-0.03,9.13-0.07,13.7-0.05c14.21,0.09,28.41,0.2,42.62,0.31c3.86,0.03,7.72,0.1,11.58,0.15c3.91,0.05,7.82,0.09,11.73,0.15
					c2.17,0.03,4.34,0.1,6.52,0.14c2.87,0.06,5.73,0.11,8.6,0.15c4.61,0.06,9.22,0.09,13.82,0.15c2.25,0.03,4.49,0.1,6.74,0.14
					c2.5,0.05,4.99,0.1,7.49,0.15c2.67,0.05,5.34,0.1,8.01,0.15c3.02,0.05,6.04,0.1,9.06,0.15c3.29,0.05,6.58,0.1,9.87,0.15
					c3.61,0.05,7.22,0.11,10.84,0.15c5.95,0.06,11.89,0.11,17.84,0.15c2.63,0.02,5.26,0,7.89,0c4.59,0.01,9.18,0.02,13.77,0.04
					c0.05,0,0.11,0,0.16,0c1.49,0,2.97,0,4.46,0c0.07,0.03,0.14,0.05,0.2,0.08c15.14,0.04,30.28,0.08,45.41,0.12
					c1.49,0,2.98,0.04,4.47,0.03c12.43-0.03,24.86-0.06,37.3-0.1c4.62-0.01,9.23-0.04,13.85-0.06c0.07-0.03,0.13-0.05,0.2-0.08
					c4.14-0.05,8.27-0.1,12.41-0.16c1.75-0.03,3.51-0.09,5.26-0.15c3.19-0.1,6.37-0.19,9.56-0.3c2.67-0.09,5.33-0.2,8-0.3
					c2.79-0.1,5.57-0.21,8.36-0.31c2.98-0.11,5.96-0.21,8.94-0.32c2.31-0.09,4.62-0.19,6.94-0.3c1.65-0.08,3.3-0.19,4.95-0.26
					c3.16-0.12,6.32-0.23,9.47-0.33c0.22-0.01,0.45,0.01,0.67,0c2.16-0.15,4.31-0.3,6.47-0.44c1.11-0.07,2.22-0.09,3.33-0.15
					c3.27-0.19,6.54-0.39,9.81-0.59c0.78-0.05,1.56-0.1,2.35-0.15c2.25-0.15,4.51-0.31,6.76-0.44c1.89-0.11,3.79-0.2,5.68-0.3
					c0.78-0.04,1.57-0.09,2.35-0.15c2.71-0.2,5.42-0.39,8.14-0.59c0,5.31,0,10.62,0,15.93c-198.62,0-397.23,0-595.85,0
					c0-27.92,0-55.85,0.01-83.77C-0.14,0.6-0.05,0.37,0,0.15z"/>
				<path class="st3" d="M595.7,66.12c-1.95,0.08-3.9,0.16-5.85,0.24c-2.85,0.12-5.7,0.24-8.54,0.36
					c-5.42,0.24-10.84,0.5-16.27,0.71c-4.86,0.19-9.71,0.32-14.57,0.49c-7.75,0.27-15.5,0.59-23.26,0.83
					c-5.5,0.17-11.01,0.24-16.51,0.36c-7.78,0.17-15.57,0.34-23.35,0.5c-3.12,0.06-6.25,0.13-9.37,0.15
					c-15.36,0.08-30.72,0.17-46.08,0.22c-5.63,0.02-11.27-0.04-16.9-0.07c-6.45-0.03-12.9-0.06-19.35-0.1
					c-7.32-0.04-14.64-0.1-21.96-0.15c-6.48-0.05-12.95-0.1-19.43-0.15c-6.03-0.05-12.06-0.1-18.08-0.15
					c-8.26-0.06-16.52-0.12-24.79-0.17c-7.91-0.05-15.83-0.08-23.74-0.13c-5.01-0.03-10.02-0.1-15.03-0.15
					c-4.84-0.05-9.67-0.1-14.51-0.15c-4.74-0.05-9.48-0.1-14.21-0.15c-5.73-0.06-11.46-0.13-17.19-0.2
					c-4.44-0.05-8.88-0.1-13.32-0.15c-9.63-0.09-19.25-0.2-28.88-0.26c-8.29-0.06-16.57-0.09-24.86-0.08
					c-5.36,0-10.72,0.06-16.07,0.15c-7.39,0.12-14.78,0.27-22.16,0.44c-7.56,0.18-15.12,0.33-22.68,0.6
					c-8.62,0.31-17.23,0.74-25.85,1.13c-4.48,0.2-8.97,0.36-13.44,0.63c-6.51,0.39-13.01,0.85-19.51,1.31
					c-3.9,0.28-7.81,0.54-11.71,0.94c-5.55,0.56-11.08,1.22-16.62,1.87c-3.83,0.46-7.66,0.99-11.54,1.49c0-2.49,0-5,0-7.57
					c2.1-0.25,4.21-0.53,6.33-0.74c4.59-0.45,9.18-0.89,13.77-1.29c3.51-0.3,7.02-0.55,10.53-0.79c5.74-0.39,11.47-0.78,17.21-1.13
					c3.56-0.22,7.13-0.36,10.7-0.54c4.55-0.22,9.11-0.48,13.67-0.64c5.95-0.22,11.89-0.45,17.84-0.53
					c13.64-0.19,27.29-0.34,40.93-0.43c6.08-0.04,12.15,0.13,18.23,0.2c3.52,0.04,7.05,0.07,10.57,0.12
					c6.6,0.09,13.19,0.17,19.79,0.28c4.56,0.08,9.12,0.19,13.68,0.29c9.37,0.21,18.74,0.41,28.11,0.61
					c4.76,0.1,9.52,0.16,14.28,0.28c6.49,0.16,12.99,0.38,19.48,0.55c4.98,0.13,9.97,0.23,14.95,0.36
					c8.1,0.22,16.21,0.45,24.31,0.67c6.49,0.18,12.99,0.34,19.48,0.52c7.93,0.22,15.86,0.46,23.79,0.67
					c5.35,0.14,10.71,0.25,16.07,0.35c3.82,0.07,7.64,0.12,11.46,0.17c4.07,0.05,8.13,0.08,12.2,0.13c8.46,0.1,16.92,0.2,25.37,0.3
					c4.84,0.05,9.67,0.11,14.51,0.15c4.39,0.03,8.78,0.04,13.18,0.05c8.56,0.02,17.12,0.06,25.69,0.04
					c6.87-0.01,13.75-0.07,20.62-0.15c6.35-0.07,12.7-0.19,19.04-0.29c3.5-0.05,7-0.05,10.49-0.15c7.31-0.21,14.62-0.47,21.93-0.7
					c5.13-0.16,10.26-0.28,15.39-0.49c7.38-0.3,14.76-0.66,22.14-0.99c6.93-0.31,13.87-0.62,20.8-0.94
					c3.04-0.14,6.08-0.28,9.12-0.42C595.7,65.03,595.7,65.58,595.7,66.12z"/>
				<path class="st1" d="M476.07,73.99c-4.62,0.02-9.23,0.04-13.85,0.06c-12.43,0.04-24.86,0.07-37.3,0.1
					c-1.49,0-2.98-0.03-4.47-0.03c-15.14-0.04-30.28-0.08-45.41-0.12c-0.07-0.03-0.14-0.05-0.2-0.08c-1.49,0-2.97,0-4.46,0
					c-0.05,0-0.11,0-0.16,0c-4.59-0.01-9.18-0.03-13.77-0.04c-2.63-0.01-5.26,0.01-7.89,0c-5.95-0.04-11.89-0.09-17.84-0.15
					c-3.61-0.04-7.22-0.1-10.84-0.15c-3.29-0.05-6.58-0.1-9.87-0.15c-3.02-0.05-6.04-0.1-9.06-0.15c-2.67-0.05-5.34-0.1-8.01-0.15
					c-2.5-0.05-4.99-0.1-7.49-0.15c-2.25-0.05-4.49-0.12-6.74-0.14c-4.61-0.06-9.22-0.1-13.82-0.15c-2.87-0.04-5.73-0.09-8.6-0.15
					c-2.17-0.04-4.34-0.11-6.52-0.14c-3.91-0.06-7.82-0.1-11.73-0.15c-3.86-0.05-7.72-0.12-11.58-0.15
					c-14.21-0.11-28.41-0.23-42.62-0.31c-4.57-0.03-9.13,0.02-13.7,0.05c-4.39,0.03-8.78,0.07-13.17,0.12
					c-3.07,0.03-6.13,0.09-9.2,0.15c-2.47,0.05-4.94,0.12-7.41,0.18c-2.15,0.05-4.3,0.1-6.46,0.15c-1.83,0.05-3.66,0.11-5.49,0.15
					c-2.75,0.06-5.5,0.09-8.24,0.14c-1.85,0.03-3.7,0.06-5.55,0.13c-2.44,0.09-4.88,0.22-7.31,0.32c-2.36,0.1-4.73,0.17-7.09,0.27
					c-2.04,0.09-4.08,0.2-6.12,0.29c-1.63,0.07-3.25,0.11-4.88,0.17c-1.91,0.08-3.83,0.17-5.74,0.28c-2.27,0.13-4.55,0.31-6.82,0.45
					c-2.73,0.17-5.47,0.3-8.2,0.46c-2.08,0.13-4.15,0.27-6.23,0.43c-1.71,0.13-3.41,0.31-5.12,0.44c-2.12,0.16-4.26,0.26-6.38,0.46
					c-2.62,0.25-5.24,0.6-7.86,0.87c-1.37,0.14-2.75,0.18-4.11,0.31c-1.98,0.19-3.95,0.43-5.92,0.66c-1.12,0.13-2.23,0.26-3.35,0.39
					c-1.79,0.21-3.59,0.41-5.38,0.63c-1.36,0.17-2.71,0.34-4.06,0.55c-2.04,0.3-4.08,0.63-6.12,0.95c-1.56,0.24-3.13,0.44-4.68,0.72
					c-2.31,0.4-4.62,0.85-6.93,1.29C1.57,82.9,0.81,83.06,0,83.22c0-1.7,0.01-3.39-0.01-5.08c0-0.45,0.28-0.51,0.6-0.55
					c2.58-0.35,5.15-0.72,7.73-1.03c1.62-0.2,3.25-0.28,4.88-0.47c1.71-0.21,3.41-0.49,5.12-0.72c0.58-0.08,1.17-0.1,1.75-0.16
					c2.01-0.2,4.02-0.4,6.04-0.59c1.32-0.12,2.64-0.2,3.95-0.31c1.8-0.15,3.6-0.3,5.4-0.46c2.21-0.19,4.42-0.41,6.63-0.58
					c2.4-0.18,4.79-0.32,7.19-0.47c1.64-0.1,3.28-0.17,4.92-0.29c1.9-0.13,3.8-0.31,5.7-0.44c1.86-0.12,3.72-0.21,5.58-0.3
					c2.31-0.11,4.62-0.2,6.93-0.3c2.26-0.1,4.52-0.19,6.78-0.3c1.92-0.09,3.84-0.23,5.76-0.32c2.44-0.11,4.87-0.22,7.31-0.3
					c2.4-0.07,4.79-0.1,7.19-0.14c2.54-0.05,5.09-0.08,7.63-0.13c1.98-0.04,3.95-0.11,5.93-0.14c5.69-0.11,11.39-0.21,17.08-0.3
					c3.69-0.06,7.38-0.1,11.07-0.15c3.54-0.05,7.07-0.1,10.61-0.15c5.03-0.06,10.07-0.16,15.1-0.17
					c12.06-0.04,24.12-0.06,36.18-0.06c5.33,0,10.67,0.06,16,0.11c3.32,0.03,6.64,0.08,9.95,0.13c3.54,0.05,7.08,0.1,10.61,0.15
					c3.56,0.05,7.13,0.11,10.69,0.15c3.91,0.04,7.81,0.07,11.72,0.05c6.59-0.03,13.19-0.11,19.78-0.13
					c3.12-0.01,6.25,0.05,9.38,0.09c4.11,0.05,8.22,0.1,12.33,0.15c3.74,0.05,7.47,0.11,11.21,0.15c5.97,0.07,11.94,0.12,17.91,0.18
					c0.07,0.03,0.14,0.05,0.2,0.08c3.5,0.01,7,0.01,10.5,0.05c3.29,0.03,6.58,0.09,9.87,0.15c2.65,0.04,5.29,0.11,7.93,0.15
					c3.89,0.06,7.77,0.11,11.66,0.15c6.14,0.06,12.28,0.13,18.43,0.16c13.1,0.06,26.2,0.11,39.3,0.15
					c6.15,0.02,12.31,0.04,18.46,0.04c6.43,0,12.85-0.02,19.28-0.06c7.82-0.04,15.63-0.09,23.45-0.15c3.17-0.03,6.33-0.09,9.5-0.15
					c2.55-0.04,5.09-0.1,7.64-0.15c2.17-0.05,4.34-0.11,6.51-0.15c3.26-0.06,6.53-0.08,9.79-0.16c2.39-0.06,4.77-0.21,7.15-0.3
					c1.77-0.07,3.55-0.07,5.32-0.14c1.96-0.08,3.92-0.21,5.89-0.3c1.52-0.07,3.05-0.09,4.57-0.14c3.23-0.1,6.45-0.19,9.68-0.3
					c2.01-0.07,4.03-0.19,6.04-0.29c1.96-0.1,3.92-0.2,5.88-0.3c1.81-0.1,3.62-0.21,5.43-0.29c2.33-0.11,4.67-0.18,7-0.31
					c2.38-0.13,4.75-0.3,7.12-0.44c1.89-0.11,3.77-0.19,5.66-0.3c0.26-0.01,0.52-0.09,0.78-0.14c0,0.5,0,0.99,0,1.49
					c-2.71,0.2-5.42,0.4-8.14,0.59c-0.78,0.06-1.57,0.11-2.35,0.15c-1.89,0.1-3.79,0.19-5.68,0.3c-2.26,0.14-4.51,0.3-6.76,0.44
					c-0.78,0.05-1.56,0.11-2.35,0.15c-3.27,0.2-6.54,0.4-9.81,0.59c-1.11,0.06-2.22,0.08-3.33,0.15c-2.16,0.14-4.31,0.3-6.47,0.44
					c-0.22,0.01-0.45,0-0.67,0c-3.16,0.11-6.32,0.21-9.47,0.33c-1.65,0.07-3.3,0.18-4.95,0.26c-2.31,0.11-4.62,0.21-6.94,0.3
					c-2.98,0.11-5.96,0.21-8.94,0.32c-2.79,0.1-5.57,0.21-8.36,0.31c-2.67,0.1-5.33,0.21-8,0.3c-3.19,0.11-6.37,0.2-9.56,0.3
					c-1.75,0.05-3.51,0.12-5.26,0.15c-4.14,0.06-8.27,0.11-12.41,0.16C476.2,73.94,476.13,73.96,476.07,73.99z"/>
				<path class="st4" d="M332.85,70.4c-0.07-0.03-0.14-0.05-0.2-0.08C332.72,70.35,332.78,70.37,332.85,70.4z"/>
				<path class="st5" d="M370.22,73.9c0.05,0,0.11,0,0.16,0C370.33,73.91,370.28,73.91,370.22,73.9z"/>
				<path class="st5" d="M374.84,73.91c0.07,0.03,0.14,0.05,0.2,0.08C374.98,73.96,374.91,73.93,374.84,73.91z"/>
				<path class="st5" d="M476.07,73.99c0.07-0.03,0.13-0.05,0.2-0.08C476.2,73.94,476.13,73.96,476.07,73.99z"/>
			</g>
		</g>
	</g>
</g>
<g id="Vrstva_2">
	<g id="XMLID_1_">
		<g>
			<polygon class="st6" points="558.43,43.34 558.45,43.24 558.43,43.22 558.8,42.89 558.75,42.98 558.54,43.27 558.45,43.34 
				558.43,43.35 			"/>
			<polygon class="st6" points="558.36,43.59 558.4,43.43 558.43,43.35 558.45,43.34 558.54,43.27 558.75,42.98 558.8,42.89 
				559.27,42.47 559.27,42.56 559.25,42.66 559.15,42.87 559.04,43.06 558.96,43.2 558.87,43.27 558.78,43.34 558.64,43.45 
				558.4,43.64 558.32,43.69 			"/>
			<polygon class="st6" points="556.51,44.27 556.62,43.99 556.81,43.55 556.86,43.45 556.9,43.34 556.97,43.22 557.04,43.1 
				557.11,43.01 557.23,42.94 557.4,42.8 557.49,42.75 557.58,42.7 557.77,42.68 557.86,42.66 557.89,42.63 557.91,42.66 
				557.93,42.73 557.93,42.77 558,42.68 558.15,42.59 558.22,42.54 558.31,42.49 558.66,42.42 558.92,42.35 559.04,42.33 
				559.13,42.35 559.2,42.38 559.25,42.4 559.27,42.47 558.8,42.89 558.82,42.8 558.8,42.73 558.78,42.7 558.73,42.68 558.66,42.68 
				558.33,42.73 558.26,42.75 558.22,42.82 558.19,42.84 558.15,42.91 558.03,42.94 557.93,42.94 557.84,42.96 557.77,43.01 
				557.7,43.06 557.56,43.2 557.42,43.41 557.33,43.57 557.14,43.8 557,44.04 556.97,44.06 556.95,44.11 557.09,44.11 557.23,44.06 
				557.35,44.01 557.49,43.97 557.68,43.83 557.96,43.64 558.24,43.45 558.38,43.38 558.43,43.35 558.4,43.43 558.36,43.59 
				558.32,43.69 558.26,43.73 558.05,43.87 557.82,44.04 557.77,44.08 557.65,44.11 557.54,44.13 557.47,44.18 557.3,44.29 
				557.19,44.34 557.09,44.36 557.02,44.41 556.93,44.46 556.74,44.48 556.62,44.51 556.53,44.48 556.51,44.44 556.48,44.41 
				556.48,44.39 			"/>
			<polygon class="st6" points="554.77,46.45 554.7,46.35 554.59,46.21 554.56,46.12 554.54,46.03 554.54,45.91 554.59,45.82 
				554.66,45.7 554.75,45.61 554.8,45.53 554.94,45.39 554.98,45.37 555.1,45.32 555.17,45.32 555.1,45.39 555.05,45.44 
				555.01,45.61 555.01,45.91 555.05,46 555.1,46.12 555.34,46.31 555.48,46.38 555.64,46.45 555.78,46.49 555.94,46.52 
				556.08,46.52 556.13,46.54 556.18,46.54 556.27,46.52 556.37,46.47 556.72,46.19 556.9,46.03 557.07,45.82 557.3,45.46 
				557.68,44.83 557.79,44.62 557.93,44.46 558,44.39 558.03,44.32 558.1,44.18 558.24,43.9 558.31,43.73 558.32,43.69 558.4,43.64 
				558.64,43.45 558.78,43.34 558.87,43.27 558.96,43.2 559.04,43.06 559.15,42.87 559.25,42.66 559.27,42.56 559.27,42.47 
				559.32,42.47 559.34,42.49 559.34,42.73 559.27,42.94 559.18,43.13 559.06,43.27 559.01,43.34 558.96,43.41 558.85,43.62 
				558.75,43.8 558.71,43.87 558.66,43.92 558.57,43.99 558.54,44.08 558.47,44.27 558.36,44.53 558.15,44.88 558,45.14 
				557.89,45.32 557.75,45.56 557.54,45.82 557.37,46 557.21,46.17 556.97,46.35 556.55,46.63 556.41,46.73 556.27,46.78 
				556.15,46.82 556.06,46.85 555.66,46.85 555.43,46.8 555.12,46.7 554.89,46.59 554.82,46.54 554.77,46.49 			"/>
			<polygon class="st6" points="552.9,41.96 552.88,41.84 552.88,41.74 552.9,41.67 552.95,41.63 553.04,41.58 553.18,41.51 
				553.3,41.49 553.39,41.49 553.46,41.53 553.49,41.6 553.49,41.67 553.44,41.77 553.37,41.86 553.28,41.93 553.13,42.03 
				553.04,42.07 552.99,42.05 			"/>
			<polygon class="st6" points="552.88,44.58 552.95,44.44 553.09,44.2 553.23,43.97 553.32,43.83 553.51,43.59 553.58,43.52 
				553.63,43.45 553.7,43.31 553.74,43.17 553.77,43.1 553.72,43.06 553.65,43.01 553.81,42.89 553.93,42.82 554.12,42.77 
				554.28,42.73 554.33,42.73 554.35,42.75 554.35,42.87 554.28,43.03 554.21,43.2 554.09,43.38 554.07,43.41 554.02,43.5 
				553.98,43.62 553.93,43.76 553.89,43.86 554.09,43.76 554.23,43.64 554.33,43.62 554.4,43.59 554.42,43.57 554.54,43.48 
				554.7,43.36 554.87,43.29 554.96,43.24 555.01,43.22 555.08,43.15 555.15,43.08 555.22,43.03 555.41,42.94 555.76,42.75 
				556.01,42.63 556.11,42.59 556.32,42.59 556.44,42.63 556.46,42.66 556.48,42.7 556.46,42.75 556.39,42.87 556.23,43.08 
				555.94,43.55 555.71,43.92 555.64,44.04 555.52,44.25 555.41,44.46 555.15,44.79 555.1,44.83 555.01,44.86 554.89,44.86 
				554.82,44.83 554.77,44.81 554.75,44.76 554.7,44.67 554.68,44.6 554.68,44.58 554.77,44.41 554.96,44.2 555.03,44.13 
				555.1,44.08 555.15,44.04 555.31,43.83 555.52,43.57 555.76,43.27 555.83,43.15 555.87,43.01 555.57,43.1 555.48,43.15 
				555.38,43.22 555.31,43.29 555.24,43.34 555.05,43.48 554.84,43.62 554.12,44.06 553.3,44.58 553.21,44.6 552.9,44.6 			"/>
			<polygon class="st6" points="551.07,44.74 551.12,44.67 551.14,44.62 551.24,44.48 551.43,44.22 551.52,44.08 551.59,43.99 
				551.71,43.83 551.87,43.59 552.01,43.34 552.17,43.08 552.13,43.06 552.08,43.03 552.06,42.96 552.1,42.89 552.24,42.77 
				552.41,42.66 552.5,42.61 552.62,42.59 552.67,42.59 552.78,42.61 552.83,42.63 552.83,42.75 552.78,42.96 552.74,43.08 
				552.67,43.17 552.53,43.36 552.22,43.76 551.82,44.25 551.68,44.44 551.54,44.58 551.47,44.62 551.36,44.69 551.24,44.74 
				551.14,44.76 551.1,44.76 			"/>
			<polygon class="st6" points="549.9,28.83 550.18,28.83 550.28,28.85 550.37,28.88 550.44,28.92 550.49,28.97 550.51,29.04 
				550.54,29.11 550.56,29.2 550.54,29.27 550.51,29.37 550.47,29.41 550.42,29.48 550.35,29.53 550.28,29.55 550.11,29.58 
				550.56,30.21 550.32,30.21 549.93,29.58 549.9,29.58 549.9,29.44 550.04,29.44 550.21,29.41 550.28,29.39 550.32,29.34 
				550.37,29.27 550.4,29.2 550.35,29.06 550.32,29.02 550.25,28.99 550.14,28.95 549.9,28.95 			"/>
			<polygon class="st6" points="549.9,28.46 549.9,28.29 550.16,28.31 550.4,28.38 550.61,28.5 550.79,28.64 550.96,28.83 
				551.07,29.04 551.14,29.27 551.17,29.51 551.14,29.77 551.07,30 550.96,30.21 550.79,30.37 550.61,30.54 550.4,30.63 
				550.16,30.7 549.9,30.72 549.9,30.58 550.11,30.56 550.32,30.49 550.51,30.4 550.68,30.26 550.79,30.12 550.89,29.93 
				550.96,29.72 550.98,29.51 550.96,29.3 550.89,29.09 550.79,28.9 550.68,28.76 550.51,28.62 550.32,28.53 550.11,28.46 			"/>
			<polygon class="st6" points="549.43,30.21 549.43,28.83 549.9,28.83 549.9,28.95 549.6,28.95 549.6,29.44 549.9,29.44 
				549.9,29.58 549.6,29.58 549.6,30.21 			"/>
			<polygon class="st6" points="548.64,29.77 548.62,29.51 548.64,29.27 548.71,29.04 548.83,28.83 548.99,28.64 549.18,28.5 
				549.41,28.38 549.65,28.31 549.9,28.29 549.9,28.46 549.67,28.46 549.46,28.53 549.27,28.62 549.11,28.76 548.99,28.9 
				548.9,29.09 548.83,29.3 548.8,29.51 548.83,29.72 548.9,29.93 548.99,30.12 549.11,30.26 549.27,30.4 549.46,30.49 
				549.67,30.56 549.9,30.58 549.9,30.72 549.65,30.7 549.41,30.63 549.18,30.54 548.99,30.37 548.83,30.21 548.71,30 			"/>
			<polygon class="st6" points="546.02,46.73 545.99,46.63 546.02,46.52 546.04,46.42 546.11,46.33 546.2,46.21 546.25,46.17 
				546.39,46 546.46,45.98 546.56,45.96 546.6,45.93 546.63,45.96 546.58,46 546.53,46.05 546.49,46.21 546.46,46.4 546.46,46.52 
				546.51,46.61 546.58,46.73 546.67,46.82 546.79,46.92 546.93,46.99 547.09,47.06 547.23,47.1 547.4,47.13 547.54,47.15 
				547.63,47.15 547.73,47.13 547.82,47.08 548.17,46.8 548.36,46.63 548.52,46.42 548.76,46.07 549.13,45.44 549.25,45.25 
				549.39,45.07 549.46,45 549.48,44.93 549.55,44.81 549.69,44.51 549.76,44.34 549.83,44.2 549.86,44.04 549.88,43.94 
				549.9,43.85 549.9,43.83 549.83,43.87 549.65,43.97 549.51,44.06 549.41,44.13 549.29,44.18 549.13,44.22 549.01,44.29 
				548.83,44.39 548.66,44.48 548.55,44.55 548.45,44.62 548.33,44.67 548.03,44.76 547.73,44.86 547.52,44.86 547.37,44.81 
				547.35,44.79 547.42,44.67 547.73,44.22 547.82,44.06 547.96,43.97 548.05,43.9 548.1,43.83 548.17,43.73 548.29,43.62 
				548.41,43.5 548.48,43.41 548.57,43.29 548.78,42.96 548.85,42.87 548.9,42.82 549.01,42.8 549.13,42.75 549.39,42.73 
				549.43,42.75 549.46,42.77 549.41,42.87 549.29,43.01 549.18,43.17 548.85,43.57 548.69,43.76 548.48,43.94 548.31,44.06 
				548.19,44.2 548.1,44.29 548.05,44.39 548.03,44.41 548.05,44.44 548.1,44.44 548.38,44.39 548.57,44.34 548.73,44.25 
				548.8,44.2 549.04,44.06 549.34,43.92 549.62,43.78 549.9,43.62 549.97,43.55 550.02,43.5 550.14,43.38 550.3,43.27 
				550.49,43.17 550.72,43.08 550.77,43.08 550.79,43.1 550.82,43.17 550.79,43.34 550.72,43.55 550.63,43.73 550.58,43.83 
				550.54,43.87 550.47,43.94 550.42,44.01 550.3,44.22 550.21,44.44 550.16,44.48 550.11,44.53 550.02,44.6 550,44.69 
				549.93,44.88 549.81,45.14 549.6,45.51 549.46,45.75 549.34,45.93 549.2,46.17 549.01,46.42 548.83,46.61 548.69,46.78 
				548.43,46.96 548.01,47.27 547.89,47.34 547.75,47.41 547.61,47.43 547.52,47.45 547.14,47.45 546.88,47.41 546.6,47.31 
				546.34,47.2 546.27,47.15 546.25,47.1 546.23,47.06 546.16,46.99 546.04,46.82 			"/>
			<polygon class="st6" points="545.43,44.79 545.71,44.27 545.88,43.99 546.02,43.76 546.11,43.62 546.6,43.03 546.72,42.89 
				546.95,42.59 547.19,42.24 547.42,41.91 547.56,41.72 547.59,41.7 547.56,41.63 547.56,41.56 547.59,41.46 547.68,41.28 
				547.7,41.16 547.73,41.04 547.7,40.88 547.84,40.79 547.96,40.72 548.08,40.67 548.19,40.65 548.26,40.65 548.38,40.67 
				548.41,40.67 548.41,40.69 548.38,40.81 548.26,41.18 548.19,41.39 548.17,41.49 548.12,41.56 547.98,41.72 547.91,41.79 
				547.75,42 547.66,42.12 547.42,42.49 547.14,42.89 546.98,43.13 546.6,43.62 546.34,43.99 546.11,44.39 546.04,44.53 
				546.02,44.62 546.13,44.58 546.3,44.48 546.32,44.58 546.37,44.65 546.2,44.76 546.04,44.9 545.97,44.93 545.83,44.97 
				545.6,45.02 545.52,45 545.48,44.95 545.48,44.93 545.45,44.93 545.41,44.83 			"/>
			<path class="st6" d="M545.88,25.65l0.04,0.07l0.1,0.04l0.09,0.05l0.09,0.02h0.21l0.12-0.02l0.07-0.05l0.1-0.04l0.04-0.07
				l0.07-0.1l0.03-0.11V25.3v-0.33l-0.03-0.12l-0.07-0.09l-0.04-0.07l-0.1-0.05l-0.07-0.02l-0.12-0.03h-0.21l-0.09,0.03l-0.09,0.02
				l-0.1,0.05l-0.04,0.07l-0.05,0.09l-0.05,0.12v0.47l0.05,0.11L545.88,25.65z M545.24,25.67l-0.04-0.16l-0.03-0.21v-0.17l0.03-0.21
				l0.04-0.16l0.1-0.14l0.14-0.12l0.16-0.07l0.19-0.07l0.23-0.02h0.5l0.23,0.02l0.19,0.07l0.16,0.07l0.14,0.12l0.09,0.14l0.05,0.16
				l0.03,0.21v0.17l-0.03,0.21l-0.05,0.16l-0.09,0.14l-0.14,0.09l-0.16,0.1l-0.19,0.04l-0.23,0.05h-0.5l-0.23-0.05L545.64,26
				l-0.16-0.1l-0.14-0.09L545.24,25.67z"/>
			<polygon class="st6" points="543.04,30.72 541.29,30.72 541.29,28.31 544.45,28.31 544.87,28.34 545.27,28.36 545.62,28.43 
				545.92,28.53 546.2,28.64 546.46,28.76 546.67,28.92 546.86,29.11 547.02,29.3 547.16,29.51 547.28,29.77 547.42,30.28 
				547.47,30.58 547.49,30.89 547.49,32.29 547.42,32.71 547.37,32.9 547.33,33.06 547.26,33.23 547.16,33.39 547.07,33.53 
				546.95,33.67 546.79,33.79 546.65,33.88 546.46,34 546.25,34.07 546.02,34.14 545.76,34.21 545.76,34.26 546.09,34.33 
				546.41,34.42 546.7,34.56 546.84,34.66 547.07,34.89 547.26,35.22 547.33,35.4 547.37,35.59 547.42,35.83 547.45,36.08 
				547.47,36.39 547.47,38.05 544.35,38.05 544.35,36.88 544.33,36.53 544.28,36.22 544.24,36.11 544.19,35.99 544.14,35.9 
				544.07,35.83 543.98,35.76 543.89,35.68 543.79,35.64 543.68,35.59 543.39,35.54 541.29,35.54 541.29,33.09 543.3,33.09 
				543.58,33.06 543.84,33.02 544.05,32.95 544.21,32.85 544.33,32.71 544.42,32.53 544.47,32.32 544.47,31.78 544.45,31.47 
				544.42,31.36 544.4,31.24 544.33,31.15 544.28,31.05 544.21,30.98 544.12,30.91 543.93,30.82 543.68,30.77 543.37,30.75 			"/>
			<polygon class="st6" points="542.67,45.77 542.46,45.77 542.34,45.75 542.22,45.68 542.27,45.61 542.29,45.44 542.32,45.21 
				542.48,45.35 542.55,45.37 542.6,45.39 542.97,44.95 543.3,44.51 544.07,43.41 544.68,42.54 544.73,42.4 544.26,42.47 
				544.03,42.49 543.98,42.49 543.93,42.52 543.72,42.49 543.49,42.45 543.44,42.38 543.42,42.31 543.54,42.28 543.63,42.26 
				544,42.21 544.68,42.14 544.85,42.1 544.99,42.05 545.55,41.23 545.9,40.86 546.11,40.6 546.2,40.43 546.27,40.32 546.3,40.27 
				546.37,40.22 546.65,39.99 546.86,39.85 547,39.76 547.16,39.73 547.37,39.76 547.33,39.9 547.28,40.08 547.21,40.34 
				547.16,40.5 547.14,40.53 547.12,40.5 547.12,40.32 547.09,40.2 547.07,40.18 547,40.15 546.91,40.18 546.58,40.53 546.25,40.9 
				545.88,41.32 545.71,41.53 545.5,41.77 545.45,41.86 545.45,41.96 545.95,41.84 546.41,41.74 546.44,41.72 546.53,41.77 
				546.56,41.79 546.53,41.86 546.46,41.91 546.32,41.96 545.95,42.1 545.62,42.19 545.48,42.24 545.27,42.26 545.06,42.49 
				544.8,42.8 544.61,43.1 544.38,43.48 544.21,43.73 543.75,44.36 543.37,44.81 542.76,45.72 			"/>
			<path class="st6" d="M541.08,24.74l-0.03,0.07v0.18l0.05,0.07l0.05,0.05l0.07,0.05l0.18,0.02l0.24,0.02l0.49-0.02v-0.14
				l-0.05-0.23l-0.04-0.07l-0.07-0.08l-0.07-0.04l-0.1-0.03l-0.23-0.02l-0.21,0.02l-0.07,0.03l-0.1,0.02l-0.04,0.05L541.08,24.74z
				 M540.75,24.48l0.16-0.07l0.19-0.05l0.21-0.02h0.49l0.24,0.02l0.18,0.07l0.17,0.07l0.14,0.09l0.09,0.12l0.07,0.17l0.03,0.16v0.28
				l-0.03,0.19l-0.04,0.16l-0.1,0.14l-0.14,0.09l-0.16,0.1l-0.21,0.04l-0.24,0.05h-0.28l-0.49-0.02l-0.33-0.03l-0.07-0.02h-0.02
				v-0.16l0.02-0.05h0.07l0.38,0.02h0.44l0.26-0.02l0.12-0.02l0.07-0.05l0.07-0.05l0.04-0.07l0.03-0.09l0.02-0.12l-0.28,0.03h-0.54
				l-0.19-0.03l-0.18-0.04l-0.17-0.05l-0.14-0.07l-0.09-0.09l-0.07-0.1l-0.03-0.14V24.9l0.03-0.12l0.07-0.12l0.07-0.09L540.75,24.48
				z"/>
			<polygon class="st6" points="541.29,35.54 538.15,35.54 538.15,38.05 535.04,38.05 535.04,28.31 541.29,28.31 541.29,30.72 
				538.15,30.72 538.15,33.09 541.29,33.09 			"/>
			<polygon class="st6" points="537.92,42.38 538.06,42.21 538.24,42.03 538.55,41.81 538.69,41.74 538.85,41.7 539.04,41.65 
				539.16,41.65 539.18,41.67 539.18,41.7 539.13,41.77 539.02,41.86 538.88,41.98 538.66,42.12 538.48,42.21 538.03,42.38 
				537.89,42.42 537.89,42.4 			"/>
			<polygon class="st6" points="537.33,45.18 537.24,45.16 537.21,45.14 537.19,45.11 537.21,45.07 537.28,45.04 537.38,45 
				537.49,44.97 537.56,44.93 537.71,44.86 537.75,44.86 537.8,44.88 537.82,44.95 537.99,45 538.22,45.04 538.43,45.09 
				538.64,45.11 538.76,45.11 538.81,45.09 538.81,45.02 538.78,44.97 538.73,44.88 538.66,44.76 538.57,44.65 538.52,44.53 
				538.5,44.44 538.5,44.34 538.52,44.27 538.57,44.18 538.69,44.04 538.73,43.97 538.81,43.9 538.92,43.83 539.18,43.71 
				539.46,43.59 539.72,43.5 540,43.45 540.23,43.45 540.37,43.48 540.47,43.5 540.51,43.55 540.51,43.59 540.49,43.64 
				540.44,43.69 540.33,43.8 540.12,43.94 539.88,44.11 539.65,44.22 539.53,44.22 539.51,44.2 539.62,44.11 539.84,43.97 
				539.95,43.85 539.98,43.8 539.98,43.76 539.95,43.73 539.91,43.71 539.84,43.69 539.67,43.71 539.55,43.73 539.39,43.78 
				539.27,43.83 539.2,43.87 539.13,43.94 539.09,44.01 539.02,44.08 538.97,44.22 538.97,44.36 539.02,44.44 539.09,44.51 
				539.13,44.58 539.16,44.62 539.2,44.69 539.27,44.81 539.27,45.04 539.23,45.09 539.09,45.18 538.9,45.28 538.73,45.32 
				538.41,45.35 538.06,45.35 537.68,45.28 			"/>
			<path class="st6" d="M536.39,24.74l-0.04,0.07v0.18l0.04,0.07l0.05,0.05l0.09,0.05l0.19,0.02l0.21,0.02l0.49-0.02v-0.26
				l-0.04-0.11l-0.05-0.07l-0.07-0.08l-0.07-0.04l-0.09-0.03l-0.21-0.02l-0.22,0.02l-0.09,0.03l-0.09,0.02l-0.05,0.05L536.39,24.74z
				 M535.76,24.92v-0.14l0.07-0.12l0.1-0.09l0.11-0.09l0.17-0.07l0.18-0.05l0.24-0.02h0.49l0.21,0.02l0.19,0.07l0.16,0.07l0.14,0.09
				l0.12,0.12l0.05,0.17l0.02,0.16v0.28l-0.02,0.19l-0.05,0.16l-0.09,0.14l-0.14,0.09l-0.17,0.1l-0.21,0.04l-0.23,0.05h-0.28
				l-0.5-0.02L536,26.04l-0.07-0.02h-0.03v-0.16l0.03-0.05H536l0.37,0.02h0.45l0.28-0.02l0.09-0.02l0.09-0.05l0.05-0.05l0.05-0.07
				l0.02-0.09l0.02-0.12l-0.25,0.03h-0.57l-0.18-0.03l-0.19-0.04l-0.16-0.05l-0.12-0.07l-0.12-0.09l-0.05-0.1L535.76,24.92z"/>
			<polygon class="st6" points="534.97,45 534.99,44.88 535.08,44.72 535.34,44.41 535.83,43.83 535.83,43.8 535.76,43.83 
				535.67,43.87 535.55,43.94 535.48,44.04 535.43,43.9 535.46,43.83 535.48,43.78 535.55,43.66 535.62,43.62 535.69,43.57 
				535.76,43.57 535.95,43.52 536.11,43.48 536.23,43.45 536.51,43.2 536.72,42.94 537.19,42.35 537.33,42.17 537.42,42.05 
				537.47,42.03 537.54,42 537.63,41.98 537.78,41.93 537.82,41.91 537.94,41.91 537.96,41.96 537.94,42 537.87,42.12 537.54,42.47 
				537.19,42.89 536.84,43.27 536.74,43.34 536.67,43.41 536.7,43.43 536.72,43.41 536.84,43.41 537.66,43.34 538.06,43.31 
				538.22,43.29 538.34,43.27 538.43,43.24 538.45,43.27 538.45,43.29 538.43,43.31 538.34,43.38 538.29,43.43 538.24,43.48 
				538.1,43.52 537.94,43.55 537.56,43.62 536.42,43.76 536.07,44.11 535.81,44.44 535.64,44.69 535.53,44.97 535.55,45 535.64,45 
				535.69,44.95 535.71,44.97 535.71,45 535.69,45.04 535.67,45.11 535.64,45.16 535.57,45.21 535.43,45.28 535.32,45.3 
				535.2,45.32 535.13,45.35 535.08,45.35 535.04,45.3 534.97,45.23 534.94,45.14 534.94,45.04 			"/>
			<polygon class="st6" points="533.54,44.69 533.87,44.21 533.89,44.19 534.01,44.08 534.05,43.97 534.12,43.87 534.22,43.85 
				534.47,43.85 534.48,43.86 534.4,43.97 534.26,44.15 534.17,44.27 534.08,44.36 533.96,44.44 533.79,44.53 			"/>
			<polygon class="st6" points="533.07,45.7 533.09,45.58 533.16,45.42 533.23,45.28 533.35,45.07 533.35,45.04 533.4,44.95 
				533.44,44.86 533.51,44.72 533.54,44.69 533.79,44.53 533.96,44.44 534.08,44.36 534.17,44.27 534.26,44.15 534.4,43.97 
				534.48,43.86 534.52,43.87 534.54,43.87 534.47,44.01 534.33,44.27 534.22,44.48 534.1,44.65 533.91,44.86 533.84,44.93 
				533.79,45 533.75,45.14 533.68,45.28 533.68,45.37 533.7,45.42 533.77,45.44 533.63,45.58 533.49,45.63 533.33,45.7 
				533.14,45.72 533.09,45.72 			"/>
			<rect x="529.65" y="28.31" class="st6" width="3.11" height="9.74"/>
			<polygon class="st6" points="531.57,45.21 531.73,44.93 531.99,44.51 532.04,44.44 532.11,44.29 532.2,44.2 532.27,44.08 
				532.37,43.99 532.48,43.92 532.67,43.8 532.76,43.76 532.86,43.71 533.07,43.69 533.16,43.69 533.19,43.66 533.21,43.69 
				533.21,43.8 533.3,43.73 533.44,43.62 533.51,43.59 533.61,43.57 533.98,43.5 534.24,43.45 534.36,43.43 534.45,43.45 
				534.52,43.48 534.57,43.52 534.59,43.59 534.57,43.69 534.54,43.78 534.48,43.86 534.47,43.85 534.22,43.85 534.12,43.87 
				534.05,43.97 534.08,43.87 534.08,43.83 534.05,43.78 534.01,43.78 533.93,43.76 533.75,43.76 533.61,43.78 533.54,43.8 
				533.49,43.85 533.47,43.9 533.4,43.94 533.28,43.97 533.09,43.99 533,44.04 532.93,44.08 532.76,44.2 532.6,44.41 532.48,44.55 
				532.27,44.79 532.09,45 532.06,45.02 532.04,45.07 532.04,45.09 532.18,45.09 532.34,45.04 532.46,45.02 532.58,44.95 
				532.81,44.86 533.09,44.67 533.42,44.51 533.58,44.44 533.65,44.39 533.75,44.32 533.87,44.21 533.54,44.69 533.51,44.72 
				533.4,44.79 533.16,44.9 532.93,45.07 532.86,45.09 532.74,45.11 532.62,45.14 532.53,45.18 532.37,45.28 532.23,45.32 
				532.13,45.35 532.06,45.39 531.95,45.42 531.78,45.44 531.66,45.44 531.57,45.42 531.55,45.37 531.55,45.35 531.52,45.32 			"/>
			<polygon class="st6" points="531.41,24.5 532.11,24.36 532.2,24.34 532.51,24.34 532.55,24.36 532.58,24.38 532.58,26.02 
				532.55,26.07 532.02,26.07 531.99,26.02 531.99,24.66 531.48,24.76 531.38,24.76 531.36,24.74 531.36,24.52 531.38,24.5 			"/>
			<path class="st7" d="M528.57,45.25l-0.04,0.03L528.57,45.25z"/>
			<polygon class="st6" points="528.41,45.02 528.47,44.95 528.6,44.88 529.18,44.55 529.32,44.44 529.39,44.41 529.46,44.39 
				529.51,44.36 529.6,44.27 529.79,44.18 529.95,44.08 530.05,44.04 530.1,44.01 530.17,43.97 530.24,43.87 530.31,43.83 
				530.49,43.76 530.84,43.57 531.1,43.45 531.2,43.41 531.29,43.38 531.41,43.41 531.52,43.45 531.57,43.48 531.57,43.5 
				531.55,43.57 531.48,43.69 531.31,43.9 531.01,44.34 530.8,44.72 530.73,44.83 530.61,45.04 530.47,45.28 530.24,45.61 
				530.17,45.63 530.07,45.65 529.95,45.65 529.88,45.63 529.84,45.61 529.81,45.56 529.77,45.46 529.74,45.39 529.77,45.37 
				529.86,45.21 530.05,45 530.1,44.95 530.17,44.88 530.24,44.83 530.4,44.65 530.61,44.39 530.84,44.06 530.91,43.94 
				530.96,43.83 530.66,43.9 530.56,43.97 530.47,44.04 530.4,44.08 530.33,44.15 530.12,44.27 529.93,44.41 529.21,44.86 
				528.57,45.25 528.74,45.14 528.69,45.07 528.69,45 528.53,45.07 528.39,45.11 			"/>
			<polygon class="st6" points="528.08,45.18 528.22,45.09 528.47,44.95 528.41,45.02 528.39,45.11 528.53,45.07 528.69,45 
				528.69,45.07 528.74,45.14 528.57,45.25 528.53,45.28 528.39,45.37 528.36,45.38 528.29,45.39 527.96,45.39 527.94,45.37 
				528.03,45.23 			"/>
			<polygon class="st6" points="527.75,45.28 527.78,45.23 528.13,44.74 528.34,44.48 528.55,44.25 528.64,44.11 529.23,43.57 
				529.37,43.43 529.65,43.15 529.95,42.82 530.24,42.52 530.4,42.33 530.42,42.31 530.42,42.21 530.45,42.14 530.47,42.07 
				530.59,41.91 530.63,41.79 530.68,41.67 530.68,41.51 530.84,41.39 530.96,41.35 531.08,41.3 531.34,41.3 531.38,41.32 
				531.41,41.32 531.41,41.35 531.38,41.46 531.2,41.84 531.08,42.05 531.03,42.12 530.99,42.19 530.82,42.33 530.73,42.42 
				530.54,42.61 530.45,42.73 530.14,43.08 529.79,43.48 529.58,43.69 529.14,44.15 528.83,44.51 528.53,44.88 528.47,44.95 
				528.22,45.09 528.08,45.18 528.03,45.23 527.94,45.37 527.96,45.39 528.29,45.39 528.36,45.38 528.29,45.42 528.15,45.44 
				527.89,45.46 527.82,45.44 527.8,45.39 527.8,45.37 527.78,45.37 			"/>
			<polygon class="st6" points="524.92,45.11 525.18,44.81 525.65,44.22 525.67,44.2 525.6,44.22 525.51,44.27 525.39,44.34 
				525.32,44.44 525.27,44.29 525.27,44.22 525.3,44.15 525.39,44.06 525.46,44.01 525.51,43.97 525.6,43.97 525.79,43.92 
				525.95,43.87 526.07,43.85 526.33,43.59 526.56,43.34 527.03,42.75 527.17,42.56 527.26,42.45 527.31,42.4 527.38,42.4 
				527.47,42.38 527.61,42.33 527.66,42.31 527.78,42.31 527.8,42.33 527.78,42.4 527.71,42.52 527.38,42.87 527.03,43.29 
				526.68,43.66 526.58,43.73 526.51,43.8 526.54,43.83 526.56,43.8 526.68,43.8 527.47,43.73 527.87,43.71 528.06,43.69 
				528.15,43.66 528.27,43.64 528.29,43.66 528.29,43.69 528.27,43.71 528.18,43.78 528.13,43.83 528.08,43.87 527.94,43.92 
				527.78,43.94 527.4,44.01 526.26,44.15 525.9,44.51 525.65,44.83 525.46,45.09 525.37,45.35 525.37,45.39 525.48,45.39 
				525.53,45.35 525.53,45.44 525.51,45.51 525.46,45.56 525.41,45.61 525.27,45.68 525.15,45.7 525.04,45.72 524.97,45.75 
				524.9,45.72 524.85,45.7 524.8,45.63 524.78,45.53 524.78,45.44 524.8,45.37 524.83,45.28 			"/>
			<path class="st6" d="M524.19,25.13l-0.04,0.05l-0.03,0.05v0.07h0.92v-0.07l-0.03-0.05l-0.09-0.09l-0.14-0.05l-0.19-0.02
				l-0.18,0.02l-0.14,0.05L524.19,25.13z M523.82,24.9l0.14-0.07l0.19-0.05l0.21-0.02l0.23-0.02l0.24,0.02l0.21,0.02l0.16,0.07
				l0.17,0.05l0.11,0.09l0.07,0.1l0.05,0.11l0.02,0.14v0.12l-0.02,0.05l-0.07,0.02h-1.41l0.03,0.09l0.02,0.07l0.05,0.05l0.07,0.02
				l0.09,0.05h0.12l0.14,0.02l0.8-0.02h0.07l0.02,0.02V26l-0.02,0.04h-0.07l-0.38,0.05h-0.63l-0.19-0.02l-0.33-0.1l-0.14-0.07
				l-0.11-0.11l-0.1-0.12l-0.02-0.07v-0.26l0.02-0.14l0.05-0.11l0.09-0.1L523.82,24.9z"/>
			<polygon class="st6" points="522.77,34.21 520.75,30.63 520.75,28.31 522.77,28.31 528.36,38.05 524.9,38.05 523.91,36.32 
				520.75,36.32 520.75,34.21 			"/>
			<polygon class="st6" points="522.95,45.65 522.91,45.56 522.91,45.46 522.93,45.39 522.98,45.35 523.07,45.28 523.21,45.23 
				523.35,45.21 523.45,45.21 523.49,45.25 523.52,45.3 523.52,45.39 523.49,45.49 523.42,45.58 523.31,45.65 523.16,45.75 
				523.09,45.79 523.02,45.77 			"/>
			<polygon class="st6" points="521.6,45.75 521.57,45.63 521.57,45.53 521.6,45.46 521.64,45.42 521.74,45.37 521.88,45.3 
				521.99,45.28 522.09,45.28 522.16,45.32 522.18,45.39 522.18,45.46 522.13,45.56 522.06,45.65 521.97,45.72 521.83,45.82 
				521.74,45.86 521.69,45.84 			"/>
			<polygon class="st6" points="520.28,45.44 520.38,45.39 520.52,45.32 520.66,45.3 520.75,45.32 520.8,45.35 520.82,45.42 
				520.82,45.49 520.8,45.61 520.73,45.68 520.61,45.77 520.47,45.84 520.4,45.89 520.33,45.86 520.26,45.77 520.21,45.65 
				520.21,45.58 520.24,45.51 			"/>
			<polygon class="st6" points="519.89,25.95 519.77,25.88 519.68,25.76 519.63,25.67 519.61,25.53 519.61,25.32 519.63,25.18 
				519.68,25.06 519.77,24.97 519.89,24.88 520.03,24.83 520.19,24.78 520.38,24.76 520.59,24.74 520.94,24.76 521.15,24.78 
				521.22,24.81 521.24,24.83 521.24,24.99 521.22,25.02 520.45,25.02 520.31,25.06 520.26,25.11 520.21,25.16 520.19,25.23 
				520.17,25.32 520.17,25.53 520.19,25.6 520.21,25.67 520.26,25.72 520.31,25.76 520.45,25.81 520.59,25.83 521.15,25.81 
				521.17,25.81 521.22,25.83 521.24,25.86 521.24,26 521.22,26.04 521.15,26.07 520.94,26.09 520.38,26.09 520.19,26.04 
				520.03,26.02 			"/>
			<polygon class="st6" points="513.24,38.05 518.76,28.31 520.75,28.31 520.75,30.63 520.73,30.58 518.79,34.21 520.75,34.21 
				520.75,36.32 517.64,36.32 516.73,38.05 			"/>
			<polygon class="st6" points="515.25,24.76 515.63,24.76 515.67,24.78 515.7,24.81 515.7,24.85 515.88,24.81 516.05,24.76 
				516.21,24.76 516.42,24.74 516.63,24.76 516.8,24.78 516.91,24.83 517.03,24.9 517.1,24.97 517.12,25.06 517.15,25.16 
				517.17,25.27 517.17,26.02 517.15,26.07 516.61,26.07 516.59,26.02 516.59,25.13 516.56,25.09 516.54,25.06 516.49,25.04 
				516.42,25.02 516.21,25.02 515.98,25.04 515.72,25.09 515.72,26.02 515.7,26.07 515.18,26.07 515.16,26.02 515.16,24.81 
				515.18,24.78 			"/>
			<polygon class="st6" points="512.6,24.57 512.53,24.59 512.11,24.59 512.02,24.55 512.02,24.34 512.07,24.31 512.11,24.29 
				512.53,24.29 512.6,24.31 512.63,24.34 512.63,24.55 			"/>
			<polygon class="st6" points="512.58,26.07 512.07,26.07 512.04,26.02 512.04,24.81 512.07,24.78 512.14,24.76 512.53,24.76 
				512.58,24.78 512.6,24.81 512.6,26.02 			"/>
			<polygon class="st6" points="504.86,32.46 512,32.46 512,34.73 504.86,34.73 504.86,38.05 501.72,38.05 501.72,28.31 
				512.35,28.31 512.35,30.68 504.86,30.68 			"/>
			<polygon class="st6" points="507.95,25.81 507.97,25.81 508.69,25.83 508.86,25.83 508.95,25.81 509,25.76 509,25.69 
				508.98,25.67 508.81,25.6 508.23,25.41 508.06,25.34 507.97,25.27 507.88,25.18 507.85,25.09 507.88,25.02 507.9,24.95 
				507.97,24.88 508.06,24.83 508.18,24.81 508.32,24.76 508.67,24.74 509.12,24.76 509.44,24.78 509.51,24.81 509.54,24.85 
				509.54,24.97 509.51,25.02 509.14,25.02 508.72,24.99 508.6,24.99 508.51,25.02 508.44,25.04 508.44,25.11 508.48,25.13 
				508.6,25.18 509.16,25.37 509.4,25.46 509.51,25.55 509.58,25.65 509.58,25.72 509.58,25.81 509.54,25.88 509.47,25.93 
				509.37,25.97 509.26,26.02 509.12,26.07 508.93,26.09 508.37,26.09 507.97,26.04 507.9,26.02 507.88,26 507.88,25.86 
				507.9,25.83 			"/>
			<polygon class="st6" points="504.62,13.69 499.07,21.93 480.18,39.55 495.63,39.55 497.95,41.63 474.3,41.63 			"/>
			<polygon class="st6" points="502.35,20.57 493.78,34.56 497.74,38.45 483.13,38.45 			"/>
		</g>
		<g>
			<polyline class="st8" points="553.88,43.87 553.89,43.86 554.09,43.76 554.23,43.64 554.33,43.62 554.4,43.59 554.42,43.57 
				554.54,43.48 554.7,43.36 554.87,43.29 554.96,43.24 555.01,43.22 555.08,43.15 555.15,43.08 555.22,43.03 555.41,42.94 
				555.76,42.75 556.01,42.63 556.11,42.59 556.32,42.59 556.44,42.63 556.46,42.66 556.48,42.7 556.46,42.75 556.39,42.87 
				556.23,43.08 555.94,43.55 555.71,43.92 555.64,44.04 555.52,44.25 555.41,44.46 555.15,44.79 555.1,44.83 555.01,44.86 
				554.89,44.86 554.82,44.83 554.77,44.81 554.75,44.76 554.7,44.67 554.68,44.6 554.68,44.58 554.77,44.41 			"/>
			<polyline class="st8" points="554.77,44.41 554.96,44.2 555.03,44.13 555.1,44.08 555.15,44.04 555.31,43.83 555.52,43.57 
				555.76,43.27 555.83,43.15 555.87,43.01 555.57,43.1 555.48,43.15 555.38,43.22 555.31,43.29 555.24,43.34 555.05,43.48 
				554.84,43.62 554.12,44.06 553.3,44.58 553.21,44.6 552.9,44.6 552.88,44.58 552.95,44.44 553.09,44.2 553.23,43.97 
				553.32,43.83 553.51,43.59 553.58,43.52 553.63,43.45 553.7,43.31 553.74,43.17 553.77,43.1 553.72,43.06 553.65,43.01 
				553.81,42.89 553.93,42.82 554.12,42.77 554.28,42.73 554.33,42.73 554.35,42.75 554.35,42.87 554.28,43.03 554.21,43.2 
				554.09,43.38 554.07,43.41 554.02,43.5 553.98,43.62 553.93,43.76 553.89,43.86 			"/>
			<polygon class="st8" points="551.71,43.83 551.87,43.59 552.01,43.34 552.17,43.08 552.13,43.06 552.08,43.03 552.06,42.96 
				552.1,42.89 552.24,42.77 552.41,42.66 552.5,42.61 552.62,42.59 552.67,42.59 552.78,42.61 552.83,42.63 552.83,42.75 
				552.78,42.96 552.74,43.08 552.67,43.17 552.53,43.36 552.22,43.76 551.82,44.25 551.68,44.44 551.54,44.58 551.47,44.62 
				551.36,44.69 551.24,44.74 551.14,44.76 551.1,44.76 551.07,44.74 551.12,44.67 551.14,44.62 551.24,44.48 551.43,44.22 
				551.52,44.08 551.59,43.99 			"/>
			<polygon class="st8" points="553.49,41.6 553.49,41.67 553.44,41.77 553.37,41.86 553.28,41.93 553.13,42.03 553.04,42.07 
				552.99,42.05 552.9,41.96 552.88,41.84 552.88,41.74 552.9,41.67 552.95,41.63 553.04,41.58 553.18,41.51 553.3,41.49 
				553.39,41.49 553.46,41.53 			"/>
			<polygon class="st8" points="546.34,43.99 546.11,44.39 546.04,44.53 546.02,44.62 546.13,44.58 546.3,44.48 546.32,44.58 
				546.37,44.65 546.2,44.76 546.04,44.9 545.97,44.93 545.83,44.97 545.6,45.02 545.52,45 545.48,44.95 545.48,44.93 545.45,44.93 
				545.41,44.83 545.43,44.79 545.71,44.27 545.88,43.99 546.02,43.76 546.11,43.62 546.6,43.03 546.72,42.89 546.95,42.59 
				547.19,42.24 547.42,41.91 547.56,41.72 547.59,41.7 547.56,41.63 547.56,41.56 547.59,41.46 547.68,41.28 547.7,41.16 
				547.73,41.04 547.7,40.88 547.84,40.79 547.96,40.72 548.08,40.67 548.19,40.65 548.26,40.65 548.38,40.67 548.41,40.67 
				548.41,40.69 548.38,40.81 548.26,41.18 548.19,41.39 548.17,41.49 548.12,41.56 547.98,41.72 547.91,41.79 547.75,42 
				547.66,42.12 547.42,42.49 547.14,42.89 546.98,43.13 546.6,43.62 			"/>
			<polygon class="st8" points="545.9,40.86 546.11,40.6 546.2,40.43 546.27,40.32 546.3,40.27 546.37,40.22 546.65,39.99 
				546.86,39.85 547,39.76 547.16,39.73 547.37,39.76 547.33,39.9 547.28,40.08 547.21,40.34 547.16,40.5 547.14,40.53 547.12,40.5 
				547.12,40.32 547.09,40.2 547.07,40.18 547,40.15 546.91,40.18 546.58,40.53 546.25,40.9 545.88,41.32 545.71,41.53 545.5,41.77 
				545.45,41.86 545.45,41.96 545.95,41.84 546.41,41.74 546.44,41.72 546.53,41.77 546.56,41.79 546.53,41.86 546.46,41.91 
				546.32,41.96 545.95,42.1 545.62,42.19 545.48,42.24 545.27,42.26 545.06,42.49 544.8,42.8 544.61,43.1 544.38,43.48 
				544.21,43.73 543.75,44.36 543.37,44.81 542.76,45.72 542.67,45.77 542.46,45.77 542.34,45.75 542.22,45.68 542.27,45.61 
				542.29,45.44 542.32,45.21 542.48,45.35 542.55,45.37 542.6,45.39 542.97,44.95 543.3,44.51 544.07,43.41 544.68,42.54 
				544.73,42.4 544.26,42.47 544.03,42.49 543.98,42.49 543.93,42.52 543.72,42.49 543.49,42.45 543.44,42.38 543.42,42.31 
				543.54,42.28 543.63,42.26 544,42.21 544.68,42.14 544.85,42.1 544.99,42.05 545.55,41.23 			"/>
			<polygon class="st8" points="525.67,44.2 525.6,44.22 525.51,44.27 525.39,44.34 525.32,44.44 525.27,44.29 525.27,44.22 
				525.3,44.15 525.39,44.06 525.46,44.01 525.51,43.97 525.6,43.97 525.79,43.92 525.95,43.87 526.07,43.85 526.33,43.59 
				526.56,43.34 527.03,42.75 527.17,42.56 527.26,42.45 527.31,42.4 527.38,42.4 527.47,42.38 527.61,42.33 527.66,42.31 
				527.78,42.31 527.8,42.33 527.78,42.4 527.71,42.52 527.38,42.87 527.03,43.29 526.68,43.66 526.58,43.73 526.51,43.8 
				526.54,43.83 526.56,43.8 526.68,43.8 527.47,43.73 527.87,43.71 528.06,43.69 528.15,43.66 528.27,43.64 528.29,43.66 
				528.29,43.69 528.27,43.71 528.18,43.78 528.13,43.83 528.08,43.87 527.94,43.92 527.78,43.94 527.4,44.01 526.26,44.15 
				525.9,44.51 525.65,44.83 525.46,45.09 525.37,45.35 525.37,45.39 525.48,45.39 525.53,45.35 525.53,45.44 525.51,45.51 
				525.46,45.56 525.41,45.61 525.27,45.68 525.15,45.7 525.04,45.72 524.97,45.75 524.9,45.72 524.85,45.7 524.8,45.63 
				524.78,45.53 524.78,45.44 524.8,45.37 524.83,45.28 524.92,45.11 525.18,44.81 525.65,44.22 			"/>
			<polygon class="st8" points="550.3,43.27 550.49,43.17 550.72,43.08 550.77,43.08 550.79,43.1 550.82,43.17 550.79,43.34 
				550.72,43.55 550.63,43.73 550.58,43.83 550.54,43.87 550.47,43.94 550.42,44.01 550.3,44.22 550.21,44.44 550.16,44.48 
				550.11,44.53 550.02,44.6 550,44.69 549.93,44.88 549.81,45.14 549.6,45.51 549.46,45.75 549.34,45.93 549.2,46.17 549.01,46.42 
				548.83,46.61 548.69,46.78 548.43,46.96 548.01,47.27 547.89,47.34 547.75,47.41 547.61,47.43 547.52,47.45 547.14,47.45 
				546.88,47.41 546.6,47.31 546.34,47.2 546.27,47.15 546.25,47.1 546.23,47.06 546.16,46.99 546.04,46.82 546.02,46.73 
				545.99,46.63 546.02,46.52 546.04,46.42 546.11,46.33 546.2,46.21 546.25,46.17 546.39,46 546.46,45.98 546.56,45.96 
				546.6,45.93 546.63,45.96 546.58,46 546.53,46.05 546.49,46.21 546.46,46.4 546.46,46.52 546.51,46.61 546.58,46.73 
				546.67,46.82 546.79,46.92 546.93,46.99 547.09,47.06 547.23,47.1 547.4,47.13 547.54,47.15 547.63,47.15 547.73,47.13 
				547.82,47.08 548.17,46.8 548.36,46.63 548.52,46.42 548.76,46.07 549.13,45.44 549.25,45.25 549.39,45.07 549.46,45 
				549.48,44.93 549.55,44.81 549.69,44.51 549.76,44.34 549.83,44.2 549.86,44.04 549.88,43.94 549.9,43.85 549.9,43.83 
				549.83,43.87 549.65,43.97 549.51,44.06 549.41,44.13 549.29,44.18 549.13,44.22 549.01,44.29 548.83,44.39 548.66,44.48 
				548.55,44.55 548.45,44.62 548.33,44.67 548.03,44.76 547.73,44.86 547.52,44.86 547.37,44.81 547.35,44.79 547.42,44.67 
				547.73,44.22 547.82,44.06 547.96,43.97 548.05,43.9 548.1,43.83 548.17,43.73 548.29,43.62 548.41,43.5 548.48,43.41 
				548.57,43.29 548.78,42.96 548.85,42.87 548.9,42.82 549.01,42.8 549.13,42.75 549.39,42.73 549.43,42.75 549.46,42.77 
				549.41,42.87 549.29,43.01 549.18,43.17 548.85,43.57 548.69,43.76 548.48,43.94 548.31,44.06 548.19,44.2 548.1,44.29 
				548.05,44.39 548.03,44.41 548.05,44.44 548.1,44.44 548.38,44.39 548.57,44.34 548.73,44.25 548.8,44.2 549.04,44.06 
				549.34,43.92 549.62,43.78 549.9,43.62 549.97,43.55 550.02,43.5 550.14,43.38 			"/>
			<polygon class="st8" points="539.23,45.09 539.09,45.18 538.9,45.28 538.73,45.32 538.41,45.35 538.06,45.35 537.68,45.28 
				537.33,45.18 537.24,45.16 537.21,45.14 537.19,45.11 537.21,45.07 537.28,45.04 537.38,45 537.49,44.97 537.56,44.93 
				537.71,44.86 537.75,44.86 537.8,44.88 537.82,44.95 537.99,45 538.22,45.04 538.43,45.09 538.64,45.11 538.76,45.11 
				538.81,45.09 538.81,45.02 538.78,44.97 538.73,44.88 538.66,44.76 538.57,44.65 538.52,44.53 538.5,44.44 538.5,44.34 
				538.52,44.27 538.57,44.18 538.69,44.04 538.73,43.97 538.81,43.9 538.92,43.83 539.18,43.71 539.46,43.59 539.72,43.5 
				540,43.45 540.23,43.45 540.37,43.48 540.47,43.5 540.51,43.55 540.51,43.59 540.49,43.64 540.44,43.69 540.33,43.8 
				540.12,43.94 539.88,44.11 539.65,44.22 539.53,44.22 539.51,44.2 539.62,44.11 539.84,43.97 539.95,43.85 539.98,43.8 
				539.98,43.76 539.95,43.73 539.91,43.71 539.84,43.69 539.67,43.71 539.55,43.73 539.39,43.78 539.27,43.83 539.2,43.87 
				539.13,43.94 539.09,44.01 539.02,44.08 538.97,44.22 538.97,44.36 539.02,44.44 539.09,44.51 539.13,44.58 539.16,44.62 
				539.2,44.69 539.27,44.81 539.27,45.04 			"/>
			<polyline class="st8" points="528.36,45.38 528.29,45.42 528.15,45.44 527.89,45.46 527.82,45.44 527.8,45.39 527.8,45.37 
				527.78,45.37 527.75,45.28 527.78,45.23 528.13,44.74 528.34,44.48 528.55,44.25 528.64,44.11 529.23,43.57 529.37,43.43 
				529.65,43.15 529.95,42.82 530.24,42.52 530.4,42.33 530.42,42.31 530.42,42.21 530.45,42.14 530.47,42.07 530.59,41.91 
				530.63,41.79 530.68,41.67 530.68,41.51 530.84,41.39 530.96,41.35 531.08,41.3 531.34,41.3 531.38,41.32 531.41,41.32 
				531.41,41.35 531.38,41.46 531.2,41.84 531.08,42.05 531.03,42.12 530.99,42.19 530.82,42.33 530.73,42.42 530.54,42.61 
				530.45,42.73 530.14,43.08 529.79,43.48 529.58,43.69 529.14,44.15 528.83,44.51 			"/>
			<polyline class="st8" points="528.83,44.51 528.53,44.88 528.47,44.95 			"/>
			<polyline class="st8" points="529.86,45.21 530.05,45 530.1,44.95 530.17,44.88 530.24,44.83 530.4,44.65 530.61,44.39 
				530.84,44.06 530.91,43.94 530.96,43.83 530.66,43.9 530.56,43.97 530.47,44.04 530.4,44.08 530.33,44.15 530.12,44.27 
				529.93,44.41 529.21,44.86 528.57,45.25 528.53,45.28 528.39,45.37 528.36,45.38 528.29,45.39 527.96,45.39 527.94,45.37 
				528.03,45.23 528.08,45.18 528.22,45.09 528.47,44.95 528.6,44.88 529.18,44.55 529.32,44.44 529.39,44.41 529.46,44.39 
				529.51,44.36 529.6,44.27 529.79,44.18 529.95,44.08 530.05,44.04 530.1,44.01 530.17,43.97 530.24,43.87 530.31,43.83 
				530.49,43.76 530.84,43.57 531.1,43.45 531.2,43.41 531.29,43.38 531.41,43.41 531.52,43.45 531.57,43.48 531.57,43.5 
				531.55,43.57 531.48,43.69 531.31,43.9 531.01,44.34 530.8,44.72 530.73,44.83 530.61,45.04 530.47,45.28 530.24,45.61 
				530.17,45.63 530.07,45.65 529.95,45.65 529.88,45.63 529.84,45.61 529.81,45.56 529.77,45.46 529.74,45.39 529.77,45.37 
				529.86,45.21 			"/>
			<polygon class="st8" points="535.83,43.8 535.76,43.83 535.67,43.87 535.55,43.94 535.48,44.04 535.43,43.9 535.46,43.83 
				535.48,43.78 535.55,43.66 535.62,43.62 535.69,43.57 535.76,43.57 535.95,43.52 536.11,43.48 536.23,43.45 536.51,43.2 
				536.72,42.94 537.19,42.35 537.33,42.17 537.42,42.05 537.47,42.03 537.54,42 537.63,41.98 537.78,41.93 537.82,41.91 
				537.94,41.91 537.96,41.96 537.94,42 537.87,42.12 537.54,42.47 537.19,42.89 536.84,43.27 536.74,43.34 536.67,43.41 
				536.7,43.43 536.72,43.41 536.84,43.41 537.66,43.34 538.06,43.31 538.22,43.29 538.34,43.27 538.43,43.24 538.45,43.27 
				538.45,43.29 538.43,43.31 538.34,43.38 538.29,43.43 538.24,43.48 538.1,43.52 537.94,43.55 537.56,43.62 536.42,43.76 
				536.07,44.11 535.81,44.44 535.64,44.69 535.53,44.97 535.55,45 535.64,45 535.69,44.95 535.71,44.97 535.71,45 535.69,45.04 
				535.67,45.11 535.64,45.16 535.57,45.21 535.43,45.28 535.32,45.3 535.2,45.32 535.13,45.35 535.08,45.35 535.04,45.3 
				534.97,45.23 534.94,45.14 534.94,45.04 534.97,45 534.99,44.88 535.08,44.72 535.34,44.41 535.83,43.83 			"/>
			<polygon class="st8" points="539.02,41.86 538.88,41.98 538.66,42.12 538.48,42.21 538.03,42.38 537.89,42.42 537.89,42.4 
				537.92,42.38 538.06,42.21 538.24,42.03 538.55,41.81 538.69,41.74 538.85,41.7 539.04,41.65 539.16,41.65 539.18,41.67 
				539.18,41.7 539.13,41.77 			"/>
			<polyline class="st8" points="559.27,42.47 559.25,42.4 559.2,42.38 559.13,42.35 559.04,42.33 558.92,42.35 558.66,42.42 
				558.31,42.49 558.22,42.54 558.15,42.59 558,42.68 557.93,42.77 557.93,42.73 557.91,42.66 557.89,42.63 557.86,42.66 
				557.77,42.68 557.58,42.7 557.49,42.75 557.4,42.8 557.23,42.94 557.11,43.01 557.04,43.1 556.97,43.22 556.9,43.34 
				556.86,43.45 556.81,43.55 556.62,43.99 556.51,44.27 556.48,44.39 556.48,44.41 556.51,44.44 556.53,44.48 556.62,44.51 
				556.74,44.48 556.93,44.46 557.02,44.41 557.09,44.36 557.19,44.34 557.3,44.29 557.47,44.18 557.54,44.13 557.65,44.11 
				557.77,44.08 557.82,44.04 558.05,43.87 558.26,43.73 558.32,43.69 			"/>
			<polyline class="st8" points="558.43,43.35 558.38,43.38 558.24,43.45 557.96,43.64 557.68,43.83 557.49,43.97 557.35,44.01 
				557.23,44.06 557.09,44.11 556.95,44.11 556.97,44.06 557,44.04 557.14,43.8 557.33,43.57 557.42,43.41 557.56,43.2 557.7,43.06 
				557.77,43.01 557.84,42.96 557.93,42.94 558.03,42.94 558.15,42.91 558.19,42.84 558.22,42.82 558.26,42.75 558.33,42.73 
				558.66,42.68 558.73,42.68 558.78,42.7 558.8,42.73 558.82,42.8 558.8,42.89 			"/>
			<polyline class="st8" points="559.27,42.47 559.32,42.47 559.34,42.49 559.34,42.73 559.27,42.94 559.18,43.13 559.06,43.27 
				559.01,43.34 558.96,43.41 558.85,43.62 558.75,43.8 558.71,43.87 558.66,43.92 558.57,43.99 558.54,44.08 558.47,44.27 
				558.36,44.53 558.15,44.88 558,45.14 557.89,45.32 557.75,45.56 557.54,45.82 557.37,46 557.21,46.17 556.97,46.35 556.55,46.63 
				556.41,46.73 556.27,46.78 556.15,46.82 556.06,46.85 555.66,46.85 555.43,46.8 555.12,46.7 554.89,46.59 554.82,46.54 
				554.77,46.49 554.77,46.45 554.7,46.35 554.59,46.21 554.56,46.12 554.54,46.03 554.54,45.91 554.59,45.82 554.66,45.7 
				554.75,45.61 554.8,45.53 554.94,45.39 554.98,45.37 555.1,45.32 555.17,45.32 555.1,45.39 555.05,45.44 555.01,45.61 
				555.01,45.91 555.05,46 555.1,46.12 555.34,46.31 555.48,46.38 555.64,46.45 555.78,46.49 555.94,46.52 556.08,46.52 
				556.13,46.54 556.18,46.54 556.27,46.52 556.37,46.47 556.72,46.19 556.9,46.03 557.07,45.82 557.3,45.46 557.68,44.83 
				557.79,44.62 557.93,44.46 558,44.39 558.03,44.32 558.1,44.18 558.24,43.9 558.31,43.73 558.32,43.69 558.36,43.59 558.4,43.43 
				558.43,43.35 558.43,43.34 558.45,43.24 558.43,43.22 558.38,43.27 			"/>
			<polyline class="st8" points="534.48,43.86 534.52,43.87 534.54,43.87 534.47,44.01 534.33,44.27 534.22,44.48 534.1,44.65 
				533.91,44.86 533.84,44.93 533.79,45 533.75,45.14 533.68,45.28 533.68,45.37 533.7,45.42 533.77,45.44 533.63,45.58 
				533.49,45.63 533.33,45.7 533.14,45.72 533.09,45.72 533.07,45.7 533.09,45.58 533.16,45.42 533.23,45.28 533.35,45.07 
				533.35,45.04 533.4,44.95 533.44,44.86 533.51,44.72 			"/>
			<polygon class="st8" points="534.48,43.86 534.54,43.78 534.57,43.69 534.59,43.59 534.57,43.52 534.52,43.48 534.45,43.45 
				534.36,43.43 534.24,43.45 533.98,43.5 533.61,43.57 533.51,43.59 533.44,43.62 533.3,43.73 533.21,43.8 533.21,43.69 
				533.19,43.66 533.16,43.69 533.07,43.69 532.86,43.71 532.76,43.76 532.67,43.8 532.48,43.92 532.37,43.99 532.27,44.08 
				532.2,44.2 532.11,44.29 532.04,44.44 531.99,44.51 531.73,44.93 531.57,45.21 531.52,45.32 531.55,45.35 531.55,45.37 
				531.57,45.42 531.66,45.44 531.78,45.44 531.95,45.42 532.06,45.39 532.13,45.35 532.23,45.32 532.37,45.28 532.53,45.18 
				532.62,45.14 532.74,45.11 532.86,45.09 532.93,45.07 533.16,44.9 533.4,44.79 533.51,44.72 533.54,44.69 533.79,44.53 
				533.96,44.44 534.08,44.36 534.17,44.27 534.26,44.15 534.4,43.97 			"/>
			<polygon class="st8" points="534.05,43.97 534.01,44.08 533.89,44.19 533.87,44.21 533.75,44.32 533.65,44.39 533.58,44.44 
				533.42,44.51 533.09,44.67 532.81,44.86 532.58,44.95 532.46,45.02 532.34,45.04 532.18,45.09 532.04,45.09 532.04,45.07 
				532.06,45.02 532.09,45 532.27,44.79 532.48,44.55 532.6,44.41 532.76,44.2 532.93,44.08 533,44.04 533.09,43.99 533.28,43.97 
				533.4,43.94 533.47,43.9 533.49,43.85 533.54,43.8 533.61,43.78 533.75,43.76 533.93,43.76 534.01,43.78 534.05,43.78 
				534.08,43.83 534.08,43.87 			"/>
			<polygon class="st8" points="520.82,45.42 520.82,45.49 520.8,45.61 520.73,45.68 520.61,45.77 520.47,45.84 520.4,45.89 
				520.33,45.86 520.26,45.77 520.21,45.65 520.21,45.58 520.24,45.51 520.28,45.44 520.38,45.39 520.52,45.32 520.66,45.3 
				520.75,45.32 520.8,45.35 			"/>
			<polygon class="st8" points="522.18,45.39 522.18,45.46 522.13,45.56 522.06,45.65 521.97,45.72 521.83,45.82 521.74,45.86 
				521.69,45.84 521.6,45.75 521.57,45.63 521.57,45.53 521.6,45.46 521.64,45.42 521.74,45.37 521.88,45.3 521.99,45.28 
				522.09,45.28 522.16,45.32 			"/>
			<polygon class="st8" points="523.52,45.3 523.52,45.39 523.49,45.49 523.42,45.58 523.31,45.65 523.16,45.75 523.09,45.79 
				523.02,45.77 522.95,45.65 522.91,45.56 522.91,45.46 522.93,45.39 522.98,45.35 523.07,45.28 523.21,45.23 523.35,45.21 
				523.45,45.21 523.49,45.25 			"/>
		</g>
	</g>
</g>
</svg>
