<?xml version="1.0" encoding="utf-8"?>
<!-- Generator: Adobe Illustrator 23.0.3, SVG Export Plug-In . SVG Version: 6.00 Build 0)  -->
<svg version="1.1" id="Layer_1" xmlns="http://www.w3.org/2000/svg" xmlns:xlink="http://www.w3.org/1999/xlink" x="0px" y="0px"
	 viewBox="0 0 166 66" style="enable-background:new 0 0 166 66;" xml:space="preserve">
<style type="text/css">
	.st0{fill:#FFFFFF;}
	.st1{fill:#063761;}
	.st2{fill-rule:evenodd;clip-rule:evenodd;fill:#004B94;}
	.st3{fill-rule:evenodd;clip-rule:evenodd;fill:#E32219;}
</style>
<g>
	<path class="st0" d="M2.8344727,64.000351C2.3823242,64.000351,2,63.6175385,2,63.16539V27.2733002
		c0-0.675293,0.6362305-1.5258789,1.2841797-1.7167969L80.8457031,2.7191017C81.375,2.5633399,82.1801758,2.4700782,83,2.4700782
		s1.625,0.0932617,2.1533203,0.2490234l77.5634766,22.8374023C163.3642578,25.7474213,164,26.5980072,164,27.2733002V63.16539
		c0,0.4521484-0.3828125,0.8349609-0.8349609,0.8349609H2.8344727z"/>
	<path class="st1" d="M83,4.4703979c0.7535934,0,1.3271561,0.0901489,1.5894089,0.1673737l77.4069595,22.791954
		c0.0012207,0.0016098,0.0024261,0.0032349,0.0036316,0.0048599v34.5654068H4V27.4345856
		c0.0012016-0.0016327,0.0024185-0.0032578,0.0036449-0.0048752L81.4106216,4.6377716
		C81.6728439,4.5605469,82.2464066,4.4703979,83,4.4703979 M83,0.4703827c-0.9857178,0-1.9714355,0.1100922-2.7192154,0.3302612
		L2.7192192,23.6381149C1.2236557,24.0784912,0,25.7143631,0,27.2734299v35.8919373
		c0,1.5590591,1.2755928,2.8346252,2.8346558,2.8346252h160.330719c1.5590363,0,2.8346252-1.2755661,2.8346252-2.8346252V27.2734299
		c0-1.5590668-1.2236633-3.1949387-2.719223-3.6353149L85.7192154,0.8006439
		C84.9714355,0.5804749,83.9857178,0.4703827,83,0.4703827L83,0.4703827z"/>
</g>
<path class="st2" d="M74.6203232,17.4382629h6.4715652v1.4385777h-4.5614014v1.0826149h4.3473816v1.3815498h-4.3473816v2.0229721
	h-1.9101639V17.4382629z M75.0051117,12.7233219L63.3022118,23.6058807h8.8949928l-2.4090118-2.364521L75.0051117,12.7233219z"/>
<path class="st3" d="M86.2091599,17.4382629h1.2258224l3.4070206,5.9257126h-2.1097641l-0.5988083-1.0541h-1.9242706v-1.2822189
	h1.2258224l-1.2258224-2.1793327V17.4382629z M84.9974518,17.4382629h1.2117081v1.4100628l-0.0140991-0.0285149l-1.183197,2.2078476
	h1.1972961v1.282217h-1.895752l-0.5558777,1.0541h-2.1238708L84.9974518,17.4382629z M91.6259995,17.4382629h1.895752v5.9257126
	h-1.895752V17.4382629z M98.7104721,17.4382629h1.9242706l0.2566299,0.0140991l0.242218,0.0144138l0.213707,0.0426159
	l0.1855011,0.0570297l0.1710892,0.0711308l0.1566696,0.0714436l0.128479,0.0996437l0.1137466,0.1137447l0.0999527,0.1140575
	l0.0855484,0.1281605l0.0711288,0.1566734l0.0855408,0.3133469l0.0285187,0.1851883l0.0144119,0.1851883v0.8548126
	l-0.042923,0.256319l-0.0285187,0.1140575l-0.028511,0.0996437l-0.0426178,0.0996456l-0.0570297,0.0996437l-0.0570374,0.0855446
	l-0.0714417,0.0855427l-0.0996399,0.0711308l-0.0855408,0.0570297l-0.1140594,0.0711288l-0.1281586,0.0429306l-0.1425705,0.042614
	l-0.1569901,0.0426159v0.0285149l0.1996002,0.0429287l0.1996002,0.0570297l0.1710892,0.0852299l0.0855408,0.0570297
	l0.1425705,0.1425724l0.1140594,0.1992912l0.0426178,0.1140575l0.0285187,0.1137447l0.028511,0.1425724l0.0144196,0.1566753
	l0.0140991,0.1851883v1.0114861h-1.895752v-0.7122402l-0.0144196-0.2137012l-0.0285187-0.1851883l-0.028511-0.0711308
	l-0.0281982-0.0714436l-0.0285187-0.0570297l-0.042923-0.0426159l-0.0570374-0.042614l-0.0570297-0.0429306l-0.0570297-0.028513
	l-0.0711288-0.0285149l-0.1710892-0.0282021h-1.2828445V20.343935h1.2258224l0.1710892-0.0140991l0.1566696-0.0285149
	l0.1284714-0.0426159l0.0996475-0.0570297l0.0711288-0.0855427l0.0570297-0.1140575l0.0285187-0.1281605v-0.3274479
	l-0.0140991-0.1851883l-0.0144196-0.0714417l-0.0140991-0.0711308l-0.042923-0.0570297l-0.0285187-0.0570278l-0.0426178-0.0426159
	l-0.0570297-0.0426159l-0.1140594-0.0570297l-0.1566696-0.0285149l-0.1855011-0.0140991l-0.1996002-0.0144157h-1.0688248v-1.4670925
	L98.7104721,17.4382629z M94.9045563,17.4382629h3.8059158v1.4670925h-1.9101639v1.4385777h1.9101639v1.4959221h-1.9101639
	v1.5241203h-1.895752V17.4382629z M73.0093994,13.5496197L61.5061035,24.2755032h9.4079437l1.4113159,1.2678032H57.928299
	L76.3879166,8.5354328L73.0093994,13.5496197z"/>
<path class="st3" d="M103.9559174,17.4238472l0.1569824,0.0144157l0.1425781,0.042614l0.1281586,0.0711308l0.1140594,0.0855446
	l0.0996399,0.1140575l0.0714417,0.1281586l0.0426178,0.1425743l0.0144119,0.1422596l-0.0144119,0.1566734l-0.0426178,0.1425743
	l-0.0714417,0.1281586l-0.0996399,0.0996437l-0.1140594,0.0996456l-0.1281586,0.0570297l-0.1425781,0.0429287l-0.1569824,0.0140991
	v-0.0855427l0.1284714-0.014101l0.1281586-0.0429287l0.1140594-0.056715l0.0996399-0.0855446l0.0714417-0.0855427
	l0.0570297-0.1140575l0.0426178-0.1281605l0.0144119-0.1281586l-0.0144119-0.1281586l-0.0426178-0.1281605l-0.0570297-0.1140575
	l-0.0714417-0.0852299l-0.0996399-0.0855446l-0.1140594-0.0570278l-0.1281586-0.0426159h-0.1284714V17.423851V17.4238472z
	 M103.9559174,18.2075291h0.0144119l0.242218,0.3844776h0.1425705l-0.2707291-0.3844776l0.0996399-0.0144138l0.0429306-0.014101
	l0.0426102-0.028513l0.0285187-0.0429287l0.0285187-0.0285149l0.0144119-0.0567169l0.0140991-0.0429287l-0.0140991-0.0570278
	l-0.0144119-0.0426159L104.3125,17.8371525l-0.028511-0.0285149l-0.0429306-0.0285149l-0.0570297-0.0144138l-0.0570297-0.014101
	h-0.1710892v0.0711308h0.1425705l0.0714417,0.0285149l0.0426178,0.0144138l0.0144196,0.0285149l0.028511,0.0852299
	l-0.0144119,0.0429287l-0.0285187,0.0426159l-0.028511,0.0285149l-0.0426178,0.014101l-0.0999603,0.0144138h-0.0855408v0.0855427
	H103.9559174z M103.1719208,18.1646004l0.0144119-0.1422596l0.0426178-0.1425724l0.0714417-0.1281605l0.0996399-0.1140575
	l0.1140594-0.0855427l0.1425781-0.0711308l0.1425705-0.0426159l0.1566772-0.0144138v0.0999565h-0.1425781l-0.1281586,0.0426159
	l-0.1140594,0.0570297l-0.0996399,0.0855427l-0.0714417,0.0852318l-0.0570297,0.1140575l-0.0426178,0.1281586l-0.0144119,0.1281586
	l0.0144119,0.1281605l0.0426178,0.1281586l0.0570297,0.1140575l0.0714417,0.0855446l0.0996399,0.0855427l0.1140594,0.0567169
	l0.1281586,0.0429287l0.1425781,0.0140991v0.0855446l-0.1566772-0.014101l-0.1425705-0.0429287l-0.1425781-0.0570278
	l-0.1140594-0.0996456l-0.0996399-0.0996456l-0.0714417-0.1281586l-0.0426178-0.1425743l-0.0144119-0.1566734V18.1646004z
	 M103.9559174,17.7516079h-0.2851486v0.8403988h0.0999527v-0.3844776h0.1851959v-0.0855427h-0.1851959v-0.2992477h0.1851959
	V17.7516079z"/>
<g>
	<path class="st1" d="M85.8346481,66c-1.5590591,0-4.1102371,0-5.6692963,0H22.1173115
		c-1.5590553,0-2.8346462-1.275589-2.8346462-2.8346443v-30.976223c0-1.5590553,1.2755909-2.8346462,2.8346462-2.8346462
		h121.7804565c1.5590668,0,2.8346558,1.2755909,2.8346558,2.8346462v30.976223c0,1.5590553-1.275589,2.8346443-2.8346558,2.8346443
		H85.8346481z"/>
</g>
</svg>
