<?xml version="1.0" encoding="utf-8"?>
<!-- Generator: Adobe Illustrator 23.0.4, SVG Export Plug-In . SVG Version: 6.00 Build 0)  -->
<svg version="1.1" id="Layer_1" xmlns="http://www.w3.org/2000/svg" xmlns:xlink="http://www.w3.org/1999/xlink" x="0px" y="0px"
	 viewBox="0 0 210 210" style="enable-background:new 0 0 210 210;" xml:space="preserve">
<style type="text/css">
	.st0{fill:#063761;}
	.st1{fill:#FFFFFF;}
	.st2{fill:#004B94;}
	.st3{fill:none;}
	.st4{fill-rule:evenodd;clip-rule:evenodd;fill:#004B94;}
	.st5{fill-rule:evenodd;clip-rule:evenodd;fill:#E32219;}
	.st6{fill-rule:evenodd;clip-rule:evenodd;fill:#E2001A;}
	.st7{fill:#87888A;}
	.st8{fill:none;stroke:#87888A;stroke-width:0.1743099;stroke-linecap:round;stroke-linejoin:round;stroke-miterlimit:1.414;}
</style>
<g>
	<circle vector-effect="non-scaling-stroke" class="st0" cx="105" cy="104.9999847" r="105"/>
</g>
<path class="st1" d="M175.4038696,90.9305344l-0.9871674-0.5800171l-0.1301575-1.1647491
	c-2.0341644-17.4747009-16.3689575-30.6251106-33.3891144-30.6304474c-1.4807892,0-2.9256287,0.12994-4.3525848,0.324852
	l-1.4986572,0.1995049l-0.744873-1.3596039c-5.9679565-10.932476-17.1948929-17.7258301-29.3012848-17.7258301
	c-12.1064529,0-23.3333969,6.793354-29.3013535,17.7258301l-0.7448578,1.3596039l-1.4986649-0.1995049
	c-1.4269638-0.194912-2.8718033-0.324852-4.3525848-0.324852c-17.0201569,0.0053368-31.3549576,13.1557465-33.389122,30.6304474
	l-0.1301537,1.1647491l-0.9871674,0.5800171c-10.5440044,6.1821289-17.0703831,17.7388-17.0961266,30.27314
	c0,19.1922302,15.0948448,34.8020782,33.6538124,34.8020782h53.8462181h53.8461609
	c18.55896,0,33.6538086-15.609848,33.6538086-34.8020782C192.4742584,108.6693344,185.947876,97.1126633,175.4038696,90.9305344z"/>
<path class="st2" d="M161.4759216,95.0735321v0.2634048l-0.0445557,0.2207947l-0.1316986,0.1762466l-0.0881195,0.1316986
	l-0.1762543,0.0881195l-0.1317139,0.0881271l-0.2207794,0.0435715h-0.3960724l-0.1762543-0.0435715l-0.1762543-0.0881271
	l-0.1762543-0.0881195l-0.0881195-0.1316986l-0.0881348-0.1762466l-0.0881195-0.2207947v-0.8802643l0.0881195-0.2198257
	l0.0881348-0.1762466l0.0881195-0.1316986l0.1762543-0.0881271l0.1762543-0.0445404l0.1762543-0.0435791h0.3960724
	l0.2207794,0.0435791l0.1317139,0.0445404l0.1762543,0.0881271l0.0881195,0.1316986l0.1316986,0.1762466l0.0445557,0.2198257
	C161.4759216,94.4566727,161.4759216,95.0735321,161.4759216,95.0735321z M162.621521,95.0735321v-0.3089142l-0.0445557-0.3960724
	l-0.0881195-0.3079453l-0.1762543-0.2643738l-0.2643585-0.2198181l-0.3079529-0.1317062l-0.352478-0.1326675l-0.4406281-0.0435791
	h-0.9248047l-0.4406281,0.0435791l-0.3524933,0.1326675l-0.3079376,0.1317062l-0.2643585,0.2198181l-0.1762543,0.2643738
	l-0.0881348,0.3079453l-0.0445404,0.3960724v0.3089142l0.0445404,0.3960724l0.0881348,0.3079529l0.1762543,0.2643661
	l0.2643585,0.1762466l0.3079376,0.1752777l0.3524933,0.0881195l0.4406281,0.0881271h0.9248047l0.4406281-0.0881271
	l0.352478-0.0881195l0.3079529-0.1752777l0.2643585-0.1762466l0.1762543-0.2643661l0.0881195-0.3079529L162.621521,95.0735321z
	 M152.6209869,94.8527451l-0.9248199,0.0445404l-0.4406128-0.0445404l-0.3524933-0.0435791l-0.1316986-0.0881271
	l-0.0881348-0.0881195l-0.0881195-0.1316986v-0.3524933l0.0435791-0.1317062l0.1326599-0.0881195l0.0881195-0.0881271
	l0.1762543-0.0445404l0.1316986-0.0435791l0.397049-0.044548l0.4396362,0.044548l0.1762543,0.0435791l0.1326752,0.0881195
	l0.1316986,0.1326675l0.0881195,0.1317062l0.0881348,0.4406128V94.8527451z M153.7230072,95.1171112v-0.527771l-0.0445557-0.3089142
	l-0.1316986-0.3079529l-0.1762543-0.2198181l-0.2643585-0.1762466l-0.3089142-0.1316986l-0.3524933-0.1326752l-0.4406281-0.0435715
	h-0.9248047l-0.3960724,0.0435715l-0.3524933,0.0881271l-0.3089142,0.1326675l-0.2643585,0.1752777l-0.1316986,0.1762466
	l-0.1326752,0.2207947l-0.0435638,0.2198181v0.0435791l0.0435638,0.2643738l0.1326752,0.1762466l0.176239,0.1762466
	l0.2643738,0.1316986l0.3079376,0.0881195l0.3524933,0.0881271l0.3524933,0.0435791h1.0129395l0.5287476-0.0435791
	l-0.0435791,0.2198257l-0.0445557,0.1762466l-0.0881195,0.1316986l-0.1316986,0.0881271l-0.1326752,0.0881195l-0.2198181,0.044548
	l-0.4841919,0.0435715h-0.8376617l-0.7049866-0.0435715h-0.1316986l-0.0445557,0.0881195v0.3079529h0.0445557l0.1316986,0.0435715
	l0.6168518,0.044548l0.9257812,0.0435791h0.5277557l0.4406281-0.0881271l0.3970337-0.0881195l0.3079529-0.1752777
	l0.2643585-0.1762466l0.1762543-0.2643661l0.0881195-0.3079529l0.0445557-0.3524933H153.7230072z M143.7669983,94.8527451
	l-0.925766,0.0445404l-0.3960724-0.0445404l-0.3524933-0.0435791l-0.1762543-0.0881271l-0.0881195-0.0881195l-0.0881195-0.1316986
	v-0.3524933l0.0881195-0.1317062l0.0881195-0.0881195l0.0881348-0.0881271l0.1762543-0.0445404l0.1762543-0.0435791
	l0.3960571-0.044548l0.397049,0.044548l0.1762543,0.0435791l0.1316986,0.0881195l0.1326599,0.1326675l0.0881348,0.1317062
	l0.0881195,0.2198181v0.4841995H143.7669983z M144.8680573,95.1171112v-0.527771l-0.0445557-0.3089142l-0.0881195-0.3079529
	l-0.2198334-0.2198181l-0.2643585-0.1762466l-0.3079529-0.1316986l-0.3524933-0.1326752l-0.3970337-0.0435715h-0.9248199
	l-0.4406128,0.0435715l-0.3524933,0.0881271l-0.3079376,0.1326675l-0.2207947,0.1752777l-0.1762543,0.1762466l-0.1316986,0.2207947
	v0.2633972l0.0435791,0.2643738l0.0881195,0.1762466l0.2207947,0.1762466l0.2198334,0.1316986l0.3089142,0.0881195
	l0.3524933,0.0881271l0.351532,0.0435791h1.0574646l0.4851685-0.0435791l-0.0445404,0.2198257l-0.0435791,0.1762466
	l-0.0881348,0.1316986l-0.0881195,0.0881271l-0.1762543,0.0881195l-0.1762543,0.044548l-0.5287476,0.0435715h-0.8366852
	l-0.7049866-0.0435715h-0.1326599l-0.0435638,0.0881195v0.3079529h0.0435638l0.1326599,0.0435715l0.6168671,0.044548
	l0.9248047,0.0435791h0.5287476l0.4406281-0.0881271l0.3960571-0.0881195l0.3089142-0.1752777l0.2634125-0.1762466
	l0.1762543-0.2643661l0.0881195-0.3079529L144.8680573,95.1171112z M134.6476898,96.4379959v-3.0814133l-0.0435791-0.044548
	l-0.0881195-0.0435715h-0.5733032l-0.176239,0.0435715l-1.3218536,0.2643738h-0.0435638l-0.0445557,0.044548v0.3960724
	l0.0445557,0.0435715h0.176239l0.9693604-0.1762466v2.5536423l0.0435791,0.0881271h1.0138855
	C134.6040955,96.526123,134.6476746,96.4379959,134.6476898,96.4379959z M120.4627304,95.0735321h-1.7179184v-0.1326675
	l0.0435715-0.0881195l0.0881271-0.0881271l0.1326752-0.0871506l0.2643738-0.0881271l0.3524857-0.0445404l0.3524933,0.0445404
	l0.2634048,0.0881271l0.1762466,0.1752777l0.0445404,0.0881195V95.0735321z M121.5637894,95.381485v-0.2198257l-0.0435715-0.2643738
	l-0.0881271-0.2198181l-0.1326752-0.1762466l-0.2198181-0.1762466l-0.3089142-0.0881195l-0.3079529-0.1317062l-0.3960648-0.0445404
	l-0.4406204-0.0435791l-0.4406128,0.0435791l-0.397049,0.0445404l-0.3524857,0.0871582l-0.2643738,0.1326675l-0.2198257,0.1762466
	l-0.1762466,0.1762466l-0.0881271,0.2198181l-0.0435715,0.2643738v0.4841995l0.0435715,0.1316986l0.1762466,0.2198257
	l0.2198257,0.2207947l0.2643738,0.1316986l0.6168594,0.1762466l0.3524933,0.0435791h1.1891785l0.7049866-0.0881271h0.1326675
	l0.0435715-0.0881195v-0.3079529l-0.0435715-0.0435715h-0.1326675l-1.4971313,0.0435715l-0.2643738-0.0435715h-0.220787
	l-0.1762466-0.0881271l-0.1316986-0.0445404l-0.0881271-0.0881271l-0.044548-0.1316986l-0.0435715-0.1762466h2.6427307
	l0.1326752-0.0435791C121.5202103,95.4696121,121.5637817,95.381485,121.5637894,95.381485z M113.3257065,96.3934479V96.130043
	l-0.0435715-0.044548l-0.0881271-0.0435715h-0.0445404l-1.0565186,0.0435715l-0.2643738-0.0435715l-0.2643738-0.0881271
	l-0.0881271-0.0881195l-0.0881271-0.0881195l-0.0445404-0.1317062l-0.0435715-0.1326675v-0.3960724l0.0435715-0.1762466
	l0.0445404-0.1316986l0.0881271-0.0881195l0.0881271-0.0881271l0.2643738-0.0881195h1.4535522l0.0435715-0.0435791v-0.3089142
	l-0.0435715-0.0435791l-0.1326675-0.0435791l-0.3960724-0.044548l-0.6604385-0.0435715l-0.3970413,0.0435715l-0.3524933,0.044548
	l-0.3079453,0.0871582l-0.2643738,0.0881195l-0.220787,0.1762466l-0.1752853,0.1762466l-0.0881195,0.2198257l-0.044548,0.2643661
	v0.3960724l0.044548,0.2643738l0.0881195,0.176239l0.1752853,0.2198257l0.220787,0.1326752l0.2643738,0.1316986l0.3079453,0.0435791
	l0.3524933,0.0881195h1.0574799l0.3960724-0.0435715l0.1326675-0.044548
	C113.2821274,96.481575,113.3256989,96.3934479,113.3257065,96.3934479z M105.6609192,96.4379959v-1.4090042l-0.044548-0.2198257
	l-0.0435715-0.1762466l-0.0435791-0.1762466l-0.1326675-0.1316986l-0.2198257-0.1326675l-0.220787-0.0871582l-0.3079453-0.0445404
	l-0.397049-0.0435791l-0.3960648,0.0435791h-0.3089142l-0.3079529,0.0881195l-0.3524857,0.0881271v-0.0881271l-0.0435791-0.0435791
	l-0.0881271-0.0445404h-0.7049789l-0.1326752,0.0445404l-0.0435715,0.0435791v2.2892685l0.0435715,0.0881271h0.9693604
	l0.0445404-0.0881271v-1.7605286l0.4841919-0.0881195l0.4406204-0.044548h0.3960648l0.1326752,0.044548l0.0881271,0.0435715
	l0.0435715,0.044548l0.044548,0.0871582v1.6733704l0.0435715,0.0881271h1.0129318
	C105.6163712,96.526123,105.6609192,96.4379959,105.6609192,96.4379959z M97.070343,96.4379959v-2.2892685l-0.0435791-0.0435791
	l-0.0881271-0.044548h-0.749527l-0.1317062,0.044548l-0.0445404,0.0435791v2.2892685l0.0445404,0.0881195h0.9693527
	C97.0267563,96.5261154,97.0703354,96.4379959,97.070343,96.4379959z M97.1148834,93.6645279v-0.3960724l-0.0445404-0.0445404
	l-0.1317062-0.0435791h-0.7931061l-0.0881271,0.0435791l-0.0881271,0.0445404v0.3960724l0.1762466,0.0881271h0.7931137
	l0.1316986-0.044548C97.0703354,93.708107,97.1148758,93.6645279,97.1148834,93.6645279z M91.3878403,95.8656769v-0.1316986
	l-0.1326752-0.1762466L91.035347,95.381485l-0.4406204-0.1762466l-1.0574799-0.3524933l-0.2198257-0.0881271l-0.0881271-0.0435715
	v-0.1317062l0.1317062-0.0445404l0.1762466-0.0435791h0.220787l0.7931137,0.0435791h0.70401l0.044548-0.0881271v-0.2198181
	l-0.044548-0.0881271l-0.1316986-0.0435791l-0.6168671-0.0445404l-0.8366852-0.0435791l-0.6614075,0.0435791l-0.2643738,0.0881195
	l-0.2198181,0.0435791l-0.1762466,0.0881195l-0.1317062,0.1326675l-0.0445404,0.1317062l-0.0435791,0.1326675l0.0435791,0.1752777
	l0.1762466,0.1762466l0.1762466,0.1326675l0.3079453,0.1316986l1.1020279,0.3524933l0.3079453,0.1317062l0.044548,0.0435715
	v0.1326675l-0.0881271,0.0881271l-0.1762466,0.0435715h-0.3089142l-1.3654327-0.0435715h-0.0435791l-0.0881271,0.0435715
	l-0.0445404,0.044548v0.2634048l0.0445404,0.044548l0.1317062,0.0435715l0.7485657,0.0881271h1.0574799l0.3524933-0.0435791
	l0.2643738-0.0881195l0.220787-0.0881271l0.1752777-0.0881195l0.1326752-0.0881271l0.0881271-0.1316986
	C91.3878326,96.0419235,91.3878326,95.8656769,91.3878403,95.8656769z"/>
<path class="st3" d="M161.4759216,95.0735321v0.2634048l-0.0445557,0.2207947l-0.1316986,0.1762466l-0.0881195,0.1316986
	l-0.1762543,0.0881195l-0.1317139,0.0881271l-0.2207794,0.0435715h-0.3960724l-0.1762543-0.0435715l-0.1762543-0.0881271
	l-0.1762543-0.0881195l-0.0881195-0.1316986l-0.0881348-0.1762466l-0.0881195-0.2207947v-0.8802643l0.0881195-0.2198257
	l0.0881348-0.1762466l0.0881195-0.1316986l0.1762543-0.0881271l0.1762543-0.0445404l0.1762543-0.0435791h0.3960724
	l0.2207794,0.0435791l0.1317139,0.0445404l0.1762543,0.0881271l0.0881195,0.1316986l0.1316986,0.1762466l0.0445557,0.2198257
	V95.0735321"/>
<path class="st3" d="M162.621521,95.0735321v-0.3089142l-0.0445557-0.3960724l-0.0881195-0.3079453l-0.1762543-0.2643738
	l-0.2643585-0.2198181l-0.3079529-0.1317062l-0.352478-0.1326675l-0.4406281-0.0435791h-0.9248047l-0.4406281,0.0435791
	l-0.3524933,0.1326675l-0.3079376,0.1317062l-0.2643585,0.2198181l-0.1762543,0.2643738l-0.0881348,0.3079453l-0.0445404,0.3960724
	v0.3089142l0.0445404,0.3960724l0.0881348,0.3079529l0.1762543,0.2643661l0.2643585,0.1762466l0.3079376,0.1752777
	l0.3524933,0.0881195l0.4406281,0.0881271h0.9248047l0.4406281-0.0881271l0.352478-0.0881195l0.3079529-0.1752777
	l0.2643585-0.1762466l0.1762543-0.2643661l0.0881195-0.3079529L162.621521,95.0735321 M152.6209717,94.8527451l-0.9248199,0.0445404
	l-0.4406128-0.0445404l-0.3524933-0.0435791l-0.1316986-0.0881195l-0.0881348-0.0881271l-0.0881195-0.1316986v-0.3524933
	l0.0435791-0.1316986l0.1326599-0.0881271l0.0881195-0.0881195l0.1762543-0.044548l0.1316986-0.0435791l0.397049-0.0445404
	l0.4396362,0.0445404l0.1762543,0.0435791l0.1326752,0.0881195l0.1316986,0.1326752l0.0881195,0.1316986l0.0881348,0.4406128
	V94.8527451"/>
<path class="st3" d="M153.7229919,95.1171112v-0.527771l-0.0445557-0.3089142l-0.1316986-0.3079529l-0.1762543-0.2198181
	l-0.2643585-0.1762466l-0.3089142-0.1316986l-0.3524933-0.1326752l-0.4406281-0.0435715h-0.9247894l-0.3960724,0.0435715
	l-0.3524933,0.0881271l-0.3089142,0.1326675l-0.2643585,0.1752777l-0.1316986,0.1762466l-0.1326752,0.2207947l-0.0435638,0.2198181
	v0.0435791l0.0435638,0.2643738l0.1326752,0.1762466l0.176239,0.1762466l0.2643738,0.1316986l0.3079376,0.0881195
	l0.3524933,0.0881271l0.3524933,0.0435791h1.0129395l0.5287476-0.0435791l-0.0435791,0.2198257l-0.0445557,0.1762466
	l-0.0881195,0.1316986l-0.1316986,0.0881271l-0.1326752,0.0881195l-0.2198181,0.044548l-0.4841919,0.0435715h-0.8376617
	l-0.7049866-0.0435715h-0.1316986l-0.0445557,0.0881195v0.3079529h0.0445557l0.1316986,0.0435715l0.6168518,0.044548
	l0.9257812,0.0435791h0.5277557l0.4406281-0.0881271l0.3970337-0.0881195l0.3079529-0.1752777l0.2643585-0.1762466
	l0.1762543-0.2643661l0.0881195-0.3079529L153.7229919,95.1171112 M143.7669983,94.8527451l-0.925766,0.0445404
	l-0.3960724-0.0445404l-0.3524933-0.0435791l-0.1762543-0.0881195l-0.0881195-0.0881271l-0.0881195-0.1316986v-0.3524933
	l0.0881195-0.1316986l0.0881195-0.0881271l0.0881348-0.0881195l0.1762543-0.044548l0.1762543-0.0435791l0.3960571-0.0445404
	l0.397049,0.0445404l0.1762543,0.0435791l0.1316986,0.0881195l0.1326599,0.1326752l0.0881348,0.1316986l0.0881195,0.2198257
	v0.4841919"/>
<path class="st3" d="M144.8680573,95.1171112v-0.527771l-0.0445557-0.3089142l-0.0881195-0.3079529l-0.2198334-0.2198181
	l-0.2643585-0.1762466l-0.3079529-0.1316986l-0.3524933-0.1326752l-0.3970337-0.0435715h-0.9248199l-0.4406128,0.0435715
	l-0.3524933,0.0881271l-0.3079376,0.1326675l-0.2207947,0.1752777l-0.1762543,0.1762466l-0.1316986,0.2207947v0.2633972
	l0.0435791,0.2643738l0.0881195,0.1762466l0.2207947,0.1762466l0.2198334,0.1316986l0.3089142,0.0881195l0.3524933,0.0881271
	l0.351532,0.0435791h1.0574646l0.4851685-0.0435791l-0.0445404,0.2198257l-0.0435791,0.1762466l-0.0881348,0.1316986
	l-0.0881195,0.0881271l-0.1762543,0.0881195l-0.1762543,0.044548l-0.5287476,0.0435715h-0.8366852l-0.7049866-0.0435715h-0.1326599
	l-0.0435638,0.0881195v0.3079529h0.0435638l0.1326599,0.0435715l0.6168671,0.044548l0.9248047,0.0435791h0.5287476
	l0.4406281-0.0881271l0.3960571-0.0881195l0.3089142-0.1752777l0.2634125-0.1762466l0.1762543-0.2643661l0.0881195-0.3079529
	L144.8680573,95.1171112 M134.6476898,96.4379959v-3.0814133l-0.0435791-0.044548l-0.0881195-0.0435715h-0.5733032
	l-0.176239,0.0435715l-1.3218536,0.2643738h-0.0435638l-0.0445557,0.044548v0.3960724l0.0445557,0.0435715h0.176239
	l0.9693604-0.1762466v2.5536423l0.0435791,0.0881271h1.0138855l0.0435791-0.0881271 M120.462738,95.0735321h-1.7179184v-0.1326675
	l0.0435715-0.0881195l0.0881271-0.0881271l0.1326752-0.0871506l0.2643661-0.0881271l0.3524933-0.0445404l0.3524933,0.0445404
	l0.2634048,0.0881271l0.1762466,0.1752777l0.0445404,0.0881195V95.0735321"/>
<path class="st3" d="M121.563797,95.381485v-0.2198257l-0.0435715-0.2643738l-0.0881271-0.2198181l-0.1326752-0.1762466
	l-0.2198181-0.1762466l-0.3089142-0.0881195l-0.3079529-0.1317062l-0.3960648-0.0445404l-0.4406204-0.0435791l-0.4406128,0.0435791
	l-0.397049,0.0445404l-0.3524857,0.0871582l-0.2643738,0.1326675l-0.2198257,0.1762466l-0.1762466,0.1762466l-0.0881271,0.2198181
	l-0.0435715,0.2643738v0.4841995l0.0435715,0.1316986l0.1762466,0.2198257l0.2198257,0.2207947l0.2643738,0.1316986
	l0.6168594,0.1762466l0.3524933,0.0435791h1.1891785l0.7049866-0.0881271h0.1326675l0.0435715-0.0881195v-0.3079529
	l-0.0435715-0.0435715h-0.1326675l-1.4971313,0.0435715l-0.2643738-0.0435715h-0.220787l-0.1762466-0.0881271l-0.1316986-0.0445404
	l-0.0881271-0.0881271l-0.044548-0.1316986l-0.0435715-0.1762466h2.6427231l0.1326752-0.0435791l0.0435715-0.0881271
	 M113.3257141,96.3934479V96.130043l-0.0435715-0.044548l-0.0881271-0.0435715h-0.0445404l-1.0565186,0.0435715
	l-0.2643738-0.0435715l-0.2643738-0.0881271l-0.0881271-0.0881195l-0.0881271-0.0881195l-0.0445404-0.1317062l-0.0435791-0.1326675
	v-0.3960724l0.0435791-0.1762466l0.0445404-0.1316986l0.0881271-0.0881195l0.0881271-0.0881271l0.2643738-0.0881195h1.4535522
	l0.0435715-0.0435791v-0.3089142l-0.0435715-0.0435791l-0.1326675-0.0435791l-0.3960724-0.044548l-0.6604385-0.0435715
	l-0.3970413,0.0435715l-0.3524933,0.044548l-0.3079453,0.0871582l-0.2643738,0.0881195l-0.2207947,0.1762466l-0.1752777,0.1762466
	l-0.0881195,0.2198257l-0.044548,0.2643661v0.3960724l0.044548,0.2643738l0.0881195,0.176239l0.1752777,0.2198257
	l0.2207947,0.1326752l0.2643738,0.1316986l0.3079453,0.0435791l0.3524933,0.0881195h1.0574799l0.3960724-0.0435715
	l0.1326675-0.044548l0.0435715-0.0881271 M105.6609268,96.4379959v-1.4090042l-0.044548-0.2198257l-0.0435715-0.1762466
	l-0.0435791-0.1762466l-0.1326675-0.1316986l-0.2198257-0.1326675l-0.220787-0.0871582l-0.3079453-0.0445404l-0.397049-0.0435791
	l-0.3960648,0.0435791h-0.3089142l-0.3079529,0.0881195l-0.3524857,0.0881271v-0.0881271l-0.0435791-0.0435791l-0.0881271-0.0445404
	h-0.7049789l-0.1326752,0.0445404l-0.0435715,0.0435791v2.2892685l0.0435715,0.0881271h0.9693604l0.0445404-0.0881271v-1.7605286
	l0.4841919-0.0881195l0.4406204-0.044548h0.3960648l0.1326752,0.044548l0.0881271,0.0435715l0.0435715,0.044548l0.044548,0.0871582
	v1.6733704l0.0435715,0.0881271h1.0129318L105.6609268,96.4379959 M97.0703506,96.4379959v-2.2892685l-0.0435791-0.0435791
	l-0.0881271-0.044548h-0.7495346l-0.1316986,0.044548l-0.0445404,0.0435791v2.2892685l0.0445404,0.0881195h0.9693527
	l0.0435791-0.0881195 M97.1148987,93.6645279v-0.3960724l-0.0445404-0.0445404L96.938652,93.180336H96.145546l-0.0881271,0.0435791
	l-0.0881271,0.0445404v0.3960724l0.1762466,0.0881271h0.7931061l0.1317062-0.044548l0.0445404-0.0435791 M91.3878555,95.8656769
	v-0.1316986l-0.1326752-0.1762466l-0.2198181-0.1762466l-0.4406204-0.1762466l-1.0574799-0.3524933l-0.2198257-0.0881271
	l-0.0881271-0.0435715v-0.1317062l0.1317062-0.0445404l0.1762466-0.0435791h0.220787l0.7931061,0.0435791h0.7040176
	l0.044548-0.0881271v-0.2198181l-0.044548-0.0881271l-0.1316986-0.0435791l-0.6168671-0.0445404l-0.8366852-0.0435791
	l-0.6614075,0.0435791l-0.2643738,0.0881195l-0.2198181,0.0435791l-0.1762466,0.0881195l-0.1317062,0.1326675l-0.0445404,0.1317062
	l-0.0435791,0.1326675l0.0435791,0.1752777l0.1762466,0.1762466l0.1762466,0.1326675l0.3079453,0.1316986l1.1020279,0.3524933
	l0.3079453,0.1317062l0.044548,0.0435715v0.1326675l-0.0881271,0.0881271l-0.1762466,0.0435715H89.713501l-1.3654327-0.0435715
	h-0.0435791L88.216362,96.085495l-0.0445404,0.044548v0.2634048l0.0445404,0.044548l0.1317062,0.0435715l0.7485657,0.0881271
	h1.0574799l0.3524933-0.0435791l0.2643738-0.0881195l0.220787-0.0881271l0.1752777-0.0881195l0.1326752-0.0881271
	l0.0881271-0.1316986v-0.1762466"/>
<path class="st4" d="M76.5860367,100.7521667h20.0001221v4.4458694H82.4893265v3.3457794h13.4354248v4.2696228H82.4893265v6.2519226
	h-5.9032898V100.7521667z M77.7752228,86.1808243l-36.1673622,33.6321259H69.097496l-7.4449692-7.307457
	C61.6525269,112.5054932,77.7752228,86.1808243,77.7752228,86.1808243z"/>
<path class="st5" d="M112.4009018,100.7521667h3.7883377l10.5292892,18.3131866h-6.5201569l-1.8505936-3.2576599h-5.9468765
	v-3.9626465h3.7883377l-3.7883377-6.7351379C112.4009018,105.1099091,112.4009018,100.7521591,112.4009018,100.7521667z
	 M108.6561508,100.7521667h3.744751v4.3577423l-0.0435715-0.0881195l-3.6566391,6.8232651h3.7002106v3.9626389h-5.8587494
	l-1.7179184,3.2576599h-6.563736C98.260498,119.0653534,108.6561432,100.7521667,108.6561508,100.7521667z M129.1414337,100.7521667
	h5.8587494v18.3131866h-5.8587494V100.7521667z M151.0357208,100.7521667h5.9468842l0.7931061,0.0435715l0.7485657,0.044548
	l0.6604462,0.1317062l0.5732727,0.1762466l0.5287476,0.2198257l0.4841919,0.220787l0.397049,0.3079529l0.351532,0.3515244
	l0.3089142,0.3524933l0.2643585,0.3960648l0.2198334,0.4841995l0.2643585,0.9683838l0.0881348,0.572319l0.0445557,0.572319
	v2.6417618l-0.1326752,0.7921448l-0.0881195,0.3524857l-0.0881348,0.3079529l-0.1316986,0.3079453l-0.1762543,0.3079529
	l-0.1762543,0.2643661l-0.2207794,0.2643661l-0.3079376,0.2198257l-0.2643738,0.1762466l-0.3524933,0.2198257l-0.3960571,0.1326675
	l-0.4406281,0.1317062l-0.4851685,0.1316986v0.0881271l0.6168518,0.1326675l0.6168671,0.1762466l0.5287476,0.2634048
	l0.2643585,0.176239l0.4406128,0.4406204l0.3524933,0.6158981l0.1317139,0.3524933l0.0881195,0.3515244l0.0881195,0.4406128
	l0.0445557,0.4841995l0.0435791,0.5723114v3.1259613h-5.8587494v-2.201149l-0.0445557-0.6604385l-0.0881195-0.5723114
	l-0.0881348-0.2198257l-0.0871429-0.2207947l-0.0881348-0.1762466l-0.1326599-0.1317062l-0.1762543-0.1316986l-0.1762543-0.1326675
	l-0.1762543-0.0881271l-0.2198334-0.0881195l-0.5287323-0.0871582h-3.9645691v-4.623085h3.7883453l0.5287323-0.0435715
	l0.4842072-0.0881271l0.3970337-0.1316986l0.3079376-0.1762466l0.2198334-0.2643661l0.1762543-0.3524933l0.0881348-0.3960724
	v-1.0119629l-0.0435791-0.572319l-0.0445557-0.2207947l-0.0435791-0.2198257l-0.1326599-0.1762466l-0.0881195-0.176239
	l-0.1317139-0.1317062l-0.1762543-0.1316986l-0.352478-0.1762466l-0.4842072-0.0881271l-0.5732727-0.0435715l-0.6168671-0.044548
	h-3.3031616v-4.5339966L151.0357208,100.7521667z M139.2736816,100.7521667h11.7620392v4.533989h-5.9032898v4.4458694h5.9032898
	v4.6230927h-5.9032898v4.7102356h-5.8587494V100.7521667z M71.6075592,88.7344666l-35.550499,33.1479263h29.0748825
	l4.3616257,3.9180984H25l57.0487213-52.5621719L71.6075592,88.7344666z"/>
<path class="st6" d="M167.2465515,100.7076187l0.4851685,0.044548l0.4406128,0.1316986l0.3960724,0.2198257l0.3524933,0.2643738
	l0.3079376,0.3524857l0.2207947,0.3960724l0.1316986,0.4406204l0.0445404,0.4396439l-0.0445404,0.4841995l-0.1316986,0.4406128
	l-0.2207947,0.3960724l-0.3079376,0.3079529l-0.3524933,0.3079453l-0.3960724,0.1762466l-0.4406128,0.1326675l-0.4851685,0.0435791
	v-0.2643738l0.3970337-0.0435715l0.3960724-0.1326675l0.3524933-0.1752777l0.3079376-0.2643738l0.2207947-0.2643661
	l0.1762543-0.3524933l0.1316986-0.3960724l0.0445557-0.3960724l-0.0445557-0.3960724l-0.1316986-0.3960648l-0.1762543-0.3524933
	l-0.2207947-0.2634048l-0.3079376-0.2643661l-0.3524933-0.1762466l-0.3960724-0.1316986h-0.3970337v-0.3089218V100.7076187z
	 M167.2465515,103.1295547h0.0445404l0.7485657,1.1882172h0.4406128l-0.8366852-1.1882172l0.3079376-0.044548l0.1326752-0.0435715
	l0.1316986-0.0881271l0.0881195-0.1326675l0.0881348-0.0881195l0.0445557-0.1752853l0.0435638-0.1326675l-0.0435638-0.1762466
	l-0.0445557-0.1316986l-0.0435791-0.1317062l-0.0881195-0.0881195l-0.1326752-0.0881271l-0.1762543-0.044548l-0.176239-0.0435715
	h-0.5287476v0.2198257h0.4406128l0.2207947,0.0881195l0.1316986,0.044548l0.0445557,0.0881271l0.0881195,0.2633972
	l-0.0445557,0.1326675l-0.0881195,0.1317062l-0.0881195,0.0881195l-0.1317139,0.0435791l-0.3089142,0.044548h-0.2643585v0.2643661
	H167.2465515z M164.8236389,102.9968872l0.0445557-0.4396515l0.1316986-0.4406128l0.2207947-0.3960724l0.3079376-0.3524933
	l0.3524933-0.2643661l0.4406128-0.2198257l0.4406281-0.1317062l0.4841919-0.044548v0.3089218h-0.4406281l-0.3960571,0.1316986
	l-0.3524933,0.1762466l-0.3079376,0.2643661l-0.2207947,0.2634048l-0.1762543,0.3524933l-0.1316986,0.3960724l-0.0445557,0.3960648
	l0.0445557,0.3960724l0.1316986,0.3960724l0.1762543,0.3524933l0.2207947,0.2643661l0.3079376,0.2643738l0.3524933,0.1752777
	l0.3960571,0.1326675l0.4406281,0.0435791v0.2643661l-0.4841919-0.0435791l-0.4406281-0.1326675l-0.4406128-0.1762466
	l-0.3524933-0.3079453l-0.3079376-0.3079529l-0.2207947-0.3960724l-0.1316986-0.4406128l-0.0445557-0.4841995V102.9968872z
	 M167.2465515,101.7205505h-0.8812408v2.5972137h0.3089142v-1.1882095h0.5723267v-0.2643661h-0.5723267v-0.9248123h0.5723267
	V101.7205505z"/>
<path class="st5" d="M167.2465515,100.7076187l0.4851685,0.044548l0.4406128,0.1316986l0.3960724,0.2198257l0.3524933,0.2643738
	l0.3079376,0.3524857l0.2207947,0.3960724l0.1316986,0.4406204l0.0445404,0.4396439l-0.0445404,0.4841995l-0.1316986,0.4406128
	l-0.2207947,0.3960724l-0.3079376,0.3079529l-0.3524933,0.3079453l-0.3960724,0.1762466l-0.4406128,0.1326675l-0.4851685,0.0435791
	v-0.2643738l0.3970337-0.0435715l0.3960724-0.1326675l0.3524933-0.1752777l0.3079376-0.2643738l0.2207947-0.2643661
	l0.1762543-0.3524933l0.1316986-0.3960724l0.0445557-0.3960724l-0.0445557-0.3960724l-0.1316986-0.3960648l-0.1762543-0.3524933
	l-0.2207947-0.2634048l-0.3079376-0.2643661l-0.3524933-0.1762466l-0.3960724-0.1316986h-0.3970337v-0.3089218V100.7076187z
	 M167.2465515,103.1295547h0.0445404l0.7485657,1.1882172h0.4406128l-0.8366852-1.1882172l0.3079376-0.044548l0.1326752-0.0435715
	l0.1316986-0.0881271l0.0881195-0.1326675l0.0881348-0.0881195l0.0445557-0.1752853l0.0435638-0.1326675l-0.0435638-0.1762466
	l-0.0445557-0.1316986l-0.0435791-0.1317062l-0.0881195-0.0881195l-0.1326752-0.0881271l-0.1762543-0.044548l-0.176239-0.0435715
	h-0.5287476v0.2198257h0.4406128l0.2207947,0.0881195l0.1316986,0.044548l0.0445557,0.0881271l0.0881195,0.2633972
	l-0.0445557,0.1326675l-0.0881195,0.1317062l-0.0881195,0.0881195l-0.1317139,0.0435791l-0.3089142,0.044548h-0.2643585v0.2643661
	H167.2465515z M164.8236389,102.9968872l0.0445557-0.4396515l0.1316986-0.4406128l0.2207947-0.3960724l0.3079376-0.3524933
	l0.3524933-0.2643661l0.4406128-0.2198257l0.4406281-0.1317062l0.4841919-0.044548v0.3089218h-0.4406281l-0.3960571,0.1316986
	l-0.3524933,0.1762466l-0.3079376,0.2643661l-0.2207947,0.2634048l-0.1762543,0.3524933l-0.1316986,0.3960724l-0.0445557,0.3960648
	l0.0445557,0.3960724l0.1316986,0.3960724l0.1762543,0.3524933l0.2207947,0.2643661l0.3079376,0.2643738l0.3524933,0.1752777
	l0.3960571,0.1326675l0.4406281,0.0435791v0.2643661l-0.4841919-0.0435791l-0.4406281-0.1326675l-0.4406128-0.1762466
	l-0.3524933-0.3079453l-0.3079376-0.3079529l-0.2207947-0.3960724l-0.1316986-0.4406128l-0.0445557-0.4841995V102.9968872z
	 M167.2465515,101.7205505h-0.8812408v2.5972137h0.3089142v-1.1882095h0.5723267v-0.2643661h-0.5723267v-0.9248123h0.5723267
	V101.7205505z"/>
<path class="st7" d="M176.4094238,131.0384979l0.3524933-0.3960571l0.1326599-0.1317139l0.1316986-0.0881195l0.0881348-0.0881195
	l0.3089142-0.3960724l0.3960724-0.4841919l0.4406128-0.5723267l0.1316986-0.2198181l0.0881348-0.2643738l-0.5723267,0.176239
	l-0.1762543,0.0881348l-0.1762543,0.1316986l-0.1316986,0.1316986l-0.1326599,0.0881348l-0.3524933,0.2643738l-0.3960724,0.2643738
	l-1.3654327,0.8366852l-1.5426331,0.9683838l-0.1752777,0.0435791h-0.573288l-0.0435791-0.0435791l0.1317139-0.2643738
	l0.2643585-0.4406128l0.2643585-0.4396515l0.1762543-0.2643738l0.3524933-0.4406281l0.1317139-0.1316986l0.0881195-0.1316986
	l0.1326599-0.2643738l0.0881348-0.2643738l0.0435638-0.1316986l-0.0881195-0.0881348l-0.1316986-0.0881195l0.3079376-0.2198181
	l0.2207947-0.1326752l0.3524933-0.0881271l0.3079376-0.0881271h0.0881195l0.0445557,0.044548v0.2198257l-0.1326599,0.3079376
	l-0.1317139,0.3089142l-0.2207794,0.351532l-0.0435791,0.0445404l-0.0881195,0.1752777l-0.0881348,0.2207947l-0.0881195,0.2643738
	l-0.0881348,0.2198181l0.3960724-0.2198181l0.2643585-0.2207947l0.1762543-0.0435791l0.1326599-0.0445404l0.0435791-0.0435791
	l0.2198334-0.176239l0.3089142-0.2198181l0.3079376-0.1326752l0.1762543-0.0881348l0.0881348-0.0435638l0.1326599-0.1317139
	l0.1316986-0.1326599l0.1326599-0.0881348l0.3524933-0.176239l0.6604462-0.3515244l0.4841919-0.2198257l0.1762543-0.0881271
	h0.397049l0.2198334,0.0881271l0.0445404,0.0435791l0.0435791,0.0881271l-0.0435791,0.0881271l-0.1326599,0.2198181
	l-0.3079376,0.3960724l-0.5287476,0.8802643l-0.4406128,0.7049713l-0.1317139,0.2198334l-0.2207794,0.3960571l-0.2198334,0.3960724
	l-0.4851685,0.6168671l-0.0881195,0.0881195l-0.1762543,0.0435791h-0.2198029l-0.1326599-0.0435791l-0.0881348-0.0445404
	l-0.0435791-0.0881195l-0.0881195-0.1762543l-0.0445557-0.1316986v-0.0435791l0.1762543-0.3089142V131.0384979z"/>
<path class="st8" d="M176.4094238,131.0384979l0.3524933-0.3960571l0.1326599-0.1317139l0.1316986-0.0881195l0.0881348-0.0881195
	l0.3089142-0.3960724l0.3960724-0.4841919l0.4406128-0.5723267l0.1316986-0.2198181l0.0881348-0.2643738l-0.5723267,0.176239
	l-0.1762543,0.0881348l-0.1762543,0.1316986l-0.1316986,0.1316986l-0.1326599,0.0881348l-0.3524933,0.2643738l-0.3960724,0.2643738
	l-1.3654327,0.8366852l-1.5426331,0.9683838l-0.1752777,0.0435791h-0.573288l-0.0435791-0.0435791l0.1317139-0.2643738
	l0.2643585-0.4406128l0.2643585-0.4396515l0.1762543-0.2643738l0.3524933-0.4406281l0.1317139-0.1316986l0.0881195-0.1316986
	l0.1326599-0.2643738l0.0881348-0.2643738l0.0435638-0.1316986l-0.0881195-0.0881348l-0.1316986-0.0881195l0.3079376-0.2198181
	l0.2207947-0.1326752l0.3524933-0.0881271l0.3079376-0.0881271h0.0881195l0.0445557,0.044548v0.2198257l-0.1326599,0.3079376
	l-0.1317139,0.3089142l-0.2207794,0.351532l-0.0435791,0.0445404l-0.0881195,0.1752777l-0.0881348,0.2207947l-0.0881195,0.2643738
	l-0.0881348,0.2198181l0.3960724-0.2198181l0.2643585-0.2207947l0.1762543-0.0435791l0.1326599-0.0445404l0.0435791-0.0435791
	l0.2198334-0.176239l0.3089142-0.2198181l0.3079376-0.1326752l0.1762543-0.0881348l0.0881348-0.0435638l0.1326599-0.1317139
	l0.1316986-0.1326599l0.1326599-0.0881348l0.3524933-0.176239l0.6604462-0.3515244l0.4841919-0.2198257l0.1762543-0.0881271
	h0.397049l0.2198334,0.0881271l0.0445404,0.0435791l0.0435791,0.0881271l-0.0435791,0.0881271l-0.1326599,0.2198181
	l-0.3079376,0.3960724l-0.5287476,0.8802643l-0.4406128,0.7049713l-0.1317139,0.2198334l-0.2207794,0.3960571l-0.2198334,0.3960724
	l-0.4851685,0.6168671l-0.0881195,0.0881195l-0.1762543,0.0435791h-0.2198029l-0.1326599-0.0435791l-0.0881348-0.0445404
	l-0.0435791-0.0881195l-0.0881195-0.1762543l-0.0445557-0.1316986v-0.0435791l0.1762543-0.3089142"/>
<path class="st7" d="M170.6387939,129.9384155l0.3089294-0.4406281l0.2633972-0.4841919l0.3089142-0.4841919l-0.0881195-0.0435791
	l-0.0881348-0.0445404l-0.0445404-0.1316986l0.0881195-0.1316986l0.2643738-0.2207947l0.3089142-0.2198181l0.1762543-0.0881271
	l0.2198181-0.0435791h0.0881348l0.2207794,0.0435791l0.0881348,0.0445404v0.2198257l-0.0881348,0.3960571l-0.0881195,0.2198334
	l-0.1326599,0.176239l-0.2643738,0.3524933l-0.5723114,0.7485657l-0.7485657,0.9238434l-0.2643585,0.3524933l-0.2643738,0.2643738
	l-0.1326599,0.0881195l-0.2198334,0.1317139l-0.2207794,0.0881195l-0.1762543,0.0435791h-0.0881348l-0.0435638-0.0435791
	l0.0881195-0.1326599l0.0435791-0.0871582l0.1762543-0.2643738l0.3524933-0.4841919l0.1762543-0.2643738l0.1326599-0.176239
	l0.2198181-0.3079529H170.6387939z"/>
<path class="st8" d="M170.6387939,129.9384155l0.3089294-0.4406281l0.2633972-0.4841919l0.3089142-0.4841919l-0.0881195-0.0435791
	l-0.0881348-0.0445404l-0.0445404-0.1316986l0.0881195-0.1316986l0.2643738-0.2207947l0.3089142-0.2198181l0.1762543-0.0881271
	l0.2198181-0.0435791h0.0881348l0.2207794,0.0435791l0.0881348,0.0445404v0.2198257l-0.0881348,0.3960571l-0.0881195,0.2198334
	l-0.1326599,0.176239l-0.2643738,0.3524933l-0.5723114,0.7485657l-0.7485657,0.9238434l-0.2643585,0.3524933l-0.2643738,0.2643738
	l-0.1326599,0.0881195l-0.2198334,0.1317139l-0.2207794,0.0881195l-0.1762543,0.0435791h-0.0881348l-0.0435638-0.0435791
	l0.0881195-0.1326599l0.0435791-0.0871582l0.1762543-0.2643738l0.3524933-0.4841919l0.1762543-0.2643738l0.1326599-0.176239
	l0.2198181-0.3079529"/>
<path class="st7" d="M173.9865265,125.7559509v0.1326675l-0.0881348,0.1762466l-0.1316986,0.1752777l-0.1762543,0.1326675
	l-0.2643585,0.1762543l-0.1762543,0.0881271l-0.0881348-0.044548l-0.1762543-0.1762466l-0.0435791-0.2198257v-0.1762466
	l0.0435791-0.1316986l0.0881348-0.0881271l0.1762543-0.0881195l0.2643585-0.1316986l0.2198334-0.044548h0.1762543
	l0.1326599,0.0881195l0.0435791,0.1317062L173.9865265,125.7559509z"/>
<path class="st8" d="M173.9865265,125.7559509v0.1326675l-0.0881348,0.1762466l-0.1316986,0.1752777l-0.1762543,0.1326675
	l-0.2643585,0.1762543l-0.1762543,0.0881271l-0.0881348-0.044548l-0.1762543-0.1762466l-0.0435791-0.2198257v-0.1762466
	l0.0435791-0.1316986l0.0881348-0.0881271l0.1762543-0.0881195l0.2643585-0.1316986l0.2198334-0.044548h0.1762543
	l0.1326599,0.0881195l0.0435791,0.1317062"/>
<path class="st7" d="M160.5511169,130.2463684l-0.4406281,0.7485657l-0.1326599,0.2643738l-0.0435791,0.176239l0.2198334-0.0881348
	l0.3089142-0.176239l0.0435791,0.176239l0.0881195,0.1317139l-0.3079376,0.2198181l-0.3089142,0.2643738l-0.1316986,0.0435791
	l-0.2643738,0.0881195l-0.4406128,0.0881348l-0.1326599-0.0435791l-0.0871582-0.0881348v-0.0445404h-0.0445557l-0.0881195-0.1752777
	l0.0445557-0.0881195l0.527771-0.968399l0.3089142-0.5287323l0.2643585-0.4396515l0.1762543-0.2643738l0.9248199-1.101059
	l0.2207794-0.2633972l0.4396515-0.5723267l0.4406128-0.6604385l0.4406128-0.6168671l0.2643738-0.3515244l0.0445557-0.0445404
	l-0.0445557-0.1317062v-0.1326675l0.0445557-0.1752777l0.176239-0.3524933l0.0435791-0.2198257l0.0445557-0.2207947
	l-0.0445557-0.3079453l0.2643738-0.1762466l0.2207794-0.1317062l0.2198334-0.0881195l0.2198334-0.0435791h0.1326599
	l0.2198334,0.0435791h0.0445404v0.0435715l-0.0445404,0.2207947l-0.2198334,0.7040176l-0.1326599,0.3960724l-0.0435791,0.1762466
	l-0.0881195,0.1317062l-0.2643738,0.3089142l-0.1316986,0.1316986l-0.3089142,0.3960724l-0.1762543,0.2198257l-0.4406281,0.7049789
	l-0.5287323,0.7485657l-0.3079529,0.4396515l-0.7049713,0.9248199l-0.4842072,0.70401L160.5511169,130.2463684z"/>
<path class="st8" d="M160.5511169,130.2463684l-0.4406281,0.7485657l-0.1326599,0.2643738l-0.0435791,0.176239l0.2198334-0.0881348
	l0.3089142-0.176239l0.0435791,0.176239l0.0881195,0.1317139l-0.3079376,0.2198181l-0.3089142,0.2643738l-0.1316986,0.0435791
	l-0.2643738,0.0881195l-0.4406128,0.0881348l-0.1326599-0.0435791l-0.0871582-0.0881348v-0.0445404h-0.0445557l-0.0881195-0.1752777
	l0.0445557-0.0881195l0.527771-0.968399l0.3089142-0.5287323l0.2643585-0.4396515l0.1762543-0.2643738l0.9248199-1.101059
	l0.2207794-0.2633972l0.4396515-0.5723267l0.4406128-0.6604385l0.4406128-0.6168671l0.2643738-0.3515244l0.0445557-0.0445404
	l-0.0445557-0.1317062v-0.1326675l0.0445557-0.1752777l0.176239-0.3524933l0.0435791-0.2198257l0.0445557-0.2207947
	l-0.0445557-0.3079453l0.2643738-0.1762466l0.2207794-0.1317062l0.2198334-0.0881195l0.2198334-0.0435791h0.1326599
	l0.2198334,0.0435791h0.0445404v0.0435715l-0.0445404,0.2207947l-0.2198334,0.7040176l-0.1326599,0.3960724l-0.0435791,0.1762466
	l-0.0881195,0.1317062l-0.2643738,0.3089142l-0.1316986,0.1316986l-0.3089142,0.3960724l-0.1762543,0.2198257l-0.4406281,0.7049789
	l-0.5287323,0.7485657l-0.3079529,0.4396515l-0.7049713,0.9248199l-0.4842072,0.70401"/>
<path class="st7" d="M159.7134552,124.347908l0.3970337-0.4841919l0.1762543-0.3089142l0.1316986-0.2198257l0.0445557-0.0881271
	l0.1316986-0.0881195l0.5287476-0.4396515l0.3960724-0.2643661l0.2643585-0.1762466l0.3089142-0.0435715l0.3960724,0.0435715
	l-0.0881195,0.2643661l-0.0881348,0.3524933l-0.1316986,0.4841995l-0.0881348,0.3079453l-0.0445404,0.0435791l-0.0435791-0.0435791
	v-0.3524933l-0.0445557-0.2198257l-0.0435791-0.044548l-0.1326599-0.0435715l-0.1762543,0.0435715l-0.6158905,0.6604462
	l-0.6168518,0.7049866l-0.7049866,0.7921371l-0.3089142,0.3960724l-0.3960724,0.4406204l-0.0881195,0.1752777v0.1762466
	l0.9248047-0.2198257l0.8812408-0.1762466l0.0445404-0.0435791l0.1762543,0.0881271l0.0435791,0.0435715l-0.0435791,0.1317062
	l-0.1326599,0.0881195l-0.2643585,0.0881271l-0.7049866,0.2643661l-0.6168518,0.1762466l-0.2634125,0.0881271l-0.3970337,0.0435791
	l-0.3960724,0.4406128l-0.4851685,0.5723267l-0.3524933,0.5723114l-0.4406128,0.7040253l-0.3079529,0.4841919l-0.8812256,1.1882019
	l-0.7049866,0.8366852l-1.1446381,1.7169647l-0.1762543,0.0881195h-0.397049l-0.2198334-0.0435791l-0.2207794-0.1326599
	l0.0881195-0.1316986l0.0445557-0.3079529l0.0435791-0.4406281l0.3089142,0.2643738l0.1316986,0.0435791l0.0881195,0.0445404
	l0.7049866-0.8366852l0.6168671-0.8366852l1.4535522-2.0684814l1.1455994-1.6288223l0.0881348-0.2643738l-0.8812408,0.1317062
	l-0.4406281,0.0445404h-0.0881195l-0.0881195,0.0435791l-0.3960724-0.0435791l-0.4406281-0.0881271l-0.0881195-0.1326675
	l-0.0445557-0.1317062l0.2207947-0.0435715l0.1762543-0.0445404l0.7049866-0.0881271l1.277298-0.1317062l0.3079376-0.0881271
	l0.2643738-0.0881271l1.0574646-1.5407028l0.6604614-0.7040176V124.347908z"/>
<path class="st8" d="M159.7134552,124.347908l0.3970337-0.4841919l0.1762543-0.3089142l0.1316986-0.2198257l0.0445557-0.0881271
	l0.1316986-0.0881195l0.5287476-0.4396515l0.3960724-0.2643661l0.2643585-0.1762466l0.3089142-0.0435715l0.3960724,0.0435715
	l-0.0881195,0.2643661l-0.0881348,0.3524933l-0.1316986,0.4841995l-0.0881348,0.3079453l-0.0445404,0.0435791l-0.0435791-0.0435791
	v-0.3524933l-0.0445557-0.2198257l-0.0435791-0.044548l-0.1326599-0.0435715l-0.1762543,0.0435715l-0.6158905,0.6604462
	l-0.6168518,0.7049866l-0.7049866,0.7921371l-0.3089142,0.3960724l-0.3960724,0.4406204l-0.0881195,0.1752777v0.1762466
	l0.9248047-0.2198257l0.8812408-0.1762466l0.0445404-0.0435791l0.1762543,0.0881271l0.0435791,0.0435715l-0.0435791,0.1317062
	l-0.1326599,0.0881195l-0.2643585,0.0881271l-0.7049866,0.2643661l-0.6168518,0.1762466l-0.2634125,0.0881271l-0.3970337,0.0435791
	l-0.3960724,0.4406128l-0.4851685,0.5723267l-0.3524933,0.5723114l-0.4406128,0.7040253l-0.3079529,0.4841919l-0.8812256,1.1882019
	l-0.7049866,0.8366852l-1.1446381,1.7169647l-0.1762543,0.0881195h-0.397049l-0.2198334-0.0435791l-0.2207794-0.1326599
	l0.0881195-0.1316986l0.0445557-0.3079529l0.0435791-0.4406281l0.3089142,0.2643738l0.1316986,0.0435791l0.0881195,0.0445404
	l0.7049866-0.8366852l0.6168671-0.8366852l1.4535522-2.0684814l1.1455994-1.6288223l0.0881348-0.2643738l-0.8812408,0.1317062
	l-0.4406281,0.0445404h-0.0881195l-0.0881195,0.0435791l-0.3960724-0.0435791l-0.4406281-0.0881271l-0.0881195-0.1326675
	l-0.0445557-0.1317062l0.2207947-0.0435715l0.1762543-0.0445404l0.7049866-0.0881271l1.277298-0.1317062l0.3079376-0.0881271
	l0.2643738-0.0881271l1.0574646-1.5407028l0.6604614-0.7040176"/>
<path class="st7" d="M121.6519165,130.6424408l-0.1316986,0.0445404l-0.1762466,0.0881195l-0.220787,0.1317139l-0.1317062,0.176239
	l-0.0881271-0.2643738v-0.1316986l0.0435791-0.1326752l0.1762466-0.1752777l0.1326675-0.0881195l0.0881271-0.0881348h0.1762466
	l0.3524933-0.0881195l0.3079453-0.0881348l0.220787-0.0445404l0.4841995-0.4841919l0.4406128-0.4841919l0.8812408-1.10009
	l0.2643738-0.3524933l0.176239-0.2198257l0.0881271-0.0881271h0.1317062l0.1762466-0.0445404l0.2643738-0.0871506
	l0.0881271-0.044548h0.2198181l0.0445404,0.044548l-0.0445404,0.1316986l-0.1316986,0.2198257l-0.6168671,0.6604385
	l-0.6604385,0.7921448l-0.6614075,0.7049866l-0.1762466,0.1316986l-0.1317062,0.1316986l0.0435791,0.0445404l0.0445404-0.0445404
	h0.2198257l1.4980927-0.1316986l0.7485657-0.0435791l0.3524933-0.0445404l0.1762466-0.0435791l0.220787-0.0445404
	l0.0435791,0.0445404v0.0435791l-0.0435791,0.0445404l-0.1762466,0.1316986l-0.0881271,0.0881348l-0.0881271,0.0881195
	l-0.2643738,0.0881348l-0.3089142,0.0435791l-0.7040176,0.1326599l-2.1595078,0.2634125l-0.6604385,0.6604309l-0.4841919,0.6168671
	l-0.3524933,0.4841919l-0.1762466,0.4841919v0.0881348h0.2198257l0.0881195-0.0881348v0.1762543l-0.0435715,0.1316986
	l-0.0881271,0.0881348l-0.0881271,0.0881195l-0.2643738,0.1316986l-0.220787,0.0445404l-0.2198257,0.0435791l-0.1326675,0.0445404
	l-0.1316986-0.0445404l-0.0881271-0.0435791l-0.0881271-0.1326599l-0.0435791-0.1762543v-0.1752777l0.0435791-0.1326599
	l0.0445404-0.1762543l0.1752777-0.3079376l0.4851608-0.5723267l0.8812408-1.1000977l0.0435715-0.0445404H121.6519165z"/>
<path class="st8" d="M121.6519165,130.6424408l-0.1316986,0.0445404l-0.1762466,0.0881195l-0.220787,0.1317139l-0.1317062,0.176239
	l-0.0881271-0.2643738v-0.1316986l0.0435791-0.1326752l0.1762466-0.1752777l0.1326675-0.0881195l0.0881271-0.0881348h0.1762466
	l0.3524933-0.0881195l0.3079453-0.0881348l0.220787-0.0445404l0.4841995-0.4841919l0.4406128-0.4841919l0.8812408-1.10009
	l0.2643738-0.3524933l0.176239-0.2198257l0.0881271-0.0881271h0.1317062l0.1762466-0.0445404l0.2643738-0.0871506
	l0.0881271-0.044548h0.2198181l0.0445404,0.044548l-0.0445404,0.1316986l-0.1316986,0.2198257l-0.6168671,0.6604385
	l-0.6604385,0.7921448l-0.6614075,0.7049866l-0.1762466,0.1316986l-0.1317062,0.1316986l0.0435791,0.0445404l0.0445404-0.0445404
	h0.2198257l1.4980927-0.1316986l0.7485657-0.0435791l0.3524933-0.0445404l0.1762466-0.0435791l0.220787-0.0445404
	l0.0435791,0.0445404v0.0435791l-0.0435791,0.0445404l-0.1762466,0.1316986l-0.0881271,0.0881348l-0.0881271,0.0881195
	l-0.2643738,0.0881348l-0.3089142,0.0435791l-0.7040176,0.1326599l-2.1595078,0.2634125l-0.6604385,0.6604309l-0.4841919,0.6168671
	l-0.3524933,0.4841919l-0.1762466,0.4841919v0.0881348h0.2198257l0.0881195-0.0881348v0.1762543l-0.0435715,0.1316986
	l-0.0881271,0.0881348l-0.0881271,0.0881195l-0.2643738,0.1316986l-0.220787,0.0445404l-0.2198257,0.0435791l-0.1326675,0.0445404
	l-0.1316986-0.0445404l-0.0881271-0.0435791l-0.0881271-0.1326599l-0.0435791-0.1762543v-0.1752777l0.0435791-0.1326599
	l0.0445404-0.1762543l0.1752777-0.3079376l0.4851608-0.5723267l0.8812408-1.1000977l0.0435715-0.0445404"/>
<path class="st7" d="M167.9960632,128.8819122l0.3524933-0.1762543l0.4396515-0.176239h0.0881195l0.0445557,0.0445404
	l0.0435638,0.1316986l-0.0435638,0.3079529l-0.1326599,0.3960571l-0.1752777,0.3524933l-0.0881348,0.1762543l-0.0881195,0.0881195
	l-0.1326752,0.1317139l-0.0881195,0.1326599l-0.2198334,0.3960724l-0.1762543,0.3960724l-0.0881195,0.0881195l-0.0881348,0.0881348
	l-0.1762543,0.1316986l-0.0445404,0.176239l-0.1317139,0.3524933l-0.2207794,0.4841919l-0.3960724,0.7040253l-0.2643585,0.4406128
	l-0.2198334,0.3515167l-0.2643585,0.4406281l-0.3524933,0.4841919l-0.3524933,0.3515167l-0.2643738,0.3089294l-0.4851685,0.3515167
	l-0.7921295,0.5723267l-0.2207947,0.1326599l-0.2643585,0.1317139l-0.2643738,0.0445404l-0.1762543,0.0435791h-0.7049713
	l-0.4841919-0.0881348l-0.5287476-0.176239l-0.4841919-0.2198334l-0.1326752-0.0881195l-0.0435638-0.0881348l-0.0445557-0.0881195
	l-0.1316986-0.1316986l-0.2207947-0.3079529l-0.0435791-0.176239l-0.0445404-0.1762543l0.0445404-0.2198181l0.0435791-0.1762543
	l0.1326599-0.176239l0.1762543-0.2198181l0.0881348-0.0881348l0.2643585-0.3079376l0.1316986-0.0445557l0.1762543-0.0435638
	l0.0881348-0.0445557l0.0445404,0.0445557l-0.0881195,0.0881195l-0.0881348,0.0871582l-0.0881195,0.3089142l-0.0445557,0.3515167
	v0.2207947l0.0881348,0.1752777l0.1326599,0.2207947l0.1762543,0.176239l0.2198334,0.1752777l0.2643585,0.1326752
	l0.3079376,0.1316986l0.2643738,0.0881195l0.3089142,0.0445557l0.2643585,0.0435638h0.1762543l0.1762543-0.0435638
	l0.1762543-0.0881348l0.6604462-0.5287323l0.3524933-0.3079529l0.3079376-0.3960724l0.4406281-0.6604309l0.7049713-1.1882172
	l0.2207947-0.3524933l0.2633972-0.352478l0.1326752-0.1317139l0.0435638-0.1326599l0.1326752-0.2198334l0.2643585-0.5723114
	l0.1316986-0.3079529l0.1326752-0.2643738l0.0435638-0.3079376l0.0445557-0.1762543l0.0435791-0.176239v-0.0435791
	l-0.1316986,0.0881195l-0.3524933,0.1762543l-0.2643738,0.176239l-0.1762543,0.1316986l-0.2198181,0.0881348l-0.3089294,0.0881195
	l-0.2198181,0.1317139l-0.3524933,0.176239l-0.3089142,0.1762543l-0.2198334,0.1316986l-0.1762543,0.1326599l-0.2207947,0.0871582
	l-0.5723114,0.176239l-0.5723267,0.1762543h-0.3970032l-0.2643585-0.0881348l-0.0435791-0.0435638l0.1316986-0.2207947
	l0.573288-0.8357239l0.1762543-0.3079376l0.2643585-0.1762543l0.1762543-0.1326599l0.0871582-0.1317139l0.1326599-0.176239
	l0.2198334-0.2198181l0.2207794-0.2207947l0.1317139-0.1752777l0.1762543-0.2207947l0.3970337-0.6158905l0.1316986-0.1762543
	l0.0881348-0.0881195l0.2207947-0.0435791l0.2198181-0.0881195l0.4841919-0.044548l0.0881348,0.044548l0.0445557,0.0435715
	l-0.0881348,0.1762466l-0.2198334,0.2643738l-0.2207794,0.3079529l-0.6168671,0.7485657l-0.3079376,0.3524933l-0.3970337,0.3515167
	l-0.3079529,0.2207947l-0.2207794,0.2633972l-0.1762543,0.1762543l-0.0871582,0.176239l-0.0445404,0.0435791l0.0445404,0.0445404
	h0.0871582l0.5287476-0.0881195l0.3524933-0.0881348l0.3089142-0.176239l0.1316986-0.0881348l0.4406128-0.2633972
	l0.573288-0.2643738l0.527771-0.2643738l0.5287476-0.3079529l0.1326599-0.1326599l0.0881195-0.0881348l0.2198334-0.2198181
	l0.3089142-0.2198181L167.9960632,128.8819122z"/>
<path class="st8" d="M167.9960632,128.8819122l0.3524933-0.1762543l0.4396515-0.176239h0.0881195l0.0445557,0.0445404
	l0.0435638,0.1316986l-0.0435638,0.3079529l-0.1326599,0.3960571l-0.1752777,0.3524933l-0.0881348,0.1762543l-0.0881195,0.0881195
	l-0.1326752,0.1317139l-0.0881195,0.1326599l-0.2198334,0.3960724l-0.1762543,0.3960724l-0.0881195,0.0881195l-0.0881348,0.0881348
	l-0.1762543,0.1316986l-0.0445404,0.176239l-0.1317139,0.3524933l-0.2207794,0.4841919l-0.3960724,0.7040253l-0.2643585,0.4406128
	l-0.2198334,0.3515167l-0.2643585,0.4406281l-0.3524933,0.4841919l-0.3524933,0.3515167l-0.2643738,0.3089294l-0.4851685,0.3515167
	l-0.7921295,0.5723267l-0.2207947,0.1326599l-0.2643585,0.1317139l-0.2643738,0.0445404l-0.1762543,0.0435791h-0.7049713
	l-0.4841919-0.0881348l-0.5287476-0.176239l-0.4841919-0.2198334l-0.1326752-0.0881195l-0.0435638-0.0881348l-0.0445557-0.0881195
	l-0.1316986-0.1316986l-0.2207947-0.3079529l-0.0435791-0.176239l-0.0445404-0.1762543l0.0445404-0.2198181l0.0435791-0.1762543
	l0.1326599-0.176239l0.1762543-0.2198181l0.0881348-0.0881348l0.2643585-0.3079376l0.1316986-0.0445557l0.1762543-0.0435638
	l0.0881348-0.0445557l0.0445404,0.0445557l-0.0881195,0.0881195l-0.0881348,0.0871582l-0.0881195,0.3089142l-0.0445557,0.3515167
	v0.2207947l0.0881348,0.1752777l0.1326599,0.2207947l0.1762543,0.176239l0.2198334,0.1752777l0.2643585,0.1326752
	l0.3079376,0.1316986l0.2643738,0.0881195l0.3089142,0.0445557l0.2643585,0.0435638h0.1762543l0.1762543-0.0435638
	l0.1762543-0.0881348l0.6604462-0.5287323l0.3524933-0.3079529l0.3079376-0.3960724l0.4406281-0.6604309l0.7049713-1.1882172
	l0.2207947-0.3524933l0.2633972-0.352478l0.1326752-0.1317139l0.0435638-0.1326599l0.1326752-0.2198334l0.2643585-0.5723114
	l0.1316986-0.3079529l0.1326752-0.2643738l0.0435638-0.3079376l0.0445557-0.1762543l0.0435791-0.176239v-0.0435791
	l-0.1316986,0.0881195l-0.3524933,0.1762543l-0.2643738,0.176239l-0.1762543,0.1316986l-0.2198181,0.0881348l-0.3089294,0.0881195
	l-0.2198181,0.1317139l-0.3524933,0.176239l-0.3089142,0.1762543l-0.2198334,0.1316986l-0.1762543,0.1326599l-0.2207947,0.0871582
	l-0.5723114,0.176239l-0.5723267,0.1762543h-0.3970032l-0.2643585-0.0881348l-0.0435791-0.0435638l0.1316986-0.2207947
	l0.573288-0.8357239l0.1762543-0.3079376l0.2643585-0.1762543l0.1762543-0.1326599l0.0871582-0.1317139l0.1326599-0.176239
	l0.2198334-0.2198181l0.2207794-0.2207947l0.1317139-0.1752777l0.1762543-0.2207947l0.3970337-0.6158905l0.1316986-0.1762543
	l0.0881348-0.0881195l0.2207947-0.0435791l0.2198181-0.0881195l0.4841919-0.044548l0.0881348,0.044548l0.0445557,0.0435715
	l-0.0881348,0.1762466l-0.2198334,0.2643738l-0.2207794,0.3079529l-0.6168671,0.7485657l-0.3079376,0.3524933l-0.3970337,0.3515167
	l-0.3079529,0.2207947l-0.2207794,0.2633972l-0.1762543,0.1762543l-0.0871582,0.176239l-0.0445404,0.0435791l0.0445404,0.0445404
	h0.0871582l0.5287476-0.0881195l0.3524933-0.0881348l0.3089142-0.176239l0.1316986-0.0881348l0.4406128-0.2633972
	l0.573288-0.2643738l0.527771-0.2643738l0.5287476-0.3079529l0.1326599-0.1326599l0.0881195-0.0881348l0.2198334-0.2198181
	l0.3089142-0.2198181"/>
<path class="st7" d="M147.1582947,132.3158112l-0.2643585,0.176239l-0.351532,0.1752777l-0.3089142,0.0881348l-0.6168671,0.0445404
	h-0.6604462l-0.7049713-0.1326752l-0.6604614-0.1752777l-0.176239-0.0445404l-0.0445557-0.0435791l-0.0435791-0.0445404
	l0.0435791-0.0881195l0.1326599-0.0435791l0.1762543-0.0881348l0.2198334-0.0445404l0.1326599-0.0881195l0.2643585-0.1317139
	h0.0881348l0.0871429,0.0445557l0.0445557,0.1316986l0.3079376,0.0881195l0.4406281,0.0881348l0.3970337,0.0881195
	l0.3960724,0.0435791h0.2207947l0.0881195-0.0435791v-0.1326599l-0.0445557-0.0881348l-0.0881195-0.1752777l-0.1316986-0.2207947
	l-0.1762543-0.2198181l-0.0881348-0.2198181l-0.0445404-0.176239v-0.1762543l0.0445404-0.1316986l0.0881348-0.1762543
	l0.2198181-0.2643738l0.0881348-0.1316986l0.1326599-0.1326599l0.2198334-0.1317139l0.4841919-0.2198181l0.5287476-0.2207947
	l0.4851685-0.176239l0.5287476-0.0871582h0.4406128l0.2633972,0.0435791l0.1762543,0.0435791l0.0881348,0.0881195v0.0881348
	l-0.0435791,0.0881195l-0.0881195,0.0881348l-0.2198334,0.2198181l-0.397049,0.2643738l-0.4406128,0.3079529l-0.4406128,0.2207794
	h-0.2198181l-0.0445557-0.0445404l0.2207947-0.176239l0.3960571-0.2634125l0.2207947-0.2207794l0.0435791-0.0881348v-0.0871429
	l-0.0435791-0.0445557l-0.0881195-0.0435638l-0.1326752-0.0445557l-0.3079376,0.0445557l-0.2207794,0.0435638l-0.3079529,0.0881348
	l-0.2207794,0.0881195l-0.1316986,0.0881348l-0.1326752,0.1316986l-0.0881195,0.1326752l-0.1316986,0.1316986l-0.0881348,0.2643738
	v0.2633972l0.0881348,0.1326752l0.1316986,0.1316986l0.0881195,0.1326752l0.0445557,0.0881195l0.0881195,0.1317139
	l0.1317139,0.2198181v0.4406128l-0.0881348,0.0881348L147.1582947,132.3158112z"/>
<path class="st8" d="M147.1582947,132.3158112l-0.2643585,0.176239l-0.351532,0.1752777l-0.3089142,0.0881348l-0.6168671,0.0445404
	h-0.6604462l-0.7049713-0.1326752l-0.6604614-0.1752777l-0.176239-0.0445404l-0.0445557-0.0435791l-0.0435791-0.0445404
	l0.0435791-0.0881195l0.1326599-0.0435791l0.1762543-0.0881348l0.2198334-0.0445404l0.1326599-0.0881195l0.2643585-0.1317139
	h0.0881348l0.0871429,0.0445557l0.0445557,0.1316986l0.3079376,0.0881195l0.4406281,0.0881348l0.3970337,0.0881195
	l0.3960724,0.0435791h0.2207947l0.0881195-0.0435791v-0.1326599l-0.0445557-0.0881348l-0.0881195-0.1752777l-0.1316986-0.2207947
	l-0.1762543-0.2198181l-0.0881348-0.2198181l-0.0445404-0.176239v-0.1762543l0.0445404-0.1316986l0.0881348-0.1762543
	l0.2198181-0.2643738l0.0881348-0.1316986l0.1326599-0.1326599l0.2198334-0.1317139l0.4841919-0.2198181l0.5287476-0.2207947
	l0.4851685-0.176239l0.5287476-0.0871582h0.4406128l0.2633972,0.0435791l0.1762543,0.0435791l0.0881348,0.0881195v0.0881348
	l-0.0435791,0.0881195l-0.0881195,0.0881348l-0.2198334,0.2198181l-0.397049,0.2643738l-0.4406128,0.3079529l-0.4406128,0.2207794
	h-0.2198181l-0.0445557-0.0445404l0.2207947-0.176239l0.3960571-0.2634125l0.2207947-0.2207794l0.0435791-0.0881348v-0.0871429
	l-0.0435791-0.0445557l-0.0881195-0.0435638l-0.1326752-0.0445557l-0.3079376,0.0445557l-0.2207794,0.0435638l-0.3079529,0.0881348
	l-0.2207794,0.0881195l-0.1316986,0.0881348l-0.1326752,0.1316986l-0.0881195,0.1326752l-0.1316986,0.1316986l-0.0881348,0.2643738
	v0.2633972l0.0881348,0.1326752l0.1316986,0.1316986l0.0881195,0.1326752l0.0445557,0.0881195l0.0881195,0.1317139
	l0.1317139,0.2198181v0.4406128l-0.0881348,0.0881348"/>
<path class="st7" d="M127.5987854,131.2147522l-0.572319,0.7049866l-0.2198181,0.2633972l-0.044548,0.1762543l0.2643738-0.0881348
	l0.3089142-0.1316986v0.1316986l0.0871582,0.1326752l-0.3079529,0.2198181l-0.3524933,0.2198181l-0.1762466,0.0881348
	l-0.2643661,0.0445404l-0.4841995,0.0435791l-0.1326675-0.0435791l-0.0435791-0.0881348v-0.0445404h-0.0445404l-0.0435715-0.176239
	l0.0435715-0.0881348l0.6614075-0.9238434l0.3960648-0.4841919l0.397049-0.4406128l0.1762466-0.2643738l1.101059-1.0119629
	l0.2643738-0.2643738l0.5287323-0.527771l0.5723267-0.6168671l0.5287323-0.572319l0.3079529-0.3515244l0.0445404-0.0445404
	v-0.1762466l0.0435791-0.1317062l0.0445404-0.1316986l0.2198181-0.3089218l0.0881348-0.2198257l0.0881195-0.2198181v-0.3079529
	l0.3089142-0.2207947l0.2198181-0.0881195l0.2207947-0.0881271h0.4841919l0.0881348,0.044548h0.0435638v0.0435791
	l-0.0435638,0.2207947l-0.3524933,0.7040176l-0.2198334,0.3960648l-0.0881195,0.1317062l-0.0881195,0.1326675l-0.3089294,0.2643738
	l-0.176239,0.1752777l-0.3524933,0.3524933l-0.176239,0.2198181l-0.5723267,0.6604462l-0.6604462,0.7485657l-0.3970337,0.3960571
	l-0.8366852,0.8802643l-0.573288,0.6604462V131.2147522z"/>
<path class="st8" d="M127.5987854,131.2147522l-0.572319,0.7049866l-0.2198181,0.2633972l-0.044548,0.1762543l0.2643738-0.0881348
	l0.3089142-0.1316986v0.1316986l0.0871582,0.1326752l-0.3079529,0.2198181l-0.3524933,0.2198181l-0.1762466,0.0881348
	l-0.2643661,0.0445404l-0.4841995,0.0435791l-0.1326675-0.0435791l-0.0435791-0.0881348v-0.0445404h-0.0445404l-0.0435715-0.176239
	l0.0435715-0.0881348l0.6614075-0.9238434l0.3960648-0.4841919l0.397049-0.4406128l0.1762466-0.2643738l1.101059-1.0119629
	l0.2643738-0.2643738l0.5287323-0.527771l0.5723267-0.6168671l0.5287323-0.572319l0.3079529-0.3515244l0.0445404-0.0445404
	v-0.1762466l0.0435791-0.1317062l0.0445404-0.1316986l0.2198181-0.3089218l0.0881348-0.2198257l0.0881195-0.2198181v-0.3079529
	l0.3089142-0.2207947l0.2198181-0.0881195l0.2207947-0.0881271h0.4841919l0.0881348,0.044548h0.0435638v0.0435791
	l-0.0435638,0.2207947l-0.3524933,0.7040176l-0.2198334,0.3960648l-0.0881195,0.1317062l-0.0881195,0.1326675l-0.3089294,0.2643738
	l-0.176239,0.1752777l-0.3524933,0.3524933l-0.176239,0.2198181l-0.5723267,0.6604462l-0.6604462,0.7485657l-0.3970337,0.3960571
	l-0.8366852,0.8802643l-0.573288,0.6604462"/>
<path class="st7" d="M129.5375061,132.5356293l0.3524933-0.3960724l0.0881195-0.0881195l0.1316986-0.1316986l0.1326752-0.0881348
	l0.3079529-0.3524933l0.3970337-0.4841919l0.4406281-0.6158905l0.1316986-0.2207947l0.0881195-0.2198181l-0.5723114,0.1316986
	l-0.1762543,0.1326752l-0.176239,0.1316986l-0.1326752,0.0881195l-0.1316986,0.1317139l-0.397049,0.2207794l-0.3515167,0.2634125
	l-1.366394,0.8366852l-1.541687,0.9683838l-0.1762466,0.0445404h-0.6168594l-0.0435791-0.0445404l0.1762466-0.2643738
	l0.0881271-0.0871429l0.2643738-0.1762543l0.7049866-0.3960571l1.101059-0.6168671l0.2643738-0.2198181l0.1316986-0.0445557
	l0.1326752-0.0435638l0.0881195-0.0445557l0.1762543-0.1752777l0.352478-0.176239l0.3079529-0.1762543l0.1762543-0.0881195
	l0.0881195-0.0435791l0.1316986-0.0881195l0.1326752-0.1762543l0.1316986-0.0881195l0.3524933-0.1316986l0.6614075-0.3524933
	l0.4841919-0.2198334l0.1762543-0.0881195l0.176239-0.0445404l0.2198181,0.0445404l0.2207947,0.0881195l0.0881195,0.0435791
	v0.0435791l-0.0445404,0.1326752l-0.1316986,0.2198181l-0.3089142,0.3960724l-0.5723267,0.8366852l-0.3960571,0.70401
	l-0.1326752,0.2207947l-0.2198181,0.3960571l-0.2643738,0.4396515l-0.4406281,0.6168671l-0.1326599,0.0435791l-0.1762543,0.0445404
	h-0.2198334l-0.1316986-0.0445404l-0.0881348-0.0435791l-0.0445404-0.0881195l-0.0881195-0.1762543l-0.0435791-0.1316986
	l0.0435791-0.0445404C129.3612518,132.8435822,129.5374908,132.5356293,129.5375061,132.5356293z"/>
<path class="st8" d="M129.5375061,132.5356293l0.3524933-0.3960724l0.0881195-0.0881195l0.1316986-0.1316986l0.1326752-0.0881348
	l0.3079529-0.3524933l0.3970337-0.4841919l0.4406281-0.6158905l0.1316986-0.2207947l0.0881195-0.2198181l-0.5723114,0.1316986
	l-0.1762543,0.1326752l-0.176239,0.1316986l-0.1326752,0.0881195l-0.1316986,0.1317139l-0.397049,0.2207794l-0.3515167,0.2634125
	l-1.366394,0.8366852l-1.541687,0.9683838l-0.1762466,0.0445404h-0.6168594l-0.0435791-0.0445404l0.1762466-0.2643738
	l0.0881271-0.0871429l0.2643738-0.1762543l0.7049866-0.3960571l1.101059-0.6168671l0.2643738-0.2198181l0.1316986-0.0445557
	l0.1326752-0.0435638l0.0881195-0.0445557l0.1762543-0.1752777l0.352478-0.176239l0.3079529-0.1762543l0.1762543-0.0881195
	l0.0881195-0.0435791l0.1316986-0.0881195l0.1326752-0.1762543l0.1316986-0.0881195l0.3524933-0.1316986l0.6614075-0.3524933
	l0.4841919-0.2198334l0.1762543-0.0881195l0.176239-0.0445404l0.2198181,0.0445404l0.2207947,0.0881195l0.0881195,0.0435791
	v0.0435791l-0.0445404,0.1326752l-0.1316986,0.2198181l-0.3089142,0.3960724l-0.5723267,0.8366852l-0.3960571,0.70401
	l-0.1326752,0.2207947l-0.2198181,0.3960571l-0.2643738,0.4396515l-0.4406281,0.6168671l-0.1326599,0.0435791l-0.1762543,0.0445404
	h-0.2198334l-0.1316986-0.0445404l-0.0881348-0.0435791l-0.0445404-0.0881195l-0.0881195-0.1762543l-0.0435791-0.1316986
	l0.0435791-0.0445404l0.176239-0.3079529"/>
<path class="st7" d="M140.7707977,129.8938751l-0.1316986,0.0445404l-0.1762543,0.0881195l-0.2207947,0.1317139l-0.1316986,0.176239
	l-0.0881195-0.2643738l0.0435791-0.1316986l0.0445404-0.0881348l0.1316986-0.2198181l0.1326752-0.0881195l0.1316986-0.0881348
	h0.1326599l0.3524933-0.0881195l0.3079376-0.0881348l0.2207947-0.0435791l0.527771-0.4841919l0.3970337-0.4851532
	l0.8812408-1.1000977l0.2643738-0.3524857l0.176239-0.2198257l0.0881348-0.0435715l0.1316986-0.044548l0.1762543-0.0435791
	l0.2643738-0.0881195l0.0881195-0.044548h0.2198334l0.0445404,0.0881195l-0.0445404,0.0881271l-0.1317139,0.2198257
	l-0.6168518,0.6604385l-0.6604462,0.7931061l-0.6614075,0.7040253l-0.1762543,0.1316986l-0.1316986,0.1326752l0.0435791,0.0435638
	l0.0445404-0.0435638h0.2198334l1.5426483-0.1326752l0.7485504-0.0435791l0.3079529-0.0445404l0.2207794-0.0435791
	l0.1762543-0.0445404l0.0435791,0.0445404v0.0435791l-0.0435791,0.0445404l-0.1762543,0.1316986l-0.0881195,0.0881348
	l-0.0881348,0.0881195l-0.2643585,0.0881348l-0.3089142,0.0435638l-0.7040253,0.1326752l-2.1585388,0.2643738l-0.6614075,0.6594696
	l-0.4841919,0.6168671l-0.3089294,0.4841919l-0.2198181,0.527771l0.0435791,0.0445404h0.176239l0.0881348-0.0881195
	l0.0445557,0.0435791v0.0445404l-0.0445557,0.0881195l-0.0435791,0.1317139l-0.0445557,0.0881195l-0.1316986,0.0881195
	l-0.2643585,0.1317139l-0.2207947,0.0445404l-0.2198334,0.0435791l-0.1316986,0.0445404h-0.0881195l-0.0881348-0.0881348
	l-0.1326599-0.1326599l-0.0435791-0.1752777v-0.1762543l0.0435791-0.0881195l0.0445557-0.2198181l0.1762543-0.3089294
	l0.4841919-0.5723114l0.9248047-1.1000977v-0.0445404L140.7707977,129.8938751z"/>
<path class="st8" d="M140.7707977,129.8938751l-0.1316986,0.0445404l-0.1762543,0.0881195l-0.2207947,0.1317139l-0.1316986,0.176239
	l-0.0881195-0.2643738l0.0435791-0.1316986l0.0445404-0.0881348l0.1316986-0.2198181l0.1326752-0.0881195l0.1316986-0.0881348
	h0.1326599l0.3524933-0.0881195l0.3079376-0.0881348l0.2207947-0.0435791l0.527771-0.4841919l0.3970337-0.4851532
	l0.8812408-1.1000977l0.2643738-0.3524857l0.176239-0.2198257l0.0881348-0.0435715l0.1316986-0.044548l0.1762543-0.0435791
	l0.2643738-0.0881195l0.0881195-0.044548h0.2198334l0.0445404,0.0881195l-0.0445404,0.0881271l-0.1317139,0.2198257
	l-0.6168518,0.6604385l-0.6604462,0.7931061l-0.6614075,0.7040253l-0.1762543,0.1316986l-0.1316986,0.1326752l0.0435791,0.0435638
	l0.0445404-0.0435638h0.2198334l1.5426483-0.1326752l0.7485504-0.0435791l0.3079529-0.0445404l0.2207794-0.0435791
	l0.1762543-0.0445404l0.0435791,0.0445404v0.0435791l-0.0435791,0.0445404l-0.1762543,0.1316986l-0.0881195,0.0881348
	l-0.0881348,0.0881195l-0.2643585,0.0881348l-0.3089142,0.0435638l-0.7040253,0.1326752l-2.1585388,0.2643738l-0.6614075,0.6594696
	l-0.4841919,0.6168671l-0.3089294,0.4841919l-0.2198181,0.527771l0.0435791,0.0445404h0.176239l0.0881348-0.0881195
	l0.0445557,0.0435791v0.0445404l-0.0445557,0.0881195l-0.0435791,0.1317139l-0.0445557,0.0881195l-0.1316986,0.0881195
	l-0.2643585,0.1317139l-0.2207947,0.0445404l-0.2198334,0.0435791l-0.1316986,0.0445404h-0.0881195l-0.0881348-0.0881348
	l-0.1326599-0.1326599l-0.0435791-0.1752777v-0.1762543l0.0435791-0.0881195l0.0445557-0.2198181l0.1762543-0.3089294
	l0.4841919-0.5723114l0.9248047-1.1000977v-0.0445404"/>
<path class="st7" d="M146.7622375,126.2401428l-0.2643738,0.2207947l-0.3960571,0.2634048l-0.3524933,0.1762466
	l-0.8376617,0.3079453l-0.2643738,0.0881271v-0.0435791l0.0445557-0.0445404l0.2643585-0.3079453l0.3524933-0.3515244
	l0.5723267-0.3970413l0.2643585-0.1317062l0.3089142-0.0881195l0.3524933-0.0881195h0.2198334l0.0435791,0.0445404v0.0435791
	l-0.0881348,0.1326675l-0.2198181,0.1752777V126.2401428z"/>
<path class="st8" d="M146.7622375,126.2401428l-0.2643738,0.2207947l-0.3960571,0.2634048l-0.3524933,0.1762466
	l-0.8376617,0.3079453l-0.2643738,0.0881271v-0.0435791l0.0445557-0.0445404l0.2643585-0.3079453l0.3524933-0.3515244
	l0.5723267-0.3970413l0.2643585-0.1317062l0.3089142-0.0881195l0.3524933-0.0881195h0.2198334l0.0435791,0.0445404v0.0435791
	l-0.0881348,0.1326675l-0.2198181,0.1752777"/>
<path class="st7" d="M184.8683014,127.3847733l-0.0445557-0.1317062l-0.0881195-0.0445404l-0.1317139-0.0435791
	l-0.1762543-0.0435715l-0.2207794,0.0435715l-0.4841919,0.1317062l-0.6604462,0.1326675l-0.1762543,0.0881271l-0.1326752,0.0881271
	l-0.2643585,0.1752777l-0.1316986,0.1762466v-0.0881271l-0.0445557-0.1316986l-0.0435791-0.0435791l-0.0445404,0.0435791
	l-0.1762543,0.0435715l-0.3524933,0.044548l-0.1762543,0.0881271l-0.1762543,0.0881271l-0.3079376,0.2633972l-0.2207947,0.1326752
	l-0.1316986,0.176239l-0.1316986,0.2198334l-0.1326752,0.2198181l-0.0881195,0.2207794l-0.0881348,0.1752777l-0.352478,0.8367004
	l-0.2198334,0.5287323l-0.0445557,0.2198181v0.0435791l0.0445557,0.0445404l0.0435791,0.0881348l0.1762543,0.0435638
	l0.2207794-0.0435638l0.3524933-0.0445557l0.1762543-0.0881195l0.1316986-0.0881348l0.1762543-0.0435638l0.2198334-0.0881348
	l0.3089142-0.2198181l0.1316986-0.0881348l0.2207947-0.0445404l0.2198334-0.0435791l0.0881195-0.0881195l0.4406128-0.3079529
	l0.397049-0.2643738l0.2634125-0.176239l0.4406128-0.351532l0.2643585-0.2207794l0.1762543-0.1316986l0.1762543-0.1317139
	l0.1326599-0.2643738l0.2198334-0.352478l0.1762543-0.3960724l0.0445557-0.1762466v-0.1762466L184.8683014,127.3847733z
	 M183.9870605,128.177887l-0.0881195,0.1752777l-0.397049,0.5287323l-0.1762543,0.1316986l-0.1316986,0.0881348
	l-0.2643738,0.1326599l-0.5287323,0.351532l-0.5287476,0.3524933l-0.3524933,0.2643738l-0.2643738,0.0881195l-0.2198181,0.0881348
	l-0.2643738,0.0871429h-0.2643585l0.0445404-0.0871429l0.0435791-0.0445557l0.2643738-0.4406128l0.3524933-0.4396515
	l0.1762543-0.3079529l0.2643585-0.3960571l0.2643585-0.2643738l0.1317139-0.0881348l0.1326599-0.0881195l0.1762543-0.0445404
	h0.1762543l0.2198181-0.0435791l0.0881348-0.1316986l0.0445557-0.0445404l0.0881195-0.1317062l0.1316986-0.044548
	l0.6168671-0.0881271h0.1316986l0.0881195,0.044548l0.0445557,0.0435715l0.0435791,0.1326675l-0.0435791,0.1762543H183.9870605z"/>
<path class="st8" d="M184.8683014,127.3847733l-0.0445557-0.1317062l-0.0881195-0.0445404l-0.1317139-0.0435791
	l-0.1762543-0.0435715l-0.2207794,0.0435715l-0.4841919,0.1317062l-0.6604462,0.1326675l-0.1762543,0.0881271l-0.1326752,0.0881271
	l-0.2643585,0.1752777l-0.1316986,0.1762466v-0.0881271l-0.0445557-0.1316986l-0.0435791-0.0435791l-0.0445404,0.0435791
	l-0.1762543,0.0435715l-0.3524933,0.044548l-0.1762543,0.0881271l-0.1762543,0.0881271l-0.3079376,0.2633972l-0.2207947,0.1326752
	l-0.1316986,0.176239l-0.1316986,0.2198334l-0.1326752,0.2198181l-0.0881195,0.2207794l-0.0881348,0.1752777l-0.352478,0.8367004
	l-0.2198334,0.5287323l-0.0445557,0.2198181v0.0435791l0.0445557,0.0445404l0.0435791,0.0881348l0.1762543,0.0435638
	l0.2207794-0.0435638l0.3524933-0.0445557l0.1762543-0.0881195l0.1316986-0.0881348l0.1762543-0.0435638l0.2198334-0.0881348
	l0.3089142-0.2198181l0.1316986-0.0881348l0.2207947-0.0445404l0.2198334-0.0435791l0.0881195-0.0881195l0.4406128-0.3079529
	l0.397049-0.2643738l0.2634125-0.176239l0.4406128-0.351532l0.2643585-0.2207794l0.1762543-0.1316986l0.1762543-0.1317139
	l0.1326599-0.2643738l0.2198334-0.352478l0.1762543-0.3960724l0.0445557-0.1762466v-0.1762466L184.8683014,127.3847733z
	 M183.9870605,128.177887l-0.0881195,0.1752777l-0.397049,0.5287323l-0.1762543,0.1316986l-0.1316986,0.0881348
	l-0.2643738,0.1326599l-0.5287323,0.351532l-0.5287476,0.3524933l-0.3524933,0.2643738l-0.2643738,0.0881195l-0.2198181,0.0881348
	l-0.2643738,0.0871429h-0.2643585l0.0445404-0.0871429l0.0435791-0.0445557l0.2643738-0.4406128l0.3524933-0.4396515
	l0.1762543-0.3079529l0.2643585-0.3960571l0.2643585-0.2643738l0.1317139-0.0881348l0.1326599-0.0881195l0.1762543-0.0445404
	h0.1762543l0.2198181-0.0435791l0.0881348-0.1316986l0.0445557-0.0445404l0.0881195-0.1317062l0.1316986-0.044548
	l0.6168671-0.0881271h0.1316986l0.0881195,0.044548l0.0445557,0.0435715l0.0435791,0.1326675l-0.0435791,0.1762543H183.9870605z"/>
<path class="st7" d="M184.8683014,127.3847733h0.0881195L185,127.4293137v0.4396515l-0.1316986,0.3960648l-0.1762543,0.3524933
	l-0.2207947,0.2643738l-0.0881195,0.1316986l-0.0881348,0.1326752l-0.2198181,0.3960724l-0.1762543,0.3515167l-0.0881348,0.1326752
	l-0.0881195,0.0881195l-0.1762543,0.1317139l-0.0445557,0.176239l-0.1316986,0.3524933l-0.2198334,0.4841919l-0.397049,0.6604462
	l-0.2643585,0.4841919l-0.2198334,0.3515167l-0.2643585,0.4406281l-0.397049,0.4841919l-0.3079376,0.3524933l-0.3089142,0.3079376
	l-0.4396362,0.351532l-0.7931213,0.5287323l-0.2643585,0.1762543l-0.2643738,0.0881195l-0.2207794,0.0881348l-0.1762543,0.0435638
	h-0.7485352l-0.4406128-0.0881195l-0.5723267-0.1762543l-0.4406128-0.2198181l-0.1326599-0.0881195l-0.0881348-0.0881348v-0.0881195
	l-0.1316986-0.1762543l-0.2207947-0.2633972l-0.0435791-0.1762543l-0.0445404-0.176239v-0.2198181l0.0881195-0.1762543
	l0.1326599-0.2198181l0.1762543-0.176239l0.0881348-0.1326752l0.2643585-0.2634125l0.0881348-0.0445404l0.2198181-0.0881195
	h0.1326752l-0.1326752,0.1326599l-0.0881195,0.0881348l-0.0881195,0.3079529v0.5723114l0.0881195,0.1762543l0.0881195,0.2198181
	l0.4406281,0.3524933l0.2643585,0.1316986l0.3089142,0.1316986l0.2643738,0.0881348l0.3079376,0.0445404h0.2643585
	l0.0881348,0.0435791h0.0881195l0.1762543-0.0435791l0.1762543-0.0881348l0.6604462-0.5287323l0.3524933-0.3079529
	l0.3089142-0.3960571l0.4396515-0.6604462l0.7049866-1.1882019l0.2207794-0.3960724l0.2643738-0.3089142l0.1316986-0.1316986
	l0.0445557-0.1317139l0.1316986-0.2643738l0.2643585-0.5287323l0.1326752-0.3079529l0.0881195-0.2643738l0.0871582-0.3079376
	l0.0445404-0.1762543l0.0435791-0.176239l-0.0435791-0.0435791l-0.0881195,0.0881348
	C183.1939545,128.8819122,184.8683014,127.3847809,184.8683014,127.3847733z"/>
<path class="st8" d="M184.8683014,127.3847733h0.0881195L185,127.4293137v0.4396515l-0.1316986,0.3960648l-0.1762543,0.3524933
	l-0.2207947,0.2643738l-0.0881195,0.1316986l-0.0881348,0.1326752l-0.2198181,0.3960724l-0.1762543,0.3515167l-0.0881348,0.1326752
	l-0.0881195,0.0881195l-0.1762543,0.1317139l-0.0445557,0.176239l-0.1316986,0.3524933l-0.2198334,0.4841919l-0.397049,0.6604462
	l-0.2643585,0.4841919l-0.2198334,0.3515167l-0.2643585,0.4406281l-0.397049,0.4841919l-0.3079376,0.3524933l-0.3089142,0.3079376
	l-0.4396362,0.351532l-0.7931213,0.5287323l-0.2643585,0.1762543l-0.2643738,0.0881195l-0.2207794,0.0881348l-0.1762543,0.0435638
	h-0.7485352l-0.4406128-0.0881195l-0.5723267-0.1762543l-0.4406128-0.2198181l-0.1326599-0.0881195l-0.0881348-0.0881348v-0.0881195
	l-0.1316986-0.1762543l-0.2207947-0.2633972l-0.0435791-0.1762543l-0.0445404-0.176239v-0.2198181l0.0881195-0.1762543
	l0.1326599-0.2198181l0.1762543-0.176239l0.0881348-0.1326752l0.2643585-0.2634125l0.0881348-0.0445404l0.2198181-0.0881195
	h0.1326752l-0.1326752,0.1326599l-0.0881195,0.0881348l-0.0881195,0.3079529v0.5723114l0.0881195,0.1762543l0.0881195,0.2198181
	l0.4406281,0.3524933l0.2643585,0.1316986l0.3089142,0.1316986l0.2643738,0.0881348l0.3079376,0.0445404h0.2643585
	l0.0881348,0.0435791h0.0881195l0.1762543-0.0435791l0.1762543-0.0881348l0.6604462-0.5287323l0.3524933-0.3079529
	l0.3089142-0.3960571l0.4396515-0.6604462l0.7049866-1.1882019l0.2207794-0.3960724l0.2643738-0.3089142l0.1316986-0.1316986
	l0.0445557-0.1317139l0.1316986-0.2643738l0.2643585-0.5287323l0.1326752-0.3079529l0.0881195-0.2643738l0.0871582-0.3079376
	l0.0445404-0.1762543l0.0435791-0.176239l-0.0435791-0.0435791l-0.0881195,0.0881348"/>
<path class="st7" d="M137.5547791,130.026535l0.1762543-0.0445404h0.4851685l0.0881348,0.0445404h0.0435791l-0.1317139,0.2643738
	l-0.2643585,0.4841919l-0.2207947,0.3960724l-0.2198181,0.3079529l-0.3524933,0.3960571l-0.1316986,0.1317139l-0.0881348,0.1326599
	l-0.0881195,0.2643738l-0.1326752,0.2634125v0.176239l0.0445557,0.0881348l0.1316986,0.0445404l-0.2643585,0.2633972
	l-0.2643738,0.0881348l-0.3079376,0.1326599l-0.3524933,0.0435791h-0.0881195l-0.0445557-0.0435791l0.0445557-0.2207794
	l0.1316986-0.3079529l0.1326599-0.2643738l0.2198334-0.3960571v-0.0435791l0.0881348-0.1762543l0.0881195-0.176239
	l0.1326599-0.2643738l1.1446381-1.5842896L137.5547791,130.026535z"/>
<path class="st8" d="M137.5547791,130.026535l0.1762543-0.0445404h0.4851685l0.0881348,0.0445404h0.0435791l-0.1317139,0.2643738
	l-0.2643585,0.4841919l-0.2207947,0.3960724l-0.2198181,0.3079529l-0.3524933,0.3960571l-0.1316986,0.1317139l-0.0881348,0.1326599
	l-0.0881195,0.2643738l-0.1326752,0.2634125v0.176239l0.0445557,0.0881348l0.1316986,0.0445404l-0.2643585,0.2633972
	l-0.2643738,0.0881348l-0.3079376,0.1326599l-0.3524933,0.0435791h-0.0881195l-0.0445557-0.0435791l0.0445557-0.2207794
	l0.1316986-0.3079529l0.1326599-0.2643738l0.2198334-0.3960571v-0.0435791l0.0881348-0.1762543l0.0881195-0.176239
	l0.1326599-0.2643738"/>
<path class="st7" d="M138.3043213,129.2779694l-0.1326599-0.0435791l-0.1762543-0.0445404l-0.2198334,0.0445404
	l-0.4851685,0.0871582l-0.7040253,0.1326752l-0.1762543,0.0435638l-0.1326599,0.0445557l-0.2643585,0.2198181l-0.1762543,0.1316986
	v-0.2198181l-0.0435791-0.0435791l-0.0445557,0.0435791h-0.1762543l-0.3960571,0.0445404l-0.1762543,0.0881348l-0.1762543,0.0871429
	l-0.3524933,0.2207947l-0.2198181,0.1316986l-0.176239,0.176239l-0.1326752,0.2198334l-0.176239,0.176239l-0.1317139,0.2643738
	l-0.0881195,0.1316986l-0.4851685,0.7921448l-0.3079376,0.5287476l-0.0881348,0.2198181l0.0435791,0.0445404v0.0435791
	l0.0445404,0.0881195l0.1762543,0.0445404h0.2198181l0.3089142-0.0445404l0.2198181-0.0435791l0.1326752-0.0881195
	l0.176239-0.0445404l0.2643738-0.0881348l0.3079529-0.1752777l0.176239-0.0881195l0.2198334-0.0445404l0.2207947-0.0435791
	l0.1316986-0.0445404l0.4406128-0.3079529l0.4406281-0.2198181l0.2643585-0.1762543l0.4851685-0.3079376l0.3079376-0.1762543
	l0.2198334-0.1326752l0.1762543-0.1752777l0.1762543-0.2207794l0.2643585-0.351532l0.2643738-0.3524933l0.0445404-0.176239
	l0.0435791-0.1762543l-0.0435791-0.1316986l-0.0881195-0.0881195H138.3043213z M137.4230804,130.2027893l-0.0881195,0.2198181
	l-0.4841919,0.4406128l-0.1762543,0.1317139l-0.1326752,0.0881195l-0.3079376,0.1316986l-0.6168518,0.3079529l-0.5287476,0.3524933
	l-0.4406128,0.176239l-0.2198181,0.1317139l-0.2207947,0.0445404l-0.3079529,0.0881195h-0.2643738v-0.0445404l0.0435791-0.0881195
	l0.0445404-0.0435791l0.3524933-0.3960724l0.3960724-0.4406128l0.2198181-0.2643738l0.3089142-0.3960724l0.3079376-0.2198181
	l0.1326599-0.0881348l0.1762543-0.0881195l0.3524933-0.0435791l0.2198334-0.0445404l0.1326599-0.0881195l0.0435791-0.0881348
	l0.0881195-0.0881195l0.1326599-0.0435791l0.2643738-0.0435791h0.351532l0.1326599,0.0435791h0.0881195l0.0435791,0.0881195
	v0.0881348l-0.0435791,0.176239H137.4230804z"/>
<path class="st8" d="M138.3043213,129.2779694l-0.1326599-0.0435791l-0.1762543-0.0445404l-0.2198334,0.0445404
	l-0.4851685,0.0871582l-0.7040253,0.1326752l-0.1762543,0.0435638l-0.1326599,0.0445557l-0.2643585,0.2198181l-0.1762543,0.1316986
	v-0.2198181l-0.0435791-0.0435791l-0.0445557,0.0435791h-0.1762543l-0.3960571,0.0445404l-0.1762543,0.0881348l-0.1762543,0.0871429
	l-0.3524933,0.2207947l-0.2198181,0.1316986l-0.176239,0.176239l-0.1326752,0.2198334l-0.176239,0.176239l-0.1317139,0.2643738
	l-0.0881195,0.1316986l-0.4851685,0.7921448l-0.3079376,0.5287476l-0.0881348,0.2198181l0.0435791,0.0445404v0.0435791
	l0.0445404,0.0881195l0.1762543,0.0445404h0.2198181l0.3089142-0.0445404l0.2198181-0.0435791l0.1326752-0.0881195
	l0.176239-0.0445404l0.2643738-0.0881348l0.3079529-0.1752777l0.176239-0.0881195l0.2198334-0.0445404l0.2207947-0.0435791
	l0.1316986-0.0445404l0.4406128-0.3079529l0.4406281-0.2198181l0.2643585-0.1762543l0.4851685-0.3079376l0.3079376-0.1762543
	l0.2198334-0.1326752l0.1762543-0.1752777l0.1762543-0.2207794l0.2643585-0.351532l0.2643738-0.3524933l0.0445404-0.176239
	l0.0435791-0.1762543l-0.0435791-0.1316986l-0.0881195-0.0881195H138.3043213z M137.4230804,130.2027893l-0.0881195,0.2198181
	l-0.4841919,0.4406128l-0.1762543,0.1317139l-0.1326752,0.0881195l-0.3079376,0.1316986l-0.6168518,0.3079529l-0.5287476,0.3524933
	l-0.4406128,0.176239l-0.2198181,0.1317139l-0.2207947,0.0445404l-0.3079529,0.0881195h-0.2643738v-0.0445404l0.0435791-0.0881195
	l0.0445404-0.0435791l0.3524933-0.3960724l0.3960724-0.4406128l0.2198181-0.2643738l0.3089142-0.3960724l0.3079376-0.2198181
	l0.1326599-0.0881348l0.1762543-0.0881195l0.3524933-0.0435791l0.2198334-0.0445404l0.1326599-0.0881195l0.0435791-0.0881348
	l0.0881195-0.0881195l0.1326599-0.0435791l0.2643738-0.0435791h0.351532l0.1326599,0.0435791h0.0881195l0.0435791,0.0881195
	v0.0881348l-0.0435791,0.176239H137.4230804z"/>
<path class="st7" d="M112.533577,132.9317017v0.1316986l-0.044548,0.2207947l-0.1316986,0.1316986l-0.220787,0.1762543
	l-0.2643738,0.1316986l-0.1317062,0.0881195l-0.1326675-0.0435638l-0.1317062-0.1762543l-0.0881271-0.2198181v-0.1326752
	l0.0435791-0.1316986l0.0881271-0.1316986l0.1762466-0.0881348l0.2643738-0.1326599l0.2643661-0.0435791l0.1762466,0.0435791
	l0.0881271,0.0445404L112.533577,132.9317017z"/>
<path class="st8" d="M112.533577,132.9317017v0.1316986l-0.044548,0.2207947l-0.1316986,0.1316986l-0.220787,0.1762543
	l-0.2643738,0.1316986l-0.1317062,0.0881195l-0.1326675-0.0435638l-0.1317062-0.1762543l-0.0881271-0.2198181v-0.1326752
	l0.0435791-0.1316986l0.0881271-0.1316986l0.1762466-0.0881348l0.2643738-0.1326599l0.2643661-0.0435791l0.1762466,0.0435791
	l0.0881271,0.0445404L112.533577,132.9317017"/>
<path class="st7" d="M115.0881805,132.8881226v0.1317139l-0.0881271,0.176239l-0.1316986,0.1762543l-0.1762466,0.1316986
	l-0.2643738,0.176239l-0.1762466,0.0881348l-0.0881271-0.0445557l-0.1762466-0.1752777l-0.0445404-0.2207794v-0.1762543
	l0.0445404-0.1316986l0.0881271-0.0881195l0.1762466-0.0881348l0.2643738-0.1316986l0.2198257-0.0445404h0.1762466
	l0.1326675,0.0881195C115.0446014,132.7554626,115.0881729,132.8881378,115.0881805,132.8881226z"/>
<path class="st8" d="M115.0881805,132.8881226v0.1317139l-0.0881271,0.176239l-0.1316986,0.1762543l-0.1762466,0.1316986
	l-0.2643738,0.176239l-0.1762466,0.0881348l-0.0881271-0.0445557l-0.1762466-0.1752777l-0.0445404-0.2207794v-0.1762543
	l0.0445404-0.1316986l0.0881271-0.0881195l0.1762466-0.0881348l0.2643738-0.1316986l0.2198257-0.0445404h0.1762466
	l0.1326675,0.0881195l0.0435715,0.1326752"/>
<path class="st7" d="M117.5992126,132.7118683v0.1762543l-0.0435715,0.1752777l-0.1326675,0.176239l-0.2198257,0.1326752
	l-0.2643738,0.176239l-0.1326675,0.0871582l-0.1317062-0.0435791l-0.1326675-0.2198181l-0.0881271-0.176239v-0.1762543
	l0.044548-0.1316986l0.0881271-0.0881348l0.176239-0.1326599l0.2643738-0.0881348l0.2643738-0.0435638h0.1762466
	l0.0881271,0.0881195L117.5992126,132.7118683z"/>
<path class="st8" d="M117.5992126,132.7118683v0.1762543l-0.0435715,0.1752777l-0.1326675,0.176239l-0.2198257,0.1326752
	l-0.2643738,0.176239l-0.1326675,0.0871582l-0.1317062-0.0435791l-0.1326675-0.2198181l-0.0881271-0.176239v-0.1762543
	l0.044548-0.1316986l0.0881271-0.0881348l0.176239-0.1326599l0.2643738-0.0881348l0.2643738-0.0435638h0.1762466
	l0.0881271,0.0881195L117.5992126,132.7118683"/>
</svg>
