<?xml version="1.0" encoding="utf-8"?>
<!-- Generator: Adobe Illustrator 23.0.3, SVG Export Plug-In . SVG Version: 6.00 Build 0)  -->
<svg version="1.1" id="Layer_1" xmlns="http://www.w3.org/2000/svg" xmlns:xlink="http://www.w3.org/1999/xlink" x="0px" y="0px"
	 viewBox="0 0 210 210" style="enable-background:new 0 0 210 210;" xml:space="preserve">
<style type="text/css">
	.st0{fill:#063761;}
	.st1{fill:#FFFFFF;stroke:#000000;stroke-width:0.25;stroke-linecap:square;stroke-miterlimit:3;}
	.st2{fill:none;stroke:#000000;stroke-width:0.25;stroke-linecap:square;stroke-miterlimit:3;}
	.st3{fill:#FFFFFF;stroke:#000000;stroke-width:0.25;stroke-miterlimit:10;}
	.st4{fill:none;stroke:#000000;stroke-width:0.25;stroke-miterlimit:10;}
	
		.st5{fill-rule:evenodd;clip-rule:evenodd;fill:#6B737A;stroke:#6B737A;stroke-width:0.1;stroke-linecap:square;stroke-miterlimit:3;}
	
		.st6{fill-rule:evenodd;clip-rule:evenodd;fill:#E32219;stroke:#E32219;stroke-width:0.1;stroke-linecap:square;stroke-miterlimit:3;}
	.st7{fill:#E32219;stroke:#E32219;stroke-width:0.1;stroke-linecap:square;stroke-miterlimit:3;}
	
		.st8{fill-rule:evenodd;clip-rule:evenodd;fill:#004B94;stroke:#004B94;stroke-width:0.1;stroke-linecap:square;stroke-miterlimit:3;}
	.st9{fill:#004B94;stroke:#004B94;stroke-width:0.1;stroke-linecap:square;stroke-miterlimit:3;}
	.st10{fill:#6B737A;stroke:#6B737A;stroke-width:0.1;stroke-linecap:square;stroke-miterlimit:3;}
	.st11{fill:#FFFFFF;stroke:#FFFFFF;stroke-width:0.1;stroke-linecap:square;stroke-miterlimit:3;}
	.st12{fill:#FFFFFF;}
	.st13{fill:#FFFFFF;stroke:#E32219;stroke-width:0.1;stroke-linecap:square;stroke-miterlimit:3;}
</style>
<g>
	<circle vector-effect="non-scaling-stroke" class="st0" cx="105" cy="104.9999847" r="105"/>
</g>
<g>
	<path vector-effect="non-scaling-stroke" class="st1" d="M154.3836365,100.7642593
		c4.3855438,0.7851639,9.5902405,2.9994202,15.6140747,6.6427612c9.0357666,5.4650192,23.8113861,14.7587128,29.3995972,19.0629196
		c3.7637482,2.898941,1.6733704,5.3772888,0.3979034,6.1447449c-0.9772644,0.588028-2.3641357,0.6669006-3.0470123,0.7871399
		c-2.0916443,0.3683472-16.5991364-0.1737671-19.2599182-0.4682465c-2.6607666-0.2944794-16.6146545-2.0157776-20.2585602-2.5278931
		c-2.4292603-0.3414154-13.0160828-1.9042206-31.7604065-4.688446l-10.4249191-1.7175827
		c-6.7055283-1.3198853-10.7287903-2.158905-12.0697937-2.5170441s-12.8914719-3.3473358-34.6514053-8.9675903l-32.512001-8.6160126
		c-9.3508072-2.6682129-14.4014206-4.2179108-15.1518383-4.6491241c-0.6052551-0.3477936-1.3433876-1.0114594-2.2144051-1.9909973
		c-1.9218292-0.8130646-3.0467968-1.259613-3.3749008-1.339653c-0.3280993-0.0800552,2.8041458,0.0886765,9.3967304,0.5061798
		c1.7027493,0.0923996,3.1745396,0.2967453,4.4153767,0.6130371c1.1293736,0.2878799,2.1095753,0.5638733,2.8241405,1.1170502
		c1.4996529,1.1609421-2.8123341,0.8727341-12.9359646-0.8646317c-0.1407776-0.6215439-0.2406731-1.1023483-0.2996902-1.4424133
		c-0.1620445-0.9337616-0.2125187-1.8553619-0.2996063-2.6789322c-0.0601921-0.5692368-0.2064457-2.1426926-0.4387569-4.7203903
		c-0.4398499-4.2311859-0.7203426-6.9195709-0.8414803-8.0651398c-0.1817074-1.7183685,0.279417-1.6535645,0.6871948-1.8783875
		c0.2718563-0.1498795,0.3668232-0.3794937,0.2849026-0.6888275C16.6631527,67.6166,15.9517794,61.7484779,15.7287807,60.2124062
		c-0.2230005-1.5360756-0.0359755-2.3091812,0.5610733-2.3193245l9.5850449,1.29142
		c1.8320923,0.229229,3.4891052,1.6316452,4.971035,4.2072563c1.4819279,2.5756111,6.0470066,9.7927284,13.6952229,21.6513329
		C49.9490318,91.6034012,55.4514503,95.139183,61.04842,95.6504593c2.6725388,0.2441177,5.6059914,0.4236374,9.4605064,0.6461334
		c3.9980774,0.2307739,8.7387619,0.4749069,14.2220535,0.7323761l21.5590363-0.8548203
		c0.5572968-0.2126541,0.9820862-0.4530258,1.2743683-0.7211227c0.4384384-0.4021378,2.9254303-0.4345169,3.3379822-0.4583893
		c0.275032-0.0158997,2.8394928-0.1465302,7.6933823-0.3918533c0.6564865-0.2714691,0.9763565-0.7357407,0.9595795-1.3928146
		c-0.0167847-0.6570663-0.3492126-4.6974945-0.9972687-12.1212692c0.0754471-0.379631,0.4818954-0.5213013,1.2193832-0.4250183
		c1.1062012,0.1444244,3.7018585-0.1299667,4.567276,2.3067627c0.5769501,1.6245041,1.2328339,3.7134705,1.9676285,6.2669144
		c1.2188797,3.2241058,3.5397491,5.1225815,6.9625854,5.6954193l13.0931091,2.4938812
		c2.214859-10.6915741,3.3398438-15.5645065,3.3749237-14.618782l-1.6598816,15.058342
		c1.120636,0.3632278,2.1513367,0.7901001,3.0921326,1.2806015c1.4498749,0.7559433,3.0197601,1.729538,3.0274811,2.0318069
		c0.0036469,0.1432114-1.9327545,1.1194382-3.0943146,1.4291916c-1.0227966,0.2727585-2.3110046,0.4135513-3.8646545,0.4223862
		l-1.1924591,7.2725677c-0.8756714,4.5240173-1.3343658,6.9223175-1.3761139,7.1949158
		c-0.164032,1.071579-0.0426941-1.288681,0.3639984-7.0807571l0.6390381-7.9489136l-0.1679688,0.7048569
		c-1.9108734,3.3108673-3.6267853,4.9737473-5.1477509,4.9886322c-2.2814636,0.0223236-6.4634094-0.6251144-9.8756561-1.4588776
		c-5.4700775-1.3365784-13.2052536-5.4287186-14.7758713-6.0514221c-1.0470734-0.4151459-3.9375458-1.9425735-8.6714249-4.582283
		c10.460701,2.7826462,17.3077316,4.2775955,20.541069,4.4848557c4.8500137,0.3108902,8.3287277,0.3549118,9.9169846,0.1332474
		c1.5882416-0.2216873,1.7175446-2.7245102,1.7572479-3.5345459c0.0264587-0.5400314-1.8900299-1.2652283-5.7494812-2.1756058"/>
	<path vector-effect="non-scaling-stroke" class="st2" d="M160.5664368,103.0050659
		c-0.6357422,1.0844574-0.4308777,2.9430008,0.6145935,5.5756302c1.0454865,2.6326294,1.5973206,3.9875641,1.6555176,4.0647964
		c1.1025696,2.2263794,3.1884003,3.1064224,6.2574768,2.6401367c3.0691071-0.4662857,6.3505554-1.0926132,9.8443909-1.878952"/>
	<path vector-effect="non-scaling-stroke" class="st1" d="M119.0837555,118.1612549
		c1.8517532,0.1856918,4.4631424,0.6158218,7.8341599,1.2903671c1.2117386,0.4160919,1.8316727,0.9450073,1.8597641,1.5867691
		c0.0390167,0.8911819-0.8609314,1.3538437-2.6998138,1.3880234l-3.1488113-0.3394165
		c-4.7940826-0.6736145-8.4064178-1.3826065-10.8370056-2.1269608c-1.7307968-0.5300522-5.4038696-1.7365189-3.5911942-1.9630661
		C110.8778305,117.6998901,115.3790588,117.7897491,119.0837555,118.1612549z"/>
</g>
<g>
	<path vector-effect="non-scaling-stroke" class="st3" d="M112.1041336,129.2391663
		c0.3072433-2.1861649,2.3315887-3.7116165,4.5177612-3.4043732c2.1861801,0.307251,3.7116318,2.3315887,3.4043808,4.5177612
		c-0.3072433,2.1861725-2.3315887,3.7116241-4.5177612,3.4043884
		C113.3223343,133.4496918,111.7968826,131.425354,112.1041336,129.2391663z"/>
	<path vector-effect="non-scaling-stroke" class="st3" d="M119.3707199,124.8220139l-0.3264923,2.2091293
		c0.3354416,0.4573898,0.6201172,0.9391861,0.8540344,1.4454193c0.098671,0.2135773,0.1714478,1.6644897,0.2994461,1.3791046
		c0.5218124-0.8575439,0.878891-1.5299072,1.0712051-2.0170898c0.2290726-0.5803146,0.4341736-1.4290848,0.6152878-2.5463028"/>
	<path vector-effect="non-scaling-stroke" class="st3" d="M183.5102844,133.5261078l-3.1528931-0.1617889l-0.0053101,0.1766357
		l-0.1216125,2.8861694l1.162384,0.0371399l0.0699921-0.919693l2.0481262-2.0284119"/>
	<path vector-effect="non-scaling-stroke" class="st3" d="M190.7581329,133.5099792l-5.9234619-0.1400757
		c-0.0624542,0.9382935-0.0987091,1.6788635-0.1087799,2.2217255c-0.0021973,0.118042,3.1333618,0.2565918,6.2039185,0.3546448
		c2.8802795,0.0411377,5.5792389,0.0342865,5.5947571-0.2525177c0.0311737-0.5768738,0.0016785-1.3043213-0.0885315-2.1823883
		L190.7581329,133.5099792z"/>
	<line vector-effect="non-scaling-stroke" class="st4" x1="118.8663406" y1="121.6729889" x2="118.4545898" y2="124.2659149"/>
	<line vector-effect="non-scaling-stroke" class="st4" x1="123.2231827" y1="122.332634" x2="122.7788162" y2="125.1576614"/>
	<path vector-effect="non-scaling-stroke" class="st3" d="M176.8595123,139.6354675
		c0.2880554-2.04953,2.1858673-3.4796448,4.2354126-3.1916046s3.4796448,2.1858673,3.1916046,4.2354126
		c-0.2880402,2.04953-2.1858673,3.4796448-4.2353973,3.1916046
		C178.0015869,143.5828247,176.5714722,141.6850128,176.8595123,139.6354675z"/>
</g>
<g>
	<path vector-effect="non-scaling-stroke" class="st5" d="M67.9774857,104.6197052
		c-1.7972183-0.6328888-3.747879-1.3782349-5.6763878-2.0580139l0.0165634-0.2780991
		c23.4685936,8.2449799,37.5619926,13.3086472,42.4262276,14.6869888c1.0139465,0.2873154,1.7772903-0.0239105,1.8953552-0.5346146
		c0.1053772-0.4558563-0.1835785-1.0514145-0.9594879-2.1545029l-5.0911407-5.8198776
		c-1.831604-2.1613617-1.427269-2.8303528,1.2129974-2.0069656c2.640274,0.8233795,5.2356186,1.8166428,7.7860641,2.9797974
		l7.6647415,3.5672302l-1.3475342-0.2017746l-7.1468048-3.3005981l-4.8641434-1.9211578
		c-3.5271378-1.4136658-4.2194748-1.0339813-2.0769958,1.1390305c2.1424942,2.1730118,3.7928085,4.0698624,4.9509583,5.690567
		c2.1648331,3.2785416,0.8691864,4.1088943-3.8869171,2.4910736
		C98.4836044,115.4029846,86.8837433,111.277504,67.9774857,104.6197052z M58.9306641,101.3431168
		c-2.8344574-1.0254288-5.5864487-1.9571609-7.4207954-2.5913162c-2.0387497-0.7048187-4.9277611-1.6465683-8.667038-2.8252258
		c4.9243927,1.4347382,8.7041626,2.5919876,11.3393059,3.4717178c1.9382668,0.6470795,4.6788673,1.6186371,8.2218094,2.9146576
		l-0.1103172,0.254364C61.3669853,102.2168808,60.2459984,101.808815,58.9306641,101.3431168z"/>
	<path vector-effect="non-scaling-stroke" class="st6" d="M87.8380432,109.6964722l0.1666107,0.6498566l15.259079,1.8977966
		l-0.6230164-0.8173141L87.8380432,109.6964722z M50.535408,101.3442307l-0.8546486-0.2621231l-0.1080475-0.032135
		l9.3522987,2.7987823c9.0717621,2.5356369,18.6633148,4.7487793,28.8768997,5.8426361l0.1666183,0.6498642
		C77.1600952,109.2999725,64.6774368,106.0704498,50.535408,101.3442307z"/>
	<path vector-effect="non-scaling-stroke" class="st7" d="M126.4156342,114.8583298l-6.4016113-1.0576706
		c-4.7051163-0.7635498-9.4810944-1.3001709-14.4932022-1.9690933l0.4832535,0.6809235l12.7764969,1.778595l12.6900253,2.1296692
		l-0.4135437-0.6913757L126.4156342,114.8583298z"/>
	<path vector-effect="non-scaling-stroke" class="st8" d="M88.6283112,112.378952
		c-1.5174942-0.2666016-2.9997635-0.5506287-4.6188736-0.8804932c-9.9576416-2.028717-18.9264832-4.8153458-28.0198517-7.289978
		l-9.7414551-3.1558609c17.8400345,5.0053253,31.8488235,8.4601974,42.0008087,10.3307495l4.9579239,1.7328949
		C91.6462936,112.8151474,90.1505127,112.6829605,88.6283112,112.378952z M88.2099533,111.3791122l5.0123825,1.7393265
		l12.1200562,1.4971771l-1.1127167-1.4553299L88.2099533,111.3791122z"/>
	<path vector-effect="non-scaling-stroke" class="st9" d="M118.5200348,114.8448868
		c-2.761879-0.399437-6.7015228-0.8970261-11.8189316-1.4927673l1.0651321,1.3826294
		c4.7235413,0.5057983,8.3594971,0.9367218,10.9078751,1.2927933c3.3171082,0.4634781,8.0172729,1.250824,14.1004868,2.36203
		l-0.7294006-1.3017731C126.2069778,116.0522308,121.6985855,115.3045883,118.5200348,114.8448868z"/>
	<path vector-effect="non-scaling-stroke" class="st9" d="M159.519577,122.6487579l-24.321579-4.9532089l0.9178772,1.4096527
		l47.1749268,8.9077225L159.519577,122.6487579z"/>
	<path vector-effect="non-scaling-stroke" class="st10" d="M151.8324585,122.3338242l5.6327972,2.4858322l6.3630829,2.8520966
		l-0.3553772-0.3893204l-5.8729248-2.7504959l-4.661438-1.9824142L151.8324585,122.3338242z"/>
	<path vector-effect="non-scaling-stroke" class="st11" d="M78.1445084,108.2100906
		c0.0647736,0.0105209,0.1235962,0.0294724,0.187973,0.0402451c0.8451843,0.1414642,1.6596909,0.2926254,2.3705215,0.3884888
		l-2.0935364-0.6837769l-2.7998352-0.4866867L78.1445084,108.2100906z"/>
	<path class="st12" d="M82.0495682,109.6350555l2.3773346,0.3459473l0.4699554,0.1484375l-3.0330963-0.4382782
		L82.0495682,109.6350555z"/>
	<path class="st12" d="M91.1362686,112.8331451l2.9068756,0.4377213l0.3987885,0.2108917l-3.3347473-0.4290695
		L91.1362686,112.8331451z"/>
	<path class="st12" d="M84.748436,110.5981674l2.9301987,0.5380402l0.4547653,0.1743622l-3.0974426-0.5970459L84.748436,110.5981674
		z"/>
	<path vector-effect="non-scaling-stroke" class="st10" d="M148.1815796,119.974205l1.1854706,0.2632446l0.4550476,0.2332916
		l-1.100235-0.2198715L148.1815796,119.974205z"/>
	<path vector-effect="non-scaling-stroke" class="st7" d="M147.3861389,119.0234833
		c-3.0447845-0.6439209-7.3860321-1.5194168-13.0237122-2.626503l0.3058319,0.6162186l38.8141632,8.0485992
		C162.2238007,122.3345184,153.5250397,120.3217545,147.3861389,119.0234833z"/>
	<path vector-effect="non-scaling-stroke" class="st10" d="M119.2664566,114.5223694l1.8184357,0.303772l0.3831024,0.2738113
		l-1.6887741-0.2721024L119.2664566,114.5223694z"/>
	<path vector-effect="non-scaling-stroke" class="st10" d="M131.539978,120.7640152
		c-2.1005707-0.9353485-4.3133774-2.0702362-6.6384125-3.4046555l1.5851059,0.3132706
		c3.7086258,2.0483093,6.264946,3.273735,7.6689682,3.6762695c2.044342,0.5861053,1.8999634,0.6280212,0.7271423-1.2841415
		c-0.7818756-1.2747726-2.3066559-3.4281387-4.5743561-6.4600601c-1.1348572-1.6641541-0.3539276-2.0057983,2.3427887-1.0249252
		c2.696701,0.9808578,6.6810913,2.6340408,11.9531555,4.959549l1.7210999,0.8303452l-1.1581573-0.262352
		c-5.4121704-2.3738327-8.9223938-3.8298264-10.5306702-4.3679886c-1.7725677-0.593132-3.7203064-1.5503082-3.79953-0.9866486
		c-0.0318604,0.2267456,0.3144684,0.6566391,1.0038757,1.5533981c1.6022491,2.0841141,3.0506287,4.1466064,4.345108,6.1874771
		c1.4897919,2.0683136,0.794754,2.5258942-2.0850677,1.372757
		C133.2529755,121.5267334,132.4167328,121.1544189,131.539978,120.7640152z"/>
	<path vector-effect="non-scaling-stroke" class="st7" d="M16.171402,58.9341049
		c-0.0124073,0.1707535-0.004488,0.4138069,0.0237522,0.7291527l0.4083595,3.2131042
		c4.8453522,2.4337502,8.4887962,4.5394402,10.9303341,6.3170586c3.7597828,2.7374039,9.0605011,7.7583542,15.9021606,15.0628662
		L30.084343,63.1700668l-0.9989491-1.4717865c-0.3681469-0.3893547-0.7201042-0.7151451-1.0558701-0.977375
		c-0.3357601-0.2622223-0.6436481-0.4303207-0.9116764-0.581398c-1.0057487-0.566906-2.0130539-0.5339775-3.1759357-0.6971321
		c-1.7815247-0.249958-4.3430195-0.6046944-7.6844883-1.064209C16.2096348,58.6172218,16.1809616,58.802536,16.171402,58.9341049z"
		/>
	<path vector-effect="non-scaling-stroke" class="st7" d="M124.584549,91.8626404l0.3192444,0.1061249l0.092865-0.3055954
		c0.3307114,0.1097412,0.5711899,0.2048569,0.7214203,0.2853394c0.0404358,0.0216599,0.0880127,0.0514297,0.1113434,0.088913
		c0.0139694,0.0224304,0.0289841,0.0477448,0.0335388,0.0754242c0.011055,0.0672226-0.0097275,0.1508942-0.0623398,0.2509842
		l0.3879318,0.1728973c0.0578461-0.1196899,0.082016-0.2144241,0.0724945-0.2842178
		c-0.0095596-0.0700912-0.0585556-0.1551666-0.1469803-0.2552261c0.0792923,0.025383,0.143219,0.0136871,0.1917725-0.0351028
		c0.0873337-0.0877457,0.111908-0.2701645,0.1072922-0.3540039c-0.0089417-0.1621704-0.1177521-0.2809372-0.2486572-0.3648682
		c-0.2616653-0.1677704-0.6828079-0.3802948-1.2634125-0.637558L124.584549,91.8626404z"/>
	<path vector-effect="non-scaling-stroke" class="st13" d="M125.1981583,91.0758667
		c-0.0316772,0.0742035-0.0552521,0.1317291-0.0707169,0.1725998c-0.0149155,0.0393829-0.0346451,0.0959625-0.059227,0.1697159
		c0.2899857,0.1030502,0.8336487,0.3308411,0.8602905,0.333107c0.0694885,0.0178833,0.1148224-0.0179443,0.1359787-0.1074982
		c0.0186844-0.0791321-0.0133362-0.1525726-0.0960999-0.2203369
		C125.935173,91.3853531,125.4677582,91.1807022,125.1981583,91.0758667z"/>
	<path vector-effect="non-scaling-stroke" class="st7" d="M124.1662216,90.2496567l0.3848114,0.1431503l-0.3502274,1.365654
		l-0.3796692-0.1226425L124.1662216,90.2496567z"/>
	<path vector-effect="non-scaling-stroke" class="st9" d="M120.2337723,91.1490326l0.3629761-0.0414047l0.1281433-0.5798264
		l0.925148,0.0164871l0.0885315-0.4006042l-0.9743118,0.0058212l0.0663452-0.3502197l1.007164,0.0456696l0.0908585-0.4111481
		l-1.3888931-0.019455L120.2337723,91.1490326z"/>
	<path vector-effect="non-scaling-stroke" class="st7" d="M122.0244675,91.1639786l0.2197189-0.2561798l0.8598022,0.2121277
		l0.075386,0.2951355l0.4052429,0.1317368l-0.3903198-1.7153473l-0.4047394-0.1342163l-1.1536865,1.4182968L122.0244675,91.1639786z
		"/>
	<path vector-effect="non-scaling-stroke" class="st13" d="M122.4359283,90.6405716l0.5985718,0.1433487l-0.0823593-0.6326599
		l-0.1216431-0.0285034L122.4359283,90.6405716z"/>
	<path vector-effect="non-scaling-stroke" class="st7" d="M125.3590469,90.3433609
		c-0.7277069-0.4726715-1.4352112-0.8271713-1.9593811-1.0374146c-0.8168488-0.3276291-2.0060806-0.5354538-3.567688-0.6234665
		l0.8388901,0.4398956c1.0751343-0.0218277,1.9630432,0.0971222,2.6637115,0.3568192
		c0.7447128,0.2760162,1.7814865,0.8165741,3.1103058,1.6216583
		C126.0740128,90.8251572,125.7120667,90.5726547,125.3590469,90.3433609z"/>
	<path vector-effect="non-scaling-stroke" class="st9" d="M120.8624039,84.7853546l-1.4356384-1.4798126
		c1.2305298,0.9429932,2.0596466,1.4151459,3.1781693,2.5785217c1.0260773,1.1701508,2.4459915,3.1571579,3.555069,4.7724075
		c-0.4422226-0.4145508-0.9447861-0.7117538-1.4266052-1.0471115c-0.481163-0.2745743-0.9875488-0.4796524-1.552887-0.7158966
		c-1.0029678-0.4098282-2.0427017-0.4695435-3.1820908-0.59935l2.4321594-0.4534912
		C122.3050385,86.7940521,121.7723846,85.7864304,120.8624039,84.7853546z"/>
	<path vector-effect="non-scaling-stroke" class="st7" d="M119.1052933,81.4083557
		c0.0017319,0.0686111,0.0047302,0.1661606,0.0090027,0.2926559l0.1213913,1.2793503
		c1.3128738,0.8153534,2.3010635,1.5393906,2.9645844,2.1721115c1.0217667,0.9743423,2.443428,2.8221741,4.2649841,5.5434875
		c-1.0922089-2.9337082-1.849556-5.144577-2.2720413-6.6326065c-0.2171021-0.7646561-0.42276-1.3396378-0.8224106-1.8525238
		c-0.6399078-0.8212128-1.9662857-0.9257584-2.2798691-0.9520264c-0.4804077-0.0402374-1.1439514-0.0711136-1.9906158-0.0926285
		C119.102211,81.2709427,119.1038742,81.3516693,119.1052933,81.4083557z"/>
	<path vector-effect="non-scaling-stroke" class="st7" d="M34.3451309,85.073082l0.806591,0.2000046l0.1699715-0.7704315
		c0.8355408,0.2066956,1.4460297,0.3947067,1.8314667,0.5640411c0.1037369,0.0455856,0.2266235,0.1097565,0.2912903,0.1975708
		c0.0387001,0.0525589,0.0805435,0.1120148,0.0970802,0.1793213c0.0401459,0.1634293,0.0050507,0.3734436-0.1052818,0.6300583
		l0.9885674,0.3512497c0.1194611-0.3058701,0.1607666-0.5438309,0.1239166-0.7138672
		c-0.0370102-0.170784-0.1740112-0.3708878-0.4110069-0.6003036c0.2001457,0.0472794,0.35532,0.0061722,0.4655228-0.1233063
		c0.1982079-0.2328568,0.2236786-0.686821,0.1961937-0.8924026c-0.0531845-0.3976593-0.3439713-0.6692352-0.6824722-0.8507767
		c-0.6766472-0.3628845-1.7546196-0.8053207-3.2339096-1.3272934L34.3451309,85.073082z"/>
	<path vector-effect="non-scaling-stroke" class="st13" d="M35.7050667,83.0175934
		c-0.063755,0.1888199-0.1107559,0.3350296-0.140995,0.438652c-0.0291405,0.0998535-0.0668831,0.2429581-0.1132355,0.4293213
		c0.7339325,0.1980667,2.116581,0.6545486,2.1826363,0.6550217c0.174572,0.0306854,0.2793083-0.0662766,0.3142014-0.2908783
		c0.0308266-0.1984558-0.0621758-0.3731689-0.279007-0.5241394C37.5795708,83.6381149,36.3891411,83.2239685,35.7050667,83.0175934z
		"/>
	<path vector-effect="non-scaling-stroke" class="st7" d="M33.0049553,81.1812134l0.9751854,0.2785797l-0.600071,3.430481
		l-0.9585571-0.2290802L33.0049553,81.1812134z"/>
	<path vector-effect="non-scaling-stroke" class="st9" d="M23.4934387,84.1518173l0.8859406-0.1717377l0.2041416-1.4525375
		l2.2815151-0.1371918l0.1410427-1.0035706l-2.3982944,0.2015686l0.096077-0.8752213l2.4890842-0.0810928l0.1447544-1.0299759
		l-3.4241295,0.2189941L23.4934387,84.1518173z"/>
	<path vector-effect="non-scaling-stroke" class="st7" d="M27.9062195,83.8444901l0.4918633-0.6731262l2.1581745,0.3571854
		l0.2423725,0.712326l1.0232964,0.2465591L30.531044,80.338089l-1.0225277-0.2527542l-2.5686016,3.7145233L27.9062195,83.8444901z"
		/>
	<path vector-effect="non-scaling-stroke" class="st13" d="M28.818924,82.4764404l1.5016422,0.2379761l-0.3244133-1.5421982
		l-0.3050461-0.0468216L28.818924,82.4764404z"/>
	<path vector-effect="non-scaling-stroke" class="st7" d="M37.2045975,81.3293076
		c-2.1639748-1.2871399-4.2460976-2.1850204-5.7778454-2.6738892c-2.3870201-0.7618408-5.9072666-1.1619034-10.5607395-1.2002029
		l2.8137321,1.3106003c3.0223255-0.2484589,5.5550365-0.0818481,7.5981331,0.4998245
		c2.171505,0.6182251,5.2270088,2.0048752,9.1665039,4.1599579C39.334301,82.6524811,38.2543755,81.9537201,37.2045975,81.3293076z"
		/>
	<path vector-effect="non-scaling-stroke" class="st9" d="M22.0722923,67.7881393l-4.70504-3.4667358
		c3.8808517,2.0616913,7.6693649,4.4745483,11.339983,7.2047195c3.4153271,2.7922592,7.0634136,6.2043076,10.9187145,10.20224
		c-1.4300346-0.9524612-2.9118767-1.8341904-4.4156036-2.54673c-1.5037308-0.7125473-2.9221954-1.3406219-4.6131496-1.7370377
		c-2.9955578-0.6773224-6.3847446-1.0622406-9.6309204-0.8929443l6.9175053-0.9539566
		C27.0439453,72.7302933,25.0840702,70.1619339,22.0722923,67.7881393z"/>
</g>
<path class="st12" d="M27.141428,149.9999847h155.7171326c3.9414673,0,7.1414337,2.6885071,7.1414337,6l0,0
	c0,3.3114929-3.1999664,6-7.1414337,6H27.141428c-3.9414616,0-7.141428-2.6885071-7.141428-6l0,0
	C20,152.6884918,23.1999664,149.9999847,27.141428,149.9999847z"/>
</svg>
