<?xml version="1.0" encoding="utf-8"?>
<!-- Generator: Adobe Illustrator 23.0.2, SVG Export Plug-In . SVG Version: 6.00 Build 0)  -->
<svg version="1.1" id="user" xmlns="http://www.w3.org/2000/svg" xmlns:xlink="http://www.w3.org/1999/xlink" x="0px" y="0px"
	 viewBox="0 0 165.7 66" style="enable-background:new 0 0 165.7 66;" xml:space="preserve">
<style type="text/css">
	.st0{fill:none;}
	.st1{fill:#004B94;}
	.st2{fill-rule:evenodd;clip-rule:evenodd;fill:#004B94;}
	.st3{fill-rule:evenodd;clip-rule:evenodd;fill:#E32219;}
	.st4{fill-rule:evenodd;clip-rule:evenodd;fill:#E2001A;}
	.st5{fill:#87888A;}
	.st6{fill:none;stroke:#87888A;stroke-width:0.18;stroke-linecap:round;stroke-linejoin:round;stroke-miterlimit:1.414;}
</style>
<path class="st0" d="z"/>
<path class="st0" d="z"/>
<path class="st0" d="z"/>
<path class="st0" d="z"/>
<path class="st0" d="z"/>
<path class="st0" d="z"/>
<path class="st1" d="M141.1,22.7v0.3l0,0.2l-0.1,0.2l-0.1,0.1l-0.2,0.1l-0.1,0.1l-0.2,0h-0.4l-0.2,0l-0.2-0.1l-0.2-0.1l-0.1-0.1
	l-0.1-0.2l-0.1-0.2V22l0.1-0.2l0.1-0.2l0.1-0.1l0.2-0.1l0.2,0l0.2,0h0.4l0.2,0l0.1,0l0.2,0.1l0.1,0.1l0.1,0.2l0,0.2
	C141.1,22,141.1,22.7,141.1,22.7z M142.2,22.7v-0.3l0-0.4l-0.1-0.3l-0.2-0.3l-0.3-0.2l-0.3-0.1l-0.4-0.1l-0.5,0h-1l-0.5,0l-0.4,0.1
	l-0.3,0.1l-0.3,0.2l-0.2,0.3l-0.1,0.3l0,0.4v0.3l0,0.4l0.1,0.3l0.2,0.3l0.3,0.2l0.3,0.2l0.4,0.1l0.5,0.1h1l0.5-0.1l0.4-0.1l0.3-0.2
	l0.3-0.2l0.2-0.3l0.1-0.3L142.2,22.7z M131.9,22.4l-1,0l-0.5,0l-0.4,0l-0.1-0.1l-0.1-0.1l-0.1-0.1v-0.4l0-0.1l0.1-0.1l0.1-0.1l0.2,0
	l0.1,0l0.4,0l0.5,0l0.2,0l0.1,0.1l0.1,0.1l0.1,0.1l0.1,0.5V22.4z M133.1,22.7v-0.5l0-0.3l-0.1-0.3l-0.2-0.2l-0.3-0.2l-0.3-0.1
	l-0.4-0.1l-0.5,0h-1l-0.4,0l-0.4,0.1l-0.3,0.1l-0.3,0.2l-0.1,0.2l-0.1,0.2l0,0.2v0l0,0.3l0.1,0.2l0.2,0.2l0.3,0.1l0.3,0.1l0.4,0.1
	l0.4,0h1l0.5,0l0,0.2l0,0.2l-0.1,0.1l-0.1,0.1l-0.1,0.1l-0.2,0l-0.5,0h-0.9l-0.7,0H129l0,0.1v0.3h0l0.1,0l0.6,0l1,0h0.5l0.5-0.1
	l0.4-0.1l0.3-0.2l0.3-0.2l0.2-0.3l0.1-0.3L133.1,22.7L133.1,22.7z M122.8,22.4l-1,0l-0.4,0l-0.4,0l-0.2-0.1l-0.1-0.1l-0.1-0.1v-0.4
	l0.1-0.1l0.1-0.1l0.1-0.1l0.2,0l0.2,0l0.4,0l0.4,0l0.2,0l0.1,0.1l0.1,0.1l0.1,0.1l0.1,0.2L122.8,22.4L122.8,22.4z M123.9,22.7v-0.5
	l0-0.3l-0.1-0.3l-0.2-0.2l-0.3-0.2L123,21l-0.4-0.1l-0.4,0h-1l-0.5,0l-0.4,0.1l-0.3,0.1l-0.2,0.2l-0.2,0.2l-0.1,0.2v0.3l0,0.3
	l0.1,0.2l0.2,0.2l0.2,0.1l0.3,0.1l0.4,0.1l0.4,0h1.1l0.5,0l0,0.2l0,0.2l-0.1,0.1l-0.1,0.1l-0.2,0.1l-0.2,0l-0.5,0h-0.9l-0.7,0h-0.1
	l0,0.1v0.3h0l0.1,0l0.6,0l1,0h0.5l0.5-0.1L123,24l0.3-0.2l0.3-0.2l0.2-0.3l0.1-0.3L123.9,22.7z M113.4,24.1v-3.2l0,0l-0.1,0h-0.6
	l-0.2,0l-1.4,0.3h0l0,0v0.4l0,0h0.2l1-0.2v2.6l0,0.1L113.4,24.1C113.3,24.2,113.4,24.1,113.4,24.1z M98.7,22.7h-1.8v-0.1l0-0.1
	l0.1-0.1l0.1-0.1l0.3-0.1l0.4,0l0.4,0l0.3,0.1l0.2,0.2l0,0.1V22.7z M99.8,23v-0.2l0-0.3l-0.1-0.2l-0.1-0.2l-0.2-0.2L99,21.8
	l-0.3-0.1l-0.4,0l-0.5,0l-0.5,0l-0.4,0l-0.4,0.1l-0.3,0.1l-0.2,0.2l-0.2,0.2l-0.1,0.2l0,0.3v0.5l0,0.1l0.2,0.2l0.2,0.2l0.3,0.1
	l0.6,0.2l0.4,0h1.2l0.7-0.1h0.1l0-0.1v-0.3l0,0h-0.1l-1.5,0l-0.3,0h-0.2l-0.2-0.1l-0.1,0L97,23.4l0-0.1l0-0.2h2.7L99.8,23
	C99.8,23.1,99.8,23,99.8,23z M91.3,24v-0.3l0,0l-0.1,0h0l-1.1,0l-0.3,0l-0.3-0.1l-0.1-0.1l-0.1-0.1l0-0.1l0-0.1v-0.4l0-0.2l0-0.1
	l0.1-0.1l0.1-0.1l0.3-0.1h1.5l0,0v-0.3l0,0l-0.1,0l-0.4,0l-0.7,0l-0.4,0l-0.4,0L89,21.8l-0.3,0.1L88.5,22l-0.2,0.2l-0.1,0.2l0,0.3
	v0.4l0,0.3l0.1,0.2l0.2,0.2l0.2,0.1l0.3,0.1l0.3,0l0.4,0.1h1.1l0.4,0L91.3,24C91.3,24.1,91.3,24,91.3,24z M83.4,24.1v-1.5l0-0.2
	l0-0.2l0-0.2l-0.1-0.1l-0.2-0.1l-0.2-0.1l-0.3,0l-0.4,0l-0.4,0h-0.3l-0.3,0.1l-0.4,0.1v-0.1l0,0l-0.1,0h-0.7l-0.1,0l0,0v2.4l0,0.1h1
	l0-0.1v-1.8l0.5-0.1l0.5,0H82l0.1,0l0.1,0l0,0l0,0.1v1.7l0,0.1L83.4,24.1C83.4,24.2,83.4,24.1,83.4,24.1z M74.6,24.1v-2.4l0,0
	l-0.1,0h-0.8l-0.1,0l0,0v2.4l0,0.1L74.6,24.1C74.5,24.2,74.6,24.1,74.6,24.1z M74.6,21.2v-0.4l0,0l-0.1,0h-0.8l-0.1,0l-0.1,0v0.4
	l0.2,0.1h0.8L74.6,21.2C74.6,21.3,74.6,21.2,74.6,21.2z M68.7,23.5v-0.1l-0.1-0.2L68.3,23l-0.5-0.2l-1.1-0.4l-0.2-0.1l-0.1,0v-0.1
	l0.1,0l0.2,0H67l0.8,0h0.7l0-0.1v-0.2l0-0.1l-0.1,0l-0.6,0l-0.9,0l-0.7,0L66,21.7l-0.2,0l-0.2,0.1L65.4,22l0,0.1l0,0.1l0,0.2
	l0.2,0.2l0.2,0.1l0.3,0.1l1.1,0.4l0.3,0.1l0,0v0.1l-0.1,0.1l-0.2,0H67l-1.4,0h0l-0.1,0l0,0V24l0,0l0.1,0l0.8,0.1h1.1l0.4,0l0.3-0.1
	l0.2-0.1l0.2-0.1l0.1-0.1l0.1-0.1C68.7,23.7,68.7,23.5,68.7,23.5z"/>
<path class="st0" d="M141.1,22.7v0.3l0,0.2l-0.1,0.2l-0.1,0.1l-0.2,0.1l-0.1,0.1l-0.2,0h-0.4l-0.2,0l-0.2-0.1l-0.2-0.1l-0.1-0.1
	l-0.1-0.2l-0.1-0.2V22l0.1-0.2l0.1-0.2l0.1-0.1l0.2-0.1l0.2,0l0.2,0h0.4l0.2,0l0.1,0l0.2,0.1l0.1,0.1l0.1,0.2l0,0.2V22.7"/>
<path class="st0" d="M142.2,22.7v-0.3l0-0.4l-0.1-0.3l-0.2-0.3l-0.3-0.2l-0.3-0.1l-0.4-0.1l-0.5,0h-1l-0.5,0l-0.4,0.1l-0.3,0.1
	l-0.3,0.2l-0.2,0.3l-0.1,0.3l0,0.4v0.3l0,0.4l0.1,0.3l0.2,0.3l0.3,0.2l0.3,0.2l0.4,0.1l0.5,0.1h1l0.5-0.1l0.4-0.1l0.3-0.2l0.3-0.2
	l0.2-0.3l0.1-0.3L142.2,22.7 M131.9,22.4l-1,0l-0.5,0l-0.4,0l-0.1-0.1l-0.1-0.1l-0.1-0.1v-0.4l0-0.1l0.1-0.1l0.1-0.1l0.2,0l0.1,0
	l0.4,0l0.5,0l0.2,0l0.1,0.1l0.1,0.1l0.1,0.1l0.1,0.5V22.4"/>
<path class="st0" d="M133.1,22.7v-0.5l0-0.3l-0.1-0.3l-0.2-0.2l-0.3-0.2l-0.3-0.1l-0.4-0.1l-0.5,0h-1l-0.4,0l-0.4,0.1l-0.3,0.1
	l-0.3,0.2l-0.1,0.2l-0.1,0.2l0,0.2v0l0,0.3l0.1,0.2l0.2,0.2l0.3,0.1l0.3,0.1l0.4,0.1l0.4,0h1l0.5,0l0,0.2l0,0.2l-0.1,0.1l-0.1,0.1
	l-0.1,0.1l-0.2,0l-0.5,0h-0.9l-0.7,0H129l0,0.1v0.3h0l0.1,0l0.6,0l1,0h0.5l0.5-0.1l0.4-0.1l0.3-0.2l0.3-0.2l0.2-0.3l0.1-0.3
	L133.1,22.7 M122.8,22.4l-1,0l-0.4,0l-0.4,0l-0.2-0.1l-0.1-0.1l-0.1-0.1v-0.4l0.1-0.1l0.1-0.1l0.1-0.1l0.2,0l0.2,0l0.4,0l0.4,0
	l0.2,0l0.1,0.1l0.1,0.1l0.1,0.1l0.1,0.2L122.8,22.4"/>
<path class="st0" d="M123.9,22.7v-0.5l0-0.3l-0.1-0.3l-0.2-0.2l-0.3-0.2L123,21l-0.4-0.1l-0.4,0h-1l-0.5,0l-0.4,0.1l-0.3,0.1
	l-0.2,0.2l-0.2,0.2l-0.1,0.2v0.3l0,0.3l0.1,0.2l0.2,0.2l0.2,0.1l0.3,0.1l0.4,0.1l0.4,0h1.1l0.5,0l0,0.2l0,0.2l-0.1,0.1l-0.1,0.1
	l-0.2,0.1l-0.2,0l-0.5,0h-0.9l-0.7,0h-0.1l0,0.1v0.3h0l0.1,0l0.6,0l1,0h0.5l0.5-0.1L123,24l0.3-0.2l0.3-0.2l0.2-0.3l0.1-0.3
	L123.9,22.7 M113.4,24.1v-3.2l0,0l-0.1,0h-0.6l-0.2,0l-1.4,0.3h0l0,0v0.4l0,0h0.2l1-0.2v2.6l0,0.1L113.4,24.1L113.4,24.1 M98.7,22.7
	h-1.8v-0.1l0-0.1l0.1-0.1l0.1-0.1l0.3-0.1l0.4,0l0.4,0l0.3,0.1l0.2,0.2l0,0.1V22.7"/>
<path class="st0" d="M99.8,23v-0.2l0-0.3l-0.1-0.2l-0.1-0.2l-0.2-0.2L99,21.8l-0.3-0.1l-0.4,0l-0.5,0l-0.5,0l-0.4,0l-0.4,0.1
	l-0.3,0.1l-0.2,0.2l-0.2,0.2l-0.1,0.2l0,0.3v0.5l0,0.1l0.2,0.2l0.2,0.2l0.3,0.1l0.6,0.2l0.4,0h1.2l0.7-0.1h0.1l0-0.1v-0.3l0,0h-0.1
	l-1.5,0l-0.3,0h-0.2l-0.2-0.1l-0.1,0L97,23.4l0-0.1l0-0.2h2.7L99.8,23L99.8,23 M91.3,24v-0.3l0,0l-0.1,0h0l-1.1,0l-0.3,0l-0.3-0.1
	l-0.1-0.1l-0.1-0.1l0-0.1l0-0.1v-0.4l0-0.2l0-0.1l0.1-0.1l0.1-0.1l0.3-0.1h1.5l0,0v-0.3l0,0l-0.1,0l-0.4,0l-0.7,0l-0.4,0l-0.4,0
	L89,21.8l-0.3,0.1L88.5,22l-0.2,0.2l-0.1,0.2l0,0.3v0.4l0,0.3l0.1,0.2l0.2,0.2l0.2,0.1l0.3,0.1l0.3,0l0.4,0.1h1.1l0.4,0L91.3,24
	L91.3,24 M83.4,24.1v-1.5l0-0.2l0-0.2l0-0.2l-0.1-0.1l-0.2-0.1l-0.2-0.1l-0.3,0l-0.4,0l-0.4,0h-0.3l-0.3,0.1l-0.4,0.1v-0.1l0,0
	l-0.1,0h-0.7l-0.1,0l0,0v2.4l0,0.1h1l0-0.1v-1.8l0.5-0.1l0.5,0H82l0.1,0l0.1,0l0,0l0,0.1v1.7l0,0.1L83.4,24.1L83.4,24.1 M74.6,24.1
	v-2.4l0,0l-0.1,0h-0.8l-0.1,0l0,0v2.4l0,0.1L74.6,24.1L74.6,24.1 M74.6,21.2v-0.4l0,0l-0.1,0h-0.8l-0.1,0l-0.1,0v0.4l0.2,0.1h0.8
	L74.6,21.2L74.6,21.2 M68.7,23.5v-0.1l-0.1-0.2L68.3,23l-0.5-0.2l-1.1-0.4l-0.2-0.1l-0.1,0v-0.1l0.1,0l0.2,0H67l0.8,0h0.7l0-0.1
	v-0.2l0-0.1l-0.1,0l-0.6,0l-0.9,0l-0.7,0L66,21.7l-0.2,0l-0.2,0.1L65.4,22l0,0.1l0,0.1l0,0.2l0.2,0.2l0.2,0.1l0.3,0.1l1.1,0.4
	l0.3,0.1l0,0v0.1l-0.1,0.1l-0.2,0H67l-1.4,0h0l-0.1,0l0,0V24l0,0l0.1,0l0.8,0.1h1.1l0.4,0l0.3-0.1l0.2-0.1l0.2-0.1l0.1-0.1l0.1-0.1
	L68.7,23.5"/>
<path class="st2" d="M53.4,28.5h20.7v4.6H59.5v3.5h13.9V41H59.5v6.5h-6.1V28.5z M54.6,13.5L17.3,48.2h28.4L38,40.7
	C38,40.7,54.6,13.5,54.6,13.5z"/>
<path class="st3" d="M90.4,28.5h3.9l10.9,18.9h-6.7l-1.9-3.4h-6.1V40h3.9l-3.9-7C90.4,33,90.4,28.5,90.4,28.5z M86.5,28.5h3.9V33
	l0-0.1l-3.8,7h3.8v4.1h-6.1l-1.8,3.4h-6.8C75.8,47.4,86.5,28.5,86.5,28.5z M107.7,28.5h6v18.9h-6.1L107.7,28.5z M130.3,28.5h6.1
	l0.8,0l0.8,0l0.7,0.1l0.6,0.2l0.5,0.2l0.5,0.2l0.4,0.3l0.4,0.4l0.3,0.4l0.3,0.4l0.2,0.5l0.3,1l0.1,0.6l0,0.6v2.7l-0.1,0.8l-0.1,0.4
	l-0.1,0.3l-0.1,0.3l-0.2,0.3l-0.2,0.3l-0.2,0.3l-0.3,0.2l-0.3,0.2l-0.4,0.2l-0.4,0.1l-0.5,0.1L139,40v0.1l0.6,0.1l0.6,0.2l0.5,0.3
	l0.3,0.2l0.5,0.5l0.4,0.6l0.1,0.4l0.1,0.4l0.1,0.5l0,0.5l0,0.6v3.2h-6.1v-2.3l0-0.7l-0.1-0.6l-0.1-0.2l-0.1-0.2l-0.1-0.2l-0.1-0.1
	l-0.2-0.1l-0.2-0.1l-0.2-0.1l-0.2-0.1l-0.5-0.1h-4.1v-4.8h3.9l0.5,0l0.5-0.1l0.4-0.1l0.3-0.2l0.2-0.3l0.2-0.4l0.1-0.4v-1l0-0.6
	l0-0.2l0-0.2l-0.1-0.2l-0.1-0.2l-0.1-0.1l-0.2-0.1l-0.4-0.2l-0.5-0.1l-0.6,0l-0.6,0h-3.4L130.3,28.5L130.3,28.5z M118.1,28.5h12.1
	v4.7h-6.1v4.6h6.1v4.8h-6.1v4.9h-6.1V28.5z M48.3,16.1L11.6,50.3h30l4.5,4H0.1L59,0.1L48.3,16.1z"/>
<path class="st4" d="M147,28.5l0.5,0l0.5,0.1l0.4,0.2l0.4,0.3l0.3,0.4l0.2,0.4l0.1,0.5l0,0.5l0,0.5l-0.1,0.5l-0.2,0.4l-0.3,0.3
	l-0.4,0.3L148,33l-0.5,0.1l-0.5,0v-0.3l0.4,0l0.4-0.1l0.4-0.2l0.3-0.3l0.2-0.3l0.2-0.4l0.1-0.4l0-0.4l0-0.4l-0.1-0.4l-0.2-0.4
	l-0.2-0.3l-0.3-0.3l-0.4-0.2l-0.4-0.1H147V28.5L147,28.5z M147,31L147,31l0.8,1.2h0.5l-0.9-1.2l0.3,0l0.1,0l0.1-0.1l0.1-0.1l0.1-0.1
	l0-0.2l0-0.1l0-0.2l0-0.1l0-0.1l-0.1-0.1l-0.1-0.1l-0.2,0l-0.2,0H147v0.2h0.5l0.2,0.1l0.1,0l0,0.1l0.1,0.3l0,0.1l-0.1,0.1l-0.1,0.1
	l-0.1,0l-0.3,0H147L147,31L147,31z M144.5,30.8l0-0.5l0.1-0.5l0.2-0.4l0.3-0.4l0.4-0.3l0.5-0.2l0.5-0.1l0.5,0v0.3h-0.5l-0.4,0.1
	l-0.4,0.2l-0.3,0.3l-0.2,0.3l-0.2,0.4l-0.1,0.4l0,0.4l0,0.4l0.1,0.4l0.2,0.4l0.2,0.3l0.3,0.3l0.4,0.2l0.4,0.1l0.5,0v0.3l-0.5,0
	l-0.5-0.1l-0.5-0.2l-0.4-0.3l-0.3-0.3l-0.2-0.4l-0.1-0.5L144.5,30.8L144.5,30.8z M147,29.5h-0.9v2.7h0.3V31h0.6v-0.3h-0.6v-1h0.6
	V29.5z"/>
<path class="st3" d="M147,28.5l0.5,0l0.5,0.1l0.4,0.2l0.4,0.3l0.3,0.4l0.2,0.4l0.1,0.5l0,0.5l0,0.5l-0.1,0.5l-0.2,0.4l-0.3,0.3
	l-0.4,0.3L148,33l-0.5,0.1l-0.5,0v-0.3l0.4,0l0.4-0.1l0.4-0.2l0.3-0.3l0.2-0.3l0.2-0.4l0.1-0.4l0-0.4l0-0.4l-0.1-0.4l-0.2-0.4
	l-0.2-0.3l-0.3-0.3l-0.4-0.2l-0.4-0.1H147V28.5L147,28.5z M147,31L147,31l0.8,1.2h0.5l-0.9-1.2l0.3,0l0.1,0l0.1-0.1l0.1-0.1l0.1-0.1
	l0-0.2l0-0.1l0-0.2l0-0.1l0-0.1l-0.1-0.1l-0.1-0.1l-0.2,0l-0.2,0H147v0.2h0.5l0.2,0.1l0.1,0l0,0.1l0.1,0.3l0,0.1l-0.1,0.1l-0.1,0.1
	l-0.1,0l-0.3,0H147L147,31L147,31z M144.5,30.8l0-0.5l0.1-0.5l0.2-0.4l0.3-0.4l0.4-0.3l0.5-0.2l0.5-0.1l0.5,0v0.3h-0.5l-0.4,0.1
	l-0.4,0.2l-0.3,0.3l-0.2,0.3l-0.2,0.4l-0.1,0.4l0,0.4l0,0.4l0.1,0.4l0.2,0.4l0.2,0.3l0.3,0.3l0.4,0.2l0.4,0.1l0.5,0v0.3l-0.5,0
	l-0.5-0.1l-0.5-0.2l-0.4-0.3l-0.3-0.3l-0.2-0.4l-0.1-0.5L144.5,30.8L144.5,30.8z M147,29.5h-0.9v2.7h0.3V31h0.6v-0.3h-0.6v-1h0.6
	V29.5z"/>
<path class="st5" d="M156.5,59.8l0.4-0.4l0.1-0.1l0.1-0.1l0.1-0.1l0.3-0.4l0.4-0.5l0.5-0.6l0.1-0.2l0.1-0.3l-0.6,0.2l-0.2,0.1
	l-0.2,0.1l-0.1,0.1l-0.1,0.1L157,58l-0.4,0.3l-1.4,0.9l-1.6,1l-0.2,0h-0.6l0,0l0.1-0.3l0.3-0.5l0.3-0.5l0.2-0.3l0.4-0.5l0.1-0.1
	l0.1-0.1l0.1-0.3l0.1-0.3l0-0.1l-0.1-0.1l-0.1-0.1l0.3-0.2l0.2-0.1l0.4-0.1l0.3-0.1h0.1l0,0v0.2l-0.1,0.3l-0.1,0.3l-0.2,0.4l0,0
	L155,58l-0.1,0.2l-0.1,0.3l-0.1,0.2l0.4-0.2l0.3-0.2l0.2,0l0.1,0l0,0L156,58l0.3-0.2l0.3-0.1l0.2-0.1l0.1,0l0.1-0.1l0.1-0.1l0.1-0.1
	l0.4-0.2l0.7-0.4l0.5-0.2l0.2-0.1h0.4l0.2,0.1l0,0l0,0.1l0,0.1l-0.1,0.2l-0.3,0.4l-0.5,0.9l-0.5,0.7l-0.1,0.2l-0.2,0.4l-0.2,0.4
	l-0.5,0.6l-0.1,0.1l-0.2,0h-0.2l-0.1,0l-0.1,0l0-0.1l-0.1-0.2l0-0.1v0L156.5,59.8L156.5,59.8z"/>
<path class="st6" d="M156.5,59.8l0.4-0.4l0.1-0.1l0.1-0.1l0.1-0.1l0.3-0.4l0.4-0.5l0.5-0.6l0.1-0.2l0.1-0.3l-0.6,0.2l-0.2,0.1
	l-0.2,0.1l-0.1,0.1l-0.1,0.1L157,58l-0.4,0.3l-1.4,0.9l-1.6,1l-0.2,0h-0.6l0,0l0.1-0.3l0.3-0.5l0.3-0.5l0.2-0.3l0.4-0.5l0.1-0.1
	l0.1-0.1l0.1-0.3l0.1-0.3l0-0.1l-0.1-0.1l-0.1-0.1l0.3-0.2l0.2-0.1l0.4-0.1l0.3-0.1h0.1l0,0v0.2l-0.1,0.3l-0.1,0.3l-0.2,0.4l0,0
	L155,58l-0.1,0.2l-0.1,0.3l-0.1,0.2l0.4-0.2l0.3-0.2l0.2,0l0.1,0l0,0L156,58l0.3-0.2l0.3-0.1l0.2-0.1l0.1,0l0.1-0.1l0.1-0.1l0.1-0.1
	l0.4-0.2l0.7-0.4l0.5-0.2l0.2-0.1h0.4l0.2,0.1l0,0l0,0.1l0,0.1l-0.1,0.2l-0.3,0.4l-0.5,0.9l-0.5,0.7l-0.1,0.2l-0.2,0.4l-0.2,0.4
	l-0.5,0.6l-0.1,0.1l-0.2,0h-0.2l-0.1,0l-0.1,0l0-0.1l-0.1-0.2l0-0.1v0L156.5,59.8"/>
<path class="st5" d="M150.5,58.7l0.3-0.5l0.3-0.5l0.3-0.5l-0.1,0l-0.1,0l0-0.1l0.1-0.1l0.3-0.2l0.3-0.2l0.2-0.1l0.2,0h0.1l0.2,0
	l0.1,0v0.2l-0.1,0.4l-0.1,0.2l-0.1,0.2l-0.3,0.4l-0.6,0.8l-0.8,1l-0.3,0.4l-0.3,0.3l-0.1,0.1l-0.2,0.1l-0.2,0.1l-0.2,0h-0.1l0,0
	l0.1-0.1l0-0.1l0.2-0.3l0.4-0.5l0.2-0.3l0.1-0.2L150.5,58.7L150.5,58.7z"/>
<path class="st6" d="M150.5,58.7l0.3-0.5l0.3-0.5l0.3-0.5l-0.1,0l-0.1,0l0-0.1l0.1-0.1l0.3-0.2l0.3-0.2l0.2-0.1l0.2,0h0.1l0.2,0
	l0.1,0v0.2l-0.1,0.4l-0.1,0.2l-0.1,0.2l-0.3,0.4l-0.6,0.8l-0.8,1l-0.3,0.4l-0.3,0.3l-0.1,0.1l-0.2,0.1l-0.2,0.1l-0.2,0h-0.1l0,0
	l0.1-0.1l0-0.1l0.2-0.3l0.4-0.5l0.2-0.3l0.1-0.2L150.5,58.7"/>
<path class="st5" d="M154,54.4v0.1l-0.1,0.2l-0.1,0.2l-0.2,0.1l-0.3,0.2l-0.2,0.1l-0.1,0l-0.2-0.2l0-0.2v-0.2l0-0.1l0.1-0.1l0.2-0.1
	l0.3-0.1l0.2,0h0.2l0.1,0.1L154,54.4L154,54.4z"/>
<path class="st6" d="M154,54.4v0.1l-0.1,0.2l-0.1,0.2l-0.2,0.1l-0.3,0.2l-0.2,0.1l-0.1,0l-0.2-0.2l0-0.2v-0.2l0-0.1l0.1-0.1l0.2-0.1
	l0.3-0.1l0.2,0h0.2l0.1,0.1L154,54.4"/>
<path class="st5" d="M140.1,59l-0.5,0.8l-0.1,0.3l0,0.2l0.2-0.1l0.3-0.2l0,0.2l0.1,0.1l-0.3,0.2l-0.3,0.3l-0.1,0l-0.3,0.1l-0.5,0.1
	l-0.1,0l-0.1-0.1v0h0l-0.1-0.2l0-0.1l0.5-1l0.3-0.5l0.3-0.5l0.2-0.3l1-1.1l0.2-0.3l0.5-0.6l0.5-0.7l0.5-0.6l0.3-0.4l0,0l0-0.1v-0.1
	l0-0.2l0.2-0.4l0-0.2l0-0.2l0-0.3l0.3-0.2l0.2-0.1l0.2-0.1l0.2,0h0.1l0.2,0h0v0l0,0.2l-0.2,0.7l-0.1,0.4l0,0.2l-0.1,0.1l-0.3,0.3
	l-0.1,0.1l-0.3,0.4l-0.2,0.2l-0.5,0.7l-0.5,0.8l-0.3,0.5l-0.7,1L140.1,59L140.1,59z"/>
<path class="st6" d="M140.1,59l-0.5,0.8l-0.1,0.3l0,0.2l0.2-0.1l0.3-0.2l0,0.2l0.1,0.1l-0.3,0.2l-0.3,0.3l-0.1,0l-0.3,0.1l-0.5,0.1
	l-0.1,0l-0.1-0.1v0h0l-0.1-0.2l0-0.1l0.5-1l0.3-0.5l0.3-0.5l0.2-0.3l1-1.1l0.2-0.3l0.5-0.6l0.5-0.7l0.5-0.6l0.3-0.4l0,0l0-0.1v-0.1
	l0-0.2l0.2-0.4l0-0.2l0-0.2l0-0.3l0.3-0.2l0.2-0.1l0.2-0.1l0.2,0h0.1l0.2,0h0v0l0,0.2l-0.2,0.7l-0.1,0.4l0,0.2l-0.1,0.1l-0.3,0.3
	l-0.1,0.1l-0.3,0.4l-0.2,0.2l-0.5,0.7l-0.5,0.8l-0.3,0.5l-0.7,1L140.1,59"/>
<path class="st5" d="M139.2,52.9l0.4-0.5l0.2-0.3l0.1-0.2l0-0.1l0.1-0.1l0.5-0.5l0.4-0.3l0.3-0.2l0.3,0l0.4,0L142,51l-0.1,0.4
	l-0.1,0.5l-0.1,0.3l0,0l0,0v-0.4l0-0.2l0,0l-0.1,0l-0.2,0l-0.6,0.7l-0.6,0.7l-0.7,0.8l-0.3,0.4l-0.4,0.5l-0.1,0.2V55l1-0.2l0.9-0.2
	l0,0l0.2,0.1l0,0l0,0.1l-0.1,0.1l-0.3,0.1l-0.7,0.3l-0.6,0.2l-0.3,0.1l-0.4,0l-0.4,0.5l-0.5,0.6l-0.4,0.6l-0.5,0.7l-0.3,0.5
	l-0.9,1.2l-0.7,0.9l-1.2,1.8l-0.2,0.1h-0.4l-0.2,0l-0.2-0.1l0.1-0.1l0-0.3l0-0.5l0.3,0.3l0.1,0l0.1,0l0.7-0.9l0.6-0.9l1.5-2.1
	l1.2-1.7l0.1-0.3l-0.9,0.1l-0.5,0h-0.1l-0.1,0l-0.4,0l-0.5-0.1l-0.1-0.1l0-0.1l0.2,0l0.2,0l0.7-0.1l1.3-0.1l0.3-0.1l0.3-0.1l1.1-1.6
	L139.2,52.9L139.2,52.9z"/>
<path class="st6" d="M139.2,52.9l0.4-0.5l0.2-0.3l0.1-0.2l0-0.1l0.1-0.1l0.5-0.5l0.4-0.3l0.3-0.2l0.3,0l0.4,0L142,51l-0.1,0.4
	l-0.1,0.5l-0.1,0.3l0,0l0,0v-0.4l0-0.2l0,0l-0.1,0l-0.2,0l-0.6,0.7l-0.6,0.7l-0.7,0.8l-0.3,0.4l-0.4,0.5l-0.1,0.2V55l1-0.2l0.9-0.2
	l0,0l0.2,0.1l0,0l0,0.1l-0.1,0.1l-0.3,0.1l-0.7,0.3l-0.6,0.2l-0.3,0.1l-0.4,0l-0.4,0.5l-0.5,0.6l-0.4,0.6l-0.5,0.7l-0.3,0.5
	l-0.9,1.2l-0.7,0.9l-1.2,1.8l-0.2,0.1h-0.4l-0.2,0l-0.2-0.1l0.1-0.1l0-0.3l0-0.5l0.3,0.3l0.1,0l0.1,0l0.7-0.9l0.6-0.9l1.5-2.1
	l1.2-1.7l0.1-0.3l-0.9,0.1l-0.5,0h-0.1l-0.1,0l-0.4,0l-0.5-0.1l-0.1-0.1l0-0.1l0.2,0l0.2,0l0.7-0.1l1.3-0.1l0.3-0.1l0.3-0.1l1.1-1.6
	L139.2,52.9"/>
<path class="st5" d="M99.9,59.4l-0.1,0l-0.2,0.1l-0.2,0.1l-0.1,0.2l-0.1-0.3v-0.1l0-0.1l0.2-0.2l0.1-0.1l0.1-0.1h0.2l0.4-0.1
	l0.3-0.1l0.2,0l0.5-0.5l0.5-0.5l0.9-1.1l0.3-0.4L103,56l0.1-0.1h0.1l0.2,0l0.3-0.1l0.1,0h0.2l0,0l0,0.1l-0.1,0.2l-0.6,0.7l-0.7,0.8
	l-0.7,0.7l-0.2,0.1l-0.1,0.1l0,0l0,0h0.2l1.5-0.1l0.8,0l0.4,0l0.2,0l0.2,0l0,0v0l0,0l-0.2,0.1l-0.1,0.1l-0.1,0.1l-0.3,0.1l-0.3,0
	l-0.7,0.1l-2.2,0.3l-0.7,0.7l-0.5,0.6l-0.4,0.5l-0.2,0.5v0.1h0.2l0.1-0.1v0.2l0,0.1L99.5,62l-0.1,0.1l-0.3,0.1l-0.2,0l-0.2,0l-0.1,0
	l-0.1,0l-0.1,0l-0.1-0.1l0-0.2v-0.2l0-0.1l0-0.2l0.2-0.3l0.5-0.6L99.9,59.4L99.9,59.4L99.9,59.4z"/>
<path class="st6" d="M99.9,59.4l-0.1,0l-0.2,0.1l-0.2,0.1l-0.1,0.2l-0.1-0.3v-0.1l0-0.1l0.2-0.2l0.1-0.1l0.1-0.1h0.2l0.4-0.1
	l0.3-0.1l0.2,0l0.5-0.5l0.5-0.5l0.9-1.1l0.3-0.4L103,56l0.1-0.1h0.1l0.2,0l0.3-0.1l0.1,0h0.2l0,0l0,0.1l-0.1,0.2l-0.6,0.7l-0.7,0.8
	l-0.7,0.7l-0.2,0.1l-0.1,0.1l0,0l0,0h0.2l1.5-0.1l0.8,0l0.4,0l0.2,0l0.2,0l0,0v0l0,0l-0.2,0.1l-0.1,0.1l-0.1,0.1l-0.3,0.1l-0.3,0
	l-0.7,0.1l-2.2,0.3l-0.7,0.7l-0.5,0.6l-0.4,0.5l-0.2,0.5v0.1h0.2l0.1-0.1v0.2l0,0.1L99.5,62l-0.1,0.1l-0.3,0.1l-0.2,0l-0.2,0l-0.1,0
	l-0.1,0l-0.1,0l-0.1-0.1l0-0.2v-0.2l0-0.1l0-0.2l0.2-0.3l0.5-0.6L99.9,59.4L99.9,59.4"/>
<path class="st5" d="M147.8,57.6l0.4-0.2l0.5-0.2h0.1l0,0l0,0.1l0,0.3l-0.1,0.4l-0.2,0.4l-0.1,0.2l-0.1,0.1l-0.1,0.1L148,59
	l-0.2,0.4l-0.2,0.4l-0.1,0.1l-0.1,0.1l-0.2,0.1l0,0.2l-0.1,0.4l-0.2,0.5l-0.4,0.7l-0.3,0.5l-0.2,0.4l-0.3,0.5l-0.4,0.5l-0.4,0.4
	l-0.3,0.3l-0.5,0.4l-0.8,0.6l-0.2,0.1l-0.3,0.1l-0.3,0l-0.2,0h-0.7l-0.5-0.1l-0.5-0.2l-0.5-0.2l-0.1-0.1l0-0.1l0-0.1l-0.1-0.1
	l-0.2-0.3l0-0.2l0-0.2l0-0.2l0-0.2l0.1-0.2l0.2-0.2l0.1-0.1l0.3-0.3l0.1,0l0.2,0l0.1,0l0,0l-0.1,0.1l-0.1,0.1l-0.1,0.3l0,0.4v0.2
	l0.1,0.2l0.1,0.2l0.2,0.2l0.2,0.2l0.3,0.1l0.3,0.1l0.3,0.1l0.3,0l0.3,0h0.2l0.2,0L143,65l0.7-0.5l0.4-0.3l0.3-0.4l0.5-0.7l0.7-1.2
	l0.2-0.4l0.3-0.4l0.1-0.1l0-0.1l0.1-0.2l0.3-0.6l0.1-0.3l0.1-0.3l0-0.3l0-0.2l0-0.2v0l-0.1,0.1l-0.4,0.2l-0.3,0.2l-0.2,0.1l-0.2,0.1
	l-0.3,0.1l-0.2,0.1l-0.4,0.2l-0.3,0.2l-0.2,0.1l-0.2,0.1l-0.2,0.1l-0.6,0.2l-0.6,0.2h-0.4l-0.3-0.1l0,0l0.1-0.2l0.6-0.9l0.2-0.3
	l0.3-0.2l0.2-0.1l0.1-0.1l0.1-0.2l0.2-0.2l0.2-0.2l0.1-0.2l0.2-0.2l0.4-0.6l0.1-0.2l0.1-0.1l0.2,0l0.2-0.1l0.5,0l0.1,0l0,0l-0.1,0.2
	l-0.2,0.3l-0.2,0.3l-0.6,0.8l-0.3,0.4l-0.4,0.4l-0.3,0.2l-0.2,0.3l-0.2,0.2l-0.1,0.2l0,0l0,0h0.1l0.5-0.1l0.4-0.1l0.3-0.2l0.1-0.1
	l0.5-0.3l0.6-0.3l0.5-0.3l0.5-0.3l0.1-0.1l0.1-0.1l0.2-0.2L147.8,57.6L147.8,57.6z"/>
<path class="st6" d="M147.8,57.6l0.4-0.2l0.5-0.2h0.1l0,0l0,0.1l0,0.3l-0.1,0.4l-0.2,0.4l-0.1,0.2l-0.1,0.1l-0.1,0.1L148,59
	l-0.2,0.4l-0.2,0.4l-0.1,0.1l-0.1,0.1l-0.2,0.1l0,0.2l-0.1,0.4l-0.2,0.5l-0.4,0.7l-0.3,0.5l-0.2,0.4l-0.3,0.5l-0.4,0.5l-0.4,0.4
	l-0.3,0.3l-0.5,0.4l-0.8,0.6l-0.2,0.1l-0.3,0.1l-0.3,0l-0.2,0h-0.7l-0.5-0.1l-0.5-0.2l-0.5-0.2l-0.1-0.1l0-0.1l0-0.1l-0.1-0.1
	l-0.2-0.3l0-0.2l0-0.2l0-0.2l0-0.2l0.1-0.2l0.2-0.2l0.1-0.1l0.3-0.3l0.1,0l0.2,0l0.1,0l0,0l-0.1,0.1l-0.1,0.1l-0.1,0.3l0,0.4v0.2
	l0.1,0.2l0.1,0.2l0.2,0.2l0.2,0.2l0.3,0.1l0.3,0.1l0.3,0.1l0.3,0l0.3,0h0.2l0.2,0L143,65l0.7-0.5l0.4-0.3l0.3-0.4l0.5-0.7l0.7-1.2
	l0.2-0.4l0.3-0.4l0.1-0.1l0-0.1l0.1-0.2l0.3-0.6l0.1-0.3l0.1-0.3l0-0.3l0-0.2l0-0.2v0l-0.1,0.1l-0.4,0.2l-0.3,0.2l-0.2,0.1l-0.2,0.1
	l-0.3,0.1l-0.2,0.1l-0.4,0.2l-0.3,0.2l-0.2,0.1l-0.2,0.1l-0.2,0.1l-0.6,0.2l-0.6,0.2h-0.4l-0.3-0.1l0,0l0.1-0.2l0.6-0.9l0.2-0.3
	l0.3-0.2l0.2-0.1l0.1-0.1l0.1-0.2l0.2-0.2l0.2-0.2l0.1-0.2l0.2-0.2l0.4-0.6l0.1-0.2l0.1-0.1l0.2,0l0.2-0.1l0.5,0l0.1,0l0,0l-0.1,0.2
	l-0.2,0.3l-0.2,0.3l-0.6,0.8l-0.3,0.4l-0.4,0.4l-0.3,0.2l-0.2,0.3l-0.2,0.2l-0.1,0.2l0,0l0,0h0.1l0.5-0.1l0.4-0.1l0.3-0.2l0.1-0.1
	l0.5-0.3l0.6-0.3l0.5-0.3l0.5-0.3l0.1-0.1l0.1-0.1l0.2-0.2L147.8,57.6"/>
<path class="st5" d="M126.3,61.1l-0.3,0.2l-0.4,0.2l-0.3,0.1l-0.6,0H124l-0.7-0.1l-0.7-0.2l-0.2,0l0,0l0,0l0-0.1l0.1,0l0.2-0.1
	l0.2,0l0.1-0.1l0.3-0.1h0.1l0.1,0l0,0.1l0.3,0.1l0.5,0.1l0.4,0.1l0.4,0h0.2l0.1,0V61l0-0.1l-0.1-0.2l-0.1-0.2l-0.2-0.2l-0.1-0.2
	l0-0.2v-0.2l0-0.1l0.1-0.2l0.2-0.3l0.1-0.1l0.1-0.1l0.2-0.1l0.5-0.2l0.5-0.2l0.5-0.2l0.5-0.1h0.5l0.3,0l0.2,0l0.1,0.1v0.1l0,0.1
	l-0.1,0.1l-0.2,0.2l-0.4,0.3l-0.5,0.3l-0.5,0.2h-0.2l0,0l0.2-0.2l0.4-0.3l0.2-0.2l0-0.1v-0.1l0,0l-0.1,0l-0.1,0l-0.3,0l-0.2,0
	l-0.3,0.1l-0.2,0.1l-0.1,0.1l-0.1,0.1L126,59l-0.1,0.1l-0.1,0.3v0.3l0.1,0.1L126,60l0.1,0.1l0,0.1l0.1,0.1l0.1,0.2L126.3,61.1
	L126.3,61.1L126.3,61.1z"/>
<path class="st6" d="M126.3,61.1l-0.3,0.2l-0.4,0.2l-0.3,0.1l-0.6,0H124l-0.7-0.1l-0.7-0.2l-0.2,0l0,0l0,0l0-0.1l0.1,0l0.2-0.1
	l0.2,0l0.1-0.1l0.3-0.1h0.1l0.1,0l0,0.1l0.3,0.1l0.5,0.1l0.4,0.1l0.4,0h0.2l0.1,0V61l0-0.1l-0.1-0.2l-0.1-0.2l-0.2-0.2l-0.1-0.2
	l0-0.2v-0.2l0-0.1l0.1-0.2l0.2-0.3l0.1-0.1l0.1-0.1l0.2-0.1l0.5-0.2l0.5-0.2l0.5-0.2l0.5-0.1h0.5l0.3,0l0.2,0l0.1,0.1v0.1l0,0.1
	l-0.1,0.1l-0.2,0.2l-0.4,0.3l-0.5,0.3l-0.5,0.2h-0.2l0,0l0.2-0.2l0.4-0.3l0.2-0.2l0-0.1v-0.1l0,0l-0.1,0l-0.1,0l-0.3,0l-0.2,0
	l-0.3,0.1l-0.2,0.1l-0.1,0.1l-0.1,0.1L126,59l-0.1,0.1l-0.1,0.3v0.3l0.1,0.1L126,60l0.1,0.1l0,0.1l0.1,0.1l0.1,0.2L126.3,61.1
	L126.3,61.1"/>
<path class="st5" d="M106.1,60l-0.6,0.7l-0.2,0.3l0,0.2l0.3-0.1l0.3-0.1v0.1l0.1,0.1l-0.3,0.2l-0.4,0.2l-0.2,0.1l-0.3,0l-0.5,0
	l-0.1,0l0-0.1v0h0l0-0.2l0-0.1l0.7-1l0.4-0.5l0.4-0.5l0.2-0.3l1.1-1l0.3-0.3l0.5-0.5l0.6-0.6l0.5-0.6l0.3-0.4l0,0v-0.2l0-0.1l0-0.1
	l0.2-0.3l0.1-0.2l0.1-0.2v-0.3l0.3-0.2l0.2-0.1l0.2-0.1h0.5l0.1,0h0v0l0,0.2l-0.4,0.7l-0.2,0.4l-0.1,0.1l-0.1,0.1l-0.3,0.3l-0.2,0.2
	l-0.4,0.4l-0.2,0.2l-0.6,0.7l-0.7,0.8l-0.4,0.4l-0.9,0.9L106.1,60L106.1,60z"/>
<path class="st6" d="M106.1,60l-0.6,0.7l-0.2,0.3l0,0.2l0.3-0.1l0.3-0.1v0.1l0.1,0.1l-0.3,0.2l-0.4,0.2l-0.2,0.1l-0.3,0l-0.5,0
	l-0.1,0l0-0.1v0h0l0-0.2l0-0.1l0.7-1l0.4-0.5l0.4-0.5l0.2-0.3l1.1-1l0.3-0.3l0.5-0.5l0.6-0.6l0.5-0.6l0.3-0.4l0,0v-0.2l0-0.1l0-0.1
	l0.2-0.3l0.1-0.2l0.1-0.2v-0.3l0.3-0.2l0.2-0.1l0.2-0.1h0.5l0.1,0h0v0l0,0.2l-0.4,0.7l-0.2,0.4l-0.1,0.1l-0.1,0.1l-0.3,0.3l-0.2,0.2
	l-0.4,0.4l-0.2,0.2l-0.6,0.7l-0.7,0.8l-0.4,0.4l-0.9,0.9L106.1,60"/>
<path class="st5" d="M108.1,61.4l0.4-0.4l0.1-0.1l0.1-0.1l0.1-0.1l0.3-0.4l0.4-0.5l0.5-0.6l0.1-0.2l0.1-0.2l-0.6,0.1l-0.2,0.1
	l-0.2,0.1l-0.1,0.1l-0.1,0.1l-0.4,0.2l-0.4,0.3l-1.4,0.9l-1.6,1l-0.2,0h-0.6l0,0l0.2-0.3l0.1-0.1l0.3-0.2l0.7-0.4l1.1-0.6l0.3-0.2
	l0.1,0l0.1,0l0.1,0l0.2-0.2l0.4-0.2l0.3-0.2l0.2-0.1l0.1,0l0.1-0.1l0.1-0.2l0.1-0.1l0.4-0.1l0.7-0.4l0.5-0.2l0.2-0.1l0.2,0l0.2,0
	l0.2,0.1l0.1,0v0l0,0.1l-0.1,0.2l-0.3,0.4l-0.6,0.9l-0.4,0.7l-0.1,0.2l-0.2,0.4l-0.3,0.5l-0.5,0.6l-0.1,0l-0.2,0h-0.2l-0.1,0l-0.1,0
	l0-0.1l-0.1-0.2l0-0.1l0,0C107.9,61.7,108.1,61.4,108.1,61.4z"/>
<path class="st6" d="M108.1,61.4l0.4-0.4l0.1-0.1l0.1-0.1l0.1-0.1l0.3-0.4l0.4-0.5l0.5-0.6l0.1-0.2l0.1-0.2l-0.6,0.1l-0.2,0.1
	l-0.2,0.1l-0.1,0.1l-0.1,0.1l-0.4,0.2l-0.4,0.3l-1.4,0.9l-1.6,1l-0.2,0h-0.6l0,0l0.2-0.3l0.1-0.1l0.3-0.2l0.7-0.4l1.1-0.6l0.3-0.2
	l0.1,0l0.1,0l0.1,0l0.2-0.2l0.4-0.2l0.3-0.2l0.2-0.1l0.1,0l0.1-0.1l0.1-0.2l0.1-0.1l0.4-0.1l0.7-0.4l0.5-0.2l0.2-0.1l0.2,0l0.2,0
	l0.2,0.1l0.1,0v0l0,0.1l-0.1,0.2l-0.3,0.4l-0.6,0.9l-0.4,0.7l-0.1,0.2l-0.2,0.4l-0.3,0.5l-0.5,0.6l-0.1,0l-0.2,0h-0.2l-0.1,0l-0.1,0
	l0-0.1l-0.1-0.2l0-0.1l0,0L108.1,61.4"/>
<path class="st5" d="M119.7,58.6l-0.1,0l-0.2,0.1l-0.2,0.1l-0.1,0.2l-0.1-0.3l0-0.1l0-0.1l0.1-0.2l0.1-0.1l0.1-0.1h0.1l0.4-0.1
	l0.3-0.1l0.2,0l0.5-0.5l0.4-0.5l0.9-1.1l0.3-0.4l0.2-0.2l0.1,0l0.1,0l0.2,0l0.3-0.1l0.1,0h0.2l0,0.1l0,0.1l-0.1,0.2L123,56l-0.7,0.8
	l-0.7,0.7l-0.2,0.1l-0.1,0.1l0,0l0,0h0.2l1.6-0.1l0.8,0l0.3,0l0.2,0l0.2,0l0,0v0l0,0l-0.2,0.1l-0.1,0.1l-0.1,0.1l-0.3,0.1l-0.3,0
	l-0.7,0.1l-2.2,0.3l-0.7,0.7l-0.5,0.6l-0.3,0.5l-0.2,0.5l0,0h0.2l0.1-0.1l0,0v0l0,0.1l0,0.1l0,0.1l-0.1,0.1l-0.3,0.1l-0.2,0l-0.2,0
	l-0.1,0h-0.1l-0.1-0.1l-0.1-0.1l0-0.2V61l0-0.1l0-0.2l0.2-0.3l0.5-0.6L119.7,58.6L119.7,58.6L119.7,58.6z"/>
<path class="st6" d="M119.7,58.6l-0.1,0l-0.2,0.1l-0.2,0.1l-0.1,0.2l-0.1-0.3l0-0.1l0-0.1l0.1-0.2l0.1-0.1l0.1-0.1h0.1l0.4-0.1
	l0.3-0.1l0.2,0l0.5-0.5l0.4-0.5l0.9-1.1l0.3-0.4l0.2-0.2l0.1,0l0.1,0l0.2,0l0.3-0.1l0.1,0h0.2l0,0.1l0,0.1l-0.1,0.2L123,56l-0.7,0.8
	l-0.7,0.7l-0.2,0.1l-0.1,0.1l0,0l0,0h0.2l1.6-0.1l0.8,0l0.3,0l0.2,0l0.2,0l0,0v0l0,0l-0.2,0.1l-0.1,0.1l-0.1,0.1l-0.3,0.1l-0.3,0
	l-0.7,0.1l-2.2,0.3l-0.7,0.7l-0.5,0.6l-0.3,0.5l-0.2,0.5l0,0h0.2l0.1-0.1l0,0v0l0,0.1l0,0.1l0,0.1l-0.1,0.1l-0.3,0.1l-0.2,0l-0.2,0
	l-0.1,0h-0.1l-0.1-0.1l-0.1-0.1l0-0.2V61l0-0.1l0-0.2l0.2-0.3l0.5-0.6L119.7,58.6L119.7,58.6"/>
<path class="st5" d="M125.9,54.9l-0.3,0.2l-0.4,0.3l-0.4,0.2l-0.9,0.3l-0.3,0.1v0l0,0l0.3-0.3l0.4-0.4l0.6-0.4l0.3-0.1l0.3-0.1
	l0.4-0.1h0.2l0,0v0l-0.1,0.1L125.9,54.9L125.9,54.9z"/>
<path class="st6" d="M125.9,54.9l-0.3,0.2l-0.4,0.3l-0.4,0.2l-0.9,0.3l-0.3,0.1v0l0,0l0.3-0.3l0.4-0.4l0.6-0.4l0.3-0.1l0.3-0.1
	l0.4-0.1h0.2l0,0v0l-0.1,0.1L125.9,54.9"/>
<path class="st5" d="M165.2,56l0-0.1l-0.1,0l-0.1,0l-0.2,0l-0.2,0l-0.5,0.1l-0.7,0.1l-0.2,0.1l-0.1,0.1l-0.3,0.2l-0.1,0.2v-0.1
	l0-0.1l0,0l0,0l-0.2,0l-0.4,0l-0.2,0.1l-0.2,0.1l-0.3,0.3l-0.2,0.1l-0.1,0.2l-0.1,0.2l-0.1,0.2l-0.1,0.2l-0.1,0.2l-0.4,0.9l-0.2,0.5
	l0,0.2v0l0,0l0,0.1l0.2,0l0.2,0l0.4,0l0.2-0.1l0.1-0.1l0.2,0l0.2-0.1l0.3-0.2l0.1-0.1l0.2,0l0.2,0l0.1-0.1l0.5-0.3l0.4-0.3l0.3-0.2
	l0.5-0.4l0.3-0.2l0.2-0.1l0.2-0.1l0.1-0.3l0.2-0.4l0.2-0.4l0-0.2L165.2,56L165.2,56z M164.3,56.9l-0.1,0.2l-0.4,0.5l-0.2,0.1
	l-0.1,0.1l-0.3,0.1l-0.5,0.4l-0.5,0.4l-0.4,0.3l-0.3,0.1l-0.2,0.1l-0.3,0.1h-0.3l0-0.1l0,0l0.3-0.5l0.4-0.5l0.2-0.3l0.3-0.4l0.3-0.3
	l0.1-0.1l0.1-0.1l0.2,0h0.2l0.2,0l0.1-0.1l0,0l0.1-0.1l0.1,0l0.6-0.1h0.1l0.1,0l0,0l0,0.1L164.3,56.9L164.3,56.9z"/>
<path class="st6" d="M165.2,56l0-0.1l-0.1,0l-0.1,0l-0.2,0l-0.2,0l-0.5,0.1l-0.7,0.1l-0.2,0.1l-0.1,0.1l-0.3,0.2l-0.1,0.2v-0.1
	l0-0.1l0,0l0,0l-0.2,0l-0.4,0l-0.2,0.1l-0.2,0.1l-0.3,0.3l-0.2,0.1l-0.1,0.2l-0.1,0.2l-0.1,0.2l-0.1,0.2l-0.1,0.2l-0.4,0.9l-0.2,0.5
	l0,0.2v0l0,0l0,0.1l0.2,0l0.2,0l0.4,0l0.2-0.1l0.1-0.1l0.2,0l0.2-0.1l0.3-0.2l0.1-0.1l0.2,0l0.2,0l0.1-0.1l0.5-0.3l0.4-0.3l0.3-0.2
	l0.5-0.4l0.3-0.2l0.2-0.1l0.2-0.1l0.1-0.3l0.2-0.4l0.2-0.4l0-0.2L165.2,56L165.2,56z M164.3,56.9l-0.1,0.2l-0.4,0.5l-0.2,0.1
	l-0.1,0.1l-0.3,0.1l-0.5,0.4l-0.5,0.4l-0.4,0.3l-0.3,0.1l-0.2,0.1l-0.3,0.1h-0.3l0-0.1l0,0l0.3-0.5l0.4-0.5l0.2-0.3l0.3-0.4l0.3-0.3
	l0.1-0.1l0.1-0.1l0.2,0h0.2l0.2,0l0.1-0.1l0,0l0.1-0.1l0.1,0l0.6-0.1h0.1l0.1,0l0,0l0,0.1L164.3,56.9L164.3,56.9z"/>
<path class="st5" d="M165.2,56L165.2,56l0.1,0v0.5l-0.1,0.4l-0.2,0.4l-0.2,0.3l-0.1,0.1l-0.1,0.1l-0.2,0.4l-0.2,0.4l-0.1,0.1
	l-0.1,0.1l-0.2,0.1l0,0.2l-0.1,0.4l-0.2,0.5l-0.4,0.7l-0.3,0.5l-0.2,0.4l-0.3,0.5l-0.4,0.5l-0.3,0.4l-0.3,0.3l-0.5,0.4l-0.8,0.5
	l-0.3,0.2l-0.3,0.1l-0.2,0.1l-0.2,0h-0.8l-0.5-0.1l-0.6-0.2l-0.5-0.2l-0.1-0.1l-0.1-0.1v-0.1l-0.1-0.2l-0.2-0.3l0-0.2l0-0.2v-0.2
	l0.1-0.2l0.1-0.2l0.2-0.2l0.1-0.1l0.3-0.3l0.1,0l0.2-0.1h0.1l-0.1,0.1l-0.1,0.1l-0.1,0.3v0.6l0.1,0.2l0.1,0.2l0.5,0.4l0.3,0.1
	l0.3,0.1l0.3,0.1l0.3,0h0.3l0.1,0h0.1l0.2,0l0.2-0.1l0.7-0.5l0.4-0.3l0.3-0.4l0.5-0.7l0.7-1.2l0.2-0.4l0.3-0.3l0.1-0.1l0-0.1
	l0.1-0.3l0.3-0.5l0.1-0.3l0.1-0.3l0.1-0.3l0-0.2l0-0.2l0,0l-0.1,0.1C163.5,57.6,165.2,56,165.2,56z"/>
<path class="st6" d="M165.2,56L165.2,56l0.1,0v0.5l-0.1,0.4l-0.2,0.4l-0.2,0.3l-0.1,0.1l-0.1,0.1l-0.2,0.4l-0.2,0.4l-0.1,0.1
	l-0.1,0.1l-0.2,0.1l0,0.2l-0.1,0.4l-0.2,0.5l-0.4,0.7l-0.3,0.5l-0.2,0.4l-0.3,0.5l-0.4,0.5l-0.3,0.4l-0.3,0.3l-0.5,0.4l-0.8,0.5
	l-0.3,0.2l-0.3,0.1l-0.2,0.1l-0.2,0h-0.8l-0.5-0.1l-0.6-0.2l-0.5-0.2l-0.1-0.1l-0.1-0.1v-0.1l-0.1-0.2l-0.2-0.3l0-0.2l0-0.2v-0.2
	l0.1-0.2l0.1-0.2l0.2-0.2l0.1-0.1l0.3-0.3l0.1,0l0.2-0.1h0.1l-0.1,0.1l-0.1,0.1l-0.1,0.3v0.6l0.1,0.2l0.1,0.2l0.5,0.4l0.3,0.1
	l0.3,0.1l0.3,0.1l0.3,0h0.3l0.1,0h0.1l0.2,0l0.2-0.1l0.7-0.5l0.4-0.3l0.3-0.4l0.5-0.7l0.7-1.2l0.2-0.4l0.3-0.3l0.1-0.1l0-0.1
	l0.1-0.3l0.3-0.5l0.1-0.3l0.1-0.3l0.1-0.3l0-0.2l0-0.2l0,0l-0.1,0.1"/>
<path class="st5" d="M116.4,58.8l0.2,0h0.5l0.1,0h0L117,59l-0.3,0.5l-0.2,0.4l-0.2,0.3l-0.4,0.4l-0.1,0.1l-0.1,0.1l-0.1,0.3
	l-0.1,0.3v0.2l0,0.1l0.1,0l-0.3,0.3l-0.3,0.1l-0.3,0.1l-0.4,0h-0.1l0,0l0-0.2l0.1-0.3l0.1-0.3l0.2-0.4v0l0.1-0.2l0.1-0.2l0.1-0.3
	L116.4,58.8L116.4,58.8z"/>
<path class="st6" d="M116.4,58.8l0.2,0h0.5l0.1,0h0L117,59l-0.3,0.5l-0.2,0.4l-0.2,0.3l-0.4,0.4l-0.1,0.1l-0.1,0.1l-0.1,0.3
	l-0.1,0.3v0.2l0,0.1l0.1,0l-0.3,0.3l-0.3,0.1l-0.3,0.1l-0.4,0h-0.1l0,0l0-0.2l0.1-0.3l0.1-0.3l0.2-0.4v0l0.1-0.2l0.1-0.2l0.1-0.3"/>
<path class="st5" d="M117.1,58l-0.1,0l-0.2,0l-0.2,0l-0.5,0.1l-0.7,0.1l-0.2,0l-0.1,0l-0.3,0.2l-0.2,0.1v-0.2l0,0l0,0h-0.2l-0.4,0
	l-0.2,0.1l-0.2,0.1l-0.4,0.2L113,59l-0.2,0.2l-0.1,0.2l-0.2,0.2l-0.1,0.3l-0.1,0.1l-0.5,0.8l-0.3,0.5l-0.1,0.2l0,0v0l0,0.1l0.2,0
	h0.2l0.3,0l0.2,0l0.1-0.1l0.2,0l0.3-0.1l0.3-0.2l0.2-0.1l0.2,0l0.2,0l0.1,0l0.5-0.3l0.5-0.2l0.3-0.2l0.5-0.3l0.3-0.2l0.2-0.1
	l0.2-0.2l0.2-0.2l0.3-0.4l0.3-0.4l0-0.2l0-0.2L117.1,58L117.1,58L117.1,58z M116.2,58.9l-0.1,0.2l-0.5,0.5l-0.2,0.1l-0.1,0.1L115,60
	l-0.6,0.3l-0.5,0.4l-0.5,0.2l-0.2,0.1l-0.2,0l-0.3,0.1h-0.3v0l0-0.1l0,0l0.4-0.4l0.4-0.5l0.2-0.3l0.3-0.4l0.3-0.2l0.1-0.1l0.2-0.1
	l0.4,0l0.2,0l0.1-0.1l0-0.1l0.1-0.1l0.1,0l0.3,0h0.4l0.1,0h0.1l0,0.1v0.1L116.2,58.9L116.2,58.9z"/>
<path class="st6" d="M117.1,58l-0.1,0l-0.2,0l-0.2,0l-0.5,0.1l-0.7,0.1l-0.2,0l-0.1,0l-0.3,0.2l-0.2,0.1v-0.2l0,0l0,0h-0.2l-0.4,0
	l-0.2,0.1l-0.2,0.1l-0.4,0.2L113,59l-0.2,0.2l-0.1,0.2l-0.2,0.2l-0.1,0.3l-0.1,0.1l-0.5,0.8l-0.3,0.5l-0.1,0.2l0,0v0l0,0.1l0.2,0
	h0.2l0.3,0l0.2,0l0.1-0.1l0.2,0l0.3-0.1l0.3-0.2l0.2-0.1l0.2,0l0.2,0l0.1,0l0.5-0.3l0.5-0.2l0.3-0.2l0.5-0.3l0.3-0.2l0.2-0.1
	l0.2-0.2l0.2-0.2l0.3-0.4l0.3-0.4l0-0.2l0-0.2L117.1,58L117.1,58L117.1,58z M116.2,58.9l-0.1,0.2l-0.5,0.5l-0.2,0.1l-0.1,0.1L115,60
	l-0.6,0.3l-0.5,0.4l-0.5,0.2l-0.2,0.1l-0.2,0l-0.3,0.1h-0.3v0l0-0.1l0,0l0.4-0.4l0.4-0.5l0.2-0.3l0.3-0.4l0.3-0.2l0.1-0.1l0.2-0.1
	l0.4,0l0.2,0l0.1-0.1l0-0.1l0.1-0.1l0.1,0l0.3,0h0.4l0.1,0h0.1l0,0.1v0.1L116.2,58.9L116.2,58.9z"/>
<path class="st5" d="M90.5,61.8v0.1l0,0.2l-0.1,0.1l-0.2,0.2l-0.3,0.1l-0.1,0.1l-0.1,0l-0.1-0.2l-0.1-0.2v-0.1l0-0.1l0.1-0.1
	l0.2-0.1l0.3-0.1l0.3,0l0.2,0l0.1,0L90.5,61.8z"/>
<path class="st6" d="M90.5,61.8v0.1l0,0.2l-0.1,0.1l-0.2,0.2l-0.3,0.1l-0.1,0.1l-0.1,0l-0.1-0.2l-0.1-0.2v-0.1l0-0.1l0.1-0.1
	l0.2-0.1l0.3-0.1l0.3,0l0.2,0l0.1,0L90.5,61.8"/>
<path class="st5" d="M93.2,61.7v0.1L93.1,62l-0.1,0.2l-0.2,0.1l-0.3,0.2l-0.2,0.1l-0.1,0L92,62.4l0-0.2V62l0-0.1l0.1-0.1l0.2-0.1
	l0.3-0.1l0.2,0H93l0.1,0.1C93.1,61.6,93.2,61.7,93.2,61.7z"/>
<path class="st6" d="M93.2,61.7v0.1L93.1,62l-0.1,0.2l-0.2,0.1l-0.3,0.2l-0.2,0.1l-0.1,0L92,62.4l0-0.2V62l0-0.1l0.1-0.1l0.2-0.1
	l0.3-0.1l0.2,0H93l0.1,0.1L93.2,61.7"/>
<path class="st5" d="M95.8,61.5v0.2l0,0.2l-0.1,0.2l-0.2,0.1l-0.3,0.2l-0.1,0.1l-0.1,0l-0.1-0.2L94.6,62v-0.2l0-0.1l0.1-0.1l0.2-0.1
	l0.3-0.1l0.3,0h0.2L95.8,61.5L95.8,61.5z"/>
<path class="st6" d="M95.8,61.5v0.2l0,0.2l-0.1,0.2l-0.2,0.1l-0.3,0.2l-0.1,0.1l-0.1,0l-0.1-0.2L94.6,62v-0.2l0-0.1l0.1-0.1l0.2-0.1
	l0.3-0.1l0.3,0h0.2L95.8,61.5L95.8,61.5"/>
<path class="st0" d="z"/>
<path class="st0" d="z"/>
<path class="st0" d="z"/>
<path class="st0" d="z"/>
<path class="st0" d="z"/>
<path class="st0" d="z"/>
<path class="st0" d="z"/>
<path class="st0" d="z"/>
<path class="st0" d="z"/>
<path class="st0" d="z"/>
<path class="st0" d="z"/>
<path class="st0" d="z"/>
<path class="st0" d="z"/>
<path class="st0" d="z"/>
<path class="st0" d="z"/>
<path class="st0" d="z"/>
<path class="st0" d="z"/>
<path class="st0" d="z"/>
<path class="st0" d="z"/>
<path class="st0" d="z"/>
<path class="st0" d="z"/>
<path class="st0" d="z"/>
</svg>
