<?xml version="1.0" encoding="utf-8"?>
<!-- Generator: Adobe Illustrator 23.0.3, SVG Export Plug-In . SVG Version: 6.00 Build 0)  -->
<svg version="1.1" id="Layer_1" xmlns="http://www.w3.org/2000/svg" xmlns:xlink="http://www.w3.org/1999/xlink" x="0px" y="0px"
	 viewBox="0 0 210 210" style="enable-background:new 0 0 210 210;" xml:space="preserve">
<style type="text/css">
	.st0{fill:#063761;}
	.st1{fill:#FFFFFF;stroke:#000000;stroke-width:0.25;stroke-miterlimit:10;}
	.st2{fill:none;stroke:#000000;stroke-width:0.25;stroke-miterlimit:10;}
	
		.st3{fill-rule:evenodd;clip-rule:evenodd;fill:#6B737A;stroke:#6B737A;stroke-width:0.1;stroke-linecap:square;stroke-miterlimit:3;}
	
		.st4{fill-rule:evenodd;clip-rule:evenodd;fill:#E32219;stroke:#E32219;stroke-width:0.1;stroke-linecap:square;stroke-miterlimit:3;}
	.st5{fill:#E32219;stroke:#E32219;stroke-width:0.1;stroke-linecap:square;stroke-miterlimit:3;}
	
		.st6{fill-rule:evenodd;clip-rule:evenodd;fill:#004B94;stroke:#004B94;stroke-width:0.1;stroke-linecap:square;stroke-miterlimit:3;}
	.st7{fill:#004B94;stroke:#004B94;stroke-width:0.1;stroke-linecap:square;stroke-miterlimit:3;}
	.st8{fill:#6B737A;stroke:#6B737A;stroke-width:0.1;stroke-linecap:square;stroke-miterlimit:3;}
	.st9{fill:#FFFFFF;stroke:#FFFFFF;stroke-width:0.1;stroke-linecap:square;stroke-miterlimit:3;}
	.st10{fill:#FFFFFF;}
	.st11{fill:#FFFFFF;stroke:#E32219;stroke-width:0.1;stroke-linecap:square;stroke-miterlimit:3;}
</style>
<g>
	<circle vector-effect="non-scaling-stroke" class="st0" cx="105" cy="104.9999695" r="105"/>
</g>
<g>
	<path vector-effect="non-scaling-stroke" class="st1" d="M149.3688812,83.0466843
		c4.3257599-1.0664825,9.9811096-1.1605988,16.9660339-0.2823486c10.4774017,1.3173676,27.7556915,3.7977905,34.6114655,5.4569473
		c4.6174469,1.1174545,3.7158356,4.231781,2.8627777,5.4516678c-0.653595,0.9346695-1.8884888,1.570816-2.4634247,1.9584122
		c-1.7609863,1.1872406-15.2347412,6.5927353-17.7852631,7.4059448c-2.5505066,0.8132248-15.9981232,4.9162979-19.5352936,5.9305649
		c-2.3581238,0.676178-12.6652985,3.5545197-30.9215393,8.6350098l-10.2222443,2.6711044
		c-6.6626434,1.5216141-10.6793442,2.3915405-12.0500793,2.6097946c-1.3707428,0.2182617-13.1384354,2.1854935-35.3030777,5.9016953
		l-33.2056427,5.3527069c-9.6276474,1.3657837-14.8719349,2.0043182-15.7328606,1.9156189
		c-0.6943855-0.0715485-1.6386433-0.3776093-2.8327713-0.9181824c-2.0863819,0.0389099-3.2957191,0.0885315-3.6280117,0.1488647
		c-0.3322945,0.060318,2.5977802-1.0595551,8.7902222-3.3595886c1.5931187-0.6081543,3.0207844-1.0200958,4.2829952-1.2358551
		c1.1488228-0.1963654,2.1565361-0.342926,3.0343208-0.1282043c1.8422012,0.4506073-2.214222,1.9411469-12.1692657,4.4716492
		c-0.3814106-0.5105438-0.6682358-0.9091492-0.860466-1.195816c-0.5278282-0.7871246-0.9487877-1.6085205-1.3633232-2.32547
		c-0.2865181-0.4955292-1.0601101-1.8734741-2.3207798-4.1338272c-2.1228027-3.6864777-3.4725075-6.0283432-4.049118-7.0256119
		c-0.8649225-1.495903-0.417305-1.6242523-0.1362257-1.9954987c0.1873894-0.2474976,0.1807566-0.4958801-0.0198975-0.7451553
		c-5.2448101-8.8303452-8.2814627-13.9017944-9.1099596-15.2143707c-0.8284993-1.3125763-0.972095-2.0949173-0.4307866-2.3470154
		l9.2816391-2.7188187c1.7669373-0.5357666,3.8511086,0.071434,6.252512,1.8216171
		c2.4014072,1.7501831,9.5072727,6.486557,21.3176003,14.2091217c7.6086578,3.7935638,14.0735054,4.7856293,19.3945427,2.9762039
		c2.5407753-0.864006,5.2936287-1.8931427,8.905407-3.2576599c3.7462921-1.4153366,8.1764221-3.1205215,13.2903824-5.1155701
		l19.3474655-9.5497665c0.4226227-0.4209442,0.7129211-0.8133163,0.8708878-1.1771088
		c0.236969-0.5457001,2.4957809-1.5868378,2.8629532-1.7764435c0.2447815-0.1263962,2.5344162-1.2887802,6.8688736-3.4871597
		c0.4893112-0.515007,0.5926895-1.0692368,0.310112-1.6626892c-0.2825775-0.5934372-2.2296524-4.1493378-5.841217-10.6677094
		c-0.0854874-0.3774872,0.2282028-0.6722336,0.9410934-0.8842392c1.069313-0.3179932,3.3289566-1.6244125,5.1106644,0.2496567
		c1.1878204,1.249382,2.6366501,2.8909836,4.3464966,4.9248047c2.4248657,2.4495926,5.3172607,3.2399597,8.6771698,2.3710938
		l12.975502-3.0471802c-2.3252716-10.6681137-3.2795563-15.5773239-2.8628387-14.7276306l4.6083984,14.4316177
		c1.1714783-0.1239777,2.2866974-0.153244,3.3456726-0.0877914c1.6319885,0.1008682,3.4621429,0.3517609,3.5921478,0.6247559
		c0.0615845,0.1293411-1.3103485,1.8087769-2.2454987,2.5642014c-0.82341,0.665184-1.9429932,1.3177719-3.3587189,1.9577637
		l1.8686371,7.1288452c1.0401306,4.4890594,1.5965576,6.8665924,1.6693115,7.1325836
		c0.2859955,1.0456619-0.5631714-1.159874-2.5474854-6.6166306l-2.6493378-7.5216217l0.133255,0.7122421
		c-0.3990173,3.8018417-1.2902222,6.0188828-2.673645,6.6511154c-2.0751343,0.9483566-6.1588745,2.0578384-9.6152344,2.6840439
		c-5.540802,1.0038528-14.2716599,0.4116821-15.9597702,0.481636c-1.125412,0.0466309-4.3872375-0.1730728-9.7855148-0.6591339
		c10.6881332-1.7126694,17.551239-3.1319046,20.5893478-4.2576828c4.5571671-1.6886673,7.7530289-3.0633774,9.1138229-3.9118805
		c1.3607635-0.8485107,0.4608917-3.1875458,0.1676941-3.9437027c-0.1954651-0.504097-2.2412415-0.3870926-6.1373138,0.3510056"/>
	<path vector-effect="non-scaling-stroke" class="st2" d="M155.9285736,82.5789948
		c-0.1396942,1.2492828,0.8034058,2.8638229,2.8292847,4.8436127s3.0811157,2.9931335,3.1656799,3.0400162
		c1.9128113,1.5854416,4.1762543,1.5410156,6.7903442-0.1332626c2.6141052-1.6742783,5.3571167-3.5811386,8.2290497-5.7205811"/>
	<path vector-effect="non-scaling-stroke" class="st1" d="M124.196846,113.2973862
		c1.7671967-0.5835266,4.3277512-1.252739,7.681694-2.0076294c1.2762299-0.1127472,2.0576935,0.1183167,2.3443756,0.6931534
		c0.3981171,0.7982559-0.2358398,1.5869675-1.9018402,2.3661346l-3.0146332,0.9706573
		c-4.6535873,1.3345642-8.2419968,2.1561356-10.765213,2.4647369c-1.7967529,0.2197571-5.6429825,0.6115646-4.0791702-0.3326797
		C116.5127029,116.2135544,120.6613312,114.4648361,124.196846,113.2973862z"/>
</g>
<g>
	<path vector-effect="non-scaling-stroke" class="st3" d="M72.001091,121.713356
		c-1.8992538,0.1528244-3.9844284,0.2653198-6.0227051,0.4287033l-0.0979767-0.260788
		c24.7931595-2.0133743,39.7276993-3.1197815,44.7320251-3.8390732c1.0431442-0.1499329,1.6139069-0.7447281,1.5140381-1.2593079
		c-0.0891418-0.4592972-0.5953522-0.8858337-1.7528458-1.5779724l-7.0181427-3.2459717
		c-2.5523605-1.2295151-2.4550934-2.0051193,0.2918167-2.3268204c2.7469025-0.3216934,5.5218811-0.4699249,8.3249207-0.4447021
		l8.4530106,0.141304l-1.3131027,0.3637619l-7.8714066-0.1083832l-5.225029,0.2233582
		c-3.7971878,0.1431656-4.275238,0.7716293-1.4341354,1.8853455c2.8411102,1.1137161,5.1202621,2.1753464,6.8374863,3.1848602
		c3.3111725,2.1145706,2.4652863,3.4001312-2.5376587,3.8566589C104.2557831,119.1564178,91.9807968,120.10569,72.001091,121.713356
		z M62.4037056,122.3997192c-3.006485,0.2161026-5.8995247,0.4842606-7.8332214,0.6510239
		c-2.1491699,0.1853409-5.1714516,0.5000916-9.0668526,0.9442291c5.0822258-0.6922302,9.0059052-1.1724014,11.7710457-1.4405365
		c2.033886-0.1972275,4.9327202-0.4243698,8.6964912-0.6814423l0.0026779,0.2772446
		C64.984787,122.2070007,63.7947388,122.2901611,62.4037056,122.3997192z"/>
	<path vector-effect="non-scaling-stroke" class="st4" d="M92.2095261,118.273201l0.4165268,0.5259018l14.7117615-4.4726944
		l-0.9015808-0.4932556L92.2095261,118.273201z M54.7347069,125.8153915l-0.8873749,0.1081619l-0.1117744,0.0145874
		l9.6821136-1.2471085c9.3188095-1.3733978,18.9812927-3.2528305,28.7567825-6.4077759l0.4165344,0.5259094
		C82.2934647,122.254097,69.5764236,124.380928,54.7347069,125.8153915z"/>
	<path vector-effect="non-scaling-stroke" class="st5" d="M129.5514221,107.2978668l-6.2783508,1.6375427
		c-4.608902,1.2162094-9.1902466,2.6685486-14.0411072,4.0960617l0.7184296,0.425499l12.3953323-3.571846l12.4591293-3.2159424
		l-0.6589966-0.4634018L129.5514221,107.2978668z"/>
	<path vector-effect="non-scaling-stroke" class="st6" d="M94.0225296,120.4023285
		c-1.4947357,0.3736725-2.9643784,0.7171021-4.5776749,1.0743027c-9.9219055,2.1968155-19.2487869,3.299057-28.5625114,4.736969
		l-10.1828651,1.0791931c18.3335342-2.683609,32.5364151-5.2253113,42.5715485-7.6456604l5.234108-0.4334946
		C96.957016,119.5732956,95.5367889,120.0609207,94.0225296,120.4023285z M93.2336731,119.6590958l5.2864838-0.4497681
		l11.6811829-3.5619278l-1.6084518-0.8769226L93.2336731,119.6590958z"/>
	<path vector-effect="non-scaling-stroke" class="st7" d="M122.3329697,110.4970169
		c-2.6855698,0.7584534-6.4869995,1.9062805-11.4042969,3.4434891l1.535408,0.8298569
		c4.5209045-1.4591675,8.0177917-2.5443726,10.4906693-3.2556c3.2188416-0.9257812,7.8328934-2.1182404,13.8421555-3.5773697
		l-1.195816-0.8925552C129.8464203,108.4734116,125.4237061,109.6241379,122.3329697,110.4970169z"/>
	<path vector-effect="non-scaling-stroke" class="st7" d="M162.9620361,100.9501953l-24.2335205,5.3675003l1.4118805,0.914444
		l46.7195282-11.0501556L162.9620361,100.9501953z"/>
	<path vector-effect="non-scaling-stroke" class="st8" d="M155.8114014,103.7891312l6.1569061-0.0201492l6.9730072,0.0174179
		l-0.4830017-0.2111206l-6.483902-0.12397l-5.0647736,0.0849533L155.8114014,103.7891312z"/>
	<path vector-effect="non-scaling-stroke" class="st9" d="M82.7494736,120.8580399
		c0.0634537-0.0167313,0.1248932-0.0233536,0.1880951-0.0396957c0.8296509-0.2145309,1.6352234-0.4077301,2.3235931-0.6092758
		l-2.1906586,0.22686l-2.7557373,0.694191L82.7494736,120.8580399z"/>
	<path class="st10" d="M86.8965073,120.5714798l2.3125153-0.6509171l0.4897003-0.055542l-2.9491348,0.8332901
		L86.8965073,120.5714798z"/>
	<path class="st10" d="M96.4984055,119.7971878l2.8336029-0.7824631l0.4500809,0.0304565l-3.2209549,0.9643936
		L96.4984055,119.7971878z"/>
	<path class="st10" d="M89.7537766,120.3535919l2.8957138-0.7002945l0.4863739-0.0256805l-3.0724945,0.7144089
		L89.7537766,120.3535919z"/>
	<path vector-effect="non-scaling-stroke" class="st8" d="M151.5164185,103.118454l1.1900482-0.2416916l0.5106049,0.028038
		l-1.0945587,0.2466431L151.5164185,103.118454z"/>
	<path vector-effect="non-scaling-stroke" class="st5" d="M150.4030609,102.5734482
		c-3.043457,0.6501846-7.3654785,1.6161194-12.9660645,2.8977966l0.5300446,0.4385452l38.7321625-8.4343719
		C165.3046417,99.5632248,156.5392609,101.2625656,150.4030609,102.5734482z"/>
	<path vector-effect="non-scaling-stroke" class="st8" d="M122.8836746,109.8987885l1.7847824-0.4621124l0.4613495,0.0943146
		l-1.6534424,0.4383087L122.8836746,109.8987885z"/>
	<path vector-effect="non-scaling-stroke" class="st8" d="M136.6347961,110.6087265
		c-2.299408-0.0001068-4.7825012-0.1368408-7.4492798-0.4102249l1.5754852-0.3585358
		c4.2211151,0.362793,7.0548553,0.4425278,8.5012207,0.2391891c2.1060028-0.2960739,1.9911346-0.1990585,0.141983-1.4688797
		c-1.2327728-0.84655-3.5015869-2.1935501-6.806427-4.0409927c-1.713623-1.0586929-1.1391754-1.6884308,1.7233582-1.8892136
		c2.8625183-0.2007904,7.1748505-0.3111343,12.9369812-0.3310089l1.9100342,0.0585175l-1.1647339,0.2313919
		c-5.90979,0.0327301-9.7087402,0.1303482-11.3968658,0.2928543c-1.8605652,0.1791153-4.0292358,0.0969086-3.872345,0.6440582
		c0.0631104,0.2201004,0.5543518,0.4719696,1.5489044,1.010788c2.3114166,1.2522354,4.473465,2.5473099,6.4861145,3.885231
		c2.2022552,1.2835388,1.7534332,1.9842529-1.3464355,2.10215
		C138.5099335,110.608757,137.5945587,110.6087723,136.6347961,110.6087265z"/>
	<path vector-effect="non-scaling-stroke" class="st5" d="M6.091877,101.0489197
		c0.0581169,0.1610336,0.1642075,0.3798523,0.3182721,0.6564484l1.6799407,2.7692261
		c5.4163465,0.2525711,9.6012573,0.6942825,12.5547371,1.3251495c4.5481358,0.9715042,11.4327908,3.4023743,20.6539669,7.2926254
		L20.5249023,99.259758l-1.5112171-0.9382324c-0.4946823-0.2059555-0.9487228-0.3604279-1.3621178-0.4634171
		c-0.4133892-0.1029892-0.7630291-0.1313248-1.069334-0.1603241c-1.1493797-0.1088181-2.0562067,0.3309708-3.1849117,0.6549072
		c-1.7291698,0.4962692-4.2134962,1.2140503-7.4529805,2.1533661C5.9979172,100.7438889,6.0470958,100.9248352,6.091877,101.0489197
		z"/>
	<path vector-effect="non-scaling-stroke" class="st5" d="M118.5254517,87.0350342l0.334816-0.0328979l-0.0394592-0.3169479
		c0.346756-0.034256,0.6051254-0.0451813,0.7751083-0.0327606c0.0457458,0.0033417,0.1013184,0.0111923,0.1378784,0.0359344
		c0.0218811,0.0148163,0.0458984,0.0318298,0.0613174,0.055275c0.0374374,0.0569077,0.0524826,0.1417923,0.0451355,0.254631
		l0.4247131,0.0001678c0.0041656-0.1328659-0.0122986-0.2292404-0.0493698-0.2891312
		c-0.0372467-0.0601425-0.1166-0.1179428-0.2380829-0.1733856c0.082756-0.0090561,0.1363907-0.0457458,0.1609116-0.1100693
		c0.0440979-0.1156693-0.0076523-0.2923203-0.0459671-0.3670273c-0.0741272-0.144516-0.2218399-0.2087631-0.3755646-0.232193
		c-0.3072815-0.0468369-0.77845-0.0696945-1.4135056-0.0685577L118.5254517,87.0350342z"/>
	<path vector-effect="non-scaling-stroke" class="st11" d="M118.7660065,86.0667038
		c0.0012436,0.0806656,0.0031052,0.1428223,0.0056,0.1864395c0.0024033,0.0420456,0.0073776,0.1017532,0.0149231,0.1791306
		c0.3068237-0.0238037,0.8961411-0.0368347,0.921402-0.0456009c0.070755-0.0119247,0.0975876-0.0630951,0.0804977-0.153511
		c-0.0151138-0.079895-0.0742493-0.1339569-0.1774139-0.1622009
		C119.5651855,86.0496597,119.0549393,86.0528183,118.7660065,86.0667038z"/>
	<path vector-effect="non-scaling-stroke" class="st5" d="M117.487236,85.7316437l0.4097672-0.0257416l0.2355118,1.3900452
		l-0.3967285,0.0423813L117.487236,85.7316437z"/>
	<path vector-effect="non-scaling-stroke" class="st7" d="M114.2605743,88.1527481l0.3147507-0.1854706l-0.1187744-0.58181
		l0.8518753-0.3612366l-0.0820618-0.4019775l-0.8877106,0.4016037l-0.0818405-0.3469238l0.9386673-0.3679276l-0.0842209-0.4125595
		l-1.2767334,0.5471344L114.2605743,88.1527481z"/>
	<path vector-effect="non-scaling-stroke" class="st5" d="M115.9025345,87.4380569l0.0965271-0.32341l0.8717422-0.1559143
		l0.1889114,0.2389526l0.42379-0.0444794l-1.0542679-1.408287l-0.4243393,0.0420074l-0.4770737,1.7649307L115.9025345,87.4380569z"
		/>
	<path vector-effect="non-scaling-stroke" class="st11" d="M116.0655289,86.7925415l0.6051331-0.1125107l-0.3325653-0.5444565
		l-0.1227188,0.0234375L116.0655289,86.7925415z"/>
	<path vector-effect="non-scaling-stroke" class="st5" d="M118.6150436,85.3320847
		c-0.8570404-0.1358185-1.6475601-0.1719055-2.2119293-0.1507721c-0.8794937,0.0329437-2.0504456,0.3267822-3.5128326,0.881546
		l0.945282,0.0606537c0.9733124-0.4572296,1.8328323-0.7097168,2.5785599-0.7574539
		c0.7925949-0.0507431,1.9595871,0.0213852,3.5009842,0.2163849
		C119.4641647,85.4814224,119.0308151,85.3979721,118.6150436,85.3320847z"/>
	<path vector-effect="non-scaling-stroke" class="st7" d="M112.2465134,82.0835419l-1.913414-0.767952
		c1.5076981,0.3609695,2.4571762,0.4550705,3.952179,1.0629272c1.4133148,0.6516342,3.5186615,1.8893356,5.1888351,2.9138336
		c-0.5726089-0.1988449-1.1526108-0.2659454-1.7291718-0.3763351c-0.5512466-0.05513-1.0972595-0.0365143-1.7098083-0.0223846
		c-1.0829468,0.0335464-2.0570908,0.4018936-3.1507645,0.7467422l2.0374374-1.4035416
		C114.3814392,83.33181,113.4850006,82.6279449,112.2465134,82.0835419z"/>
	<path vector-effect="non-scaling-stroke" class="st5" d="M109.2677689,79.7131805
		c0.02948,0.0619812,0.0718994,0.1498795,0.1272583,0.2636948l0.6312561,1.1193695
		c1.5309982,0.2108765,2.7282562,0.4703751,3.5917587,0.7785187c1.3297348,0.4745178,3.3800583,1.5843506,6.1509933,3.3295059
		c-2.1910324-2.2358322-3.782135-3.947525-4.7733383-5.1350708c-0.509346-0.6102371-0.9310913-1.0518646-1.5047989-1.3578568
		c-0.918602-0.4899368-2.1728287-0.0459595-2.469986,0.0575867c-0.455246,0.1586456-1.0739746,0.400322-1.8561935,0.7250366
		C109.2090683,79.5888977,109.2434082,79.661972,109.2677689,79.7131805z"/>
	<path vector-effect="non-scaling-stroke" class="st5" d="M33.3260841,117.5361404l0.818203-0.1453552l-0.1580849-0.7729645
		c0.847374-0.1510162,1.4815598-0.227562,1.9025497-0.2296371c0.1133041-0.0005569,0.2516708,0.0080872,0.3464622,0.0620041
		c0.0567322,0.03228,0.1191444,0.0695724,0.1616211,0.1243286c0.1031494,0.1329727,0.1565132,0.3391113,0.1600914,0.6184158
		l1.0459671-0.0812073c-0.015274-0.3280106-0.0743256-0.5621948-0.1771507-0.7025528
		c-0.1032715-0.1409607-0.3098183-0.2680359-0.6196404-0.3812332c0.2020721-0.0382233,0.3271103-0.1388779,0.3751221-0.3019867
		c0.0863609-0.2933426-0.0750122-0.7184219-0.1837425-0.89505c-0.2103271-0.3416443-0.5864334-0.4714737-0.9695091-0.4996338
		c-0.7657509-0.0562973-1.9304771-0.0220337-3.4941826,0.1028061L33.3260841,117.5361404z"/>
	<path vector-effect="non-scaling-stroke" class="st11" d="M33.7324028,115.105217
		c0.0185547,0.1984329,0.0350952,0.35112,0.049614,0.4580841c0.0139885,0.1030731,0.0377159,0.2491608,0.0711746,0.4382629
		c0.7510414-0.1175766,2.1998215-0.2629318,2.2603569-0.2893753c0.1719627-0.0429688,0.2282028-0.1741409,0.1687241-0.3935165
		c-0.0525551-0.1938477-0.2085762-0.3156281-0.468071-0.3653488
		C35.6972351,114.909668,34.4412766,115.0155106,33.7324028,115.105217z"/>
	<path vector-effect="non-scaling-stroke" class="st5" d="M30.5188065,114.5258408l1.0041828-0.1421509l0.8471127,3.3779678
		l-0.9688606,0.1806107L30.5188065,114.5258408z"/>
	<path vector-effect="non-scaling-stroke" class="st7" d="M23.0378571,121.1083069l0.7394943-0.5172348l-0.4043083-1.409996
		l2.0284672-1.0533066l-0.2793388-0.9741669l-2.1089649,1.1596146l-0.2682152-0.8386383l2.2409115-1.0864792l-0.2866917-0.9998093
		l-3.0390263,1.5927734L23.0378571,121.1083069z"/>
	<path vector-effect="non-scaling-stroke" class="st5" d="M26.9441338,119.0327072l0.1755524-0.8149872l2.116869-0.551506
		l0.5111465,0.5521545l1.0351143-0.1909637l-2.8669701-3.265564l-1.0369282,0.1849899l-0.835701,4.4381409L26.9441338,119.0327072z"
		/>
	<path vector-effect="non-scaling-stroke" class="st11" d="M27.2214909,117.4116974l1.4686127-0.3933716l-0.9236355-1.2769165
		l-0.2977142,0.0813065L27.2214909,117.4116974z"/>
	<path vector-effect="non-scaling-stroke" class="st5" d="M34.4156075,112.9529877
		c-2.5004177-0.2957001-4.7677326-0.2690735-6.3658943-0.0926666c-2.4905186,0.2749252-5.8691463,1.3412552-10.1358833,3.1990051
		l3.1035423,0.0528412c2.6599751-1.4562759,5.0414867-2.3342133,7.1445351-2.6338272
		c2.2352276-0.3184509,5.5905685-0.2944641,10.0660286,0.0719681
		C36.8993721,113.2955322,35.6285973,113.0964279,34.4156075,112.9529877z"/>
	<path vector-effect="non-scaling-stroke" class="st7" d="M15.083869,106.7373734l-5.7083187-1.2533112
		c4.3839006,0.3049622,8.8262796,0.9682999,13.2900152,1.9694595c4.2557716,1.1617126,8.9762688,2.79496,14.1243629,4.8791656
		c-1.6938019-0.288475-3.4061623-0.4912567-5.0697002-0.5305634c-1.6635456-0.0393295-3.2148399-0.0361557-4.9208393,0.2894669
		c-3.0120697,0.5996399-6.2648067,1.6265106-9.1614742,3.1015091l5.9314442-3.6850891
		C21.6358547,109.2301025,18.8007736,107.6809464,15.083869,106.7373734z"/>
</g>
<path class="st10" d="M27.141428,149.9999695h155.7171326c3.9414673,0,7.1414337,2.6885071,7.1414337,6l0,0
	c0,3.3114929-3.1999664,6-7.1414337,6H27.141428c-3.9414616,0-7.141428-2.6885071-7.141428-6l0,0
	C20,152.6884766,23.1999664,149.9999695,27.141428,149.9999695z"/>
</svg>
