<?xml version="1.0" standalone="no"?><!-- Generator: Gravit.io --><svg xmlns="http://www.w3.org/2000/svg" xmlns:xlink="http://www.w3.org/1999/xlink" style="isolation:isolate" viewBox="0 0 196.99 67" width="196.99" height="67"><g style="isolation:isolate"><path d=" M 144.725767 24.790641 Q 151.403989 25.041404 161.112394 29.195701 C 170.820798 33.349998 186.746061 40.496879 192.878919 43.981467 C 197.009489 46.328376 195.284376 49.073539 194.128126 50.011039 C 193.242216 50.729346 191.879819 51.000464 191.220319 51.214576 C 189.2003 51.870429 174.758543 53.352653 172.08267 53.431342 C 169.406812 53.510047 155.349165 53.747504 151.669447 53.747504 Q 147.989728 53.747504 119.565626 53.524879 L 109.003126 53.274879 Q 98.767179 52.714164 96.700483 52.462119 Q 94.633787 52.21009 61.138258 48.404349 L 27.743543 44.396979 Q 13.296819 42.385688 12.09213 41.901832 Q 11.120481 41.511573 9.622182 40.238395 Q 6.597757 39.431876 6.093683 39.381476 Q 5.589613 39.331061 15.469411 38.574958 Q 18.017965 38.356742 19.927137 38.567527 C 21.085584 38.695426 22.094656 38.832313 22.879255 39.280662 Q 25.349203 40.692054 9.94885 40.224784 Q 9.609984 39.330928 9.45133 38.838111 C 9.160908 37.935993 8.982664 37.030387 8.781805 36.226951 Q 8.57356 35.393973 7.690366 31.613563 Q 6.153711 25.420371 5.734624 23.744025 C 5.315534 22.067664 5.78119 22.067664 6.153711 21.788276 Q 6.526235 21.508887 6.339975 21.066505 Q 2.428484 6.165595 1.776571 3.930465 Q 1.124654 1.695327 2.009397 1.555625 L 11.680891 1.500495 Q 14.45014 1.458526 17.189085 4.974975 Q 19.92803 8.491431 33.76431 24.509589 Q 43.166708 33.125342 51.587186 32.716361 C 54.26769 32.586158 57.197576 32.355674 61.045545 32.039558 Q 67.032476 31.547721 75.231123 30.785483 L 96.461378 26.938544 Q 97.244794 26.506324 97.622983 26.04708 C 98.001188 25.587836 100.45947 25.209647 100.864683 25.128593 Q 101.269895 25.047553 108.428663 23.669837 Q 109.347135 23.129554 109.185056 22.157035 Q 109.022962 21.184531 106.510541 10.292518 Q 106.543348 9.712874 107.658903 9.701934 C 108.774442 9.691001 111.306654 9.058028 112.502775 11.350608 Q 113.698911 13.643195 115.323438 17.282691 Q 117.807035 21.817328 123.010908 21.953681 L 136.323682 22.601081 Q 137.381681 6.257407 137.631223 7.654868 L 138.083204 22.797675 Q 139.823621 23.103263 141.323469 23.635474 C 142.864439 24.182273 144.554548 24.927909 144.604261 25.226157 C 144.627805 25.367469 142.846113 26.60369 141.738966 27.072089 Q 140.276655 27.690757 137.970716 28.02822 L 137.802 35.395972 Q 137.445707 42.298759 137.440626 42.712379 Q 137.420667 44.338355 136.815626 35.649879 L 136.342161 27.689384 L 136.273923 28.410758 Q 134.126691 33.727637 131.870557 34.067267 C 129.614408 34.406898 125.383051 34.34777 121.887983 33.997016 C 116.285119 33.43473 108.055707 30.458945 106.413709 30.060889 Q 104.771711 29.662818 97.188947 26.730033 Q 113.308195 28.679603 118.154279 28.312476 C 123.000364 27.94535 126.451353 27.504798 127.993299 27.064246 C 129.53523 26.623679 129.314954 24.127219 129.241529 23.319541 Q 129.168104 22.511863 123.245222 21.965278" fill="rgb(255,255,255)" vector-effect="non-scaling-stroke" stroke-width="1" stroke="rgb(0,0,0)" stroke-linejoin="miter" stroke-linecap="square" stroke-miterlimit="3"/><path d=" M 151.160261 26.149161 Q 150.442319 27.892737 152.544858 31.584998 Q 154.647398 35.277259 154.749967 35.379828 Q 156.852506 38.456718 161.313993 37.123405 Q 165.77548 35.790076 170.801069 33.892661" fill="none" vector-effect="non-scaling-stroke" stroke-width="1" stroke="rgb(0,0,0)" stroke-linejoin="miter" stroke-linecap="square" stroke-miterlimit="3"/><path d=" M 112.190626 46.931129 Q 114.97999 46.820389 120.128126 47.118629 Q 122.014926 47.483733 122.190626 48.431129 Q 122.434613 49.746736 119.710264 50.181388 L 116.544858 50.2835 Q 109.283094 50.283729 105.517301 49.685462 C 103.729581 49.40145 99.924345 48.717917 101.687849 48.241294 C 104.000349 47.616294 108.470278 47.078829 112.190626 46.931129 Z " fill="rgb(255,255,255)" vector-effect="non-scaling-stroke" stroke-width="1" stroke="rgb(0,0,0)" stroke-linejoin="miter" stroke-linecap="square" stroke-miterlimit="3"/></g><g style="isolation:isolate"><circle vector-effect="non-scaling-stroke" cx="110.8206728637864" cy="58.872611006216644" r="4" fill="rgb(255,255,255)" stroke-width="1" stroke="rgb(0,0,0)" stroke-linejoin="miter" stroke-linecap="square" stroke-miterlimit="3"/><path d=" M 113.401792 53.487128 L 113.385929 55.720191 Q 113.979682 56.329566 114.432816 57.032691 C 114.560251 57.23046 114.834248 58.657126 114.921283 58.356696 Q 115.517372 56.973968 115.701335 56.210151 Q 115.920463 55.300329 115.95626 53.603004" fill="rgb(255,255,255)" vector-effect="non-scaling-stroke" stroke-width="1" stroke="rgb(0,0,0)" stroke-linejoin="miter" stroke-linecap="square" stroke-miterlimit="3"/><path d=" M 178.128538 53.180015 L 174.983808 53.458594 L 175.003126 53.634254 L 175.284376 56.509254 L 176.440626 56.384254 L 176.38194 55.463782 L 178.127821 53.170066" fill="rgb(255,255,255)" vector-effect="non-scaling-stroke" stroke-width="0.5" stroke="rgb(0,0,0)" stroke-linejoin="miter" stroke-linecap="square" stroke-miterlimit="3"/><path d=" M 185.303607 52.155331 L 179.418289 52.841004 Q 179.521396 54.247785 179.619772 55.056244 C 179.634032 55.173443 182.758349 54.87426 185.812676 54.544018 C 188.670642 54.183898 191.342392 53.801489 191.317835 53.515317 Q 191.243719 52.651944 190.926444 51.366494 L 185.303607 52.155331 Z " fill="rgb(255,255,255)" vector-effect="non-scaling-stroke" stroke-width="1" stroke="rgb(0,0,0)" stroke-linejoin="miter" stroke-linecap="square" stroke-miterlimit="3"/><line x1="112.464063" y1="50.438941" x2="112.417188" y2="53.063941" vector-effect="non-scaling-stroke" stroke-width="1" stroke="rgb(0,0,0)" stroke-linejoin="miter" stroke-linecap="square" stroke-miterlimit="3"/><line x1="116.870313" y1="50.485816" x2="116.823438" y2="53.345191" vector-effect="non-scaling-stroke" stroke-width="1" stroke="rgb(0,0,0)" stroke-linejoin="miter" stroke-linecap="square" stroke-miterlimit="3"/><circle vector-effect="non-scaling-stroke" cx="176.14275009573177" cy="60.15552392426069" r="3.75" fill="rgb(255,255,255)" stroke-width="1" stroke="rgb(0,0,0)" stroke-linejoin="miter" stroke-linecap="square" stroke-miterlimit="3"/></g><g style="isolation:isolate"><path d=" M 59.697093 40.633979 C 57.829287 40.257377 55.793879 39.790763 53.78953 39.385993 L 53.76723 39.108298 C 78.15491 44.006843 92.815875 47.059806 97.824603 47.747764 C 98.86867 47.891166 99.581271 47.476737 99.627108 46.954566 C 99.668017 46.488486 99.298983 45.938941 98.377108 44.954566 L 92.525546 39.899879 Q 89.353671 37.071754 93.447421 37.743629 Q 97.541171 38.415504 101.572421 39.610816 L 109.659029 42.076606 L 108.296526 42.064338 L 100.759921 39.790504 L 95.675738 38.564994 Q 90.141406 37.201469 93.777483 39.982001 Q 97.413577 42.762534 99.472231 44.928153 Q 103.372302 49.346168 95.969836 47.935935 C 91.407076 47.066688 79.34595 44.59574 59.697093 40.633979 Z  M 50.282305 38.648353 C 47.33272 38.027381 44.477839 37.487723 42.573084 37.115027 Q 39.397585 36.49369 33.597201 35.523521 Q 41.211422 36.626676 45.309321 37.383323 Q 48.323512 37.939871 53.856761 39.125358 L 53.782916 39.3926 Q 52.333323 39.065513 50.282305 38.648353 Z " fill-rule="evenodd" fill="rgb(107,115,122)" vector-effect="non-scaling-stroke" stroke-width="0.1" stroke="rgb(107,115,122)" stroke-linejoin="miter" stroke-linecap="square" stroke-miterlimit="3"/><path d=" M 80.070925 42.897285 L 80.326357 43.517631 L 95.701052 43.273307 L 94.970355 42.550651 L 80.070925 42.897285 Z  M 41.968905 39.817847 L 41.086092 39.677222 L 40.974627 39.660438 L 50.625422 41.130393 C 59.961794 42.378806 69.768008 43.235526 80.034434 42.897285 L 80.289874 43.517631 C 69.441706 43.990729 56.631068 42.529883 41.968905 39.817847 Z " fill-rule="evenodd" fill="rgb(227,34,25)" vector-effect="non-scaling-stroke" stroke-width="0.1" stroke="rgb(227,34,25)" stroke-linejoin="miter" stroke-linecap="square" stroke-miterlimit="3"/><path d=" M 118.991473 42.639945 L 112.504961 42.483497 C 107.739367 42.382209 102.935183 42.515494 97.878756 42.550635 L 98.452075 43.157676 L 111.351763 43.140815 L 124.214678 43.483649 L 123.708941 42.856559 L 118.991473 42.639945 Z " fill="rgb(227,34,25)" vector-effect="non-scaling-stroke" stroke-width="0.1" stroke="rgb(227,34,25)" stroke-linejoin="miter" stroke-linecap="square" stroke-miterlimit="3"/><path d=" M 81.226828 45.443671 C 79.686995 45.390861 78.179625 45.315894 76.530364 45.214576 C 66.38729 44.591437 57.117903 43.080146 47.76863 41.895148 L 37.682769 40.125754 C 56.04579 42.599509 70.39907 44.071113 80.712592 44.510581 L 85.863433 45.536597 C 84.276145 45.455604 82.776526 45.532874 81.226828 45.443671 Z  M 80.673392 44.511787 L 85.879058 45.536597 L 98.08953 45.332419 L 96.785102 44.046119 L 80.673392 44.511787 Z " fill-rule="evenodd" fill="rgb(0,75,148)" vector-effect="non-scaling-stroke" stroke-width="0.1" stroke="rgb(0,75,148)" stroke-linejoin="miter" stroke-linecap="square" stroke-miterlimit="3"/><path d=" M 111.17084 43.725486 Q 106.984955 43.708727 99.259173 43.892127 L 100.506365 45.113059 Q 107.628315 44.878281 111.488009 44.87519 Q 116.512002 44.871166 125.780001 45.251823 L 124.876528 44.064231 Q 115.988247 43.744773 111.17084 43.725486 Z " fill="rgb(0,75,148)" vector-effect="non-scaling-stroke" stroke-width="0.1" stroke="rgb(0,75,148)" stroke-linejoin="miter" stroke-linecap="square" stroke-miterlimit="3"/><path d=" M 152.85747 45.747382 L 128.083224 44.227286 L 129.188357 45.495475 L 177.143893 47.751029 L 152.85747 45.747382 Z " fill="rgb(0,75,148)" vector-effect="non-scaling-stroke" stroke-width="0.1" stroke="rgb(0,75,148)" stroke-linejoin="miter" stroke-linecap="square" stroke-miterlimit="3"/><path d=" M 145.201321 46.505355 L 151.125271 48.183059 L 157.823361 50.121825 L 157.417264 49.78575 L 151.218701 47.879378 L 146.326718 46.565001 L 145.201321 46.505355 Z " fill="rgb(107,115,122)" vector-effect="non-scaling-stroke" stroke-width="0.1" stroke="rgb(107,115,122)" stroke-linejoin="miter" stroke-linecap="square" stroke-miterlimit="3"/><path d=" M 70.264857 42.774451 C 70.33047 42.775855 70.391352 42.786429 70.456606 42.788138 C 71.31325 42.810599 72.140872 42.846931 72.858126 42.842933 L 70.689799 42.457175 L 67.849474 42.36489 L 70.264857 42.774451 Z " fill="rgb(255,255,255)" vector-effect="non-scaling-stroke" stroke-width="0.1" stroke="rgb(255,255,255)" stroke-linejoin="miter" stroke-linecap="square" stroke-miterlimit="3"/><path d=" M 74.330233 43.642066 L 76.732577 43.653785 L 77.218615 43.735374 L 74.15404 43.723487 L 74.330233 43.642066 Z " fill="rgb(255,255,255)"/><path d=" M 83.773591 45.54441 L 86.713097 45.573311 L 87.137353 45.726646 L 83.775345 45.765861 L 83.773591 45.54441 Z " fill="rgb(255,255,255)"/><path d=" M 77.136874 44.220191 L 80.113436 44.345191 L 80.588046 44.454566 L 77.437655 44.29441 L 77.136874 44.220191 Z " fill="rgb(255,255,255)"/><path d=" M 141.257577 44.676802 L 142.468148 44.772495 L 142.951241 44.940188 L 141.831109 44.875578 L 141.257577 44.676802 Z " fill="rgb(107,115,122)" vector-effect="non-scaling-stroke" stroke-width="0.1" stroke="rgb(107,115,122)" stroke-linejoin="miter" stroke-linecap="square" stroke-miterlimit="3"/><path d=" M 140.337573 43.84603 Q 135.6804 43.525178 127.07506 43.057639 L 127.463686 43.625297 L 167.020251 46.193687 Q 149.727324 44.492929 140.337573 43.84603 Z " fill="rgb(227,34,25)" vector-effect="non-scaling-stroke" stroke-width="0.1" stroke="rgb(227,34,25)" stroke-linejoin="miter" stroke-linecap="square" stroke-miterlimit="3"/><path d=" M 111.865109 43.302224 L 113.708126 43.349967 L 114.125607 43.567794 L 112.415402 43.533372 L 111.865109 43.302224 Z " fill="rgb(107,115,122)" vector-effect="non-scaling-stroke" stroke-width="0.1" stroke="rgb(107,115,122)" stroke-linejoin="miter" stroke-linecap="square" stroke-miterlimit="3"/><path d=" M 124.88785 47.774985 Q 121.57239 46.824134 117.840212 45.327354 L 119.453494 45.416968 Q 125.389895 47.685325 127.559466 47.99015 C 129.665484 48.286033 129.528338 48.347632 128.100817 46.617301 Q 126.673296 44.88697 122.671908 40.856742 Q 120.638781 38.621726 124.849246 39.515739 Q 129.05971 40.409736 137.376315 42.763465 L 139.19623 43.346198 L 138.012835 43.247581 Q 129.478014 40.85134 126.976733 40.387687 C 125.138873 40.047019 123.076876 39.370231 123.076876 39.939429 C 123.076876 40.168403 123.479662 40.54592 124.287173 41.338004 Q 127.102236 44.099265 129.451113 46.860541 Q 132.095828 49.621802 127.577395 48.510123 C 126.690341 48.291877 125.810412 48.039573 124.88785 47.774985 Z " fill="rgb(107,115,122)" vector-effect="non-scaling-stroke" stroke-width="0.1" stroke="rgb(107,115,122)" stroke-linejoin="miter" stroke-linecap="square" stroke-miterlimit="3"/><path d=" M 137.01368 41.981681 C 136.955269 42.053123 136.838082 42.061454 136.864235 42.239295 C 136.869469 42.469443 136.898644 42.686484 136.958382 43.002967 L 137.779595 43.212195 C 137.926048 42.924506 137.891411 42.68241 137.84948 42.153785 L 137.01368 41.981681 Z " fill="rgb(0,0,0)" vector-effect="non-scaling-stroke" stroke-width="0.1" stroke="rgb(0,0,0)" stroke-linejoin="miter" stroke-linecap="square" stroke-miterlimit="3"/><path d=" M 2.03698 2.603004 Q 2.054197 2.859229 2.16198 3.321754 L 3.013542 6.446754 Q 10.718907 9.050345 14.716667 11.181129 Q 20.872917 14.462379 32.560417 23.884254 L 16.404053 4.861434 L 15.209992 3.542998 Q 14.581864 3.041503 14.028374 2.722083 C 13.659386 2.509139 13.331101 2.385528 13.044655 2.273223 C 11.969795 1.851806 10.976876 2.024604 9.802605 2.024879 Q 7.104145 2.025504 2.044792 2.040504 Q 2.023714 2.405573 2.03698 2.603004 Z " fill="rgb(227,34,25)" vector-effect="non-scaling-stroke" stroke-width="0.1" stroke="rgb(227,34,25)" stroke-linejoin="miter" stroke-linecap="square" stroke-miterlimit="3"/><path d=" M 113.977821 20.122888 L 114.308729 20.18355 L 114.358162 19.868003 Q 114.87232 19.961969 115.112275 20.050157 C 115.155329 20.065984 115.206586 20.088844 115.234908 20.12271 C 115.251859 20.14298 115.270252 20.165959 115.278615 20.19274 Q 115.309071 20.290288 115.251815 20.449952 L 115.66003 20.567182 Q 115.720973 20.377321 115.692267 20.275641 Q 115.663436 20.17352 115.511198 20.043349 Q 115.634276 20.064503 115.696217 19.981898 C 115.770488 19.882858 115.769439 19.698791 115.753196 19.616412 C 115.721772 19.457064 115.597493 19.354593 115.456182 19.289697 Q 115.032475 19.095109 114.11633 18.83418 L 113.977821 20.122888 Z " fill="rgb(227,34,25)" vector-effect="non-scaling-stroke" stroke-width="0.1" stroke="rgb(227,34,25)" stroke-linejoin="miter" stroke-linecap="square" stroke-miterlimit="3"/><path d=" M 114.475967 19.258371 Q 114.4444 19.375201 114.429955 19.439137 Q 114.416035 19.500747 114.394926 19.615437 C 114.696428 19.677132 115.266505 19.827038 115.293206 19.825577 Q 115.400163 19.837635 115.412895 19.700197 Q 115.424144 19.578759 115.287067 19.495383 C 115.248881 19.462272 114.75753 19.324669 114.475967 19.258371 Z " fill="rgb(255,255,255)" vector-effect="non-scaling-stroke" stroke-width="0.1" stroke="rgb(227,34,25)" stroke-linejoin="miter" stroke-linecap="square" stroke-miterlimit="3"/><path d=" M 113.339084 18.583818 L 113.740076 18.67202 L 113.583312 20.07313 L 113.190275 20.004515 L 113.339084 18.583818 Z " fill="rgb(227,34,25)" vector-effect="non-scaling-stroke" stroke-width="0.1" stroke="rgb(227,34,25)" stroke-linejoin="miter" stroke-linecap="square" stroke-miterlimit="3"/><path d=" M 109.570072 20.021737 L 109.923754 19.930213 L 109.969952 19.3382 L 110.888394 19.225769 L 110.920312 18.816745 L 109.956293 18.958105 L 109.97325 18.602061 L 110.976963 18.507114 L 111.009722 18.087325 L 109.631639 18.261352 L 109.570072 20.021737 Z " fill="rgb(0,75,148)" vector-effect="non-scaling-stroke" stroke-width="0.1" stroke="rgb(0,75,148)" stroke-linejoin="miter" stroke-linecap="square" stroke-miterlimit="3"/><path d=" M 111.345422 19.78732 L 111.527348 19.503049 L 112.408304 19.593455 L 112.524032 19.875223 L 112.943665 19.949284 L 112.318412 18.304949 L 111.898935 18.228366 L 110.953862 19.793427 L 111.345422 19.78732 Z " fill="rgb(227,34,25)" vector-effect="non-scaling-stroke" stroke-width="0.1" stroke="rgb(227,34,25)" stroke-linejoin="miter" stroke-linecap="square" stroke-miterlimit="3"/><path d=" M 111.680033 19.211743 L 112.292732 19.270385 L 112.123122 18.655349 L 111.998695 18.644053 L 111.680033 19.211743 Z " fill="rgb(255,255,255)" vector-effect="non-scaling-stroke" stroke-width="0.1" stroke="rgb(227,34,25)" stroke-linejoin="miter" stroke-linecap="square" stroke-miterlimit="3"/><path d=" M 114.533339 18.510603 C 113.746933 18.143811 112.996981 17.891226 112.448649 17.75598 Q 111.166895 17.439837 108.828911 17.635103 L 109.72086 17.953967 Q 111.313312 17.697114 112.40831 17.936599 Q 113.572129 18.191135 115.714034 19.109604 Q 115.105584 18.777505 114.533339 18.510603 Z " fill="rgb(227,34,25)" vector-effect="non-scaling-stroke" stroke-width="0.1" stroke="rgb(227,34,25)" stroke-linejoin="miter" stroke-linecap="square" stroke-miterlimit="3"/><path d=" M 109.306932 13.632498 L 107.679315 12.366887 C 109.029113 13.12945 109.915872 13.481614 111.185416 14.478004 C 112.364363 15.493959 114.046994 17.26402 115.370082 18.709196 C 114.874463 18.360223 114.335427 18.135853 113.811628 17.870821 C 113.296932 17.665881 112.766937 17.53327 112.174219 17.378009 C 111.12398 17.111758 110.086046 17.197324 108.939684 17.227356 L 111.28506 16.439782 C 111.015089 15.420872 110.347385 14.497185 109.306932 13.632498 Z " fill="rgb(0,75,148)" vector-effect="non-scaling-stroke" stroke-width="0.1" stroke="rgb(0,75,148)" stroke-linejoin="miter" stroke-linecap="square" stroke-miterlimit="3"/><path d=" M 107.09694 10.532904 Q 107.113829 10.634467 107.146581 10.821462 L 107.444845 12.071466 Q 109.5652 13.008521 110.682876 13.809851 Q 112.404011 15.04384 115.677857 18.705818 Q 113.443048 14.57609 112.504847 12.453965 C 112.183436 11.726967 111.899756 11.1862 111.432617 10.73393 C 110.684646 10.009766 109.356625 10.090833 109.042437 10.108465 Q 108.320437 10.148981 107.058303 10.293776 Q 107.082986 10.448998 107.09694 10.532904 Z " fill="rgb(227,34,25)" vector-effect="non-scaling-stroke" stroke-width="0.1" stroke="rgb(227,34,25)" stroke-linejoin="miter" stroke-linecap="square" stroke-miterlimit="3"/><path d=" M 23.671684 25.958304 L 24.498261 26.044105 L 24.559357 25.257514 Q 25.84362 25.390113 26.4515 25.561179 C 26.56057 25.59188 26.691193 25.638328 26.767449 25.716285 C 26.813088 25.762946 26.862801 25.816001 26.888542 25.880347 Q 26.982292 26.114722 26.871971 26.518928 L 27.899803 26.729178 Q 28.013399 26.249901 27.923165 26.005012 Q 27.832539 25.759061 27.43261 25.46775 Q 27.739777 25.496192 27.876442 25.28086 C 28.040314 25.022681 28.002358 24.569587 27.946526 24.369834 C 27.838516 23.983451 27.512764 23.754981 27.152291 23.622321 Q 26.071442 23.22454 23.765129 22.758018 L 23.671684 25.958304 Z " fill="rgb(227,34,25)" vector-effect="non-scaling-stroke" stroke-width="0.1" stroke="rgb(227,34,25)" stroke-linejoin="miter" stroke-linecap="square" stroke-miterlimit="3"/><path d=" M 24.732318 23.733548 Q 24.67703 24.027329 24.653743 24.187558 Q 24.631304 24.341959 24.60136 24.628461 C 25.355716 24.722455 26.78844 24.982068 26.853916 24.97334 Q 27.119632 24.98248 27.124576 24.641568 Q 27.12894 24.340344 26.775341 24.161359 C 26.674938 24.087155 25.438457 23.842709 24.732318 23.733548 Z " fill="rgb(255,255,255)" vector-effect="non-scaling-stroke" stroke-width="0.1" stroke="rgb(227,34,25)" stroke-linejoin="miter" stroke-linecap="square" stroke-miterlimit="3"/><path d=" M 21.80291 22.290824 L 22.807373 22.430976 L 22.690575 25.911582 L 21.709465 25.818137 L 21.80291 22.290824 Z " fill="rgb(227,34,25)" vector-effect="non-scaling-stroke" stroke-width="0.1" stroke="rgb(227,34,25)" stroke-linejoin="miter" stroke-linecap="square" stroke-miterlimit="3"/><path d=" M 12.797386 26.556266 L 13.650803 26.2629 L 13.650803 24.796088 L 15.891022 24.342704 L 15.891022 23.329276 L 13.544121 23.862662 L 13.517456 22.982581 L 15.971031 22.555869 L 15.971031 21.515769 L 12.610703 22.209174 L 12.797386 26.556266 Z " fill="rgb(0,75,148)" vector-effect="non-scaling-stroke" stroke-width="0.1" stroke="rgb(0,75,148)" stroke-linejoin="miter" stroke-linecap="square" stroke-miterlimit="3"/><path d=" M 17.124451 25.637794 L 17.517845 24.902762 L 19.704727 24.956107 L 20.043877 25.627769 L 21.09153 25.729514 L 19.235733 21.800208 L 18.187981 21.692222 L 16.161339 25.72808 L 17.124451 25.637794 Z " fill="rgb(227,34,25)" vector-effect="non-scaling-stroke" stroke-width="0.1" stroke="rgb(227,34,25)" stroke-linejoin="miter" stroke-linecap="square" stroke-miterlimit="3"/><path d=" M 17.837876 24.156028 L 19.358025 24.1827 L 18.822136 22.70066 L 18.513542 22.696754 L 17.837876 24.156028 Z " fill="rgb(255,255,255)" vector-effect="non-scaling-stroke" stroke-width="0.1" stroke="rgb(227,34,25)" stroke-linejoin="miter" stroke-linecap="square" stroke-miterlimit="3"/><path d=" M 25.982292 21.853004 C 23.66024 20.879554 21.473419 20.280189 19.888542 20.009254 Q 16.183815 19.375938 9.263542 20.290504 L 12.232292 21.196754 Q 16.669792 20.196754 19.826042 20.634254 Q 23.180664 21.09925 29.482292 23.478004 Q 27.671982 22.561347 25.982292 21.853004 Z " fill="rgb(227,34,25)" vector-effect="non-scaling-stroke" stroke-width="0.1" stroke="rgb(227,34,25)" stroke-linejoin="miter" stroke-linecap="square" stroke-miterlimit="3"/><path d=" M 9.112686 10.549628 L 3.970959 7.771438 C 8.100975 9.272956 12.188423 11.135078 16.203285 13.327827 C 19.973984 15.617591 24.061432 18.488715 28.435616 21.911185 C 26.88694 21.167014 25.296807 20.500098 23.70855 20.003776 C 22.120285 19.507438 20.628212 19.082892 18.898545 18.925666 C 15.837876 18.671836 12.428101 18.762351 9.23708 19.381782 L 15.954498 17.474372 C 14.72377 14.751761 12.425522 12.481162 9.112686 10.549628 Z " fill="rgb(0,75,148)" vector-effect="non-scaling-stroke" stroke-width="0.1" stroke="rgb(0,75,148)" stroke-linejoin="miter" stroke-linecap="square" stroke-miterlimit="3"/></g></svg>