<?xml version="1.0" encoding="utf-8"?>
<!-- Generator: Adobe Illustrator 23.0.2, SVG Export Plug-In . SVG Version: 6.00 Build 0)  -->
<svg version="1.1" id="Vrstva_1" xmlns="http://www.w3.org/2000/svg" xmlns:xlink="http://www.w3.org/1999/xlink" x="0px" y="0px"
	 viewBox="0 0 197 67" style="enable-background:new 0 0 197 67;" xml:space="preserve">
<style type="text/css">
	.st0{fill:#063761;stroke:#063761;stroke-linecap:square;stroke-miterlimit:3;}
	.st1{fill:#063761;stroke:#063761;stroke-width:0.5;stroke-linecap:square;stroke-miterlimit:3;}
</style>
<g>
	<path vector-effect="non-scaling-stroke" class="st0" d="M144.7,24.8c4.5,0.2,9.9,1.6,16.4,4.4c9.7,4.2,25.6,11.3,31.8,14.8
		c4.1,2.3,2.4,5.1,1.2,6c-0.9,0.7-2.2,1-2.9,1.2c-2,0.7-16.5,2.1-19.1,2.2c-2.7,0.1-16.7,0.3-20.4,0.3c-2.5,0-13.2-0.1-32.1-0.2
		L109,53.3c-6.8-0.4-10.9-0.6-12.3-0.8c-1.4-0.2-13.2-1.5-35.6-4.1l-33.4-4c-9.6-1.3-14.8-2.2-15.7-2.5c-0.6-0.3-1.5-0.8-2.5-1.7
		c-2-0.5-3.2-0.8-3.5-0.9c-0.3,0,2.8-0.3,9.4-0.8c1.7-0.1,3.2-0.1,4.5,0c1.2,0.1,2.2,0.3,3,0.7c1.6,0.9-2.7,1.3-12.9,0.9
		c-0.2-0.6-0.4-1.1-0.5-1.4C9.2,37.9,9,37,8.8,36.2c-0.1-0.6-0.5-2.1-1.1-4.6c-1-4.1-1.7-6.8-2-7.9c-0.4-1.7,0-1.7,0.4-2
		c0.2-0.2,0.3-0.4,0.2-0.7C3.7,11.1,2.2,5.4,1.8,3.9C1.3,2.4,1.4,1.6,2,1.6l9.7-0.1c1.8,0,3.7,1.1,5.5,3.5
		c1.8,2.3,7.4,8.9,16.6,19.5C40,30.3,46,33,51.6,32.7c2.7-0.1,5.6-0.4,9.5-0.7c4-0.3,8.7-0.7,14.2-1.3l21.2-3.8
		c0.5-0.3,0.9-0.6,1.2-0.9c0.4-0.5,2.8-0.8,3.2-0.9c0.3-0.1,2.8-0.5,7.6-1.5c0.6-0.4,0.9-0.9,0.8-1.5c-0.1-0.6-1-4.6-2.7-11.9
		c0-0.4,0.4-0.6,1.1-0.6c1.1,0,3.6-0.6,4.8,1.6c0.8,1.5,1.7,3.5,2.8,5.9c1.7,3,4.2,4.6,7.7,4.7l13.3,0.6c0.7-10.9,1.1-15.9,1.3-14.9
		l0.5,15.1c1.2,0.2,2.2,0.5,3.2,0.8c1.5,0.5,3.2,1.3,3.3,1.6c0,0.1-1.8,1.4-2.9,1.8c-1,0.4-2.2,0.7-3.8,1l-0.2,7.4
		c-0.2,4.6-0.4,7-0.4,7.3c0,1.1-0.2-1.3-0.6-7.1l-0.5-8l-0.1,0.7c-1.4,3.5-2.9,5.4-4.4,5.7c-2.3,0.3-6.5,0.3-10-0.1
		c-5.6-0.6-13.8-3.5-15.5-3.9c-1.1-0.3-4.2-1.4-9.2-3.3c10.7,1.3,17.7,1.8,21,1.6c4.8-0.4,8.3-0.8,9.8-1.2c1.5-0.4,1.3-2.9,1.2-3.7
		c0-0.5-2-1-6-1.4"/>
	<path vector-effect="non-scaling-stroke" class="st0" d="M151.2,26.1c-0.5,1.2,0,3,1.4,5.4s2.1,3.7,2.2,3.8
		c1.4,2.1,3.6,2.6,6.6,1.7c3-0.9,6.1-2,9.5-3.2"/>
	<path vector-effect="non-scaling-stroke" class="st0" d="M112.2,46.9c1.9-0.1,4.5,0,7.9,0.2c1.3,0.2,1.9,0.7,2.1,1.3
		c0.2,0.9-0.7,1.5-2.5,1.8l-3.2,0.1c-4.8,0-8.5-0.2-11-0.6c-1.8-0.3-5.6-1-3.8-1.4C104,47.6,108.5,47.1,112.2,46.9z"/>
</g>
<g>
	<circle vector-effect="non-scaling-stroke" class="st0" cx="110.8" cy="58.9" r="4"/>
	<path vector-effect="non-scaling-stroke" class="st0" d="M113.4,53.5l0,2.2c0.4,0.4,0.7,0.8,1,1.3c0.1,0.2,0.4,1.6,0.5,1.3
		c0.4-0.9,0.7-1.6,0.8-2.1c0.1-0.6,0.2-1.5,0.3-2.6"/>
	<path vector-effect="non-scaling-stroke" class="st1" d="M178.1,53.2l-3.1,0.3l0,0.2l0.3,2.9l1.2-0.1l-0.1-0.9L178.1,53.2"/>
	<path vector-effect="non-scaling-stroke" class="st0" d="M185.3,52.2l-5.9,0.7c0.1,0.9,0.1,1.7,0.2,2.2c0,0.1,3.1-0.2,6.2-0.5
		c2.9-0.4,5.5-0.7,5.5-1c0-0.6-0.2-1.3-0.4-2.1L185.3,52.2z"/>
	<line vector-effect="non-scaling-stroke" class="st0" x1="112.5" y1="50.4" x2="112.4" y2="53.1"/>
	<line vector-effect="non-scaling-stroke" class="st0" x1="116.9" y1="50.5" x2="116.8" y2="53.3"/>
	<circle vector-effect="non-scaling-stroke" class="st0" cx="176.1" cy="60.2" r="3.8"/>
</g>
<path vector-effect="non-scaling-stroke" class="st0" d="M2.1,4.2C5,4,6.7,3.9,7.3,4.1c0.4,0.1,3.3,7.6,6.1,15
	c2.8,7.4,5.6,14.7,5.2,14.8c-1,0.2-3.5,0.5-7.3,0.8L8.8,35"/>
</svg>
