<?xml version="1.0" encoding="utf-8"?>
<!-- Generator: Adobe Illustrator 23.0.3, SVG Export Plug-In . SVG Version: 6.00 Build 0)  -->
<svg version="1.1" id="Vrstva_1" xmlns="http://www.w3.org/2000/svg" xmlns:xlink="http://www.w3.org/1999/xlink" x="0px" y="0px"
	 viewBox="0 0 2834.6 2834.6" style="enable-background:new 0 0 2834.6 2834.6;" xml:space="preserve">
<style type="text/css">
	.st0{fill:#FFFFFF;}
	.st1{fill:#153860;}
	.st2{fill:none;stroke:#153860;stroke-width:150.9689;stroke-linejoin:bevel;stroke-miterlimit:10;}
</style>
<g id="XMLID_1_">
	<g>
		<g id="XMLID_2_">
			<g>
				<path class="st0" d="M2754.6,1417.3c0,342.3-130.6,684.5-391.7,945.6c-265.5,265.5-614.9,396-962.9,391.6
					c5.8,0.1,11.5,0.1,17.3,0.1V1417.3H2754.6z"/>
				<path class="st1" d="M2754.6,1417.3L2754.6,1417.3c0-195.2-42.5-390.4-127.4-570.5C2708.9,1019.8,2754.6,1213.2,2754.6,1417.3z"
					/>
				<path class="st1" d="M2754.6,1417.3H1417.3V80c195.2,0,390.3,42.5,570.5,127.4c1.9,0.9,3.8,1.8,5.6,2.7c1.4,0.6,2.7,1.3,4.1,2
					c2.3,1.1,4.6,2.2,6.9,3.3c87.4,42.8,169.4,94.8,244.9,154.8c2.1,1.7,4.2,3.3,6.3,5c2.1,1.7,4.2,3.4,6.2,5.1c2.5,2,5,4.1,7.4,6.1
					c32.2,26.7,63.5,55.1,93.7,85.3c30.2,30.2,58.6,61.5,85.3,93.7c2.1,2.5,4.1,5,6.1,7.4c1.7,2.1,3.4,4.2,5.1,6.2
					c1.7,2.1,3.4,4.2,5,6.3c60,75.4,112,157.5,154.8,244.9c1.1,2.3,2.2,4.6,3.3,6.9c0.7,1.4,1.3,2.7,2,4.1c0.9,1.9,1.8,3.8,2.7,5.6
					C2712.1,1026.9,2754.6,1222.1,2754.6,1417.3z"/>
				<path class="st1" d="M2627.2,846.8c-0.9-1.9-1.8-3.8-2.7-5.6C2625.4,843.1,2626.3,844.9,2627.2,846.8z"/>
				<path class="st1" d="M2448.2,565.4c-26.7-32.2-55.1-63.5-85.3-93.7c-30.2-30.2-61.5-58.6-93.7-85.3
					C2334.4,440.3,2394.3,500.3,2448.2,565.4z"/>
				<path class="st1" d="M1993.4,210.1c-1.9-0.9-3.8-1.8-5.6-2.7C1989.7,208.3,1991.5,209.2,1993.4,210.1z"/>
				<path class="st1" d="M1417.3,80c204.1,0,397.4,45.7,570.5,127.4C1807.7,122.5,1612.5,80,1417.3,80L1417.3,80z"/>
				<path class="st1" d="M1417.3,1417.3v1337.3c-5.8,0-11.5,0-17.3-0.1c-2.9,0-5.8-0.1-8.6-0.1c-2.9-0.1-5.7-0.1-8.6-0.2
					c-2.4-0.1-4.7-0.1-7.1-0.2c-1.4,0-2.8-0.1-4.1-0.1c-1.3,0-2.7-0.1-4-0.1c-1.7-0.1-3.5-0.1-5.2-0.2c-0.6,0-1.2-0.1-1.8-0.1
					c-2.5-0.1-4.9-0.2-7.4-0.3c-144.3-6.9-287.6-37-424-90.4c-1.9-0.7-3.8-1.5-5.7-2.2c-2.1-0.9-4.3-1.7-6.4-2.6
					c-1.8-0.7-3.5-1.4-5.3-2.1c-161-65.8-306.3-162-428.7-281.6c-130.1-127-234.4-280.3-304.3-451.4c-1-2.5-2-5-3.1-7.6
					c-0.8-2-1.6-3.9-2.4-5.9c-0.6-1.6-1.2-3.1-1.8-4.7c-0.9-2.3-1.8-4.5-2.6-6.8c-48.6-126.5-77.3-258.9-86.1-392.3
					c-0.2-2.7-0.3-5.3-0.5-8c-0.2-2.5-0.3-5.1-0.4-7.6c0-0.3,0-0.5,0-0.8c-0.1-1.8-0.2-3.6-0.3-5.5c-0.1-1.5-0.2-3-0.2-4.5
					c-0.1-0.9-0.1-1.8-0.1-2.7c-0.1-2.5-0.2-5-0.3-7.4c-0.1-2.9-0.2-5.7-0.3-8.6c-0.4-14.3-0.7-28.7-0.7-43.1H1417.3z"/>
				<path class="st0" d="M1417.3,80v1337.3H80c0,14.4,0.2,28.8,0.7,43.1c-11.4-356.5,118.9-716.6,391-988.7
					C732.8,210.6,1075.1,80,1417.3,80z"/>
				<path class="st1" d="M1371.6,2753.8c1.4,0,2.8,0.1,4.1,0.1C1374.3,2753.9,1372.9,2753.9,1371.6,2753.8z"/>
				<path class="st1" d="M1362.3,2753.5c1.8,0.1,3.5,0.1,5.2,0.2C1365.8,2753.6,1364.1,2753.6,1362.3,2753.5z"/>
				<path class="st1" d="M1353.1,2753.1c2.5,0.1,4.9,0.2,7.4,0.3C1358.1,2753.3,1355.6,2753.2,1353.1,2753.1z"/>
				<path class="st1" d="M929.2,2662.7c136.4,53.4,279.7,83.5,424,90.4C1204.1,2746.1,1061.5,2714.6,929.2,2662.7z"/>
				<path class="st1" d="M923.5,2660.5c1.9,0.8,3.8,1.5,5.7,2.2C927.3,2662,925.4,2661.2,923.5,2660.5z"/>
				<path class="st1" d="M168.9,1897.8c0.9,2.3,1.8,4.5,2.6,6.8C170.7,1902.4,169.8,1900.1,168.9,1897.8z"/>
				<path class="st1" d="M82.9,1505.5c8.8,133.5,37.5,265.8,86.1,392.3C121.5,1774.8,91.8,1643,82.9,1505.5z"/>
				<path class="st1" d="M82.4,1497.5c0.2,2.7,0.3,5.3,0.5,8C82.7,1502.8,82.5,1500.2,82.4,1497.5z"/>
				<path class="st1" d="M81.9,1489.9c0.1,2.5,0.3,5.1,0.4,7.6C82.2,1495,82.1,1492.4,81.9,1489.9z"/>
				<path class="st1" d="M81.6,1483.6c0.1,1.8,0.2,3.7,0.3,5.5C81.8,1487.3,81.7,1485.5,81.6,1483.6z"/>
			</g>
			<g>
				<path class="st2" d="M80.7,1460.4c-11.4-356.5,118.9-716.6,391-988.7C732.8,210.6,1075.1,80,1417.3,80
					c195.2,0,390.3,42.5,570.5,127.4c1.9,0.9,3.8,1.8,5.6,2.7c1.4,0.6,2.7,1.3,4.1,2c2.3,1.1,4.6,2.2,6.9,3.3
					c85.7,41.9,167.9,93.5,244.9,154.8c2.1,1.7,4.2,3.3,6.3,5c2.1,1.7,4.2,3.4,6.2,5.1c2.5,2,5,4.1,7.4,6.1
					c32.2,26.7,63.5,55.1,93.7,85.3c30.2,30.2,58.6,61.5,85.3,93.7c2.1,2.5,4.1,5,6.1,7.4c1.7,2.1,3.4,4.2,5.1,6.2
					c1.7,2.1,3.4,4.2,5,6.3c61.3,77,112.9,159.1,154.8,244.9c1.1,2.3,2.2,4.6,3.3,6.9c0.7,1.4,1.3,2.7,2,4.1
					c0.9,1.9,1.8,3.8,2.7,5.6c84.9,180.1,127.4,375.3,127.4,570.5c0,342.3-130.6,684.5-391.7,945.6
					c-265.5,265.5-614.9,396-962.9,391.6c-2.9,0-5.8-0.1-8.6-0.1c-2.9,0-5.7-0.1-8.6-0.2c-2.4,0-4.7-0.1-7.1-0.2
					c-1.4,0-2.8-0.1-4.1-0.1c-1.3,0-2.7-0.1-4-0.1c-1.7-0.1-3.5-0.1-5.2-0.2c-0.6,0-1.2-0.1-1.8-0.1c-2.5-0.1-4.9-0.2-7.4-0.3
					c-144.3-6.9-287.6-37-424-90.4c-1.9-0.7-3.8-1.5-5.7-2.2c-2.1-0.9-4.3-1.7-6.4-2.6c-1.8-0.7-3.5-1.4-5.3-2.1
					c-155.5-63.4-301.4-157.2-428.7-281.6c-3.8-3.7-7.6-7.5-11.4-11.3c-130-130-227.6-280-292.8-440.1c-1-2.5-2.1-5-3.1-7.6
					c-0.8-2-1.6-3.9-2.4-5.9c-0.6-1.6-1.2-3.1-1.8-4.7c-0.9-2.3-1.8-4.5-2.6-6.8c-48.6-126.5-77.3-258.9-86.1-392.3
					c-0.2-2.7-0.3-5.3-0.5-8c-0.2-2.5-0.3-5.1-0.4-7.6c0-0.3,0-0.5,0-0.8c-0.1-1.8-0.2-3.6-0.3-5.5c-0.1-1.5-0.2-3-0.2-4.5
					c-0.1-0.9-0.1-1.8-0.1-2.7c-0.1-2.5-0.2-5-0.3-7.4C80.9,1466.1,80.8,1463.3,80.7,1460.4z"/>
			</g>
		</g>
	</g>
</g>
</svg>
