<?xml version="1.0" encoding="utf-8"?>
<!-- Generator: Adobe Illustrator 23.0.2, SVG Export Plug-In . SVG Version: 6.00 Build 0)  -->
<svg version="1.0" id="user" xmlns="http://www.w3.org/2000/svg" xmlns:xlink="http://www.w3.org/1999/xlink" x="0px" y="0px"
	 viewBox="0 0 363.1 164.7" style="enable-background:new 0 0 363.1 164.7;" xml:space="preserve">
<style type="text/css">
	.st0{fill:none;}
	.st1{fill:#004B94;}
	.st2{fill-rule:evenodd;clip-rule:evenodd;fill:#004B94;}
	.st3{fill-rule:evenodd;clip-rule:evenodd;fill:#E32219;}
	.st4{fill-rule:evenodd;clip-rule:evenodd;fill:#E2001A;}
	.st5{fill:#87888A;}
	.st6{fill:none;stroke:#87888A;stroke-width:0.18;stroke-linecap:round;stroke-linejoin:round;stroke-miterlimit:1.414;}
</style>
<path class="st0" d="z"/>
<path class="st0" d="z"/>
<path class="st0" d="z"/>
<path class="st0" d="z"/>
<path class="st0" d="z"/>
<path class="st0" d="z"/>
<path class="st1" d="M309.6,56.7v0.7l-0.1,0.6l-0.3,0.5l-0.2,0.3l-0.4,0.2l-0.3,0.2l-0.5,0.1h-0.9l-0.4-0.1l-0.4-0.2l-0.4-0.2
	l-0.2-0.3l-0.2-0.5l-0.2-0.6v-2.3l0.2-0.6l0.2-0.5l0.2-0.3l0.4-0.2l0.4-0.1l0.4-0.1h0.9l0.5,0.1l0.3,0.1l0.4,0.2l0.2,0.3l0.3,0.5
	l0.1,0.6C309.6,55.1,309.6,56.7,309.6,56.7z M312.2,56.7v-0.8l-0.1-1l-0.2-0.8l-0.4-0.7l-0.6-0.6l-0.7-0.3l-0.8-0.3l-1-0.1h-2.1
	l-1,0.1l-0.8,0.3l-0.7,0.3l-0.6,0.6l-0.4,0.7l-0.2,0.8l-0.1,1v0.8l0.1,1l0.2,0.8l0.4,0.7l0.6,0.5l0.7,0.5l0.8,0.2l1,0.2h2.1l1-0.2
	l0.8-0.2l0.7-0.5l0.6-0.5l0.4-0.7l0.2-0.8L312.2,56.7z M289.6,56.1l-2.1,0.1l-1-0.1l-0.8-0.1l-0.3-0.2l-0.2-0.2l-0.2-0.3v-0.9
	l0.1-0.3l0.3-0.2l0.2-0.2l0.4-0.1l0.3-0.1l0.9-0.1l1,0.1l0.4,0.1l0.3,0.2l0.3,0.3l0.2,0.3l0.2,1.1V56.1z M292.1,56.8v-1.4l-0.1-0.8
	l-0.3-0.8l-0.4-0.6l-0.6-0.5l-0.7-0.3l-0.8-0.3l-1-0.1h-2.1l-0.9,0.1l-0.8,0.2l-0.7,0.3l-0.6,0.5l-0.3,0.5l-0.3,0.6l-0.1,0.6v0.1
	l0.1,0.7l0.3,0.5l0.4,0.5l0.6,0.3l0.7,0.2l0.8,0.2l0.8,0.1h2.3l1.2-0.1l-0.1,0.6l-0.1,0.5l-0.2,0.3l-0.3,0.2l-0.3,0.2l-0.5,0.1
	l-1.1,0.1h-1.9l-1.6-0.1h-0.3l-0.1,0.2v0.8h0.1l0.3,0.1l1.4,0.1l2.1,0.1h1.2l1-0.2l0.9-0.2l0.7-0.5l0.6-0.5l0.4-0.7l0.2-0.8
	L292.1,56.8L292.1,56.8z M269.5,56.1l-2.1,0.1l-0.9-0.1l-0.8-0.1l-0.4-0.2l-0.2-0.2l-0.2-0.3v-0.9l0.2-0.3l0.2-0.2l0.2-0.2l0.4-0.1
	l0.4-0.1l0.9-0.1l0.9,0.1l0.4,0.1l0.3,0.2l0.3,0.3l0.2,0.3l0.2,0.6L269.5,56.1L269.5,56.1z M272,56.8v-1.4l-0.1-0.8l-0.2-0.8
	l-0.5-0.6l-0.6-0.5l-0.7-0.3l-0.8-0.3l-0.9-0.1h-2.1l-1,0.1l-0.8,0.2l-0.7,0.3l-0.5,0.5l-0.4,0.5l-0.3,0.6v0.7l0.1,0.7l0.2,0.5
	l0.5,0.5l0.5,0.3l0.7,0.2l0.8,0.2l0.8,0.1h2.4l1.1-0.1l-0.1,0.6l-0.1,0.5l-0.2,0.3l-0.2,0.2l-0.4,0.2l-0.4,0.1l-1.2,0.1H265
	l-1.6-0.1h-0.3l-0.1,0.2v0.8h0.1l0.3,0.1l1.4,0.1l2.1,0.1h1.2l1-0.2l0.9-0.2l0.7-0.5l0.6-0.5l0.4-0.7l0.2-0.8L272,56.8z M248.8,60.2
	v-8l-0.1-0.1l-0.2-0.1h-1.3l-0.4,0.1l-3,0.7h-0.1l-0.1,0.1v1l0.1,0.1h0.4l2.2-0.5v6.6l0.1,0.2h2.3C248.7,60.5,248.8,60.2,248.8,60.2
	z M216.7,56.7h-3.9v-0.3l0.1-0.2l0.2-0.2l0.3-0.2l0.6-0.2l0.8-0.1l0.8,0.1l0.6,0.2l0.4,0.5l0.1,0.2V56.7z M219.2,57.5v-0.6l-0.1-0.7
	l-0.2-0.6l-0.3-0.5l-0.5-0.5l-0.7-0.2l-0.7-0.3l-0.9-0.1l-1-0.1l-1,0.1l-0.9,0.1l-0.8,0.2l-0.6,0.3l-0.5,0.5l-0.4,0.5l-0.2,0.6
	l-0.1,0.7v1.3l0.1,0.3l0.4,0.6l0.5,0.6l0.6,0.3l1.4,0.5l0.8,0.1h2.7l1.6-0.2h0.3l0.1-0.2v-0.8l-0.1-0.1h-0.3l-3.4,0.1l-0.6-0.1h-0.5
	l-0.4-0.2l-0.3-0.1l-0.2-0.2l-0.1-0.3l-0.1-0.5h6l0.3-0.1C219.1,57.7,219.2,57.5,219.2,57.5z M200.5,60.1v-0.7l-0.1-0.1l-0.2-0.1
	h-0.1l-2.4,0.1l-0.6-0.1l-0.6-0.2l-0.2-0.2l-0.2-0.2l-0.1-0.3l-0.1-0.3v-1l0.1-0.5l0.1-0.3l0.2-0.2l0.2-0.2l0.6-0.2h3.3l0.1-0.1
	v-0.8l-0.1-0.1l-0.3-0.1l-0.9-0.1l-1.5-0.1l-0.9,0.1l-0.8,0.1l-0.7,0.2l-0.6,0.2l-0.5,0.5l-0.4,0.5l-0.2,0.6l-0.1,0.7v1l0.1,0.7
	l0.2,0.5l0.4,0.6l0.5,0.3l0.6,0.3l0.7,0.1l0.8,0.2h2.4l0.9-0.1l0.3-0.1C200.4,60.4,200.5,60.1,200.5,60.1z M183.2,60.2v-3.6
	l-0.1-0.6l-0.1-0.5l-0.1-0.5l-0.3-0.3l-0.5-0.3l-0.5-0.2l-0.7-0.1L180,54l-0.9,0.1h-0.7l-0.7,0.2l-0.8,0.2v-0.2l-0.1-0.1l-0.2-0.1
	H175l-0.3,0.1l-0.1,0.1v5.9l0.1,0.2h2.2l0.1-0.2v-4.6l1.1-0.2l1-0.1h0.9l0.3,0.1l0.2,0.1l0.1,0.1l0.1,0.2v4.3l0.1,0.2h2.3
	C183.1,60.5,183.2,60.2,183.2,60.2z M163.7,60.2v-5.9l-0.1-0.1l-0.2-0.1h-1.7l-0.3,0.1l-0.1,0.1v5.9l0.1,0.2h2.2
	C163.6,60.5,163.7,60.2,163.7,60.2z M163.8,53.1v-1l-0.1-0.1l-0.3-0.1h-1.8l-0.2,0.1l-0.2,0.1v1l0.4,0.2h1.8l0.3-0.1
	C163.7,53.2,163.8,53.1,163.8,53.1z M150.8,58.8v-0.3l-0.3-0.5l-0.5-0.5l-1-0.5l-2.4-0.9l-0.5-0.2l-0.2-0.1v-0.3l0.3-0.1l0.4-0.1
	h0.5l1.8,0.1h1.6l0.1-0.2v-0.6l-0.1-0.2l-0.3-0.1l-1.4-0.1l-1.9-0.1l-1.5,0.1l-0.6,0.2l-0.5,0.1l-0.4,0.2l-0.3,0.3l-0.1,0.3
	l-0.1,0.3l0.1,0.5l0.4,0.5l0.4,0.3l0.7,0.3l2.5,0.9l0.7,0.3l0.1,0.1V59l-0.2,0.2l-0.4,0.1H147l-3.1-0.1h-0.1l-0.2,0.1l-0.1,0.1v0.7
	l0.1,0.1l0.3,0.1l1.7,0.2h2.4l0.8-0.1l0.6-0.2l0.5-0.2l0.4-0.2l0.3-0.2l0.2-0.3C150.8,59.2,150.8,58.8,150.8,58.8z"/>
<path class="st0" d="M309.6,56.7v0.7l-0.1,0.6l-0.3,0.5l-0.2,0.3l-0.4,0.2l-0.3,0.2l-0.5,0.1h-0.9l-0.4-0.1l-0.4-0.2l-0.4-0.2
	l-0.2-0.3l-0.2-0.5l-0.2-0.6v-2.3l0.2-0.6l0.2-0.5l0.2-0.3l0.4-0.2l0.4-0.1l0.4-0.1h0.9l0.5,0.1l0.3,0.1l0.4,0.2l0.2,0.3l0.3,0.5
	l0.1,0.6V56.7"/>
<path class="st0" d="M312.2,56.7v-0.8l-0.1-1l-0.2-0.8l-0.4-0.7l-0.6-0.6l-0.7-0.3l-0.8-0.3l-1-0.1h-2.1l-1,0.1l-0.8,0.3l-0.7,0.3
	l-0.6,0.6l-0.4,0.7l-0.2,0.8l-0.1,1v0.8l0.1,1l0.2,0.8l0.4,0.7l0.6,0.5l0.7,0.5l0.8,0.2l1,0.2h2.1l1-0.2l0.8-0.2l0.7-0.5l0.6-0.5
	l0.4-0.7l0.2-0.8L312.2,56.7 M289.6,56.1l-2.1,0.1l-1-0.1l-0.8-0.1l-0.3-0.2l-0.2-0.2l-0.2-0.3v-0.9l0.1-0.3l0.3-0.2l0.2-0.2
	l0.4-0.1l0.3-0.1l0.9-0.1l1,0.1l0.4,0.1l0.3,0.2l0.3,0.3l0.2,0.3l0.2,1.1V56.1"/>
<path class="st0" d="M292.1,56.8v-1.4l-0.1-0.8l-0.3-0.8l-0.4-0.6l-0.6-0.5l-0.7-0.3l-0.8-0.3l-1-0.1h-2.1l-0.9,0.1l-0.8,0.2
	l-0.7,0.3l-0.6,0.5l-0.3,0.5l-0.3,0.6l-0.1,0.6v0.1l0.1,0.7l0.3,0.5l0.4,0.5l0.6,0.3l0.7,0.2l0.8,0.2l0.8,0.1h2.3l1.2-0.1l-0.1,0.6
	l-0.1,0.5l-0.2,0.3l-0.3,0.2l-0.3,0.2l-0.5,0.1l-1.1,0.1h-1.9l-1.6-0.1h-0.3l-0.1,0.2v0.8h0.1l0.3,0.1l1.4,0.1l2.1,0.1h1.2l1-0.2
	l0.9-0.2l0.7-0.5l0.6-0.5l0.4-0.7l0.2-0.8L292.1,56.8 M269.5,56.1l-2.1,0.1l-0.9-0.1l-0.8-0.1l-0.4-0.2l-0.2-0.2l-0.2-0.3v-0.9
	l0.2-0.3l0.2-0.2l0.2-0.2l0.4-0.1l0.4-0.1l0.9-0.1l0.9,0.1l0.4,0.1l0.3,0.2l0.3,0.3l0.2,0.3l0.2,0.6L269.5,56.1"/>
<path class="st0" d="M272,56.8v-1.4l-0.1-0.8l-0.2-0.8l-0.5-0.6l-0.6-0.5l-0.7-0.3l-0.8-0.3l-0.9-0.1h-2.1l-1,0.1l-0.8,0.2l-0.7,0.3
	l-0.5,0.5l-0.4,0.5l-0.3,0.6v0.7l0.1,0.7l0.2,0.5l0.5,0.5l0.5,0.3l0.7,0.2l0.8,0.2l0.8,0.1h2.4l1.1-0.1l-0.1,0.6l-0.1,0.5l-0.2,0.3
	l-0.2,0.2l-0.4,0.2l-0.4,0.1l-1.2,0.1H265l-1.6-0.1h-0.3l-0.1,0.2v0.8h0.1l0.3,0.1l1.4,0.1l2.1,0.1h1.2l1-0.2l0.9-0.2l0.7-0.5
	l0.6-0.5l0.4-0.7l0.2-0.8L272,56.8 M248.8,60.2v-8l-0.1-0.1l-0.2-0.1h-1.3l-0.4,0.1l-3,0.7h-0.1l-0.1,0.1v1l0.1,0.1h0.4l2.2-0.5v6.6
	l0.1,0.2h2.3L248.8,60.2 M216.7,56.7h-3.9v-0.3l0.1-0.2l0.2-0.2l0.3-0.2l0.6-0.2l0.8-0.1l0.8,0.1l0.6,0.2l0.4,0.5l0.1,0.2V56.7"/>
<path class="st0" d="M219.2,57.5v-0.6l-0.1-0.7l-0.2-0.6l-0.3-0.5l-0.5-0.5l-0.7-0.2l-0.7-0.3l-0.9-0.1l-1-0.1l-1,0.1l-0.9,0.1
	l-0.8,0.2l-0.6,0.3l-0.5,0.5l-0.4,0.5l-0.2,0.6l-0.1,0.7v1.3l0.1,0.3l0.4,0.6l0.5,0.6l0.6,0.3l1.4,0.5l0.8,0.1h2.7l1.6-0.2h0.3
	l0.1-0.2v-0.8l-0.1-0.1h-0.3l-3.4,0.1l-0.6-0.1h-0.5l-0.4-0.2l-0.3-0.1l-0.2-0.2l-0.1-0.3l-0.1-0.5h6l0.3-0.1L219.2,57.5
	 M200.5,60.1v-0.7l-0.1-0.1l-0.2-0.1h-0.1l-2.4,0.1l-0.6-0.1l-0.6-0.2l-0.2-0.2l-0.2-0.2l-0.1-0.3l-0.1-0.3v-1l0.1-0.5l0.1-0.3
	l0.2-0.2l0.2-0.2l0.6-0.2h3.3l0.1-0.1v-0.8l-0.1-0.1l-0.3-0.1l-0.9-0.1l-1.5-0.1l-0.9,0.1l-0.8,0.1l-0.7,0.2l-0.6,0.2l-0.5,0.5
	l-0.4,0.5l-0.2,0.6l-0.1,0.7v1l0.1,0.7l0.2,0.5l0.4,0.6l0.5,0.3l0.6,0.3l0.7,0.1l0.8,0.2h2.4l0.9-0.1l0.3-0.1L200.5,60.1
	 M183.2,60.2v-3.6l-0.1-0.6l-0.1-0.5l-0.1-0.5l-0.3-0.3l-0.5-0.3l-0.5-0.2l-0.7-0.1L180,54l-0.9,0.1h-0.7l-0.7,0.2l-0.8,0.2v-0.2
	l-0.1-0.1l-0.2-0.1H175l-0.3,0.1l-0.1,0.1v5.9l0.1,0.2h2.2l0.1-0.2v-4.6l1.1-0.2l1-0.1h0.9l0.3,0.1l0.2,0.1l0.1,0.1l0.1,0.2v4.3
	l0.1,0.2h2.3L183.2,60.2 M163.7,60.2v-5.9l-0.1-0.1l-0.2-0.1h-1.7l-0.3,0.1l-0.1,0.1v5.9l0.1,0.2h2.2L163.7,60.2 M163.8,53.1v-1
	l-0.1-0.1l-0.3-0.1h-1.8l-0.2,0.1l-0.2,0.1v1l0.4,0.2h1.8l0.3-0.1L163.8,53.1 M150.8,58.8v-0.3l-0.3-0.5l-0.5-0.5l-1-0.5l-2.4-0.9
	l-0.5-0.2l-0.2-0.1v-0.3l0.3-0.1l0.4-0.1h0.5l1.8,0.1h1.6l0.1-0.2v-0.6l-0.1-0.2l-0.3-0.1l-1.4-0.1l-1.9-0.1l-1.5,0.1l-0.6,0.2
	l-0.5,0.1l-0.4,0.2l-0.3,0.3l-0.1,0.3l-0.1,0.3l0.1,0.5l0.4,0.5l0.4,0.3l0.7,0.3l2.5,0.9l0.7,0.3l0.1,0.1V59l-0.2,0.2l-0.4,0.1H147
	l-3.1-0.1h-0.1l-0.2,0.1l-0.1,0.1v0.7l0.1,0.1l0.3,0.1l1.7,0.2h2.4l0.8-0.1l0.6-0.2l0.5-0.2l0.4-0.2l0.3-0.2l0.2-0.3L150.8,58.8"/>
<path class="st2" d="M117.3,71.4h45.3v11.5h-31.9v8.7h30.4v11h-30.4v16.2h-13.4V71.4z M120,33.7l-81.9,87h62.3l-16.9-18.9
	C83.5,101.8,120,33.7,120,33.7z"/>
<path class="st3" d="M198.4,71.4h8.6l23.9,47.4h-14.8l-4.2-8.4h-13.5v-10.2h8.6l-8.6-17.4C198.4,82.7,198.4,71.4,198.4,71.4z
	 M190,71.4h8.5v11.3l-0.1-0.2l-8.3,17.6h8.4v10.2h-13.3l-3.9,8.4h-14.9C166.4,118.7,190,71.4,190,71.4z M236.4,71.4h13.3v47.4h-13.3
	L236.4,71.4z M286,71.4h13.5l1.8,0.1l1.7,0.1l1.5,0.3l1.3,0.5l1.2,0.6l1.1,0.6l0.9,0.8l0.8,0.9l0.7,0.9l0.6,1l0.5,1.3l0.6,2.5
	l0.2,1.5l0.1,1.5v6.8l-0.3,2l-0.2,0.9l-0.2,0.8l-0.3,0.8l-0.4,0.8l-0.4,0.7l-0.5,0.7l-0.7,0.6l-0.6,0.5l-0.8,0.6l-0.9,0.3l-1,0.3
	l-1.1,0.3v0.2l1.4,0.3l1.4,0.5l1.2,0.7l0.6,0.5l1,1.1l0.8,1.6l0.3,0.9l0.2,0.9l0.2,1.1l0.1,1.3l0.1,1.5v8.1H299v-5.7l-0.1-1.7
	l-0.2-1.5l-0.2-0.6l-0.2-0.6l-0.2-0.5l-0.3-0.3l-0.4-0.3l-0.4-0.3l-0.4-0.2l-0.5-0.2l-1.2-0.2h-9v-12h8.6l1.2-0.1l1.1-0.2l0.9-0.3
	l0.7-0.5l0.5-0.7l0.4-0.9l0.2-1v-2.6l-0.1-1.5l-0.1-0.6l-0.1-0.6l-0.3-0.5l-0.2-0.5l-0.3-0.3L298,84l-0.8-0.5l-1.1-0.2l-1.3-0.1
	l-1.4-0.1H286L286,71.4L286,71.4z M259.3,71.4H286v11.7h-13.4v11.5H286v12h-13.4v12.2h-13.3V71.4z M106,40.3L25.5,126h65.9l9.9,10.1
	H0.4L129.7,0.3L106,40.3z"/>
<path class="st4" d="M322.7,71.3l1.1,0.1l1,0.3l0.9,0.6l0.8,0.7l0.7,0.9l0.5,1l0.3,1.1l0.1,1.1l-0.1,1.3l-0.3,1.1l-0.5,1l-0.7,0.8
	l-0.8,0.8l-0.9,0.5l-1,0.3l-1.1,0.1v-0.7l0.9-0.1l0.9-0.3l0.8-0.5l0.7-0.7l0.5-0.7l0.4-0.9l0.3-1l0.1-1l-0.1-1l-0.3-1l-0.4-0.9
	l-0.5-0.7l-0.7-0.7l-0.8-0.5l-0.9-0.3h-0.9V71.3L322.7,71.3z M322.7,77.5h0.1l1.7,3.1h1l-1.9-3.1l0.7-0.1l0.3-0.1l0.3-0.2l0.2-0.3
	l0.2-0.2l0.1-0.5l0.1-0.3l-0.1-0.5l-0.1-0.3l-0.1-0.3l-0.2-0.2l-0.3-0.2l-0.4-0.1l-0.4-0.1h-1.2v0.6h1l0.5,0.2l0.3,0.1l0.1,0.2
	l0.2,0.7l-0.1,0.3l-0.2,0.3l-0.2,0.2l-0.3,0.1l-0.7,0.1h-0.6L322.7,77.5L322.7,77.5z M317.2,77.2l0.1-1.1l0.3-1.1l0.5-1l0.7-0.9
	l0.8-0.7l1-0.6l1-0.3l1.1-0.1v0.8h-1l-0.9,0.3l-0.8,0.5l-0.7,0.7l-0.5,0.7l-0.4,0.9l-0.3,1l-0.1,1l0.1,1l0.3,1l0.4,0.9l0.5,0.7
	l0.7,0.7l0.8,0.5l0.9,0.3l1,0.1v0.7l-1.1-0.1l-1-0.3l-1-0.5l-0.8-0.8l-0.7-0.8l-0.5-1l-0.3-1.1L317.2,77.2L317.2,77.2z M322.7,73.9
	h-2v6.7h0.7v-3.1h1.3v-0.7h-1.3v-2.4h1.3V73.9z"/>
<path class="st3" d="M322.7,71.3l1.1,0.1l1,0.3l0.9,0.6l0.8,0.7l0.7,0.9l0.5,1l0.3,1.1l0.1,1.1l-0.1,1.3l-0.3,1.1l-0.5,1l-0.7,0.8
	l-0.8,0.8l-0.9,0.5l-1,0.3l-1.1,0.1v-0.7l0.9-0.1l0.9-0.3l0.8-0.5l0.7-0.7l0.5-0.7l0.4-0.9l0.3-1l0.1-1l-0.1-1l-0.3-1l-0.4-0.9
	l-0.5-0.7l-0.7-0.7l-0.8-0.5l-0.9-0.3h-0.9V71.3L322.7,71.3z M322.7,77.5h0.1l1.7,3.1h1l-1.9-3.1l0.7-0.1l0.3-0.1l0.3-0.2l0.2-0.3
	l0.2-0.2l0.1-0.5l0.1-0.3l-0.1-0.5l-0.1-0.3l-0.1-0.3l-0.2-0.2l-0.3-0.2l-0.4-0.1l-0.4-0.1h-1.2v0.6h1l0.5,0.2l0.3,0.1l0.1,0.2
	l0.2,0.7l-0.1,0.3l-0.2,0.3l-0.2,0.2l-0.3,0.1l-0.7,0.1h-0.6L322.7,77.5L322.7,77.5z M317.2,77.2l0.1-1.1l0.3-1.1l0.5-1l0.7-0.9
	l0.8-0.7l1-0.6l1-0.3l1.1-0.1v0.8h-1l-0.9,0.3l-0.8,0.5l-0.7,0.7l-0.5,0.7l-0.4,0.9l-0.3,1l-0.1,1l0.1,1l0.3,1l0.4,0.9l0.5,0.7
	l0.7,0.7l0.8,0.5l0.9,0.3l1,0.1v0.7l-1.1-0.1l-1-0.3l-1-0.5l-0.8-0.8l-0.7-0.8l-0.5-1l-0.3-1.1L317.2,77.2L317.2,77.2z M322.7,73.9
	h-2v6.7h0.7v-3.1h1.3v-0.7h-1.3v-2.4h1.3V73.9z"/>
<path class="st5" d="M343.5,149.7l0.8-1l0.3-0.3l0.3-0.2l0.2-0.2l0.7-1l0.9-1.3l1-1.5l0.3-0.6l0.2-0.7l-1.3,0.5l-0.4,0.2l-0.4,0.3
	l-0.3,0.3l-0.3,0.2l-0.8,0.7l-0.9,0.7l-3.1,2.2l-3.5,2.5l-0.4,0.1h-1.3l-0.1-0.1l0.3-0.7l0.6-1.1l0.6-1.1l0.4-0.7l0.8-1.1l0.3-0.3
	l0.2-0.3l0.3-0.7l0.2-0.7l0.1-0.3l-0.2-0.2l-0.3-0.2l0.7-0.6l0.5-0.3l0.8-0.2l0.7-0.2h0.2l0.1,0.1v0.6l-0.3,0.8l-0.3,0.8l-0.5,0.9
	l-0.1,0.1l-0.2,0.5l-0.2,0.6l-0.2,0.7l-0.2,0.6l0.9-0.6l0.6-0.6l0.4-0.1l0.3-0.1l0.1-0.1l0.5-0.5l0.7-0.6l0.7-0.3l0.4-0.2l0.2-0.1
	l0.3-0.3l0.3-0.3l0.3-0.2l0.8-0.5l1.5-0.9l1.1-0.6l0.4-0.2h0.9l0.5,0.2l0.1,0.1l0.1,0.2l-0.1,0.2l-0.3,0.6l-0.7,1l-1.2,2.3l-1,1.8
	l-0.3,0.6l-0.5,1l-0.5,1l-1.1,1.6l-0.2,0.2l-0.4,0.1H344l-0.3-0.1l-0.2-0.1l-0.1-0.2l-0.2-0.5l-0.1-0.3v-0.1L343.5,149.7
	L343.5,149.7z"/>
<path class="st6" d="M343.5,149.7l0.8-1l0.3-0.3l0.3-0.2l0.2-0.2l0.7-1l0.9-1.3l1-1.5l0.3-0.6l0.2-0.7l-1.3,0.5l-0.4,0.2l-0.4,0.3
	l-0.3,0.3l-0.3,0.2l-0.8,0.7l-0.9,0.7l-3.1,2.2l-3.5,2.5l-0.4,0.1h-1.3l-0.1-0.1l0.3-0.7l0.6-1.1l0.6-1.1l0.4-0.7l0.8-1.1l0.3-0.3
	l0.2-0.3l0.3-0.7l0.2-0.7l0.1-0.3l-0.2-0.2l-0.3-0.2l0.7-0.6l0.5-0.3l0.8-0.2l0.7-0.2h0.2l0.1,0.1v0.6l-0.3,0.8l-0.3,0.8l-0.5,0.9
	l-0.1,0.1l-0.2,0.5l-0.2,0.6l-0.2,0.7l-0.2,0.6l0.9-0.6l0.6-0.6l0.4-0.1l0.3-0.1l0.1-0.1l0.5-0.5l0.7-0.6l0.7-0.3l0.4-0.2l0.2-0.1
	l0.3-0.3l0.3-0.3l0.3-0.2l0.8-0.5l1.5-0.9l1.1-0.6l0.4-0.2h0.9l0.5,0.2l0.1,0.1l0.1,0.2l-0.1,0.2l-0.3,0.6l-0.7,1l-1.2,2.3l-1,1.8
	l-0.3,0.6l-0.5,1l-0.5,1l-1.1,1.6l-0.2,0.2l-0.4,0.1H344l-0.3-0.1l-0.2-0.1l-0.1-0.2l-0.2-0.5l-0.1-0.3v-0.1L343.5,149.7"/>
<path class="st5" d="M330.4,146.9l0.7-1.1l0.6-1.3l0.7-1.3l-0.2-0.1L332,143l-0.1-0.3l0.2-0.3l0.6-0.6l0.7-0.6l0.4-0.2l0.5-0.1h0.2
	l0.5,0.1l0.2,0.1v0.6l-0.2,1l-0.2,0.6l-0.3,0.5l-0.6,0.9l-1.3,1.9l-1.7,2.4l-0.6,0.9l-0.6,0.7l-0.3,0.2l-0.5,0.3l-0.5,0.2l-0.4,0.1
	h-0.2l-0.1-0.1l0.2-0.3l0.1-0.2l0.4-0.7l0.8-1.3l0.4-0.7l0.3-0.5L330.4,146.9L330.4,146.9z"/>
<path class="st6" d="M330.4,146.9l0.7-1.1l0.6-1.3l0.7-1.3l-0.2-0.1L332,143l-0.1-0.3l0.2-0.3l0.6-0.6l0.7-0.6l0.4-0.2l0.5-0.1h0.2
	l0.5,0.1l0.2,0.1v0.6l-0.2,1l-0.2,0.6l-0.3,0.5l-0.6,0.9l-1.3,1.9l-1.7,2.4l-0.6,0.9l-0.6,0.7l-0.3,0.2l-0.5,0.3l-0.5,0.2l-0.4,0.1
	h-0.2l-0.1-0.1l0.2-0.3l0.1-0.2l0.4-0.7l0.8-1.3l0.4-0.7l0.3-0.5L330.4,146.9"/>
<path class="st5" d="M338,136v0.3l-0.2,0.5l-0.3,0.5l-0.4,0.3l-0.6,0.5l-0.4,0.2l-0.2-0.1l-0.4-0.5l-0.1-0.6v-0.5l0.1-0.3l0.2-0.2
	l0.4-0.2l0.6-0.3l0.5-0.1h0.4l0.3,0.2L338,136L338,136z"/>
<path class="st6" d="M338,136v0.3l-0.2,0.5l-0.3,0.5l-0.4,0.3l-0.6,0.5l-0.4,0.2l-0.2-0.1l-0.4-0.5l-0.1-0.6v-0.5l0.1-0.3l0.2-0.2
	l0.4-0.2l0.6-0.3l0.5-0.1h0.4l0.3,0.2L338,136"/>
<path class="st5" d="M307.5,147.7l-1,1.9l-0.3,0.7l-0.1,0.5l0.5-0.2l0.7-0.5l0.1,0.5l0.2,0.3l-0.7,0.6l-0.7,0.7l-0.3,0.1l-0.6,0.2
	l-1,0.2l-0.3-0.1l-0.2-0.2v-0.1h-0.1l-0.2-0.5l0.1-0.2l1.2-2.5l0.7-1.4l0.6-1.1l0.4-0.7l2.1-2.8l0.5-0.7l1-1.5l1-1.7l1-1.6l0.6-0.9
	l0.1-0.1l-0.1-0.3v-0.3l0.1-0.5l0.4-0.9l0.1-0.6l0.1-0.6l-0.1-0.8l0.6-0.5l0.5-0.3l0.5-0.2l0.5-0.1h0.3l0.5,0.1h0.1v0.1l-0.1,0.6
	l-0.5,1.8l-0.3,1l-0.1,0.5l-0.2,0.3l-0.6,0.8l-0.3,0.3l-0.7,1l-0.4,0.6l-1,1.8l-1.2,1.9l-0.7,1.1l-1.6,2.4L307.5,147.7L307.5,147.7z
	"/>
<path class="st6" d="M307.5,147.7l-1,1.9l-0.3,0.7l-0.1,0.5l0.5-0.2l0.7-0.5l0.1,0.5l0.2,0.3l-0.7,0.6l-0.7,0.7l-0.3,0.1l-0.6,0.2
	l-1,0.2l-0.3-0.1l-0.2-0.2v-0.1h-0.1l-0.2-0.5l0.1-0.2l1.2-2.5l0.7-1.4l0.6-1.1l0.4-0.7l2.1-2.8l0.5-0.7l1-1.5l1-1.7l1-1.6l0.6-0.9
	l0.1-0.1l-0.1-0.3v-0.3l0.1-0.5l0.4-0.9l0.1-0.6l0.1-0.6l-0.1-0.8l0.6-0.5l0.5-0.3l0.5-0.2l0.5-0.1h0.3l0.5,0.1h0.1v0.1l-0.1,0.6
	l-0.5,1.8l-0.3,1l-0.1,0.5l-0.2,0.3l-0.6,0.8l-0.3,0.3l-0.7,1l-0.4,0.6l-1,1.8l-1.2,1.9l-0.7,1.1l-1.6,2.4L307.5,147.7"/>
<path class="st5" d="M305.6,132.4l0.9-1.3l0.4-0.8l0.3-0.6l0.1-0.2l0.3-0.2l1.2-1.1l0.9-0.7l0.6-0.5l0.7-0.1l0.9,0.1l-0.2,0.7
	l-0.2,0.9l-0.3,1.3l-0.2,0.8l-0.1,0.1l-0.1-0.1v-0.9l-0.1-0.6l-0.1-0.1l-0.3-0.1l-0.4,0.1l-1.4,1.7l-1.4,1.8l-1.6,2l-0.7,1l-0.9,1.1
	l-0.2,0.5v0.5l2.1-0.6l2-0.5l0.1-0.1l0.4,0.2l0.1,0.1l-0.1,0.3l-0.3,0.2l-0.6,0.2l-1.6,0.7l-1.4,0.5l-0.6,0.2l-0.9,0.1l-0.9,1.1
	l-1.1,1.5l-0.8,1.5l-1,1.8l-0.7,1.3l-2,3.1l-1.6,2.2l-2.6,4.4l-0.4,0.2H291l-0.5-0.1l-0.5-0.3l0.2-0.3l0.1-0.8l0.1-1.1l0.7,0.7
	l0.3,0.1l0.2,0.1l1.6-2.2l1.4-2.2l3.3-5.3l2.6-4.2l0.2-0.7l-2,0.3l-1,0.1h-0.2l-0.2,0.1l-0.9-0.1l-1-0.2l-0.2-0.3l-0.1-0.3l0.5-0.1
	l0.4-0.1l1.6-0.2l2.9-0.3l0.7-0.2l0.6-0.2l2.4-4L305.6,132.4L305.6,132.4z"/>
<path class="st6" d="M305.6,132.4l0.9-1.3l0.4-0.8l0.3-0.6l0.1-0.2l0.3-0.2l1.2-1.1l0.9-0.7l0.6-0.5l0.7-0.1l0.9,0.1l-0.2,0.7
	l-0.2,0.9l-0.3,1.3l-0.2,0.8l-0.1,0.1l-0.1-0.1v-0.9l-0.1-0.6l-0.1-0.1l-0.3-0.1l-0.4,0.1l-1.4,1.7l-1.4,1.8l-1.6,2l-0.7,1l-0.9,1.1
	l-0.2,0.5v0.5l2.1-0.6l2-0.5l0.1-0.1l0.4,0.2l0.1,0.1l-0.1,0.3l-0.3,0.2l-0.6,0.2l-1.6,0.7l-1.4,0.5l-0.6,0.2l-0.9,0.1l-0.9,1.1
	l-1.1,1.5l-0.8,1.5l-1,1.8l-0.7,1.3l-2,3.1l-1.6,2.2l-2.6,4.4l-0.4,0.2H291l-0.5-0.1l-0.5-0.3l0.2-0.3l0.1-0.8l0.1-1.1l0.7,0.7
	l0.3,0.1l0.2,0.1l1.6-2.2l1.4-2.2l3.3-5.3l2.6-4.2l0.2-0.7l-2,0.3l-1,0.1h-0.2l-0.2,0.1l-0.9-0.1l-1-0.2l-0.2-0.3l-0.1-0.3l0.5-0.1
	l0.4-0.1l1.6-0.2l2.9-0.3l0.7-0.2l0.6-0.2l2.4-4L305.6,132.4"/>
<path class="st5" d="M219.4,148.7l-0.3,0.1l-0.4,0.2l-0.5,0.3l-0.3,0.5l-0.2-0.7v-0.3l0.1-0.3l0.4-0.5l0.3-0.2l0.2-0.2h0.4l0.8-0.2
	l0.7-0.2l0.5-0.1l1.1-1.3l1-1.3l2-2.8l0.6-0.9l0.4-0.6l0.2-0.2h0.3l0.4-0.1l0.6-0.2l0.2-0.1h0.5l0.1,0.1l-0.1,0.3l-0.3,0.6l-1.4,1.7
	l-1.5,2l-1.5,1.8l-0.4,0.3l-0.3,0.3l0.1,0.1l0.1-0.1h0.5l3.4-0.3l1.7-0.1l0.8-0.1l0.4-0.1l0.5-0.1l0.1,0.1v0.1l-0.1,0.1l-0.4,0.3
	l-0.2,0.2l-0.2,0.2l-0.6,0.2l-0.7,0.1l-1.6,0.3l-4.9,0.7l-1.5,1.7l-1.1,1.6l-0.8,1.3l-0.4,1.3v0.2h0.5l0.2-0.2v0.5l-0.1,0.3
	l-0.2,0.2l-0.2,0.2l-0.6,0.3l-0.5,0.1l-0.5,0.1l-0.3,0.1l-0.3-0.1l-0.2-0.1l-0.2-0.3l-0.1-0.5v-0.5l0.1-0.3l0.1-0.5l0.4-0.8l1.1-1.5
	l2-2.8L219.4,148.7L219.4,148.7z"/>
<path class="st6" d="M219.4,148.7l-0.3,0.1l-0.4,0.2l-0.5,0.3l-0.3,0.5l-0.2-0.7v-0.3l0.1-0.3l0.4-0.5l0.3-0.2l0.2-0.2h0.4l0.8-0.2
	l0.7-0.2l0.5-0.1l1.1-1.3l1-1.3l2-2.8l0.6-0.9l0.4-0.6l0.2-0.2h0.3l0.4-0.1l0.6-0.2l0.2-0.1h0.5l0.1,0.1l-0.1,0.3l-0.3,0.6l-1.4,1.7
	l-1.5,2l-1.5,1.8l-0.4,0.3l-0.3,0.3l0.1,0.1l0.1-0.1h0.5l3.4-0.3l1.7-0.1l0.8-0.1l0.4-0.1l0.5-0.1l0.1,0.1v0.1l-0.1,0.1l-0.4,0.3
	l-0.2,0.2l-0.2,0.2l-0.6,0.2l-0.7,0.1l-1.6,0.3l-4.9,0.7l-1.5,1.7l-1.1,1.6l-0.8,1.3l-0.4,1.3v0.2h0.5l0.2-0.2v0.5l-0.1,0.3
	l-0.2,0.2l-0.2,0.2l-0.6,0.3l-0.5,0.1l-0.5,0.1l-0.3,0.1l-0.3-0.1l-0.2-0.1l-0.2-0.3l-0.1-0.5v-0.5l0.1-0.3l0.1-0.5l0.4-0.8l1.1-1.5
	l2-2.8L219.4,148.7"/>
<path class="st5" d="M324.4,144.1l0.8-0.5l1-0.5h0.2l0.1,0.1l0.1,0.3l-0.1,0.8l-0.3,1l-0.4,0.9l-0.2,0.5l-0.2,0.2l-0.3,0.3l-0.2,0.3
	l-0.5,1l-0.4,1l-0.2,0.2l-0.2,0.2l-0.4,0.3l-0.1,0.5l-0.3,0.9l-0.5,1.3l-0.9,1.8l-0.6,1.1l-0.5,0.9l-0.6,1.1l-0.8,1.3l-0.8,0.9
	l-0.6,0.8l-1.1,0.9l-1.8,1.5l-0.5,0.3l-0.6,0.3l-0.6,0.1l-0.4,0.1h-1.6l-1.1-0.2l-1.2-0.5l-1.1-0.6l-0.3-0.2l-0.1-0.2l-0.1-0.2
	l-0.3-0.3l-0.5-0.8l-0.1-0.5l-0.1-0.5l0.1-0.6l0.1-0.5l0.3-0.5l0.4-0.6l0.2-0.2l0.6-0.8l0.3-0.1l0.4-0.1l0.2-0.1l0.1,0.1l-0.2,0.2
	l-0.2,0.2l-0.2,0.8l-0.1,0.9v0.6l0.2,0.5l0.3,0.6l0.4,0.5l0.5,0.5l0.6,0.3l0.7,0.3l0.6,0.2l0.7,0.1l0.6,0.1h0.4l0.4-0.1l0.4-0.2
	l1.5-1.4l0.8-0.8l0.7-1l1-1.7l1.6-3.1l0.5-0.9l0.6-0.9l0.3-0.3l0.1-0.3l0.3-0.6l0.6-1.5l0.3-0.8l0.3-0.7l0.1-0.8l0.1-0.5l0.1-0.5
	v-0.1l-0.3,0.2l-0.8,0.5L321,148l-0.4,0.3l-0.5,0.2l-0.7,0.2l-0.5,0.3l-0.8,0.5l-0.7,0.5l-0.5,0.3l-0.4,0.3L316,151l-1.3,0.5
	l-1.3,0.5h-0.9l-0.6-0.2l-0.1-0.1l0.3-0.6l1.3-2.2l0.4-0.8l0.6-0.5l0.4-0.3l0.2-0.3l0.3-0.5l0.5-0.6l0.5-0.6l0.3-0.5l0.4-0.6
	l0.9-1.6l0.3-0.5l0.2-0.2l0.5-0.1l0.5-0.2l1.1-0.1l0.2,0.1l0.1,0.1l-0.2,0.5l-0.5,0.7l-0.5,0.8l-1.4,1.9l-0.7,0.9l-0.9,0.9l-0.7,0.6
	l-0.5,0.7l-0.4,0.5l-0.2,0.5l-0.1,0.1l0.1,0.1h0.2l1.2-0.2l0.8-0.2l0.7-0.5l0.3-0.2l1-0.7l1.3-0.7l1.2-0.7l1.2-0.8l0.3-0.3l0.2-0.2
	l0.5-0.6L324.4,144.1L324.4,144.1z"/>
<path class="st6" d="M324.4,144.1l0.8-0.5l1-0.5h0.2l0.1,0.1l0.1,0.3l-0.1,0.8l-0.3,1l-0.4,0.9l-0.2,0.5l-0.2,0.2l-0.3,0.3l-0.2,0.3
	l-0.5,1l-0.4,1l-0.2,0.2l-0.2,0.2l-0.4,0.3l-0.1,0.5l-0.3,0.9l-0.5,1.3l-0.9,1.8l-0.6,1.1l-0.5,0.9l-0.6,1.1l-0.8,1.3l-0.8,0.9
	l-0.6,0.8l-1.1,0.9l-1.8,1.5l-0.5,0.3l-0.6,0.3l-0.6,0.1l-0.4,0.1h-1.6l-1.1-0.2l-1.2-0.5l-1.1-0.6l-0.3-0.2l-0.1-0.2l-0.1-0.2
	l-0.3-0.3l-0.5-0.8l-0.1-0.5l-0.1-0.5l0.1-0.6l0.1-0.5l0.3-0.5l0.4-0.6l0.2-0.2l0.6-0.8l0.3-0.1l0.4-0.1l0.2-0.1l0.1,0.1l-0.2,0.2
	l-0.2,0.2l-0.2,0.8l-0.1,0.9v0.6l0.2,0.5l0.3,0.6l0.4,0.5l0.5,0.5l0.6,0.3l0.7,0.3l0.6,0.2l0.7,0.1l0.6,0.1h0.4l0.4-0.1l0.4-0.2
	l1.5-1.4l0.8-0.8l0.7-1l1-1.7l1.6-3.1l0.5-0.9l0.6-0.9l0.3-0.3l0.1-0.3l0.3-0.6l0.6-1.5l0.3-0.8l0.3-0.7l0.1-0.8l0.1-0.5l0.1-0.5
	v-0.1l-0.3,0.2l-0.8,0.5L321,148l-0.4,0.3l-0.5,0.2l-0.7,0.2l-0.5,0.3l-0.8,0.5l-0.7,0.5l-0.5,0.3l-0.4,0.3L316,151l-1.3,0.5
	l-1.3,0.5h-0.9l-0.6-0.2l-0.1-0.1l0.3-0.6l1.3-2.2l0.4-0.8l0.6-0.5l0.4-0.3l0.2-0.3l0.3-0.5l0.5-0.6l0.5-0.6l0.3-0.5l0.4-0.6
	l0.9-1.6l0.3-0.5l0.2-0.2l0.5-0.1l0.5-0.2l1.1-0.1l0.2,0.1l0.1,0.1l-0.2,0.5l-0.5,0.7l-0.5,0.8l-1.4,1.9l-0.7,0.9l-0.9,0.9l-0.7,0.6
	l-0.5,0.7l-0.4,0.5l-0.2,0.5l-0.1,0.1l0.1,0.1h0.2l1.2-0.2l0.8-0.2l0.7-0.5l0.3-0.2l1-0.7l1.3-0.7l1.2-0.7l1.2-0.8l0.3-0.3l0.2-0.2
	l0.5-0.6L324.4,144.1"/>
<path class="st5" d="M277.2,153l-0.6,0.5l-0.8,0.5l-0.7,0.2l-1.4,0.1h-1.5l-1.6-0.3l-1.5-0.5l-0.4-0.1l-0.1-0.1l-0.1-0.1l0.1-0.2
	l0.3-0.1l0.4-0.2l0.5-0.1l0.3-0.2l0.6-0.3h0.2l0.2,0.1l0.1,0.3l0.7,0.2l1,0.2l0.9,0.2l0.9,0.1h0.5l0.2-0.1v-0.3l-0.1-0.2l-0.2-0.5
	l-0.3-0.6l-0.4-0.6l-0.2-0.6l-0.1-0.5v-0.5l0.1-0.3l0.2-0.5l0.5-0.7l0.2-0.3l0.3-0.3l0.5-0.3l1.1-0.6l1.2-0.6l1.1-0.5l1.2-0.2h1
	l0.6,0.1l0.4,0.1l0.2,0.2v0.2l-0.1,0.2l-0.2,0.2l-0.5,0.6l-0.9,0.7l-1,0.8l-1,0.6h-0.5l-0.1-0.1l0.5-0.5l0.9-0.7l0.5-0.6l0.1-0.2
	v-0.2l-0.1-0.1l-0.2-0.1l-0.3-0.1l-0.7,0.1l-0.5,0.1l-0.7,0.2l-0.5,0.2l-0.3,0.2l-0.3,0.3l-0.2,0.3l-0.3,0.3l-0.2,0.7v0.7l0.2,0.3
	l0.3,0.3l0.2,0.3l0.1,0.2l0.2,0.3l0.3,0.6v1.1L277.2,153L277.2,153z"/>
<path class="st6" d="M277.2,153l-0.6,0.5l-0.8,0.5l-0.7,0.2l-1.4,0.1h-1.5l-1.6-0.3l-1.5-0.5l-0.4-0.1l-0.1-0.1l-0.1-0.1l0.1-0.2
	l0.3-0.1l0.4-0.2l0.5-0.1l0.3-0.2l0.6-0.3h0.2l0.2,0.1l0.1,0.3l0.7,0.2l1,0.2l0.9,0.2l0.9,0.1h0.5l0.2-0.1v-0.3l-0.1-0.2l-0.2-0.5
	l-0.3-0.6l-0.4-0.6l-0.2-0.6l-0.1-0.5v-0.5l0.1-0.3l0.2-0.5l0.5-0.7l0.2-0.3l0.3-0.3l0.5-0.3l1.1-0.6l1.2-0.6l1.1-0.5l1.2-0.2h1
	l0.6,0.1l0.4,0.1l0.2,0.2v0.2l-0.1,0.2l-0.2,0.2l-0.5,0.6l-0.9,0.7l-1,0.8l-1,0.6h-0.5l-0.1-0.1l0.5-0.5l0.9-0.7l0.5-0.6l0.1-0.2
	v-0.2l-0.1-0.1l-0.2-0.1l-0.3-0.1l-0.7,0.1l-0.5,0.1l-0.7,0.2l-0.5,0.2l-0.3,0.2l-0.3,0.3l-0.2,0.3l-0.3,0.3l-0.2,0.7v0.7l0.2,0.3
	l0.3,0.3l0.2,0.3l0.1,0.2l0.2,0.3l0.3,0.6v1.1L277.2,153"/>
<path class="st5" d="M232.9,150.2l-1.3,1.8l-0.5,0.7l-0.1,0.5l0.6-0.2l0.7-0.3v0.3l0.2,0.3l-0.7,0.6l-0.8,0.6l-0.4,0.2l-0.6,0.1
	l-1.1,0.1l-0.3-0.1l-0.1-0.2v-0.1h-0.1l-0.1-0.5l0.1-0.2l1.5-2.4l0.9-1.3l0.9-1.1l0.4-0.7l2.5-2.6l0.6-0.7l1.2-1.4l1.3-1.6l1.2-1.5
	l0.7-0.9l0.1-0.1V139l0.1-0.3l0.1-0.3l0.5-0.8l0.2-0.6l0.2-0.6v-0.8l0.7-0.6l0.5-0.2l0.5-0.2h1.1l0.2,0.1h0.1v0.1l-0.1,0.6l-0.8,1.8
	l-0.5,1l-0.2,0.3l-0.2,0.3l-0.7,0.7L241,140l-0.8,0.9l-0.4,0.6l-1.3,1.7l-1.5,1.9l-0.9,1l-1.9,2.3L232.9,150.2L232.9,150.2z"/>
<path class="st6" d="M232.9,150.2l-1.3,1.8l-0.5,0.7l-0.1,0.5l0.6-0.2l0.7-0.3v0.3l0.2,0.3l-0.7,0.6l-0.8,0.6l-0.4,0.2l-0.6,0.1
	l-1.1,0.1l-0.3-0.1l-0.1-0.2v-0.1h-0.1l-0.1-0.5l0.1-0.2l1.5-2.4l0.9-1.3l0.9-1.1l0.4-0.7l2.5-2.6l0.6-0.7l1.2-1.4l1.3-1.6l1.2-1.5
	l0.7-0.9l0.1-0.1V139l0.1-0.3l0.1-0.3l0.5-0.8l0.2-0.6l0.2-0.6v-0.8l0.7-0.6l0.5-0.2l0.5-0.2h1.1l0.2,0.1h0.1v0.1l-0.1,0.6l-0.8,1.8
	l-0.5,1l-0.2,0.3l-0.2,0.3l-0.7,0.7L241,140l-0.8,0.9l-0.4,0.6l-1.3,1.7l-1.5,1.9l-0.9,1l-1.9,2.3L232.9,150.2"/>
<path class="st5" d="M237.3,153.6l0.8-1l0.2-0.2l0.3-0.3l0.3-0.2l0.7-0.9l0.9-1.3l1-1.6l0.3-0.6l0.2-0.6l-1.3,0.3l-0.4,0.3l-0.4,0.3
	l-0.3,0.2l-0.3,0.3l-0.9,0.6l-0.8,0.7l-3.1,2.2l-3.5,2.5l-0.4,0.1h-1.4l-0.1-0.1l0.4-0.7l0.2-0.2l0.6-0.5l1.6-1l2.5-1.6l0.6-0.6
	l0.3-0.1l0.3-0.1l0.2-0.1l0.4-0.5l0.8-0.5l0.7-0.5l0.4-0.2l0.2-0.1l0.3-0.2l0.3-0.5l0.3-0.2l0.8-0.3l1.5-0.9l1.1-0.6l0.4-0.2
	l0.4-0.1l0.5,0.1l0.5,0.2l0.2,0.1v0.1l-0.1,0.3l-0.3,0.6l-0.7,1l-1.3,2.2l-0.9,1.8l-0.3,0.6l-0.5,1l-0.6,1.1l-1,1.6l-0.3,0.1
	l-0.4,0.1h-0.5l-0.3-0.1l-0.2-0.1l-0.1-0.2l-0.2-0.5l-0.1-0.3l0.1-0.1C236.9,154.4,237.3,153.6,237.3,153.6z"/>
<path class="st6" d="M237.3,153.6l0.8-1l0.2-0.2l0.3-0.3l0.3-0.2l0.7-0.9l0.9-1.3l1-1.6l0.3-0.6l0.2-0.6l-1.3,0.3l-0.4,0.3l-0.4,0.3
	l-0.3,0.2l-0.3,0.3l-0.9,0.6l-0.8,0.7l-3.1,2.2l-3.5,2.5l-0.4,0.1h-1.4l-0.1-0.1l0.4-0.7l0.2-0.2l0.6-0.5l1.6-1l2.5-1.6l0.6-0.6
	l0.3-0.1l0.3-0.1l0.2-0.1l0.4-0.5l0.8-0.5l0.7-0.5l0.4-0.2l0.2-0.1l0.3-0.2l0.3-0.5l0.3-0.2l0.8-0.3l1.5-0.9l1.1-0.6l0.4-0.2
	l0.4-0.1l0.5,0.1l0.5,0.2l0.2,0.1v0.1l-0.1,0.3l-0.3,0.6l-0.7,1l-1.3,2.2l-0.9,1.8l-0.3,0.6l-0.5,1l-0.6,1.1l-1,1.6l-0.3,0.1
	l-0.4,0.1h-0.5l-0.3-0.1l-0.2-0.1l-0.1-0.2l-0.2-0.5l-0.1-0.3l0.1-0.1L237.3,153.6"/>
<path class="st5" d="M262.7,146.7l-0.3,0.1l-0.4,0.2l-0.5,0.3l-0.3,0.5l-0.2-0.7l0.1-0.3l0.1-0.2l0.3-0.6l0.3-0.2l0.3-0.2h0.3
	l0.8-0.2l0.7-0.2l0.5-0.1l1.2-1.3l0.9-1.3l2-2.8l0.6-0.9l0.4-0.6l0.2-0.1l0.3-0.1l0.4-0.1l0.6-0.2l0.2-0.1h0.5l0.1,0.2l-0.1,0.2
	l-0.3,0.6l-1.4,1.7l-1.5,2.1l-1.5,1.8l-0.4,0.3l-0.3,0.3l0.1,0.1l0.1-0.1h0.5l3.5-0.3l1.7-0.1l0.7-0.1l0.5-0.1l0.4-0.1l0.1,0.1v0.1
	l-0.1,0.1l-0.4,0.3l-0.2,0.2l-0.2,0.2l-0.6,0.2l-0.7,0.1l-1.6,0.3l-4.9,0.7l-1.5,1.7l-1.1,1.6l-0.7,1.3l-0.5,1.4l0.1,0.1h0.4
	l0.2-0.2l0.1,0.1v0.1l-0.1,0.2l-0.1,0.3l-0.1,0.2l-0.3,0.2l-0.6,0.3l-0.5,0.1l-0.5,0.1l-0.3,0.1h-0.2l-0.2-0.2l-0.3-0.3l-0.1-0.5
	v-0.5l0.1-0.2l0.1-0.6l0.4-0.8l1.1-1.5l2.1-2.8L262.7,146.7L262.7,146.7z"/>
<path class="st6" d="M262.7,146.7l-0.3,0.1l-0.4,0.2l-0.5,0.3l-0.3,0.5l-0.2-0.7l0.1-0.3l0.1-0.2l0.3-0.6l0.3-0.2l0.3-0.2h0.3
	l0.8-0.2l0.7-0.2l0.5-0.1l1.2-1.3l0.9-1.3l2-2.8l0.6-0.9l0.4-0.6l0.2-0.1l0.3-0.1l0.4-0.1l0.6-0.2l0.2-0.1h0.5l0.1,0.2l-0.1,0.2
	l-0.3,0.6l-1.4,1.7l-1.5,2.1l-1.5,1.8l-0.4,0.3l-0.3,0.3l0.1,0.1l0.1-0.1h0.5l3.5-0.3l1.7-0.1l0.7-0.1l0.5-0.1l0.4-0.1l0.1,0.1v0.1
	l-0.1,0.1l-0.4,0.3l-0.2,0.2l-0.2,0.2l-0.6,0.2l-0.7,0.1l-1.6,0.3l-4.9,0.7l-1.5,1.7l-1.1,1.6l-0.7,1.3l-0.5,1.4l0.1,0.1h0.4
	l0.2-0.2l0.1,0.1v0.1l-0.1,0.2l-0.1,0.3l-0.1,0.2l-0.3,0.2l-0.6,0.3l-0.5,0.1l-0.5,0.1l-0.3,0.1h-0.2l-0.2-0.2l-0.3-0.3l-0.1-0.5
	v-0.5l0.1-0.2l0.1-0.6l0.4-0.8l1.1-1.5l2.1-2.8L262.7,146.7"/>
<path class="st5" d="M276.3,137.3l-0.6,0.6l-0.9,0.7L274,139l-1.9,0.8l-0.6,0.2v-0.1l0.1-0.1l0.6-0.8l0.8-0.9l1.3-1l0.6-0.3l0.7-0.2
	l0.8-0.2h0.5l0.1,0.1v0.1l-0.2,0.3L276.3,137.3L276.3,137.3z"/>
<path class="st6" d="M276.3,137.3l-0.6,0.6l-0.9,0.7L274,139l-1.9,0.8l-0.6,0.2v-0.1l0.1-0.1l0.6-0.8l0.8-0.9l1.3-1l0.6-0.3l0.7-0.2
	l0.8-0.2h0.5l0.1,0.1v0.1l-0.2,0.3L276.3,137.3"/>
<path class="st5" d="M362.6,140.3l-0.1-0.3l-0.2-0.1l-0.3-0.1l-0.4-0.1l-0.5,0.1L360,140l-1.5,0.3l-0.4,0.2l-0.3,0.2l-0.6,0.5
	l-0.3,0.5v-0.2l-0.1-0.3l-0.1-0.1l-0.1,0.1l-0.4,0.1l-0.8,0.1l-0.4,0.2l-0.4,0.2l-0.7,0.7l-0.5,0.3l-0.3,0.5l-0.3,0.6l-0.3,0.6
	l-0.2,0.6l-0.2,0.5l-0.8,2.2l-0.5,1.4l-0.1,0.6v0.1l0.1,0.1l0.1,0.2l0.4,0.1l0.5-0.1l0.8-0.1l0.4-0.2l0.3-0.2l0.4-0.1l0.5-0.2
	l0.7-0.6l0.3-0.2l0.5-0.1l0.5-0.1l0.2-0.2l1-0.8l0.9-0.7l0.6-0.5l1-0.9l0.6-0.6l0.4-0.3l0.4-0.3l0.3-0.7l0.5-0.9l0.4-1l0.1-0.5
	L362.6,140.3L362.6,140.3z M360.6,142.3l-0.2,0.5l-0.9,1.4l-0.4,0.3l-0.3,0.2l-0.6,0.3L357,146l-1.2,0.9l-0.8,0.7l-0.6,0.2l-0.5,0.2
	l-0.6,0.2h-0.6l0.1-0.2l0.1-0.1l0.6-1.1l0.8-1.1l0.4-0.8l0.6-1l0.6-0.7l0.3-0.2l0.3-0.2l0.4-0.1h0.4l0.5-0.1l0.2-0.3l0.1-0.1
	l0.2-0.3l0.3-0.1l1.4-0.2h0.3l0.2,0.1l0.1,0.1l0.1,0.3L360.6,142.3L360.6,142.3z"/>
<path class="st6" d="M362.6,140.3l-0.1-0.3l-0.2-0.1l-0.3-0.1l-0.4-0.1l-0.5,0.1L360,140l-1.5,0.3l-0.4,0.2l-0.3,0.2l-0.6,0.5
	l-0.3,0.5v-0.2l-0.1-0.3l-0.1-0.1l-0.1,0.1l-0.4,0.1l-0.8,0.1l-0.4,0.2l-0.4,0.2l-0.7,0.7l-0.5,0.3l-0.3,0.5l-0.3,0.6l-0.3,0.6
	l-0.2,0.6l-0.2,0.5l-0.8,2.2l-0.5,1.4l-0.1,0.6v0.1l0.1,0.1l0.1,0.2l0.4,0.1l0.5-0.1l0.8-0.1l0.4-0.2l0.3-0.2l0.4-0.1l0.5-0.2
	l0.7-0.6l0.3-0.2l0.5-0.1l0.5-0.1l0.2-0.2l1-0.8l0.9-0.7l0.6-0.5l1-0.9l0.6-0.6l0.4-0.3l0.4-0.3l0.3-0.7l0.5-0.9l0.4-1l0.1-0.5
	L362.6,140.3L362.6,140.3z M360.6,142.3l-0.2,0.5l-0.9,1.4l-0.4,0.3l-0.3,0.2l-0.6,0.3L357,146l-1.2,0.9l-0.8,0.7l-0.6,0.2l-0.5,0.2
	l-0.6,0.2h-0.6l0.1-0.2l0.1-0.1l0.6-1.1l0.8-1.1l0.4-0.8l0.6-1l0.6-0.7l0.3-0.2l0.3-0.2l0.4-0.1h0.4l0.5-0.1l0.2-0.3l0.1-0.1
	l0.2-0.3l0.3-0.1l1.4-0.2h0.3l0.2,0.1l0.1,0.1l0.1,0.3L360.6,142.3L360.6,142.3z"/>
<path class="st5" d="M362.6,140.3h0.2l0.1,0.1v1.1l-0.3,1l-0.4,0.9l-0.5,0.7l-0.2,0.3l-0.2,0.3l-0.5,1l-0.4,0.9l-0.2,0.3l-0.2,0.2
	l-0.4,0.3l-0.1,0.5l-0.3,0.9l-0.5,1.3l-0.9,1.7l-0.6,1.3l-0.5,0.9l-0.6,1.1l-0.9,1.3l-0.7,0.9l-0.7,0.8l-1,0.9l-1.8,1.4l-0.6,0.5
	l-0.6,0.2l-0.5,0.2l-0.4,0.1h-1.7l-1-0.2l-1.3-0.5l-1-0.6l-0.3-0.2l-0.2-0.2v-0.2l-0.3-0.5l-0.5-0.7l-0.1-0.5l-0.1-0.5V157l0.2-0.5
	l0.3-0.6l0.4-0.5l0.2-0.3l0.6-0.7l0.2-0.1l0.5-0.2h0.3l-0.3,0.3l-0.2,0.2l-0.2,0.8v1.5l0.2,0.5l0.2,0.6l1,0.9l0.6,0.3l0.7,0.3
	l0.6,0.2l0.7,0.1h0.6l0.2,0.1h0.2l0.4-0.1l0.4-0.2l1.5-1.4l0.8-0.8l0.7-1l1-1.7l1.6-3.1l0.5-1l0.6-0.8l0.3-0.3l0.1-0.3l0.3-0.7
	l0.6-1.4l0.3-0.8l0.2-0.7l0.2-0.8l0.1-0.5l0.1-0.5l-0.1-0.1l-0.2,0.2C358.8,144.1,362.6,140.3,362.6,140.3z"/>
<path class="st6" d="M362.6,140.3h0.2l0.1,0.1v1.1l-0.3,1l-0.4,0.9l-0.5,0.7l-0.2,0.3l-0.2,0.3l-0.5,1l-0.4,0.9l-0.2,0.3l-0.2,0.2
	l-0.4,0.3l-0.1,0.5l-0.3,0.9l-0.5,1.3l-0.9,1.7l-0.6,1.3l-0.5,0.9l-0.6,1.1l-0.9,1.3l-0.7,0.9l-0.7,0.8l-1,0.9l-1.8,1.4l-0.6,0.5
	l-0.6,0.2l-0.5,0.2l-0.4,0.1h-1.7l-1-0.2l-1.3-0.5l-1-0.6l-0.3-0.2l-0.2-0.2v-0.2l-0.3-0.5l-0.5-0.7l-0.1-0.5l-0.1-0.5V157l0.2-0.5
	l0.3-0.6l0.4-0.5l0.2-0.3l0.6-0.7l0.2-0.1l0.5-0.2h0.3l-0.3,0.3l-0.2,0.2l-0.2,0.8v1.5l0.2,0.5l0.2,0.6l1,0.9l0.6,0.3l0.7,0.3
	l0.6,0.2l0.7,0.1h0.6l0.2,0.1h0.2l0.4-0.1l0.4-0.2l1.5-1.4l0.8-0.8l0.7-1l1-1.7l1.6-3.1l0.5-1l0.6-0.8l0.3-0.3l0.1-0.3l0.3-0.7
	l0.6-1.4l0.3-0.8l0.2-0.7l0.2-0.8l0.1-0.5l0.1-0.5l-0.1-0.1l-0.2,0.2"/>
<path class="st5" d="M255.4,147.1l0.4-0.1h1.1l0.2,0.1h0.1l-0.3,0.7l-0.6,1.3l-0.5,1l-0.5,0.8l-0.8,1l-0.3,0.3l-0.2,0.3l-0.2,0.7
	l-0.3,0.7v0.5l0.1,0.2l0.3,0.1l-0.6,0.7l-0.6,0.2L252,156l-0.8,0.1H251l-0.1-0.1l0.1-0.6l0.3-0.8l0.3-0.7l0.5-1v-0.1l0.2-0.5
	l0.2-0.5l0.3-0.7L255.4,147.1L255.4,147.1z"/>
<path class="st6" d="M255.4,147.1l0.4-0.1h1.1l0.2,0.1h0.1l-0.3,0.7l-0.6,1.3l-0.5,1l-0.5,0.8l-0.8,1l-0.3,0.3l-0.2,0.3l-0.2,0.7
	l-0.3,0.7v0.5l0.1,0.2l0.3,0.1l-0.6,0.7l-0.6,0.2L252,156l-0.8,0.1H251l-0.1-0.1l0.1-0.6l0.3-0.8l0.3-0.7l0.5-1v-0.1l0.2-0.5
	l0.2-0.5l0.3-0.7"/>
<path class="st5" d="M257.1,145.2l-0.3-0.1l-0.4-0.1l-0.5,0.1l-1.1,0.2l-1.6,0.3l-0.4,0.1l-0.3,0.1l-0.6,0.6l-0.4,0.3v-0.6l-0.1-0.1
	l-0.1,0.1h-0.4l-0.9,0.1l-0.4,0.2l-0.4,0.2l-0.8,0.6l-0.5,0.3l-0.4,0.5l-0.3,0.6l-0.4,0.5l-0.3,0.7l-0.2,0.3l-1.1,2l-0.7,1.4
	l-0.2,0.6l0.1,0.1v0.1l0.1,0.2l0.4,0.1h0.5l0.7-0.1l0.5-0.1l0.3-0.2l0.4-0.1l0.6-0.2l0.7-0.5l0.4-0.2l0.5-0.1l0.5-0.1l0.3-0.1l1-0.8
	l1-0.6l0.6-0.5l1.1-0.8l0.7-0.5l0.5-0.3l0.4-0.5l0.4-0.6l0.6-0.9l0.6-0.9l0.1-0.5l0.1-0.5l-0.1-0.3L257.1,145.2L257.1,145.2z
	 M255.1,147.5l-0.2,0.6l-1.1,1.1l-0.4,0.3l-0.3,0.2l-0.7,0.3L251,151l-1.2,0.9l-1,0.5l-0.5,0.3l-0.5,0.1l-0.7,0.2h-0.6v-0.1l0.1-0.2
	l0.1-0.1l0.8-1l0.9-1.1l0.5-0.7l0.7-1l0.7-0.6l0.3-0.2l0.4-0.2l0.8-0.1l0.5-0.1l0.3-0.2l0.1-0.2l0.2-0.2l0.3-0.1l0.6-0.1h0.8
	l0.3,0.1h0.2l0.1,0.2v0.2L255.1,147.5L255.1,147.5z"/>
<path class="st6" d="M257.1,145.2l-0.3-0.1l-0.4-0.1l-0.5,0.1l-1.1,0.2l-1.6,0.3l-0.4,0.1l-0.3,0.1l-0.6,0.6l-0.4,0.3v-0.6l-0.1-0.1
	l-0.1,0.1h-0.4l-0.9,0.1l-0.4,0.2l-0.4,0.2l-0.8,0.6l-0.5,0.3l-0.4,0.5l-0.3,0.6l-0.4,0.5l-0.3,0.7l-0.2,0.3l-1.1,2l-0.7,1.4
	l-0.2,0.6l0.1,0.1v0.1l0.1,0.2l0.4,0.1h0.5l0.7-0.1l0.5-0.1l0.3-0.2l0.4-0.1l0.6-0.2l0.7-0.5l0.4-0.2l0.5-0.1l0.5-0.1l0.3-0.1l1-0.8
	l1-0.6l0.6-0.5l1.1-0.8l0.7-0.5l0.5-0.3l0.4-0.5l0.4-0.6l0.6-0.9l0.6-0.9l0.1-0.5l0.1-0.5l-0.1-0.3L257.1,145.2L257.1,145.2z
	 M255.1,147.5l-0.2,0.6l-1.1,1.1l-0.4,0.3l-0.3,0.2l-0.7,0.3L251,151l-1.2,0.9l-1,0.5l-0.5,0.3l-0.5,0.1l-0.7,0.2h-0.6v-0.1l0.1-0.2
	l0.1-0.1l0.8-1l0.9-1.1l0.5-0.7l0.7-1l0.7-0.6l0.3-0.2l0.4-0.2l0.8-0.1l0.5-0.1l0.3-0.2l0.1-0.2l0.2-0.2l0.3-0.1l0.6-0.1h0.8
	l0.3,0.1h0.2l0.1,0.2v0.2L255.1,147.5L255.1,147.5z"/>
<path class="st5" d="M198.7,154.6v0.3l-0.1,0.6l-0.3,0.3l-0.5,0.5l-0.6,0.3l-0.3,0.2l-0.3-0.1l-0.3-0.5l-0.2-0.6v-0.3l0.1-0.3
	l0.2-0.3l0.4-0.2l0.6-0.3l0.6-0.1l0.4,0.1l0.2,0.1L198.7,154.6z"/>
<path class="st6" d="M198.7,154.6v0.3l-0.1,0.6l-0.3,0.3l-0.5,0.5l-0.6,0.3l-0.3,0.2l-0.3-0.1l-0.3-0.5l-0.2-0.6v-0.3l0.1-0.3
	l0.2-0.3l0.4-0.2l0.6-0.3l0.6-0.1l0.4,0.1l0.2,0.1L198.7,154.6"/>
<path class="st5" d="M204.5,154.5v0.3l-0.2,0.5l-0.3,0.5l-0.4,0.3l-0.6,0.5l-0.4,0.2l-0.2-0.1l-0.4-0.5l-0.1-0.6v-0.5l0.1-0.3
	l0.2-0.2l0.4-0.2l0.6-0.3l0.5-0.1h0.4l0.3,0.2C204.4,154.1,204.5,154.5,204.5,154.5z"/>
<path class="st6" d="M204.5,154.5v0.3l-0.2,0.5l-0.3,0.5l-0.4,0.3l-0.6,0.5l-0.4,0.2l-0.2-0.1l-0.4-0.5l-0.1-0.6v-0.5l0.1-0.3
	l0.2-0.2l0.4-0.2l0.6-0.3l0.5-0.1h0.4l0.3,0.2L204.5,154.5"/>
<path class="st5" d="M210.2,154v0.5l-0.1,0.5l-0.3,0.5l-0.5,0.3l-0.6,0.5l-0.3,0.2l-0.3-0.1l-0.3-0.6l-0.2-0.5v-0.5l0.1-0.3l0.2-0.2
	l0.4-0.3l0.6-0.2l0.6-0.1h0.4l0.2,0.2L210.2,154z"/>
<path class="st6" d="M210.2,154v0.5l-0.1,0.5l-0.3,0.5l-0.5,0.3l-0.6,0.5l-0.3,0.2l-0.3-0.1l-0.3-0.6l-0.2-0.5v-0.5l0.1-0.3l0.2-0.2
	l0.4-0.3l0.6-0.2l0.6-0.1h0.4l0.2,0.2L210.2,154"/>
<path class="st0" d="z"/>
<path class="st0" d="z"/>
<path class="st0" d="z"/>
<path class="st0" d="z"/>
<path class="st0" d="z"/>
<path class="st0" d="z"/>
<path class="st0" d="z"/>
<path class="st0" d="z"/>
<path class="st0" d="z"/>
<path class="st0" d="z"/>
<path class="st0" d="z"/>
<path class="st0" d="z"/>
<path class="st0" d="z"/>
<path class="st0" d="z"/>
<path class="st0" d="z"/>
<path class="st0" d="z"/>
<path class="st0" d="z"/>
<path class="st0" d="z"/>
<path class="st0" d="z"/>
<path class="st0" d="z"/>
<path class="st0" d="z"/>
<path class="st0" d="z"/>
</svg>
