<svg xmlns="http://www.w3.org/2000/svg" viewBox="0 0 165.313 65.687"><defs><style>.cls-1,.cls-3{fill:#004b94;}.cls-2,.cls-7{fill:none;}.cls-3,.cls-4,.cls-5{fill-rule:evenodd;}.cls-4{fill:#e32219;}.cls-5{fill:#e2001a;}.cls-6{fill:#87888a;}.cls-7{stroke:#87888a;stroke-linecap:round;stroke-linejoin:round;stroke-width:0.18px;}</style></defs><title>Datový zdroj 2</title><g id="Vrstva_2" data-name="Vrstva 2"><g id="user"><path class="cls-1" d="M140.931,22.548v.272l-.046.228-.136.182-.091.136-.182.091-.136.091-.228.045H139.7l-.182-.045-.182-.091-.182-.091-.091-.136-.091-.182-.091-.228v-.909l.091-.227.091-.182.091-.136.182-.091.182-.046.182-.045h.409l.228.045.136.046.182.091.091.136.136.182.046.227Zm1.183,0v-.319l-.046-.409-.091-.318-.182-.273L141.522,21l-.318-.136-.364-.137-.455-.045h-.955l-.455.045-.364.137-.318.136-.273.227-.182.273-.091.318-.046.409v.319l.046.409.091.318.182.273.273.182.318.181.364.091.455.091h.955L140.84,24l.364-.091.318-.181.273-.182.182-.273.091-.318Zm-10.327-.228-.955.046-.455-.046-.364-.045-.136-.091-.091-.091-.091-.136v-.364l.045-.136.137-.091.091-.091.182-.046.136-.045.41-.046.454.046.182.045.137.091.136.137.091.136.091.455Zm1.138.273v-.545l-.046-.319-.136-.318-.182-.227L132.288,21l-.319-.136-.364-.137-.455-.045H130.2l-.409.045-.364.091-.319.137-.273.181-.136.182-.137.228-.045.227v.045l.045.273.137.182.182.182.273.136.318.091.364.091.364.045h1.046l.546-.045-.045.227-.046.182-.091.136-.136.091-.137.091-.227.046-.5.045h-.865l-.728-.045h-.136l-.046.091v.318h.046l.136.045.637.046.956.045h.545L131.6,24l.41-.091.318-.181.273-.182.182-.273.091-.318.046-.364Zm-10.281-.273-.956.046-.409-.046-.364-.045-.182-.091-.091-.091-.091-.136v-.364l.091-.136.091-.091.091-.091.182-.046.182-.045.409-.046.41.046.182.045.136.091.137.137.091.136.091.227v.5Zm1.137.273v-.545l-.046-.319-.091-.318-.227-.227L123.144,21l-.318-.136-.364-.137-.41-.045H121.1l-.455.045-.364.091-.318.137-.228.181-.182.182-.136.228v.272l.045.273.091.182.228.182.227.136.319.091.364.091.363.045h1.092l.5-.045L122.6,23l-.045.182-.091.136-.091.091-.182.091-.182.046-.546.045H120.6l-.728-.045h-.137l-.045.091v.318h.045l.137.045.637.046.955.045h.546l.455-.091.409-.091.319-.181.272-.182.182-.273.091-.318Zm-10.554,1.364V20.775l-.045-.046-.091-.045H112.5l-.182.045L110.952,21h-.045l-.046.046v.409l.046.045h.182l1-.182v2.637l.045.091h1.047ZM98.579,22.548H96.805v-.137l.045-.091.091-.091.137-.09.273-.091L97.715,22l.364.046.272.091.182.181.046.091Zm1.137.318v-.227l-.045-.273-.091-.227-.137-.182-.227-.182-.319-.091-.318-.136L98.17,21.5l-.455-.045-.455.045-.41.046-.364.09-.273.137-.227.182-.182.182-.091.227-.045.273v.5l.045.136.182.227.227.228.273.136.637.182.364.045h1.228L99.352,24h.137l.045-.091v-.318l-.045-.045h-.137l-1.546.045-.273-.045h-.228l-.182-.091-.136-.046L96.9,23.32l-.046-.136L96.805,23h2.729l.137-.045Zm-8.507,1.045v-.272l-.045-.046-.091-.045h-.046l-1.091.045-.273-.045-.273-.091-.091-.091-.091-.091-.046-.136L89.117,23v-.409l.045-.182.046-.136.091-.091.091-.091L89.663,22h1.5l.045-.045v-.319l-.045-.045-.137-.045-.409-.046-.682-.045-.41.045-.364.046-.318.09-.273.091-.228.182-.181.182-.091.227-.046.273V23l.046.273.091.182.181.227.228.137.273.136.318.045.364.091h1.092l.409-.045L91.164,24Zm-7.915.046V22.5l-.046-.227-.045-.182-.045-.182-.137-.136-.227-.137-.228-.09-.318-.046-.41-.045-.409.045H81.11l-.318.091-.364.091v-.091l-.045-.045-.091-.046h-.728l-.137.046-.045.045v2.364l.045.091h1l.046-.091V22.139l.5-.091L81.429,22h.409l.137.046.091.045.045.046.046.09v1.728l.045.091h1.046Zm-8.871,0V21.593l-.045-.045-.091-.046h-.774l-.136.046-.046.045v2.364l.046.091h1Zm.046-2.864v-.409l-.046-.046-.136-.045h-.819l-.091.045-.091.046v.409l.182.091h.819l.136-.046Zm-5.914,2.273V23.23l-.137-.182-.227-.182-.455-.182-1.092-.364-.227-.091-.091-.045v-.136L66.462,22l.182-.045h.228l.819.045h.727l.046-.091v-.227l-.046-.091-.136-.045-.637-.046-.864-.045L66.1,21.5l-.273.091-.227.045-.182.091-.136.137L65.234,22l-.045.137.045.181.182.182.182.137.318.136,1.138.364.318.136.046.045v.137l-.091.091-.182.045h-.319l-1.41-.045h-.045l-.091.045-.046.046v.272l.046.046.136.045.773.091h1.092l.364-.045.273-.091.228-.091.181-.091.137-.091.091-.136Z"/><path class="cls-2" d="M140.931,22.548v.272l-.046.228-.136.182-.091.136-.182.091-.136.091-.228.045H139.7l-.182-.045-.182-.091-.182-.091-.091-.136-.091-.182-.091-.228v-.909l.091-.227.091-.182.091-.136.182-.091.182-.046.182-.045h.409l.228.045.136.046.182.091.091.136.136.182.046.227v.637"/><path class="cls-2" d="M142.114,22.548v-.319l-.046-.409-.091-.318-.182-.273L141.522,21l-.318-.136-.364-.137-.455-.045h-.955l-.455.045-.364.137-.318.136-.273.227-.182.273-.091.318-.046.409v.319l.046.409.091.318.182.273.273.182.318.181.364.091.455.091h.955L140.84,24l.364-.091.318-.181.273-.182.182-.273.091-.318.046-.409m-10.327-.228-.955.046-.455-.046-.364-.045-.136-.091-.091-.091-.091-.136v-.364l.045-.136.137-.091.091-.091.182-.046.136-.045.41-.046.454.046.182.045.137.091.136.137.091.136.091.455v.272"/><path class="cls-2" d="M132.925,22.593v-.545l-.046-.319-.136-.318-.182-.227L132.288,21l-.319-.136-.364-.137-.455-.045H130.2l-.409.045-.364.091-.319.137-.273.181-.136.182-.137.228-.045.227v.045l.045.273.137.182.182.182.273.136.318.091.364.091.364.045h1.046l.546-.045-.045.227-.046.182-.091.136-.136.091-.137.091-.227.046-.5.045h-.865l-.728-.045h-.136l-.046.091v.318h.046l.136.045.637.046.956.045h.545L131.6,24l.41-.091.318-.181.273-.182.182-.273.091-.318.046-.364m-10.281-.273-.956.046-.409-.046-.364-.045-.182-.091-.091-.091-.091-.136v-.364l.091-.136.091-.091.091-.091.182-.046.182-.045.409-.046.41.046.182.045.136.091.137.137.091.136.091.227v.5"/><path class="cls-2" d="M123.781,22.593v-.545l-.046-.319-.091-.318-.227-.227L123.144,21l-.318-.136-.364-.137-.41-.045H121.1l-.455.045-.364.091-.318.137-.228.181-.182.182-.136.228v.272l.045.273.091.182.228.182.227.136.319.091.364.091.363.045h1.092l.5-.045L122.6,23l-.045.182-.091.136-.091.091-.182.091-.182.046-.546.045H120.6l-.728-.045h-.137l-.045.091v.318h.045l.137.045.637.046.955.045h.546l.455-.091.409-.091.319-.181.272-.182.182-.273.091-.318.046-.364m-10.554,1.364V20.775l-.045-.046-.091-.045H112.5l-.182.045L110.952,21h-.045l-.046.046v.409l.046.045h.182l1-.182v2.637l.045.091h1.047l.045-.091M98.579,22.548H96.805v-.137l.045-.091.091-.091.137-.09.273-.091L97.715,22l.364.046.272.091.182.181.046.091v.137"/><path class="cls-2" d="M99.716,22.866v-.227l-.045-.273-.091-.227-.137-.182-.227-.182-.319-.091-.318-.136L98.17,21.5l-.455-.045-.455.045-.41.046-.364.09-.273.137-.227.182-.182.182-.091.227-.045.273v.5l.045.136.182.227.227.228.273.136.637.182.364.045h1.228L99.352,24h.137l.045-.091v-.318l-.045-.045h-.137l-1.546.045-.273-.045h-.228l-.182-.091-.136-.046L96.9,23.32l-.046-.136L96.805,23h2.729l.137-.045.045-.091m-8.507,1.045v-.272l-.045-.046-.091-.045h-.046l-1.091.045-.273-.045-.273-.091-.091-.091-.091-.091-.046-.136L89.117,23v-.409l.045-.182.046-.136.091-.091.091-.091L89.663,22h1.5l.045-.045v-.319l-.045-.045-.137-.045-.409-.046-.682-.045-.41.045-.364.046-.318.09-.273.091-.228.182-.181.182-.091.227-.046.273V23l.046.273.091.182.181.227.228.137.273.136.318.045.364.091h1.092l.409-.045L91.164,24l.045-.091m-7.915.046V22.5l-.046-.227-.045-.182-.045-.182-.137-.136-.227-.137-.228-.09-.318-.046-.41-.045-.409.045H81.11l-.318.091-.364.091v-.091l-.045-.045-.091-.046h-.728l-.137.046-.045.045v2.364l.045.091h1l.046-.091V22.139l.5-.091L81.429,22h.409l.137.046.091.045.045.046.046.09v1.728l.045.091h1.046l.046-.091m-8.871,0V21.593l-.045-.045-.091-.046h-.774l-.136.046-.046.045v2.364l.046.091h1l.045-.091m.046-2.864v-.409l-.046-.046-.136-.045h-.819l-.091.045-.091.046v.409l.182.091h.819l.136-.046.046-.045m-5.914,2.273V23.23l-.137-.182-.227-.182-.455-.182-1.092-.364-.227-.091-.091-.045v-.136L66.462,22l.182-.045h.228l.819.045h.727l.046-.091v-.227l-.046-.091-.136-.045-.637-.046-.864-.045L66.1,21.5l-.273.091-.227.045-.182.091-.136.137L65.234,22l-.045.137.045.181.182.182.182.137.318.136,1.138.364.318.136.046.045v.137l-.091.091-.182.045h-.319l-1.41-.045h-.045l-.091.045-.046.046v.272l.046.046.136.045.773.091h1.092l.364-.045.273-.091.228-.091.181-.091.137-.091.091-.136v-.182"/><path class="cls-3" d="M53.27,28.412H73.923V33H59.366v3.455H73.24v4.409H59.366v6.456h-6.1ZM54.5,13.365,17.15,48.1H45.537l-7.688-7.546Z"/><path class="cls-4" d="M90.254,28.412h3.912l10.873,18.911H98.306L96.4,43.959H90.254V39.867h3.912l-3.912-6.955Zm-3.867,0h3.867v4.5l-.045-.091-3.776,7.046h3.821v4.092H84.2L82.43,47.323H75.652Zm21.154,0h6.05V47.323h-6.05Zm22.609,0h6.141l.819.045.773.046.682.136.592.182.546.227.5.228.41.318.363.363.319.364.273.409.227.5.273,1,.091.591.046.591V36.14l-.137.818-.091.364-.091.318-.136.318-.182.318-.182.273-.228.273-.318.227-.273.182-.364.227-.409.137-.455.136-.5.136v.091l.637.137.637.182.546.272.273.182.455.455.364.636.136.364.091.363.091.455.046.5.045.591v3.228h-6.05V45.05l-.046-.682-.091-.591-.091-.227-.09-.228-.091-.182L135.563,43l-.182-.136-.182-.137-.182-.091-.227-.091-.546-.09H130.15V37.685h3.912l.546-.045.5-.091.41-.136.318-.182.227-.273.182-.364.091-.409V35.14l-.045-.591-.046-.228-.045-.227-.137-.182-.091-.182-.136-.136-.182-.136-.364-.182-.5-.091-.592-.045-.637-.046H130.15V28.412Zm-12.146,0H130.15v4.682h-6.1v4.591h6.1v4.774h-6.1v4.864H118ZM48.129,16,11.418,50.232H41.442l4.5,4.046H0L58.911,0Z"/><path class="cls-5" d="M146.89,28.366l.5.046.455.136.409.227.364.273.318.364.228.409.136.455.046.454-.046.5-.136.455-.228.409-.318.318-.364.318-.409.182-.455.137-.5.045v-.273l.41-.045.409-.137.364-.181.318-.273.228-.273.182-.364.136-.409.046-.409-.046-.409-.136-.409-.182-.364-.228-.272L148.073,29l-.364-.182-.409-.136h-.41v-.319Zm0,2.5h.046l.773,1.227h.455l-.864-1.227.318-.046.137-.045.136-.091.091-.137.091-.091.046-.181.045-.137-.045-.182-.046-.136-.045-.136-.091-.091L147.8,29.5l-.182-.046-.182-.045h-.546v.227h.455l.228.091.136.046.046.091.091.272-.046.137-.091.136-.091.091-.136.045-.319.046h-.273v.273Zm-2.5-.137.046-.454.136-.455.228-.409.318-.364.364-.273.455-.227.455-.136.5-.046v.319h-.455l-.409.136-.364.182-.318.273-.228.272-.182.364-.136.409-.046.409.046.409.136.409.182.364.228.273.318.273.364.181.409.137.455.045v.273l-.5-.045-.455-.137-.455-.182-.364-.318-.318-.318-.228-.409-.136-.455-.046-.5Zm2.5-1.318h-.91v2.682h.319V30.867h.591v-.273H146.3v-.955h.591Z"/><path class="cls-4" d="M146.89,28.366l.5.046.455.136.409.227.364.273.318.364.228.409.136.455.046.454-.046.5-.136.455-.228.409-.318.318-.364.318-.409.182-.455.137-.5.045v-.273l.41-.045.409-.137.364-.181.318-.273.228-.273.182-.364.136-.409.046-.409-.046-.409-.136-.409-.182-.364-.228-.272L148.073,29l-.364-.182-.409-.136h-.41v-.319Zm0,2.5h.046l.773,1.227h.455l-.864-1.227.318-.046.137-.045.136-.091.091-.137.091-.091.046-.181.045-.137-.045-.182-.046-.136-.045-.136-.091-.091L147.8,29.5l-.182-.046-.182-.045h-.546v.227h.455l.228.091.136.046.046.091.091.272-.046.137-.091.136-.091.091-.136.045-.319.046h-.273v.273Zm-2.5-.137.046-.454.136-.455.228-.409.318-.364.364-.273.455-.227.455-.136.5-.046v.319h-.455l-.409.136-.364.182-.318.273-.228.272-.182.364-.136.409-.046.409.046.409.136.409.182.364.228.273.318.273.364.181.409.137.455.045v.273l-.5-.045-.455-.137-.455-.182-.364-.318-.318-.318-.228-.409-.136-.455-.046-.5Zm2.5-1.318h-.91v2.682h.319V30.867h.591v-.273H146.3v-.955h.591Z"/><path class="cls-6" d="M156.352,59.687l.364-.409.137-.136.136-.091.091-.091.319-.409.409-.5.455-.591.136-.227.091-.273-.591.182-.182.091-.182.136-.136.136-.137.091-.364.273-.409.273-1.41.864-1.593,1-.181.045h-.592l-.045-.045.136-.273.273-.455.273-.454.182-.273.364-.455.136-.136.091-.136.137-.273.091-.273.045-.136-.091-.091-.136-.091.318-.227.228-.137.364-.091.318-.091h.091l.046.046v.227l-.137.318-.136.319-.228.363-.045.046-.091.181-.091.228-.091.273-.091.227.409-.227.273-.228.182-.045.137-.046.045-.045.227-.182.319-.227.318-.137.182-.091.091-.045.137-.136.136-.137.137-.091.364-.182.682-.363.5-.227.182-.091h.41l.227.091.046.045.045.091-.045.091-.137.227-.318.409-.546.909-.455.728-.136.227-.228.409-.227.409-.5.637-.091.091-.182.045h-.227l-.137-.045-.091-.046-.045-.091-.091-.182-.046-.136v-.045l.182-.319Z"/><path class="cls-7" d="M156.352,59.687l.364-.409.137-.136.136-.091.091-.091.319-.409.409-.5.455-.591.136-.227.091-.273-.591.182-.182.091-.182.136-.136.136-.137.091-.364.273-.409.273-1.41.864-1.593,1-.181.045h-.592l-.045-.045.136-.273.273-.455.273-.454.182-.273.364-.455.136-.136.091-.136.137-.273.091-.273.045-.136-.091-.091-.136-.091.318-.227.228-.137.364-.091.318-.091h.091l.046.046v.227l-.137.318-.136.319-.228.363-.045.046-.091.181-.091.228-.091.273-.091.227.409-.227.273-.228.182-.045.137-.046.045-.045.227-.182.319-.227.318-.137.182-.091.091-.045.137-.136.136-.137.137-.091.364-.182.682-.363.5-.227.182-.091h.41l.227.091.046.045.045.091-.045.091-.137.227-.318.409-.546.909-.455.728-.136.227-.228.409-.227.409-.5.637-.091.091-.182.045h-.227l-.137-.045-.091-.046-.045-.091-.091-.182-.046-.136v-.045l.182-.319"/><path class="cls-6" d="M150.393,58.551l.319-.455.272-.5.319-.5-.091-.045-.091-.046-.046-.136.091-.136.273-.228.319-.227.182-.091.227-.045h.091l.228.045.091.046v.227l-.091.409-.091.227-.137.182-.273.364-.591.773-.773.954-.273.364-.273.273-.137.091-.227.136-.228.091-.182.045h-.091l-.045-.045.091-.137.045-.09.182-.273.364-.5.182-.273.137-.182.227-.318Z"/><path class="cls-7" d="M150.393,58.551l.319-.455.272-.5.319-.5-.091-.045-.091-.046-.046-.136.091-.136.273-.228.319-.227.182-.091.227-.045h.091l.228.045.091.046v.227l-.091.409-.091.227-.137.182-.273.364-.591.773-.773.954-.273.364-.273.273-.137.091-.227.136-.228.091-.182.045h-.091l-.045-.045.091-.137.045-.09.182-.273.364-.5.182-.273.137-.182.227-.318"/><path class="cls-6" d="M153.85,54.232v.137l-.091.182-.136.181-.182.137-.273.182-.182.091L152.9,55.1l-.182-.182-.045-.227v-.182l.045-.136.091-.091.182-.091.273-.136.227-.046h.182l.137.091.045.136Z"/><path class="cls-7" d="M153.85,54.232v.137l-.091.182-.136.181-.182.137-.273.182-.182.091L152.9,55.1l-.182-.182-.045-.227v-.182l.045-.136.091-.091.182-.091.273-.136.227-.046h.182l.137.091.045.136"/><path class="cls-6" d="M139.976,58.869l-.455.773-.137.273-.045.182.227-.091.319-.182.045.182.091.136-.318.227-.319.273-.136.045-.273.091-.455.091-.137-.045-.09-.091v-.046h-.046l-.091-.181.046-.091.545-1,.319-.546.273-.454.182-.273.955-1.137.228-.272.454-.591.455-.682.455-.637.273-.363.046-.046-.046-.136v-.137l.046-.181.182-.364.045-.227.046-.228-.046-.318.273-.182.228-.136.227-.091.227-.045h.137l.227.045h.046v.045l-.046.228-.227.727-.137.409-.045.182-.091.136-.273.319-.136.136-.319.409-.182.227-.455.728-.546.773-.318.454-.728.955-.5.727Z"/><path class="cls-7" d="M139.976,58.869l-.455.773-.137.273-.045.182.227-.091.319-.182.045.182.091.136-.318.227-.319.273-.136.045-.273.091-.455.091-.137-.045-.09-.091v-.046h-.046l-.091-.181.046-.091.545-1,.319-.546.273-.454.182-.273.955-1.137.228-.272.454-.591.455-.682.455-.637.273-.363.046-.046-.046-.136v-.137l.046-.181.182-.364.045-.227.046-.228-.046-.318.273-.182.228-.136.227-.091.227-.045h.137l.227.045h.046v.045l-.046.228-.227.727-.137.409-.045.182-.091.136-.273.319-.136.136-.319.409-.182.227-.455.728-.546.773-.318.454-.728.955-.5.727"/><path class="cls-6" d="M139.111,52.778l.41-.5.182-.319.136-.227.046-.091.136-.091.546-.454.409-.273.273-.182.319-.045.409.045-.091.273-.091.364-.136.5-.091.318-.046.045-.045-.045v-.364l-.046-.227-.045-.046-.137-.045-.182.045-.636.682-.637.728-.728.818-.319.409-.409.455-.091.181v.182l.955-.227.91-.182.046-.045.182.091.045.045-.045.136-.137.091-.273.091-.728.273-.637.182-.272.091-.41.045-.409.455-.5.591-.364.591-.455.727-.318.5-.91,1.227-.728.864-1.182,1.773-.182.091h-.41l-.227-.045-.228-.137.091-.136.046-.318.045-.455.319.273.136.045.091.046.728-.864.637-.864,1.5-2.136,1.183-1.682.091-.273-.91.136-.455.046h-.091l-.091.045-.409-.045-.455-.091-.091-.137-.046-.136.228-.045.182-.046.728-.091,1.319-.136.318-.091.273-.091,1.092-1.591.682-.727Z"/><path class="cls-7" d="M139.111,52.778l.41-.5.182-.319.136-.227.046-.091.136-.091.546-.454.409-.273.273-.182.319-.045.409.045-.091.273-.091.364-.136.5-.091.318-.046.045-.045-.045v-.364l-.046-.227-.045-.046-.137-.045-.182.045-.636.682-.637.728-.728.818-.319.409-.409.455-.091.181v.182l.955-.227.91-.182.046-.045.182.091.045.045-.045.136-.137.091-.273.091-.728.273-.637.182-.272.091-.41.045-.409.455-.5.591-.364.591-.455.727-.318.5-.91,1.227-.728.864-1.182,1.773-.182.091h-.41l-.227-.045-.228-.137.091-.136.046-.318.045-.455.319.273.136.045.091.046.728-.864.637-.864,1.5-2.136,1.183-1.682.091-.273-.91.136-.455.046h-.091l-.091.045-.409-.045-.455-.091-.091-.137-.046-.136.228-.045.182-.046.728-.091,1.319-.136.318-.091.273-.091,1.092-1.591.682-.727"/><path class="cls-6" d="M99.807,59.278l-.136.046-.182.091-.228.136-.136.182-.091-.273v-.136l.045-.137.182-.181.137-.091.091-.091h.182l.364-.091.318-.091.228-.046.5-.5.455-.5.91-1.136.273-.364.182-.227.091-.091h.136l.182-.046.273-.09.091-.046h.227l.046.046-.046.136-.136.227-.637.682-.682.818-.683.728-.182.136-.136.136.045.046.046-.046h.227l1.547-.136.773-.045.364-.046.182-.045.228-.046.045.046v.045l-.045.046-.182.136-.091.091-.091.091-.273.091-.319.045-.727.137-2.23.272-.682.682-.5.637-.364.5-.182.5V61.6h.227l.091-.091v.182l-.045.136-.091.091-.091.091-.273.136-.228.046-.227.045-.137.046-.136-.046-.091-.045-.091-.137-.045-.182v-.181l.045-.137.046-.182.181-.318.5-.591.91-1.136.045-.046Z"/><path class="cls-7" d="M99.807,59.278l-.136.046-.182.091-.228.136-.136.182-.091-.273v-.136l.045-.137.182-.181.137-.091.091-.091h.182l.364-.091.318-.091.228-.046.5-.5.455-.5.91-1.136.273-.364.182-.227.091-.091h.136l.182-.046.273-.09.091-.046h.227l.046.046-.046.136-.136.227-.637.682-.682.818-.683.728-.182.136-.136.136.045.046.046-.046h.227l1.547-.136.773-.045.364-.046.182-.045.228-.046.045.046v.045l-.045.046-.182.136-.091.091-.091.091-.273.091-.319.045-.727.137-2.23.272-.682.682-.5.637-.364.5-.182.5V61.6h.227l.091-.091v.182l-.045.136-.091.091-.091.091-.273.136-.228.046-.227.045-.137.046-.136-.046-.091-.045-.091-.137-.045-.182v-.181l.045-.137.046-.182.181-.318.5-.591.91-1.136.045-.046"/><path class="cls-6" d="M147.664,57.46l.364-.182.454-.182h.091l.046.046.045.136-.045.318-.137.409-.181.364-.091.182-.091.091-.137.136-.091.137-.227.409-.182.409-.091.091-.091.091-.182.136-.046.182-.136.364-.228.5-.409.727-.273.455-.227.363-.273.455-.364.5-.364.363-.273.319-.5.363-.818.591-.228.137-.273.136-.273.046-.182.045h-.728l-.5-.091-.546-.182-.5-.227-.137-.091-.045-.091-.046-.091-.136-.136-.228-.318-.045-.182-.046-.182.046-.227.045-.182.137-.182.182-.227.091-.091.273-.318.136-.046.182-.045.091-.046.046.046-.091.091-.091.09-.091.319-.046.363v.228l.091.181.137.228.182.182.227.181.273.137.318.136.273.091.319.046.273.045h.182l.182-.045.182-.091.682-.546.364-.318.318-.409.455-.682.728-1.227.228-.364.272-.364.137-.136.045-.137.137-.227.273-.591.136-.318.137-.273.045-.318.046-.182.045-.182v-.045l-.136.091-.364.182-.273.182-.182.136-.227.091-.319.091-.227.136-.364.182-.319.182-.227.136-.182.137-.228.09-.591.182-.591.182h-.41l-.273-.091-.045-.045.136-.228.592-.863.182-.318.273-.182.182-.137.09-.136.137-.182.227-.227.228-.228.136-.181.182-.228.41-.636.136-.182.091-.091.228-.045.227-.091.5-.046.091.046.046.045-.091.182-.227.273-.228.318-.637.773-.318.364-.41.363-.318.228-.228.272-.182.182-.09.182-.046.045.046.046h.09l.546-.091.364-.091.319-.182.136-.091.455-.272.592-.273.545-.273.546-.318.137-.137.091-.091.227-.227.319-.227Z"/><path class="cls-7" d="M147.664,57.46l.364-.182.454-.182h.091l.046.046.045.136-.045.318-.137.409-.181.364-.091.182-.091.091-.137.136-.091.137-.227.409-.182.409-.091.091-.091.091-.182.136-.046.182-.136.364-.228.5-.409.727-.273.455-.227.363-.273.455-.364.5-.364.363-.273.319-.5.363-.818.591-.228.137-.273.136-.273.046-.182.045h-.728l-.5-.091-.546-.182-.5-.227-.137-.091-.045-.091-.046-.091-.136-.136-.228-.318-.045-.182-.046-.182.046-.227.045-.182.137-.182.182-.227.091-.091.273-.318.136-.046.182-.045.091-.046.046.046-.091.091-.091.09-.091.319-.046.363v.228l.091.181.137.228.182.182.227.181.273.137.318.136.273.091.319.046.273.045h.182l.182-.045.182-.091.682-.546.364-.318.318-.409.455-.682.728-1.227.228-.364.272-.364.137-.136.045-.137.137-.227.273-.591.136-.318.137-.273.045-.318.046-.182.045-.182v-.045l-.136.091-.364.182-.273.182-.182.136-.227.091-.319.091-.227.136-.364.182-.319.182-.227.136-.182.137-.228.09-.591.182-.591.182h-.41l-.273-.091-.045-.045.136-.228.592-.863.182-.318.273-.182.182-.137.09-.136.137-.182.227-.227.228-.228.136-.181.182-.228.41-.636.136-.182.091-.091.228-.045.227-.091.5-.046.091.046.046.045-.091.182-.227.273-.228.318-.637.773-.318.364-.41.363-.318.228-.228.272-.182.182-.09.182-.046.045.046.046h.09l.546-.091.364-.091.319-.182.136-.091.455-.272.592-.273.545-.273.546-.318.137-.137.091-.091.227-.227.319-.227"/><path class="cls-6" d="M126.146,61.006l-.273.182-.363.181-.319.091-.637.046h-.682l-.728-.137-.682-.181-.182-.046-.046-.045-.045-.046.045-.091.137-.045.182-.091.227-.046.137-.091.273-.136h.091l.09.046.046.136.318.091.455.091.41.091.409.045h.228l.091-.045v-.137l-.046-.091-.091-.181-.136-.228-.182-.227-.091-.227-.046-.182v-.182l.046-.136.091-.182.227-.273.091-.136.137-.137.227-.136.5-.227.546-.228.5-.182.546-.09h.455l.272.045.182.045.091.091V58.1l-.045.091-.091.091-.227.227-.41.273-.455.318-.455.228h-.227l-.046-.046.228-.182.409-.272.228-.228.045-.091v-.09l-.045-.046-.091-.045-.137-.046-.318.046-.228.045-.318.091-.228.091-.136.091-.137.136-.091.137-.136.136-.091.273V59.6l.091.137.136.136.091.137.046.091.091.136.136.227v.455l-.091.091Z"/><path class="cls-7" d="M126.146,61.006l-.273.182-.363.181-.319.091-.637.046h-.682l-.728-.137-.682-.181-.182-.046-.046-.045-.045-.046.045-.091.137-.045.182-.091.227-.046.137-.091.273-.136h.091l.09.046.046.136.318.091.455.091.41.091.409.045h.228l.091-.045v-.137l-.046-.091-.091-.181-.136-.228-.182-.227-.091-.227-.046-.182v-.182l.046-.136.091-.182.227-.273.091-.136.137-.137.227-.136.5-.227.546-.228.5-.182.546-.09h.455l.272.045.182.045.091.091V58.1l-.045.091-.091.091-.227.227-.41.273-.455.318-.455.228h-.227l-.046-.046.228-.182.409-.272.228-.228.045-.091v-.09l-.045-.046-.091-.045-.137-.046-.318.046-.228.045-.318.091-.228.091-.136.091-.137.136-.091.137-.136.136-.091.273V59.6l.091.137.136.136.091.137.046.091.091.136.136.227v.455l-.091.091"/><path class="cls-6" d="M105.948,59.869l-.591.728-.227.272-.046.182.273-.091.319-.136v.136l.09.137-.318.227-.364.227-.182.091-.273.046-.5.045-.137-.045-.045-.091v-.046H103.9l-.045-.182.045-.091.683-.954.409-.5.41-.455.182-.273,1.137-1.045.273-.273.546-.545.591-.637.546-.591.318-.363.046-.046v-.182l.045-.136.046-.136.227-.319.091-.227.091-.227v-.318l.319-.228.227-.091.228-.091h.5l.091.046h.045v.045l-.045.228-.364.727-.227.409-.091.136-.091.137-.319.273-.182.181-.364.364-.182.227-.591.682-.682.773-.41.409-.864.909-.592.682Z"/><path class="cls-7" d="M105.948,59.869l-.591.728-.227.272-.046.182.273-.091.319-.136v.136l.09.137-.318.227-.364.227-.182.091-.273.046-.5.045-.137-.045-.045-.091v-.046H103.9l-.045-.182.045-.091.683-.954.409-.5.41-.455.182-.273,1.137-1.045.273-.273.546-.545.591-.637.546-.591.318-.363.046-.046v-.182l.045-.136.046-.136.227-.319.091-.227.091-.227v-.318l.319-.228.227-.091.228-.091h.5l.091.046h.045v.045l-.045.228-.364.727-.227.409-.091.136-.091.137-.319.273-.182.181-.364.364-.182.227-.591.682-.682.773-.41.409-.864.909-.592.682"/><path class="cls-6" d="M107.95,61.233l.364-.409.091-.091.136-.136.137-.091.318-.364.41-.5.455-.636.136-.228.091-.227-.591.136-.182.137-.182.136-.137.091-.136.136-.41.228-.363.272-1.411.864-1.592,1-.182.046h-.637l-.045-.046.182-.273.091-.09.273-.182.728-.409,1.137-.637.273-.227.136-.046.137-.045.091-.046.182-.181.364-.182.318-.182.182-.091.091-.045.136-.091.137-.182.136-.091.364-.136.683-.364.5-.227.182-.091.182-.046.227.046.228.091.091.045v.045l-.046.137-.136.227-.319.409-.591.864-.409.727-.137.228-.227.409-.273.454-.455.637-.137.045-.182.046h-.227L108,62.051l-.091-.045-.046-.091-.091-.182-.045-.136.045-.046Z"/><path class="cls-7" d="M107.95,61.233l.364-.409.091-.091.136-.136.137-.091.318-.364.41-.5.455-.636.136-.228.091-.227-.591.136-.182.137-.182.136-.137.091-.136.136-.41.228-.363.272-1.411.864-1.592,1-.182.046h-.637l-.045-.046.182-.273.091-.09.273-.182.728-.409,1.137-.637.273-.227.136-.046.137-.045.091-.046.182-.181.364-.182.318-.182.182-.091.091-.045.136-.091.137-.182.136-.091.364-.136.683-.364.5-.227.182-.091.182-.046.227.046.228.091.091.045v.045l-.046.137-.136.227-.319.409-.591.864-.409.727-.137.228-.227.409-.273.454-.455.637-.137.045-.182.046h-.227L108,62.051l-.091-.045-.046-.091-.091-.182-.045-.136.045-.046.182-.318"/><path class="cls-6" d="M119.55,58.505l-.136.046-.182.091-.228.136-.136.182-.091-.273.045-.136.046-.091.136-.227.137-.091.136-.091h.137l.364-.091.318-.091.228-.045.545-.5.41-.5.91-1.136.273-.364.182-.227.091-.045.136-.046.182-.045.273-.091.091-.046h.227l.046.091-.046.091-.136.227-.637.682-.682.819-.683.727-.182.136-.136.137.045.045.046-.045h.227L123.1,57.6l.773-.045.318-.046.228-.045.182-.046.045.046v.045l-.045.046-.182.136-.091.091-.091.091-.273.091-.319.045-.727.137-2.229.273-.683.681-.5.637-.319.5-.227.545.045.046h.182l.091-.091.046.045v.046l-.046.091-.045.136-.046.091-.136.091-.273.136-.228.046-.227.045-.136.046H118.1L118,61.415l-.137-.137-.045-.181v-.182l.045-.091.046-.227.182-.319.5-.591.955-1.136v-.046Z"/><path class="cls-7" d="M119.55,58.505l-.136.046-.182.091-.228.136-.136.182-.091-.273.045-.136.046-.091.136-.227.137-.091.136-.091h.137l.364-.091.318-.091.228-.045.545-.5.41-.5.91-1.136.273-.364.182-.227.091-.045.136-.046.182-.045.273-.091.091-.046h.227l.046.091-.046.091-.136.227-.637.682-.682.819-.683.727-.182.136-.136.137.045.045.046-.045h.227L123.1,57.6l.773-.045.318-.046.228-.045.182-.046.045.046v.045l-.045.046-.182.136-.091.091-.091.091-.273.091-.319.045-.727.137-2.229.273-.683.681-.5.637-.319.5-.227.545.045.046h.182l.091-.091.046.045v.046l-.046.091-.045.136-.046.091-.136.091-.273.136-.228.046-.227.045-.136.046H118.1L118,61.415l-.137-.137-.045-.181v-.182l.045-.091.046-.227.182-.319.5-.591.955-1.136v-.046"/><path class="cls-6" d="M125.737,54.732l-.273.228-.409.272-.364.182-.865.318-.273.091v-.045l.046-.046.273-.318.364-.363.591-.41.273-.136.319-.091.364-.091h.227l.045.046v.045l-.091.137-.227.181Z"/><path class="cls-7" d="M125.737,54.732l-.273.228-.409.272-.364.182-.865.318-.273.091v-.045l.046-.046.273-.318.364-.363.591-.41.273-.136.319-.091.364-.091h.227l.045.046v.045l-.091.137-.227.181"/><path class="cls-6" d="M165.087,55.914l-.046-.136-.091-.046-.136-.045-.182-.045-.228.045-.5.136-.682.137-.182.091-.137.091-.273.181-.136.182v-.091l-.046-.136-.045-.045-.046.045-.182.045-.364.046-.182.091-.182.091-.318.272-.228.137-.136.182-.136.227-.137.227-.091.228-.091.181-.364.864-.227.546-.046.227v.045l.046.046.045.091.182.045.228-.045.364-.046.182-.091.136-.091.182-.045.227-.091.319-.227.136-.091.228-.046.227-.045.091-.091.455-.318.41-.273.272-.182.455-.363.273-.228.182-.136.182-.136.137-.273.227-.364.182-.409.046-.182v-.182Zm-.91.819-.091.181-.41.546-.182.136-.136.091-.273.137-.546.363-.546.364-.364.273-.273.091-.227.091-.273.09h-.273l.046-.09.045-.046.273-.455.364-.454.182-.318.273-.409.273-.273.136-.091.137-.091.182-.046h.182l.227-.045.091-.136.046-.046.091-.136.136-.046.637-.091h.136l.091.046.046.045.045.137-.045.182Z"/><path class="cls-7" d="M165.087,55.914l-.046-.136-.091-.046-.136-.045-.182-.045-.228.045-.5.136-.682.137-.182.091-.137.091-.273.181-.136.182v-.091l-.046-.136-.045-.045-.046.045-.182.045-.364.046-.182.091-.182.091-.318.272-.228.137-.136.182-.136.227-.137.227-.091.228-.091.181-.364.864-.227.546-.046.227v.045l.046.046.045.091.182.045.228-.045.364-.046.182-.091.136-.091.182-.045.227-.091.319-.227.136-.091.228-.046.227-.045.091-.091.455-.318.41-.273.272-.182.455-.363.273-.228.182-.136.182-.136.137-.273.227-.364.182-.409.046-.182v-.182Zm-.91.819-.091.181-.41.546-.182.136-.136.091-.273.137-.546.363-.546.364-.364.273-.273.091-.227.091-.273.09h-.273l.046-.09.045-.046.273-.455.364-.454.182-.318.273-.409.273-.273.136-.091.137-.091.182-.046h.182l.227-.045.091-.136.046-.046.091-.136.136-.046.637-.091h.136l.091.046.046.045.045.137-.045.182Z"/><path class="cls-6" d="M165.087,55.914h.091l.045.046v.454l-.136.409-.182.364-.228.273-.091.136-.091.137-.227.409-.182.363-.091.137-.091.091-.182.136-.046.182-.136.364-.227.5-.41.682-.273.5-.227.363-.273.455-.41.5-.318.364-.319.318-.454.363-.819.546-.273.182-.273.091-.228.091-.182.045h-.773l-.455-.091-.591-.182-.455-.227-.137-.091-.091-.091v-.091l-.136-.182-.228-.272-.045-.182-.046-.182V62.6l.091-.182.137-.227.182-.182.091-.137.273-.272.091-.046.227-.091h.137l-.137.137-.091.091-.091.318V62.6l.091.182.091.227.455.364.273.136.319.136.273.091.318.046h.273l.091.045h.091l.182-.045.182-.091.682-.546.364-.318.319-.409.454-.682.728-1.227.228-.409.273-.319.136-.136.046-.136.136-.273.273-.546.137-.318.091-.273.09-.318.046-.182.045-.182-.045-.045-.091.091Z"/><path class="cls-7" d="M165.087,55.914h.091l.045.046v.454l-.136.409-.182.364-.228.273-.091.136-.091.137-.227.409-.182.363-.091.137-.091.091-.182.136-.046.182-.136.364-.227.5-.41.682-.273.5-.227.363-.273.455-.41.5-.318.364-.319.318-.454.363-.819.546-.273.182-.273.091-.228.091-.182.045h-.773l-.455-.091-.591-.182-.455-.227-.137-.091-.091-.091v-.091l-.136-.182-.228-.272-.045-.182-.046-.182V62.6l.091-.182.137-.227.182-.182.091-.137.273-.272.091-.046.227-.091h.137l-.137.137-.091.091-.091.318V62.6l.091.182.091.227.455.364.273.136.319.136.273.091.318.046h.273l.091.045h.091l.182-.045.182-.091.682-.546.364-.318.319-.409.454-.682.728-1.227.228-.409.273-.319.136-.136.046-.136.136-.273.273-.546.137-.318.091-.273.09-.318.046-.182.045-.182-.045-.045-.091.091"/><path class="cls-6" d="M116.229,58.642l.182-.046h.5l.091.046h.045l-.136.273-.273.5-.228.409-.227.318-.364.409-.136.136-.091.137-.091.273-.137.272v.182l.046.091.136.046-.273.272-.273.091-.318.137-.364.045h-.091l-.046-.045.046-.228.136-.318.137-.273.227-.409v-.045l.091-.182.091-.182.137-.273,1.182-1.636Z"/><path class="cls-7" d="M116.229,58.642l.182-.046h.5l.091.046h.045l-.136.273-.273.5-.228.409-.227.318-.364.409-.136.136-.091.137-.091.273-.137.272v.182l.046.091.136.046-.273.272-.273.091-.318.137-.364.045h-.091l-.046-.045.046-.228.136-.318.137-.273.227-.409v-.045l.091-.182.091-.182.137-.273"/><path class="cls-6" d="M117,57.869l-.137-.045-.182-.046-.227.046-.5.09-.727.137-.182.045-.137.046-.273.227-.182.136v-.227l-.045-.045-.046.045h-.182l-.409.046-.182.091-.182.09-.364.228-.227.136-.182.182-.137.227-.182.182-.136.273-.091.136-.5.818-.318.546-.091.227.045.046v.045l.046.091.182.046h.227l.319-.046.227-.045.137-.091.182-.046.273-.091.318-.181.182-.091.227-.046.228-.045.136-.046.455-.318.455-.227.273-.182.5-.318.318-.182.227-.137.182-.181.182-.228.273-.363.273-.364.046-.182.045-.182-.045-.136L117,57.869Zm-.91.955-.091.227-.5.455-.182.136-.137.091-.318.136-.637.318-.546.364-.455.182-.227.136-.228.046-.318.091h-.273V60.96l.045-.091.046-.045.364-.409.409-.455.227-.273.319-.409.318-.227.137-.091.182-.091.364-.045.227-.046.137-.091L115,58.6l.091-.091.137-.045.273-.045h.363l.137.045h.091l.045.091v.091l-.045.182Z"/><path class="cls-7" d="M117,57.869l-.137-.045-.182-.046-.227.046-.5.09-.727.137-.182.045-.137.046-.273.227-.182.136v-.227l-.045-.045-.046.045h-.182l-.409.046-.182.091-.182.09-.364.228-.227.136-.182.182-.137.227-.182.182-.136.273-.091.136-.5.818-.318.546-.091.227.045.046v.045l.046.091.182.046h.227l.319-.046.227-.045.137-.091.182-.046.273-.091.318-.181.182-.091.227-.046.228-.045.136-.046.455-.318.455-.227.273-.182.5-.318.318-.182.227-.137.182-.181.182-.228.273-.363.273-.364.046-.182.045-.182-.045-.136L117,57.869Zm-.91.955-.091.227-.5.455-.182.136-.137.091-.318.136-.637.318-.546.364-.455.182-.227.136-.228.046-.318.091h-.273V60.96l.045-.091.046-.045.364-.409.409-.455.227-.273.319-.409.318-.227.137-.091.182-.091.364-.045.227-.046.137-.091L115,58.6l.091-.091.137-.045.273-.045h.363l.137.045h.091l.045.091v.091l-.045.182Z"/><path class="cls-6" d="M90.391,61.642v.136l-.046.228-.136.136-.228.182-.273.136-.136.091-.137-.045-.136-.182-.091-.227V61.96l.045-.136.091-.136.182-.091.273-.137.273-.045.182.045.091.046Z"/><path class="cls-7" d="M90.391,61.642v.136l-.046.228-.136.136-.228.182-.273.136-.136.091-.137-.045-.136-.182-.091-.227V61.96l.045-.136.091-.136.182-.091.273-.137.273-.045.182.045.091.046.046.136"/><path class="cls-6" d="M93.029,61.6v.136l-.091.182L92.8,62.1l-.182.136-.273.182-.182.091-.091-.046-.182-.181-.046-.228v-.182l.046-.136.091-.091.182-.091.273-.136.227-.046h.182l.137.091Z"/><path class="cls-7" d="M93.029,61.6v.136l-.091.182L92.8,62.1l-.182.136-.273.182-.182.091-.091-.046-.182-.181-.046-.228v-.182l.046-.136.091-.091.182-.091.273-.136.227-.046h.182l.137.091.045.137"/><path class="cls-6" d="M95.622,61.415V61.6l-.045.181-.137.182-.227.137-.273.182-.137.09-.136-.045L94.53,62.1l-.091-.182v-.182l.046-.136.091-.091.182-.137.273-.091.273-.045h.182l.091.091Z"/><path class="cls-7" d="M95.622,61.415V61.6l-.045.181-.137.182-.227.137-.273.182-.137.09-.136-.045L94.53,62.1l-.091-.182v-.182l.046-.136.091-.091.182-.137.273-.091.273-.045h.182l.091.091.045.091"/></g></g></svg>