<?xml version="1.0" encoding="utf-8"?>
<!-- Generator: Adobe Illustrator 23.0.3, SVG Export Plug-In . SVG Version: 6.00 Build 0)  -->
<svg version="1.1" id="Layer_1" xmlns="http://www.w3.org/2000/svg" xmlns:xlink="http://www.w3.org/1999/xlink" x="0px" y="0px"
	 viewBox="0 0 210 210" style="enable-background:new 0 0 210 210;" xml:space="preserve">
<style type="text/css">
	.st0{fill:#D2D6CD;}
	.st1{fill-rule:evenodd;clip-rule:evenodd;fill:#004B94;}
	.st2{fill-rule:evenodd;clip-rule:evenodd;fill:#E32219;}
	.st3{fill-rule:evenodd;clip-rule:evenodd;fill:#E2001A;}
	.st4{fill:#5E5B51;}
</style>
<polygon class="st0" points="22,96.4387817 22,138 188,138 188,96.4387817 105,72 "/>
<path class="st1" d="M97.6396332,85.3776398h5.4879913v1.2199326H99.259491v0.9180756h3.6866455v1.1715775H99.259491v1.7155151
	h-1.6198578V85.3776398z M97.9659424,81.3792953l-9.9242477,9.2285843h7.5430984l-2.0428848-2.0051575
	C93.5419083,88.6027222,97.9659424,81.3792953,97.9659424,81.3792953z"/>
<path class="st2" d="M107.4671631,85.3776398h1.0395126l2.8892136,5.0251007h-1.7891235l-0.5077972-0.893898h-1.6318054v-1.0873413
	h1.0395126l-1.0395126-1.8481064C107.4671631,86.5733948,107.4671631,85.3776321,107.4671631,85.3776398z M106.4396057,85.3776398
	h1.0275574v1.195755l-0.0119629-0.0241852l-1.0033722,1.8722916h1.0153351v1.0873413h-1.6076279l-0.4713974,0.893898h-1.8010788
	C103.587059,90.4027405,106.4396057,85.3776398,106.4396057,85.3776398z M112.06073,85.3776398h1.6076279v5.0251007h-1.6076355
	L112.06073,85.3776398z M118.0684738,85.3776398h1.631813l0.2176285,0.0119553l0.2053986,0.0122223l0.1812286,0.0361404
	l0.1573029,0.0483627l0.1450882,0.060318l0.1328659,0.060585l0.1089478,0.0845032l0.0964584,0.0964508l0.0847626,0.0967255
	l0.0725403,0.1086807l0.0603256,0.1328659l0.0725403,0.2657242l0.0241776,0.1570358l0.0122299,0.1570435v0.7248993
	l-0.0364075,0.2173615l-0.0241776,0.0967178l-0.0241852,0.0845032l-0.0361328,0.0845032l-0.0483704,0.0844955l-0.0483627,0.0725479
	l-0.060585,0.0725403l-0.0844955,0.060318l-0.0725403,0.0483627l-0.0967255,0.060318l-0.1086807,0.0364075l-0.120903,0.0361404
	l-0.1331253,0.0361328v0.0241852l0.1692581,0.0363998l0.1692657,0.0483627l0.1450882,0.0722809l0.0725403,0.0483551
	l0.120903,0.1209106l0.0967255,0.1689987l0.0361404,0.0967255l0.0241776,0.0964508l0.0241852,0.1209106l0.0122223,0.1328583
	l0.0119553,0.1570435v0.8577576h-1.6076279v-0.6039886l-0.0122223-0.1812286l-0.0241852-0.1570358l-0.0241776-0.0603256
	l-0.0239182-0.060585l-0.0241776-0.0483627l-0.0364075-0.0361328l-0.0483627-0.0361404l-0.0483627-0.0364075l-0.0483627-0.0241776
	l-0.060318-0.0241852l-0.1450882-0.0239105h-1.0878677v-1.2685623h1.0395126l0.1450882-0.0119629l0.1328583-0.0241776
	l0.1089478-0.0361404l0.0845032-0.0483627l0.060318-0.0725403l0.0483627-0.0967255l0.0241852-0.1086807v-0.2776794
	l-0.0119629-0.1570435l-0.0122223-0.060585l-0.0119553-0.060318l-0.0364075-0.0483627l-0.0241776-0.0483627l-0.0361404-0.0361328
	l-0.0483627-0.0361404l-0.0967255-0.0483627l-0.1328583-0.0241852l-0.1573105-0.0119553l-0.1692581-0.0122223h-0.9063873v-1.2441177
	H118.0684738z M114.8409958,85.3776398h3.227478v1.2441177h-1.6198502v1.2199326h1.6198502V89.11026h-1.6198502v1.2924805
	h-1.6076279V85.3776398z M96.2735519,82.0800018l-9.754982,9.095726h7.9780884l1.1968155,1.075119H83.4845352L99.138588,77.8278961
	L96.2735519,82.0800018z"/>
<path class="st3" d="M122.5166931,85.3654099l0.1331253,0.0122299l0.120903,0.0361328l0.1086807,0.0603256l0.0967255,0.0725403
	l0.0844955,0.0967255l0.060585,0.1086807l0.0361404,0.120903l0.0122223,0.120636l-0.0122223,0.1328659l-0.0361404,0.120903
	l-0.060585,0.1086807l-0.0844955,0.0845032l-0.0967255,0.0844955l-0.1086807,0.0483627l-0.120903,0.0364075l-0.1331253,0.0119553
	v-0.0725403l0.1089478-0.0119629l0.1086807-0.0363998l0.0967178-0.0480957l0.0845032-0.0725479l0.060585-0.0725403
	l0.0483627-0.0967255l0.0361328-0.1086807l0.0122299-0.1086807l-0.0122299-0.1086807l-0.0361328-0.1086807l-0.0483627-0.0967178
	l-0.060585-0.0722809l-0.0845032-0.0725403l-0.0967178-0.0483627l-0.1086807-0.0361404h-0.1089478v-0.0847626V85.3654099z
	 M122.5166931,86.0299911h0.0122223l0.2054062,0.3260422h0.120903l-0.2295837-0.3260422l0.0844955-0.0122299l0.0363998-0.0119553
	l0.0361404-0.0241776l0.0241852-0.0364075l0.0241776-0.0241776l0.0122299-0.0480957l0.0119553-0.0364075l-0.0119553-0.0483627
	l-0.0122299-0.0361404l-0.0119553-0.0361328l-0.0241776-0.0241852l-0.0364075-0.0241776l-0.0483627-0.0122223l-0.0483627-0.0119629
	h-0.1450882v0.0603256h0.120903l0.060585,0.0241776l0.0361404,0.0122223l0.0122223,0.0241852l0.0241852,0.0722733
	l-0.0122223,0.0364075l-0.0241852,0.0361328l-0.0241776,0.0241852l-0.0361404,0.0119553l-0.0847702,0.0122223h-0.0725403v0.0725479
	H122.5166931z M121.8518524,85.9935837l0.0122223-0.120636l0.0361404-0.1209106l0.060585-0.1086807l0.0844955-0.0967178
	l0.0967255-0.0725479l0.120903-0.060318l0.120903-0.0361404l0.1328659-0.0122223v0.0847702h-0.1209106l-0.1086731,0.0361404
	l-0.0967255,0.0483551l-0.0844955,0.0725479l-0.060585,0.0722733l-0.0483627,0.0967255l-0.0361404,0.1086807l-0.0122299,0.1086807
	l0.0122299,0.1086807l0.0361404,0.1086807l0.0483627,0.0967255l0.060585,0.0725403l0.0844955,0.0725403l0.0967255,0.0480957
	l0.1086731,0.0364075l0.1209106,0.0119553v0.0725403l-0.1328659-0.0119553l-0.120903-0.0364075l-0.120903-0.0483551
	l-0.0967255-0.0845032l-0.0844955-0.0845032l-0.060585-0.1086807l-0.0361404-0.120903L121.8518524,85.9935837
	L121.8518524,85.9935837z M122.5166931,85.6433563h-0.2418137v0.712677h0.0847702v-0.3260422h0.1570435v-0.0725479h-0.1570435
	v-0.2537613h0.1570435V85.6433563z"/>
<path class="st2" d="M122.5166931,85.3654099l0.1331253,0.0122299l0.120903,0.0361328l0.1086807,0.0603256l0.0967255,0.0725403
	l0.0844955,0.0967255l0.060585,0.1086807l0.0361404,0.120903l0.0122223,0.120636l-0.0122223,0.1328659l-0.0361404,0.120903
	l-0.060585,0.1086807l-0.0844955,0.0845032l-0.0967255,0.0844955l-0.1086807,0.0483627l-0.120903,0.0364075l-0.1331253,0.0119553
	v-0.0725403l0.1089478-0.0119629l0.1086807-0.0363998l0.0967178-0.0480957l0.0845032-0.0725479l0.060585-0.0725403
	l0.0483627-0.0967255l0.0361328-0.1086807l0.0122299-0.1086807l-0.0122299-0.1086807l-0.0361328-0.1086807l-0.0483627-0.0967178
	l-0.060585-0.0722809l-0.0845032-0.0725403l-0.0967178-0.0483627l-0.1086807-0.0361404h-0.1089478v-0.0847626V85.3654099z
	 M122.5166931,86.0299911h0.0122223l0.2054062,0.3260422h0.120903l-0.2295837-0.3260422l0.0844955-0.0122299l0.0363998-0.0119553
	l0.0361404-0.0241776l0.0241852-0.0364075l0.0241776-0.0241776l0.0122299-0.0480957l0.0119553-0.0364075l-0.0119553-0.0483627
	l-0.0122299-0.0361404l-0.0119553-0.0361328l-0.0241776-0.0241852l-0.0364075-0.0241776l-0.0483627-0.0122223l-0.0483627-0.0119629
	h-0.1450882v0.0603256h0.120903l0.060585,0.0241776l0.0361404,0.0122223l0.0122223,0.0241852l0.0241852,0.0722733
	l-0.0122223,0.0364075l-0.0241852,0.0361328l-0.0241776,0.0241852l-0.0361404,0.0119553l-0.0847702,0.0122223h-0.0725403v0.0725479
	H122.5166931z M121.8518524,85.9935837l0.0122223-0.120636l0.0361404-0.1209106l0.060585-0.1086807l0.0844955-0.0967178
	l0.0967255-0.0725479l0.120903-0.060318l0.120903-0.0361404l0.1328659-0.0122223v0.0847702h-0.1209106l-0.1086731,0.0361404
	l-0.0967255,0.0483551l-0.0844955,0.0725479l-0.060585,0.0722733l-0.0483627,0.0967255l-0.0361404,0.1086807l-0.0122299,0.1086807
	l0.0122299,0.1086807l0.0361404,0.1086807l0.0483627,0.0967255l0.060585,0.0725403l0.0844955,0.0725403l0.0967255,0.0480957
	l0.1086731,0.0364075l0.1209106,0.0119553v0.0725403l-0.1328659-0.0119553l-0.120903-0.0364075l-0.120903-0.0483551
	l-0.0967255-0.0845032l-0.0844955-0.0845032l-0.060585-0.1086807l-0.0361404-0.120903L121.8518524,85.9935837
	L121.8518524,85.9935837z M122.5166931,85.6433563h-0.2418137v0.712677h0.0847702v-0.3260422h0.1570435v-0.0725479h-0.1570435
	v-0.2537613h0.1570435V85.6433563z"/>
<polygon class="st4" points="105,138 41.2826653,138 41.2826653,101.3544846 168.7324219,101.3544846 168.7324219,138 "/>
</svg>
