<?xml version="1.0" encoding="utf-8"?>
<!-- Generator: Adobe Illustrator 23.0.3, SVG Export Plug-In . SVG Version: 6.00 Build 0)  -->
<svg version="1.1" id="Layer_1" xmlns="http://www.w3.org/2000/svg" xmlns:xlink="http://www.w3.org/1999/xlink" x="0px" y="0px"
	 viewBox="0 0 166 66" style="enable-background:new 0 0 166 66;" xml:space="preserve">
<style type="text/css">
	.st0{fill:#D2D6CD;}
	.st1{fill:#B7B5AC;}
	.st2{fill-rule:evenodd;clip-rule:evenodd;fill:#004B94;}
	.st3{fill-rule:evenodd;clip-rule:evenodd;fill:#E32219;}
	.st4{fill-rule:evenodd;clip-rule:evenodd;fill:#E2001A;}
	.st5{fill:#063761;}
</style>
<g>
	<path class="st0" d="M2.8344727,65.000351C1.8227539,65.000351,1,64.1771088,1,63.16539V27.2733002
		c0-1.1113281,0.9355469-2.3618164,2.0019531-2.6757812L80.5629883,1.7601172
		c0.625-0.184082,1.5131836-0.2895508,2.4370117-0.2895508c0.9233398,0,1.8115234,0.1054688,2.4365234,0.2895508l77.5625,22.8374023
		C164.0644531,24.9114838,165,26.161972,165,27.2733002V63.16539c0,1.0117188-0.8232422,1.8349609-1.8349609,1.8349609H2.8344727z"
		/>
	<path class="st1" d="M83,2.4703979c0.8198471,0,1.6251755,0.0930176,2.1543274,0.2488251l77.5615234,22.8374481
		C163.3639221,25.7474976,164,26.597847,164,27.2734222v35.891922c0,0.4524231-0.3822174,0.8346481-0.8346558,0.8346481H2.83465
		C2.382225,63.9999924,2,63.6177673,2,63.1653442v-35.891922c0-0.6755753,0.6360741-1.5259247,1.2841244-1.7167511
		L80.845726,2.719223C81.3748474,2.5634155,82.1801758,2.4703979,83,2.4703979 M83,0.4703827
		c-0.9857178,0-1.9714355,0.1101074-2.719223,0.3302917L2.7192249,23.6381226C1.22365,24.0784988,0,25.7143707,0,27.2734222
		v35.891922c0,1.5590744,1.2756004,2.8346481,2.83465,2.8346481h160.3306885c1.5590515,0,2.8346558-1.2755737,2.8346558-2.8346481
		v-35.891922c0-1.5590515-1.2236481-3.1949234-2.719223-3.6352997L85.719223,0.8006744
		C84.9714355,0.5804901,83.9857178,0.4703827,83,0.4703827L83,0.4703827z"/>
</g>
<path class="st2" d="M75.0302658,15.9650612h6.0759964v1.3506451h-4.2825851v1.0164413h4.0816498v1.297102h-4.0816498v1.8993168
	h-1.7934113V15.9650612z M75.3915405,11.5383224L64.4039764,21.755682h8.3512878l-2.2617569-2.2199879
	C70.4935074,19.5356941,75.3915405,11.5383215,75.3915405,11.5383224z"/>
<path class="st3" d="M85.9107437,15.9650612h1.1508865l3.1987762,5.5635033h-1.9808121l-0.5622025-0.9896679h-1.8066483v-1.2038422
	h1.1508865l-1.1508865-2.0461216C85.9107437,17.2889328,85.9107437,15.9650602,85.9107437,15.9650612z M84.7730942,15.9650612
	h1.1376495v1.3238735l-0.013237-0.0267715l-1.110878,2.0728912h1.124115v1.2038422H84.130867l-0.5218964,0.9896679h-1.9940491
	C81.6149216,21.5285645,84.7730942,15.9650612,84.7730942,15.9650612z M90.9964752,15.9650612h1.7798767v5.5635033h-1.7798767
	V15.9650612z M97.6479111,15.9650612h1.8066483l0.2409439,0.013238l0.2274094,0.0135336l0.2006454,0.0400105l0.1741638,0.0535431
	l0.1606293,0.066782l0.1470947,0.0670776l0.1206207,0.0935535l0.1067963,0.1067924l0.0938492,0.1070862l0.0803146,0.1203251
	l0.0667801,0.1470966l0.0803146,0.2941952l0.0267715,0.1738682l0.0135345,0.1738682v0.8025608l-0.0402985,0.2406521
	l-0.0267715,0.1070862l-0.0267792,0.0935535l-0.0400085,0.0935535l-0.0535431,0.0935555l-0.0535431,0.0803146l-0.0670776,0.0803146
	l-0.0935516,0.066782l-0.0803146,0.0535431l-0.1070862,0.066782l-0.1203232,0.0403042l-0.1338577,0.0400124l-0.1473999,0.0400105
	v0.0267715l0.1874008,0.0403042l0.1874008,0.0535431l0.1606369,0.0800209l0.080307,0.0535431l0.1338654,0.1338596
	l0.1070862,0.1871071l0.0400085,0.1070862l0.0267715,0.1067924l0.0267715,0.1338577l0.0135345,0.1470985l0.013237,0.1738682
	v0.9496593h-1.7798767v-0.6687031l-0.0135345-0.2006416l-0.0267715-0.1738682l-0.0267715-0.066782l-0.026474-0.0670757
	l-0.0267715-0.0535431l-0.0403061-0.0400124l-0.0535431-0.0400105l-0.0535431-0.0403042l-0.0535507-0.0267715L99.01297,20.1240845
	l-0.1606293-0.0264778h-1.2044296v-1.4044819h1.1508865l0.1606369-0.0132389l0.1470947-0.0267715l0.1206207-0.0400105
	l0.0935516-0.0535431l0.0667801-0.0803146l0.0535507-0.1070862l0.0267715-0.1203251v-0.3074322l-0.013237-0.1738682
	l-0.0135345-0.0670776l-0.013237-0.066782l-0.0403061-0.0535431l-0.0267715-0.0535431l-0.0400085-0.0400105l-0.0535507-0.0400105
	l-0.1070862-0.0535431l-0.1470947-0.0267715l-0.1741638-0.0132389l-0.1874008-0.0135326h-1.0034943V15.965064L97.6479111,15.9650612
	z M94.0746307,15.9650612h3.5732803v1.3774166h-1.7934036v1.3506451h1.7934036v1.4044819h-1.7934036v1.4309597h-1.7798767
	V15.9650612z M73.5178223,12.3141117L62.717659,22.3843746h8.8328857l1.3250504,1.1903095H59.358551L76.6898193,7.6064177
	L73.5178223,12.3141117z"/>
<path class="st4" d="M102.5727234,15.9515276l0.1473923,0.0135336l0.1338577,0.0400105l0.1203232,0.066782l0.1070862,0.0803146
	l0.0935516,0.1070862l0.0670776,0.1203251l0.0400085,0.1338596l0.0135345,0.133564l-0.0135345,0.1470966l-0.0400085,0.1338596
	l-0.0670776,0.1203251l-0.0935516,0.0935535l-0.1070862,0.0935535l-0.1203232,0.0535431l-0.1338577,0.0403061l-0.1473923,0.013237
	v-0.0803146l0.1206207-0.013237l0.1203232-0.0403061l0.1070862-0.0532475l0.0935516-0.0803146l0.0670776-0.0803146
	l0.0535431-0.1070862l0.0400085-0.120327l0.0135345-0.1203251l-0.0135345-0.1203251l-0.0400085-0.1203251l-0.0535431-0.1070862
	l-0.0670776-0.0800209l-0.0935516-0.0803146l-0.1070862-0.0535431l-0.1203232-0.0400105h-0.1206207v-0.0938492V15.9515276z
	 M102.5727234,16.6873074h0.0135345l0.2274094,0.3609753h0.1338577l-0.2541809-0.3609753l0.0935516-0.0135345l0.0403061-0.013237
	l0.0400085-0.0267715l0.0267715-0.0403061l0.0267715-0.0267715l0.0135345-0.0532494l0.013237-0.0403042l-0.013237-0.0535431
	l-0.0135345-0.0400105l-0.013237-0.0400105l-0.0267715-0.0267715l-0.0403061-0.0267715l-0.0535431-0.0135345l-0.0535431-0.013237
	h-0.1606369v0.066782h0.1338654l0.06707,0.0267715l0.0400162,0.0135326l0.0135345,0.0267715l0.0267715,0.0800209
	l-0.0135345,0.0403042l-0.0267715,0.0400124l-0.0267792,0.0267715l-0.0400085,0.013237l-0.0938492,0.0135345h-0.0803146v0.0803146
	H102.5727234z M101.836647,16.6470013l0.0135345-0.133564l0.0400162-0.1338577l0.06707-0.1203251l0.0935516-0.1070862
	l0.1070862-0.0803146l0.1338654-0.0667839l0.1338577-0.0400095l0.1470947-0.0135336v0.0938473h-0.1338577l-0.1203232,0.0400105
	l-0.1070862,0.0535431l-0.0935516,0.0803146l-0.0670776,0.0800209l-0.0535431,0.1070862l-0.0400162,0.120327l-0.0135345,0.1203251
	l0.0135345,0.1203251l0.0400162,0.1203251l0.0535431,0.1070862l0.0670776,0.0803146l0.0935516,0.0803146l0.1070862,0.0532494
	l0.1203232,0.0403042l0.1338577,0.0132389v0.0803146l-0.1470947-0.0132389l-0.1338577-0.0403042l-0.1338654-0.0535431
	l-0.1070862-0.0935535l-0.0935516-0.0935535l-0.06707-0.120327l-0.0400162-0.1338577l-0.0135345-0.1470966V16.6470013z
	 M102.5727234,16.2592545h-0.2677155v0.7890282h0.0938492v-0.3609753h0.1738663v-0.0803146h-0.1738663v-0.2809563h0.1738663
	V16.2592545z"/>
<path class="st3" d="M102.5727234,15.9515276l0.1473923,0.0135336l0.1338577,0.0400105l0.1203232,0.066782l0.1070862,0.0803146
	l0.0935516,0.1070862l0.0670776,0.1203251l0.0400085,0.1338596l0.0135345,0.133564l-0.0135345,0.1470966l-0.0400085,0.1338596
	l-0.0670776,0.1203251l-0.0935516,0.0935535l-0.1070862,0.0935535l-0.1203232,0.0535431l-0.1338577,0.0403061l-0.1473923,0.013237
	v-0.0803146l0.1206207-0.013237l0.1203232-0.0403061l0.1070862-0.0532475l0.0935516-0.0803146l0.0670776-0.0803146
	l0.0535431-0.1070862l0.0400085-0.120327l0.0135345-0.1203251l-0.0135345-0.1203251l-0.0400085-0.1203251l-0.0535431-0.1070862
	l-0.0670776-0.0800209l-0.0935516-0.0803146l-0.1070862-0.0535431l-0.1203232-0.0400105h-0.1206207v-0.0938492V15.9515276z
	 M102.5727234,16.6873074h0.0135345l0.2274094,0.3609753h0.1338577l-0.2541809-0.3609753l0.0935516-0.0135345l0.0403061-0.013237
	l0.0400085-0.0267715l0.0267715-0.0403061l0.0267715-0.0267715l0.0135345-0.0532494l0.013237-0.0403042l-0.013237-0.0535431
	l-0.0135345-0.0400105l-0.013237-0.0400105l-0.0267715-0.0267715l-0.0403061-0.0267715l-0.0535431-0.0135345l-0.0535431-0.013237
	h-0.1606369v0.066782h0.1338654l0.06707,0.0267715l0.0400162,0.0135326l0.0135345,0.0267715l0.0267715,0.0800209
	l-0.0135345,0.0403042l-0.0267715,0.0400124l-0.0267792,0.0267715l-0.0400085,0.013237l-0.0938492,0.0135345h-0.0803146v0.0803146
	H102.5727234z M101.836647,16.6470013l0.0135345-0.133564l0.0400162-0.1338577l0.06707-0.1203251l0.0935516-0.1070862
	l0.1070862-0.0803146l0.1338654-0.0667839l0.1338577-0.0400095l0.1470947-0.0135336v0.0938473h-0.1338577l-0.1203232,0.0400105
	l-0.1070862,0.0535431l-0.0935516,0.0803146l-0.0670776,0.0800209l-0.0535431,0.1070862l-0.0400162,0.120327l-0.0135345,0.1203251
	l0.0135345,0.1203251l0.0400162,0.1203251l0.0535431,0.1070862l0.0670776,0.0803146l0.0935516,0.0803146l0.1070862,0.0532494
	l0.1203232,0.0403042l0.1338577,0.0132389v0.0803146l-0.1470947-0.0132389l-0.1338577-0.0403042l-0.1338654-0.0535431
	l-0.1070862-0.0935535l-0.0935516-0.0935535l-0.06707-0.120327l-0.0400162-0.1338577l-0.0135345-0.1470966V16.6470013z
	 M102.5727234,16.2592545h-0.2677155v0.7890282h0.0938492v-0.3609753h0.1738663v-0.0803146h-0.1738663v-0.2809563h0.1738663
	V16.2592545z"/>
<g>
	<path class="st5" d="M84.4252014,65.999054c-0.7838821,0-2.0666046,0-2.8504868,0H20.351635
		c-0.783886,0-1.4252472-0.6413574-1.4252472-1.4252472V30.5739079c0-0.783886,0.6413612-1.4252472,1.4252472-1.4252472h125.3118134
		c0.7838898,0,1.4252472,0.6413612,1.4252472,1.4252472v33.9999008c0,0.7838898-0.6413574,1.4252472-1.4252472,1.4252472H84.4252014
		z"/>
</g>
</svg>
