<svg id="Layer_1" data-name="Layer 1" xmlns="http://www.w3.org/2000/svg" viewBox="0 0 210 210"><defs><style>.cls-1{fill:#063761;}.cls-2{fill:#fff;}.cls-3,.cls-5{fill:#004b94;}.cls-4,.cls-9{fill:none;}.cls-5,.cls-6,.cls-7{fill-rule:evenodd;}.cls-6{fill:#e32219;}.cls-7{fill:#e2001a;}.cls-8{fill:#87888a;}.cls-9{stroke:#87888a;stroke-linecap:round;stroke-linejoin:round;stroke-width:0.17431px;}</style></defs><title>icon</title><circle class="cls-1" cx="99.6373" cy="101.72054" r="165.82677"/><path class="cls-2" d="M175.40387,90.93053l-.98717-.58-.13016-1.16475c-2.03416-17.4747-16.369-30.62511-33.38911-30.63045a32.04477,32.04477,0,0,0-4.35258.32486l-1.49866.1995-.74487-1.3596a33.08089,33.08089,0,0,0-58.60264,0l-.74486,1.3596-1.49867-.1995a32.045,32.045,0,0,0-4.35258-.32486c-17.02016.00534-31.355,13.15575-33.38912,30.63045l-.13016,1.16475-.98716.58A35.10554,35.10554,0,0,0,17.5,121.20367c0,19.19223,15.09484,34.80208,33.65381,34.80208H158.84619c18.559,0,33.65381-15.60985,33.65381-34.80208A35.10554,35.10554,0,0,0,175.40387,90.93053Z"/><path class="cls-3" d="M161.47592,95.07353v.2634l-.04455.22079-.1317.17625-.08812.1317-.17626.08812-.13171.08813-.22078.04357h-.39607l-.17626-.04357-.17625-.08813-.17625-.08812-.08812-.1317-.08814-.17625-.08812-.22079v-.88026l.08812-.21983.08814-.17625.08812-.1317.17625-.08812.17625-.04454.17626-.04358h.39607l.22078.04358.13171.04454.17626.08812.08812.1317.1317.17625.04455.21983Zm1.1456,0v-.30892l-.04455-.39607-.08812-.30795-.17626-.26437-.26436-.21982-.30795-.1317-.35248-.13267-.44063-.04358h-.9248l-.44063.04358-.35249.13267-.30794.1317-.26436.21982-.17625.26437-.08814.30795-.04454.39607v.30892l.04454.39607.08814.308.17625.26437.26436.17624.30794.17528.35249.08812.44063.08813h.9248l.44063-.08813.35248-.08812.30795-.17528.26436-.17624.17626-.26437.08812-.308ZM152.621,94.85274l-.92482.04454-.44062-.04454-.35249-.04358-.1317-.08813-.08813-.08812-.08812-.1317v-.35249l.04358-.13171.13266-.08812.08812-.08812.17625-.04454.1317-.04358.39705-.04455.43963.04455.17626.04358.13267.08812.1317.13266.08812.13171.08814.44061Zm1.102.26436v-.52777l-.04456-.30891-.1317-.308-.17625-.21982-.26436-.17625-.30891-.1317-.3525-.13267-.44063-.04357h-.9248l-.39607.04357-.3525.08813-.30891.13266-.26436.17528-.1317.17625-.13267.22079-.04357.21982v.04358l.04357.26437.13267.17625.17624.17625.26438.13169.30793.08812.3525.08813.35249.04358h1.01294l.52875-.04358-.04358.21983-.04456.17624-.08812.1317-.1317.08813-.13267.08812-.21982.04455-.48419.04357h-.83766l-.705-.04357h-.1317l-.04455.08812v.308h.04455l.1317.04357.61685.04455.92578.04358h.52776l.44063-.08813.397-.08812.308-.17528.26436-.17624.17626-.26437.08812-.308.04455-.3525Zm-9.956-.26436-.92577.04454-.39607-.04454-.35249-.04358-.17626-.08813-.08812-.08812-.08812-.1317v-.35249l.08812-.13171.08812-.08812.08814-.08812.17625-.04454.17626-.04358.39605-.04455.39705.04455.17626.04358.13169.08812.13266.13266.08814.13171.08812.21982v.4842Zm1.10106.26436v-.52777l-.04456-.30891-.08812-.308-.21983-.21982-.26436-.17625-.308-.1317-.3525-.13267-.397-.04357h-.92482l-.44061.04357-.3525.08813-.30793.13266-.2208.17528-.17625.17625-.1317.22079v.2634l.04358.26437.08812.17625.22079.17625.21984.13169.30891.08812.35249.08813.35154.04358h1.05746l.48517-.04358-.04454.21983-.04358.17624-.08814.1317-.08812.08813-.17625.08812-.17625.04455-.52875.04357h-.83669l-.705-.04357H140.947l-.04357.08812v.308h.04357l.13266.04357.61686.04455.92481.04358h.52875l.44062-.08813.39606-.08812.30892-.17528.26341-.17624.17625-.26437.08812-.308ZM134.64769,96.438V93.35658l-.04358-.04455-.08812-.04357h-.5733l-.17624.04357-1.32185.26437H132.401l-.04455.04455V94.017l.04455.04357h.17624l.96936-.17624V96.438l.04358.08813h1.01389Zm-14.185-1.36446h-1.71792v-.13267l.04357-.08812.08813-.08813.13268-.08715.26437-.08813.35249-.04454.35249.04454.2634.08813.17625.17528.04454.08812Zm1.10106.30795v-.21983l-.04357-.26437-.08813-.21982-.13267-.17625-.21982-.17624-.30892-.08812-.308-.13171-.39606-.04454-.44062-.04358-.44062.04358-.397.04454-.35248.08716-.26438.13267-.21982.17624-.17625.17625-.08813.21982-.04357.26437v.4842l.04357.1317.17625.21983.21983.22079.26437.1317.61686.17625.35249.04358h1.18918l.705-.08813h.13267l.04357-.08812v-.308l-.04357-.04358h-.13267l-1.49713.04358-.26438-.04358H119.229l-.17625-.08812-.1317-.04454-.08813-.08813-.04454-.1317-.04358-.17625h2.64274l.13267-.04357Zm-8.23808,1.012V96.13l-.04357-.04455-.08813-.04357h-.04454l-1.05652.04357-.26437-.04357-.26438-.08813-.08813-.08812-.08812-.08812-.04454-.13171-.04357-.13266V95.1171l.04357-.17624.04454-.1317.08812-.08812.08813-.08813.26438-.08812h1.45355l.04357-.04358V94.1923l-.04357-.04358-.13267-.04358-.39607-.04455L112.093,94.017l-.397.04357-.3525.04455-.30794.08716-.26437.08812-.22079.17625-.17529.17624-.08812.21983-.04454.26436v.39608l.04454.26437.08812.17624.17529.21983.22079.13267.26437.1317.30794.04358.3525.08812h1.05748l.39607-.04357.13267-.04455Zm-7.66479.04455V95.029l-.04455-.21982-.04357-.17625-.04358-.17624-.13267-.1317-.21982-.13267-.22079-.08716-.308-.04454-.397-.04358-.39607.04358H103.546l-.308.08812-.35248.08813v-.08813l-.04358-.04358-.08813-.04454h-.705l-.13267.04454-.04357.04358V96.438l.04357.08813h.96936l.04454-.08813V94.67746l.48419-.08812.44062-.04455h.39607l.13267.04455.08813.04357.04357.04455.04455.08716V96.438l.04357.08813h1.01293Zm-8.59058,0V94.14872l-.04358-.04358-.08812-.04455h-.74953l-.13171.04455-.04454.04358V96.438l.04454.08812h.96936Zm.04454-2.77347v-.39607l-.04454-.04454-.1317-.04358h-.79311l-.08813.04358-.08812.04454v.39607l.17624.08813h.79312l.1317-.04455Zm-5.727,2.20115V95.734l-.13267-.17625-.21982-.17624-.44062-.17625-1.05748-.35249-.21983-.08813-.08813-.04357v-.13171l.13171-.04454.17625-.04358H89.758l.79312.04358h.704l.04455-.08812v-.21982l-.04455-.08813-.1317-.04358-.61687-.04454-.83668-.04358-.66141.04358-.26437.08812-.21982.04358-.17625.08812-.13171.13267-.04454.1317-.04358.13267.04358.17528.17625.17624.17625.13267.30794.1317,1.102.35249.308.13171.04454.04357v.13267l-.08812.08813-.17625.04357h-.30891l-1.36544-.04357h-.04358l-.08812.04357-.04454.04455v.2634l.04454.04455.1317.04357.74857.08813H90.1541l.35249-.04358L90.771,96.438l.22078-.08813.17528-.08812.13268-.08812.08812-.1317Z"/><path class="cls-4" d="M161.47592,95.07353v.2634l-.04455.22079-.1317.17625-.08812.1317-.17626.08812-.13171.08813-.22078.04357h-.39607l-.17626-.04357-.17625-.08813-.17625-.08812-.08812-.1317-.08814-.17625-.08812-.22079v-.88026l.08812-.21983.08814-.17625.08812-.1317.17625-.08812.17625-.04454.17626-.04358h.39607l.22078.04358.13171.04454.17626.08812.08812.1317.1317.17625.04455.21983v.61686"/><path class="cls-4" d="M162.62152,95.07353v-.30892l-.04455-.39607-.08812-.30795-.17626-.26437-.26436-.21982-.30795-.1317-.35248-.13267-.44063-.04358h-.9248l-.44063.04358-.35249.13267-.30794.1317-.26436.21982-.17625.26437-.08814.30795-.04454.39607v.30892l.04454.39607.08814.308.17625.26437.26436.17624.30794.17528.35249.08812.44063.08813h.9248l.44063-.08813.35248-.08812.30795-.17528.26436-.17624.17626-.26437.08812-.308.04455-.39607M152.621,94.85274l-.92482.04454-.44061-.04454-.35249-.04358-.1317-.08812-.08814-.08813-.08812-.1317v-.35249l.04358-.1317.13266-.08813.08812-.08811.17626-.04455.13169-.04358.39705-.04454.43964.04454.17625.04358.13268.08812.1317.13267.08812.1317.08813.44061v.26341"/><path class="cls-4" d="M153.723,95.1171v-.52777l-.04455-.30891-.1317-.308-.17626-.21982-.26436-.17625-.30891-.1317-.35249-.13267-.44063-.04357h-.92479l-.39607.04357-.3525.08813-.30891.13266-.26436.17528-.1317.17625-.13267.22079-.04357.21982v.04358l.04357.26437.13267.17625.17624.17625.26438.13169.30793.08812.3525.08813.35249.04358h1.01294l.52875-.04358-.04358.21983-.04456.17624-.08812.1317-.1317.08813-.13267.08812-.21982.04455-.48419.04357h-.83766l-.705-.04357h-.1317l-.04455.08812v.308h.04455l.1317.04357.61685.04455.92578.04358h.52776l.44063-.08813.397-.08812.308-.17528.26436-.17624.17626-.26437.08812-.308.04455-.3525m-9.956-.26436-.92577.04454-.39607-.04454-.35249-.04358-.17626-.08812-.08812-.08813-.08812-.1317v-.35249l.08812-.1317.08812-.08813.08814-.08811.17625-.04455.17626-.04358.39605-.04454.39705.04454.17626.04358.13169.08812.13266.13267.08814.1317.08812.21983v.48419"/><path class="cls-4" d="M144.86806,95.1171v-.52777l-.04456-.30891-.08812-.308-.21983-.21982-.26436-.17625-.308-.1317-.3525-.13267-.397-.04357h-.92482l-.44061.04357-.3525.08813-.30793.13266-.2208.17528-.17625.17625-.1317.22079v.2634l.04358.26437.08812.17625.22079.17625.21984.13169.30891.08812.35249.08813.35154.04358h1.05746l.48517-.04358-.04454.21983-.04358.17624-.08814.1317-.08812.08813-.17625.08812-.17625.04455-.52875.04357h-.83669l-.705-.04357H140.947l-.04357.08812v.308h.04357l.13266.04357.61686.04455.92481.04358h.52875l.44062-.08813.39606-.08812.30892-.17528.26341-.17624.17625-.26437.08812-.308.04456-.3525M134.64769,96.438V93.35658l-.04358-.04455-.08812-.04357h-.5733l-.17624.04357-1.32185.26437H132.401l-.04455.04455V94.017l.04455.04357h.17624l.96936-.17624V96.438l.04358.08813h1.01389l.04357-.08813m-14.18493-1.36446h-1.71792v-.13267l.04357-.08812.08813-.08813.13267-.08715.26437-.08813.35249-.04454.3525.04454.2634.08813.17625.17528.04454.08812v.13267"/><path class="cls-4" d="M121.5638,95.38148v-.21983l-.04357-.26437-.08813-.21982-.13268-.17625-.21981-.17624-.30892-.08812-.308-.13171-.39607-.04454-.44062-.04358-.44061.04358-.397.04454-.35248.08716-.26438.13267-.21982.17624-.17625.17625-.08813.21982-.04357.26437v.4842l.04357.1317.17625.21983.21982.22079.26438.1317.61686.17625.35249.04358h1.18918l.705-.08813h.13266l.04358-.08812v-.308l-.04358-.04358h-.13266l-1.49714.04358-.26437-.04358H119.229l-.17624-.08812-.1317-.04454-.08813-.08813-.04455-.1317-.04357-.17625h2.64273l.13267-.04357.04357-.08813m-8.23807,1.012V96.13l-.04357-.04455-.08812-.04357h-.04454l-1.05652.04357-.26438-.04357-.26437-.08813-.08813-.08812-.08813-.08812-.04454-.13171-.04357-.13266V95.1171l.04357-.17624.04454-.1317.08813-.08812.08813-.08813.26437-.08812h1.45356l.04357-.04358V94.1923l-.04357-.04358-.13267-.04358-.39607-.04455L112.093,94.017l-.397.04357-.3525.04455-.30794.08716-.26438.08812-.22079.17625-.17528.17624-.08812.21983-.04455.26436v.39608l.04455.26437.08812.17624.17528.21983.22079.13267.26438.1317.30794.04358.3525.08812h1.05748l.39607-.04357.13267-.04455.04357-.08813m-7.66478.04455V95.029l-.04455-.21982-.04357-.17625-.04358-.17624-.13267-.1317-.21983-.13267-.22078-.08716-.308-.04454-.397-.04358-.39606.04358H103.546l-.30795.08812-.35248.08813v-.08813l-.04358-.04358-.08813-.04454h-.705l-.13267.04454-.04358.04358V96.438l.04358.08813h.96936l.04454-.08813V94.67746l.48419-.08812.44062-.04455h.39606l.13268.04455.08813.04357.04357.04455.04455.08716V96.438l.04357.08813h1.01293l.04455-.08813m-8.59058,0V94.14872l-.04358-.04358-.08813-.04455h-.74953l-.1317.04455-.04454.04358V96.438l.04454.08812h.96935l.04358-.08812m.04456-2.77347v-.39607l-.04454-.04454-.13171-.04358h-.7931l-.08813.04358-.08813.04454v.39607l.17625.08813h.7931l.13171-.04455.04454-.04358m-5.727,2.20115V95.734l-.13268-.17625-.21982-.17624-.44062-.17625-1.05748-.35249-.21982-.08813-.08813-.04357v-.13171l.13171-.04454.17624-.04358h.22079l.79311.04358h.704l.04455-.08812v-.21982l-.04455-.08813-.1317-.04358-.61686-.04454-.83669-.04358-.66141.04358-.26437.08812-.21982.04358-.17624.08812-.13171.13267-.04454.1317-.04358.13267.04358.17528.17625.17624.17624.13267.30795.1317,1.102.35249.30794.13171.04455.04357v.13267l-.08813.08813-.17624.04357H89.7135l-1.36543-.04357h-.04358l-.08813.04357-.04454.04455v.2634l.04454.04455.13171.04357.74856.08813h1.05748l.3525-.04358L90.771,96.438l.22079-.08813.17528-.08812.13267-.08812.08813-.1317v-.17625"/><path class="cls-5" d="M76.586,100.75216H96.58616V105.198H82.48933v3.34578H95.92475v4.26962H82.48933v6.25192H76.586Zm1.18918-14.57134L41.60786,119.81294H69.0975l-7.445-7.30745Z"/><path class="cls-6" d="M112.4009,100.75216h3.78834l10.52929,18.31319h-6.52016l-1.85059-3.25766H112.4009V111.845h3.78834l-3.78834-6.73514Zm-3.74475,0h3.74475v4.35774l-.04357-.08812-3.65664,6.82327h3.70021v3.96264h-5.85875l-1.71792,3.25766H98.2605Zm20.48528,0h5.85875v18.31319h-5.85875Zm21.89429,0h5.94688l.79311.04357.74857.04455.66044.13171.57328.17624.52874.21983.4842.22079.397.308.35154.35152.30891.3525.26436.39606.21983.4842.26436.96838.08814.57232.04455.57232v2.64176l-.13267.79215-.08812.35248-.08814.308-.1317.30794-.17625.308-.17626.26436-.22077.26437-.30794.21982-.26438.17625-.35249.21983-.39606.13266-.44062.13171-.48517.1317v.08813l.61685.13266.61687.17625.52874.2634.26436.17624.44061.44062.3525.6159.13171.35249.08812.35153.08812.44061.04456.4842.04358.57231v3.126h-5.85875v-2.20114l-.04456-.66044-.08812-.57231-.08813-.21983-.08715-.2208-.08813-.17624-.13266-.13171-.17626-.1317-.17625-.13266-.17625-.08813-.21984-.08812-.52873-.08716h-3.96457V109.732h3.78835l.52873-.04358.48421-.08812.397-.1317.30794-.17625.21983-.26436.17625-.3525.08814-.39607v-1.012l-.04358-.57232-.04456-.2208-.04357-.21982-.13266-.17625-.08812-.17624-.13172-.1317-.17625-.1317-.35248-.17625-.48421-.08813-.57327-.04357-.61687-.04455h-3.30316v-4.534Zm-11.762,0h11.762v4.534h-5.90329V109.732h5.90329v4.62309h-5.90329v4.71024h-5.85875ZM71.60756,88.73446l-35.5505,33.14793H65.13194l4.36163,3.91809H25L82.04872,73.23831Z"/><path class="cls-7" d="M167.24655,100.70761l.48517.04455.44061.1317.39608.21982.35249.26438.30794.35248.22079.39608.1317.44062.04454.43964-.04454.4842-.1317.44061-.22079.39608-.30794.308-.35249.30794-.39608.17625-.44061.13267-.48517.04358v-.26438l.397-.04357.39607-.13267.35249-.17527.30794-.26438.22079-.26436.17626-.3525.1317-.39607.04455-.39607-.04455-.39607-.1317-.39607-.17626-.35249-.22079-.26341-.30794-.26436-.35249-.17625-.39607-.1317h-.397v-.30892Zm0,2.42194h.04454l.74857,1.18822h.44061l-.83668-1.18822.30793-.04455.13268-.04357.1317-.08813.08812-.13267.08813-.08812.04456-.17528.04356-.13267-.04356-.17625-.04456-.13169-.04358-.13171-.08812-.08812-.13267-.08813-.17626-.04454-.17624-.04358h-.52874v.21983h.44061l.22079.08812.1317.04455.04456.08812.08812.2634-.04456.13267-.08812.13171-.08812.08811-.13171.04358-.30892.04455h-.26435v.26437Zm-2.42291-.13267.04455-.43965.1317-.44061.2208-.39608.30794-.35249.35249-.26437.44061-.21982.44063-.13171.48419-.04455v.30893h-.44063l-.396.13169-.3525.17625-.30793.26437-.2208.2634-.17625.3525-.1317.39607-.04456.39606.04456.39608.1317.39607.17625.35249.2208.26437.30793.26437.3525.17528.396.13267.44063.04358v.26436l-.48419-.04358-.44063-.13267-.44061-.17624-.35249-.308-.30794-.30795-.2208-.39607-.1317-.44062-.04455-.48419Zm2.42291-1.27634h-.88124v2.59722h.30891v-1.18821h.57233v-.26437h-.57233v-.92481h.57233Z"/><path class="cls-6" d="M167.24655,100.70761l.48517.04455.44061.1317.39608.21982.35249.26438.30794.35248.22079.39608.1317.44062.04454.43964-.04454.4842-.1317.44061-.22079.39608-.30794.308-.35249.30794-.39608.17625-.44061.13267-.48517.04358v-.26438l.397-.04357.39607-.13267.35249-.17527.30794-.26438.22079-.26436.17626-.3525.1317-.39607.04455-.39607-.04455-.39607-.1317-.39607-.17626-.35249-.22079-.26341-.30794-.26436-.35249-.17625-.39607-.1317h-.397v-.30892Zm0,2.42194h.04454l.74857,1.18822h.44061l-.83668-1.18822.30793-.04455.13268-.04357.1317-.08813.08812-.13267.08813-.08812.04456-.17528.04356-.13267-.04356-.17625-.04456-.13169-.04358-.13171-.08812-.08812-.13267-.08813-.17626-.04454-.17624-.04358h-.52874v.21983h.44061l.22079.08812.1317.04455.04456.08812.08812.2634-.04456.13267-.08812.13171-.08812.08811-.13171.04358-.30892.04455h-.26435v.26437Zm-2.42291-.13267.04455-.43965.1317-.44061.2208-.39608.30794-.35249.35249-.26437.44061-.21982.44063-.13171.48419-.04455v.30893h-.44063l-.396.13169-.3525.17625-.30793.26437-.2208.2634-.17625.3525-.1317.39607-.04456.39606.04456.39608.1317.39607.17625.35249.2208.26437.30793.26437.3525.17528.396.13267.44063.04358v.26436l-.48419-.04358-.44063-.13267-.44061-.17624-.35249-.308-.30794-.30795-.2208-.39607-.1317-.44062-.04455-.48419Zm2.42291-1.27634h-.88124v2.59722h.30891v-1.18821h.57233v-.26437h-.57233v-.92481h.57233Z"/><path class="cls-8" d="M176.40942,131.03849l.3525-.39606.13266-.13171.1317-.08812.08813-.08812.30891-.39607.39608-.48419.44061-.57233.1317-.21982.08813-.26437-.57232.17624-.17626.08813-.17625.1317-.1317.1317-.13266.08813-.35249.26438-.39608.26437-1.36543.83669-1.54263.96838-.17528.04358h-.57329l-.04358-.04358.13172-.26437.26436-.44062.26435-.43965.17626-.26437.35249-.44063.13172-.1317.08812-.1317.13265-.26437.08814-.26437.04356-.1317-.08812-.08814-.13169-.08812.30793-.21982.2208-.13267.35249-.08813.30794-.08812h.08812l.04455.04454v.21983l-.13266.30794-.13171.30891-.22078.35153-.04358.04454-.08812.17528-.08813.2208-.08812.26437-.08814.21982.39608-.21982.26435-.2208.17626-.04357.13266-.04454.04358-.04358.21983-.17624.30891-.21982.30794-.13268.17626-.08813.08813-.04356.13266-.13172.1317-.13266.13266-.08813.35249-.17624.66045-.35153.48419-.21982.17626-.08813h.397l.21984.08813.04454.04358.04358.08812-.04358.08813-.13266.21982-.30794.39607-.52875.88027-.44061.705-.13171.21983-.22078.39606-.21984.39607-.48516.61687-.08812.08812-.17626.04358h-.2198l-.13266-.04358-.08814-.04454-.04358-.08812-.08811-.17626-.04456-.1317v-.04358l.17625-.30891Z"/><path class="cls-9" d="M176.40942,131.03849l.3525-.39606.13266-.13171.1317-.08812.08813-.08812.30891-.39607.39608-.48419.44061-.57233.1317-.21982.08813-.26437-.57232.17624-.17626.08813-.17625.1317-.1317.1317-.13266.08813-.35249.26438-.39608.26437-1.36543.83669-1.54263.96838-.17528.04358h-.57329l-.04358-.04358.13172-.26437.26436-.44062.26435-.43965.17626-.26437.35249-.44063.13172-.1317.08812-.1317.13265-.26437.08814-.26437.04356-.1317-.08812-.08814-.13169-.08812.30793-.21982.2208-.13267.35249-.08813.30794-.08812h.08812l.04455.04454v.21983l-.13266.30794-.13171.30891-.22078.35153-.04358.04454-.08812.17528-.08813.2208-.08812.26437-.08814.21982.39608-.21982.26435-.2208.17626-.04357.13266-.04454.04358-.04358.21983-.17624.30891-.21982.30794-.13268.17626-.08813.08813-.04356.13266-.13172.1317-.13266.13266-.08813.35249-.17624.66045-.35153.48419-.21982.17626-.08813h.397l.21984.08813.04454.04358.04358.08812-.04358.08813-.13266.21982-.30794.39607-.52875.88027-.44061.705-.13171.21983-.22078.39606-.21984.39607-.48516.61687-.08812.08812-.17626.04358h-.2198l-.13266-.04358-.08814-.04454-.04358-.08812-.08811-.17626-.04456-.1317v-.04358l.17625-.30891"/><path class="cls-8" d="M170.63879,129.93841l.30893-.44063.2634-.48419.30891-.48419-.08811-.04358-.08814-.04454-.04454-.1317.08812-.1317.26437-.22079.30892-.21982.17625-.08813.21982-.04358h.08813l.22078.04358.08814.04454v.21983l-.08814.39605-.08812.21984-.13266.17624-.26437.35249-.57231.74856-.74857.92385-.26435.35249-.26438.26438-.13266.08811-.21983.13172-.22078.08812-.17626.04358h-.08813l-.04356-.04358.08812-.13266.04357-.08716.17626-.26437.35249-.4842.17626-.26437.13266-.17624.21981-.308Z"/><path class="cls-9" d="M170.63879,129.93841l.30893-.44063.2634-.48419.30891-.48419-.08811-.04358-.08814-.04454-.04454-.1317.08812-.1317.26437-.22079.30892-.21982.17625-.08813.21982-.04358h.08813l.22078.04358.08814.04454v.21983l-.08814.39605-.08812.21984-.13266.17624-.26437.35249-.57231.74856-.74857.92385-.26435.35249-.26438.26438-.13266.08811-.21983.13172-.22078.08812-.17626.04358h-.08813l-.04356-.04358.08812-.13266.04357-.08716.17626-.26437.35249-.4842.17626-.26437.13266-.17624.21981-.308"/><path class="cls-8" d="M173.98653,125.75594v.13267l-.08814.17625-.1317.17528-.17625.13266-.26436.17626-.17625.08813-.08814-.04455-.17625-.17625-.04358-.21983v-.17624l.04358-.1317.08813-.08813.17626-.08812.26435-.1317.21984-.04454h.17625l.13266.08812.04358.1317Z"/><path class="cls-9" d="M173.98653,125.75594v.13267l-.08814.17625-.1317.17528-.17625.13266-.26436.17626-.17625.08813-.08814-.04455-.17625-.17625-.04358-.21983v-.17624l.04358-.1317.08813-.08813.17626-.08812.26435-.1317.21984-.04454h.17625l.13266.08812.04358.1317"/><path class="cls-8" d="M160.55112,130.24636l-.44063.74857-.13266.26437-.04358.17624.21983-.08813.30892-.17624.04358.17624.08812.13171-.30794.21982-.30892.26437-.13169.04358-.26438.08812-.44061.08813-.13266-.04357-.08716-.08814v-.04454h-.04455l-.08812-.17528.04455-.08812.52777-.9684.30892-.52873.26436-.43965.17625-.26437.92482-1.10106.22078-.2634.43965-.57233.44061-.66043.44062-.61687.26437-.35153.04456-.04454-.04456-.1317v-.13267l.04456-.17528.17623-.35249.04358-.21983.04456-.22079-.04456-.308.26438-.17624.22078-.13171.21983-.08812.21983-.04358h.13266l.21984.04358h.04454v.04357l-.04454.2208-.21984.704-.13266.39608-.04358.17624-.08812.13171-.26437.30891-.1317.1317-.30891.39607-.17626.21983-.44062.705-.52874.74856-.308.43966-.705.92482-.48421.704Z"/><path class="cls-9" d="M160.55112,130.24636l-.44063.74857-.13266.26437-.04358.17624.21983-.08813.30892-.17624.04358.17624.08812.13171-.30794.21982-.30892.26437-.13169.04358-.26438.08812-.44061.08813-.13266-.04357-.08716-.08814v-.04454h-.04455l-.08812-.17528.04455-.08812.52777-.9684.30892-.52873.26436-.43965.17625-.26437.92482-1.10106.22078-.2634.43965-.57233.44061-.66043.44062-.61687.26437-.35153.04456-.04454-.04456-.1317v-.13267l.04456-.17528.17623-.35249.04358-.21983.04456-.22079-.04456-.308.26438-.17624.22078-.13171.21983-.08812.21983-.04358h.13266l.21984.04358h.04454v.04357l-.04454.2208-.21984.704-.13266.39608-.04358.17624-.08812.13171-.26437.30891-.1317.1317-.30891.39607-.17626.21983-.44062.705-.52874.74856-.308.43966-.705.92482-.48421.704"/><path class="cls-8" d="M159.71346,124.3479l.397-.48419.17625-.30891.1317-.21983.04456-.08813.1317-.08812.52874-.43965.39608-.26436.26435-.17625.30892-.04357.39607.04357-.08812.26436-.08813.3525-.1317.4842-.08814.30794-.04454.04358-.04358-.04358V123.335l-.04455-.21983-.04358-.04454-.13266-.04358-.17626.04358-.61589.66044-.61685.705-.705.79214-.30892.39607-.39607.44062-.08812.17528v.17624l.9248-.21982.88125-.17625.04454-.04358.17625.08813.04358.04357-.04358.13171-.13266.08812-.26436.08812-.705.26437-.61686.17625-.26341.08812-.397.04358-.39608.44061-.48516.57233-.3525.57231-.44061.704-.308.48419-.88123,1.1882-.705.83669-1.14464,1.717-.17626.08812h-.397l-.21983-.04358-.22078-.13266.08812-.1317.04456-.308.04358-.44063.30891.26438.1317.04358.08812.04454.705-.83669.61687-.83668,1.45355-2.06849,1.1456-1.62882.08814-.26437-.88124.1317-.44063.04454h-.08812l-.08812.04358-.39607-.04358-.44063-.08812-.08812-.13267-.04456-.13171.2208-.04357.17625-.04454.705-.08813,1.2773-.1317.30794-.08813.26437-.08813,1.05746-1.5407.66047-.704Z"/><path class="cls-9" d="M159.71346,124.3479l.397-.48419.17625-.30891.1317-.21983.04456-.08813.1317-.08812.52874-.43965.39608-.26436.26435-.17625.30892-.04357.39607.04357-.08812.26436-.08813.3525-.1317.4842-.08814.30794-.04454.04358-.04358-.04358V123.335l-.04455-.21983-.04358-.04454-.13266-.04358-.17626.04358-.61589.66044-.61685.705-.705.79214-.30892.39607-.39607.44062-.08812.17528v.17624l.9248-.21982.88125-.17625.04454-.04358.17625.08813.04358.04357-.04358.13171-.13266.08812-.26436.08812-.705.26437-.61686.17625-.26341.08812-.397.04358-.39608.44061-.48516.57233-.3525.57231-.44061.704-.308.48419-.88123,1.1882-.705.83669-1.14464,1.717-.17626.08812h-.397l-.21983-.04358-.22078-.13266.08812-.1317.04456-.308.04358-.44063.30891.26438.1317.04358.08812.04454.705-.83669.61687-.83668,1.45355-2.06849,1.1456-1.62882.08814-.26437-.88124.1317-.44063.04454h-.08812l-.08812.04358-.39607-.04358-.44063-.08812-.08812-.13267-.04456-.13171.2208-.04357.17625-.04454.705-.08813,1.2773-.1317.30794-.08813.26437-.08813,1.05746-1.5407.66047-.704"/><path class="cls-8" d="M121.65192,130.64243l-.1317.04454-.17625.08812-.22079.13172-.1317.17624-.08813-.26438v-.1317l.04358-.13267.17625-.17528.13266-.08812.08813-.08813h.17625l.35249-.08812.308-.08814.22078-.04454.4842-.48419.44062-.48419.88124-1.10009.26437-.35249.17624-.21983.08813-.08813h.1317l.17625-.04454.26437-.08715.08813-.04455h.21982l.04454.04455-.04454.1317-.1317.21983-.61687.66043-.66044.79215-.6614.705-.17625.13169-.13171.1317.04358.04454.04454-.04454h.21983l1.49809-.1317.74857-.04357.35249-.04454.17625-.04358.22078-.04454.04358.04454v.04358l-.04358.04454-.17624.13169-.08813.08814-.08813.08812-.26437.08813-.30891.04358-.704.13266-2.15951.26341-.66044.66044-.48419.61686-.35249.48419-.17625.4842v.08813h.21983l.08812-.08813v.17625l-.04358.1317-.08812.08813-.08813.08812-.26437.1317-.22079.04454-.21983.04358-.13266.04454-.1317-.04454-.08813-.04358-.08813-.13266-.04358-.17625v-.17528l.04358-.13266.04454-.17625.17528-.30794.48516-.57233.88124-1.1001.04357-.04454Z"/><path class="cls-9" d="M121.65192,130.64243l-.1317.04454-.17625.08812-.22079.13172-.1317.17624-.08813-.26438v-.1317l.04358-.13267.17625-.17528.13266-.08812.08813-.08813h.17625l.35249-.08812.308-.08814.22078-.04454.4842-.48419.44062-.48419.88124-1.10009.26437-.35249.17624-.21983.08813-.08813h.1317l.17625-.04454.26437-.08715.08813-.04455h.21982l.04454.04455-.04454.1317-.1317.21983-.61687.66043-.66044.79215-.6614.705-.17625.13169-.13171.1317.04358.04454.04454-.04454h.21983l1.49809-.1317.74857-.04357.35249-.04454.17625-.04358.22078-.04454.04358.04454v.04358l-.04358.04454-.17624.13169-.08813.08814-.08813.08812-.26437.08813-.30891.04358-.704.13266-2.15951.26341-.66044.66044-.48419.61686-.35249.48419-.17625.4842v.08813h.21983l.08812-.08813v.17625l-.04358.1317-.08812.08813-.08813.08812-.26437.1317-.22079.04454-.21983.04358-.13266.04454-.1317-.04454-.08813-.04358-.08813-.13266-.04358-.17625v-.17528l.04358-.13266.04454-.17625.17528-.30794.48516-.57233.88124-1.1001.04357-.04454"/><path class="cls-8" d="M167.99606,128.88191l.3525-.17626.43965-.17624h.08812l.04455.04454.04357.1317-.04357.308-.13266.39606-.17527.35249-.08814.17626-.08812.08812-.13267.13171-.08812.13266-.21984.39607-.17625.39608-.08812.08812-.08814.08813-.17625.1317-.04454.17624-.13171.35249-.22078.48419-.39608.704-.26435.44061-.21984.35152-.26436.44063-.35249.48419-.35249.35152-.26438.30892-.48516.35152-.79213.57233-.2208.13266-.26436.13171-.26437.04454-.17626.04358h-.705l-.48419-.08813-.52875-.17624-.48419-.21984-.13267-.08812-.04357-.08813-.04455-.08812-.1317-.1317-.2208-.308-.04358-.17624-.04454-.17625.04454-.21982.04358-.17626.13266-.17624.17626-.21981.08813-.08814.26436-.30794.1317-.04455.17625-.04357.08814-.04455.04454.04455-.08812.08812-.08814.08716-.08811.30892-.04456.35151v.2208l.08813.17528.13266.22079.17626.17624.21983.17528.26436.13267.30794.1317.26437.08812.30892.04456.26435.04356h.17626l.17625-.04356.17626-.08814.66044-.52873.3525-.308.30793-.39608.44063-.66043.705-1.18821.2208-.3525.2634-.35248.13267-.13171.04356-.13266.13268-.21983.26436-.57231.1317-.308.13267-.26437.04357-.30794.04455-.17625.04358-.17624v-.04358l-.1317.08812-.35249.17625-.26437.17624-.17626.1317-.21982.08813-.30893.08812-.21981.13172-.3525.17624-.30891.17625-.21984.1317-.17625.13266-.22079.08716-.57232.17624-.57232.17625h-.397l-.26435-.08813-.04358-.04357.1317-.22079.57328-.83573.17626-.30793.26436-.17626.17625-.13266.08716-.13171.13266-.17624.21983-.21982.22078-.22079.13172-.17528.17625-.2208.397-.61589.1317-.17625.08814-.08812.22079-.04358.21982-.08812.48419-.04455.08814.04455.04455.04357-.08813.17625-.21984.26437-.22078.308-.61686.74856-.30794.3525-.397.35151-.308.2208-.22078.26339-.17625.17626-.08716.17624-.04454.04358.04454.04454h.08716l.52875-.08812.35249-.08814.30891-.17624.1317-.08813.44062-.2634.57328-.26437.52777-.26438.52875-.308.13266-.13266.08812-.08813.21983-.21982.30892-.21982Z"/><path class="cls-9" d="M167.99606,128.88191l.3525-.17626.43965-.17624h.08812l.04455.04454.04357.1317-.04357.308-.13266.39606-.17527.35249-.08814.17626-.08812.08812-.13267.13171-.08812.13266-.21984.39607-.17625.39608-.08812.08812-.08814.08813-.17625.1317-.04454.17624-.13171.35249-.22078.48419-.39608.704-.26435.44061-.21984.35152-.26436.44063-.35249.48419-.35249.35152-.26438.30892-.48516.35152-.79213.57233-.2208.13266-.26436.13171-.26437.04454-.17626.04358h-.705l-.48419-.08813-.52875-.17624-.48419-.21984-.13267-.08812-.04357-.08813-.04455-.08812-.1317-.1317-.2208-.308-.04358-.17624-.04454-.17625.04454-.21982.04358-.17626.13266-.17624.17626-.21981.08813-.08814.26436-.30794.1317-.04455.17625-.04357.08814-.04455.04454.04455-.08812.08812-.08814.08716-.08811.30892-.04456.35151v.2208l.08813.17528.13266.22079.17626.17624.21983.17528.26436.13267.30794.1317.26437.08812.30892.04456.26435.04356h.17626l.17625-.04356.17626-.08814.66044-.52873.3525-.308.30793-.39608.44063-.66043.705-1.18821.2208-.3525.2634-.35248.13267-.13171.04356-.13266.13268-.21983.26436-.57231.1317-.308.13267-.26437.04357-.30794.04455-.17625.04358-.17624v-.04358l-.1317.08812-.35249.17625-.26437.17624-.17626.1317-.21982.08813-.30893.08812-.21981.13172-.3525.17624-.30891.17625-.21984.1317-.17625.13266-.22079.08716-.57232.17624-.57232.17625h-.397l-.26435-.08813-.04358-.04357.1317-.22079.57328-.83573.17626-.30793.26436-.17626.17625-.13266.08716-.13171.13266-.17624.21983-.21982.22078-.22079.13172-.17528.17625-.2208.397-.61589.1317-.17625.08814-.08812.22079-.04358.21982-.08812.48419-.04455.08814.04455.04455.04357-.08813.17625-.21984.26437-.22078.308-.61686.74856-.30794.3525-.397.35151-.308.2208-.22078.26339-.17625.17626-.08716.17624-.04454.04358.04454.04454h.08716l.52875-.08812.35249-.08814.30891-.17624.1317-.08813.44062-.2634.57328-.26437.52777-.26438.52875-.308.13266-.13266.08812-.08813.21983-.21982.30892-.21982"/><path class="cls-8" d="M147.15829,132.3158l-.26435.17624-.35154.17528-.30891.08814-.61687.04454h-.66044l-.705-.13268-.66047-.17528-.17623-.04454-.04456-.04358-.04358-.04454.04358-.08812.13266-.04358.17625-.08813.21984-.04454.13266-.08812.26436-.13171h.08813l.08714.04455.04456.1317.30794.08812.44062.08813.397.08812.39607.04358h.2208l.08811-.04358v-.13266l-.04455-.08813-.08812-.17528-.1317-.22079-.17625-.21982-.08814-.21982-.04454-.17624v-.17625l.04454-.1317.08814-.17626.21981-.26437.08814-.1317.13266-.13266.21983-.13171.48419-.21982.52875-.22079.48517-.17624.52875-.08716h.44061l.2634.04358.17625.04358.08814.08812v.08813l-.04358.08812-.08812.08814-.21983.21981-.39705.26438-.44062.30795-.44061.22078h-.21982l-.04455-.04454.22079-.17624.39606-.26341.22079-.22078.04358-.08814v-.08714l-.04358-.04455-.08812-.04357-.13267-.04455-.30794.04455-.22078.04357-.308.08813-.22078.08812-.1317.08813-.13267.1317-.08812.13268-.1317.1317-.08814.26437v.2634l.08814.13267.1317.1317.08812.13268.04455.08812.08812.13171.13171.21982v.44061l-.08813.08814Z"/><path class="cls-9" d="M147.15829,132.3158l-.26435.17624-.35154.17528-.30891.08814-.61687.04454h-.66044l-.705-.13268-.66047-.17528-.17623-.04454-.04456-.04358-.04358-.04454.04358-.08812.13266-.04358.17625-.08813.21984-.04454.13266-.08812.26436-.13171h.08813l.08714.04455.04456.1317.30794.08812.44062.08813.397.08812.39607.04358h.2208l.08811-.04358v-.13266l-.04455-.08813-.08812-.17528-.1317-.22079-.17625-.21982-.08814-.21982-.04454-.17624v-.17625l.04454-.1317.08814-.17626.21981-.26437.08814-.1317.13266-.13266.21983-.13171.48419-.21982.52875-.22079.48517-.17624.52875-.08716h.44061l.2634.04358.17625.04358.08814.08812v.08813l-.04358.08812-.08812.08814-.21983.21981-.39705.26438-.44062.30795-.44061.22078h-.21982l-.04455-.04454.22079-.17624.39606-.26341.22079-.22078.04358-.08814v-.08714l-.04358-.04455-.08812-.04357-.13267-.04455-.30794.04455-.22078.04357-.308.08813-.22078.08812-.1317.08813-.13267.1317-.08812.13268-.1317.1317-.08814.26437v.2634l.08814.13267.1317.1317.08812.13268.04455.08812.08812.13171.13171.21982v.44061l-.08813.08814"/><path class="cls-8" d="M127.59879,131.21475l-.57232.705-.21982.2634-.04455.17625.26437-.08813.30892-.1317v.1317l.08716.13267-.308.21982-.35249.21982-.17625.08813-.26436.04455-.4842.04357-.13267-.04357-.04358-.08814v-.04454h-.04454l-.04357-.17624.04357-.08813.66141-.92385.39606-.48419.39705-.44061.17625-.26438,1.10106-1.012.26437-.26437.52873-.52777.57233-.61687.52873-.57232.308-.35152.04454-.04454v-.17625l.04358-.13171.04454-.1317.21981-.30892.08814-.21982.08812-.21982v-.30795l.30891-.2208.21982-.08812.22079-.08813h.4842l.08813.04455h.04357v.04358l-.04357.2208-.35249.704-.21984.39607-.08811.13171-.08812.13266-.30893.26438-.17624.17527-.3525.3525-.17623.21982-.57233.66044-.66045.74857-.397.39605-.83669.88027-.57328.66044Z"/><path class="cls-9" d="M127.59879,131.21475l-.57232.705-.21982.2634-.04455.17625.26437-.08813.30892-.1317v.1317l.08716.13267-.308.21982-.35249.21982-.17625.08813-.26436.04455-.4842.04357-.13267-.04357-.04358-.08814v-.04454h-.04454l-.04357-.17624.04357-.08813.66141-.92385.39606-.48419.39705-.44061.17625-.26438,1.10106-1.012.26437-.26437.52873-.52777.57233-.61687.52873-.57232.308-.35152.04454-.04454v-.17625l.04358-.13171.04454-.1317.21981-.30892.08814-.21982.08812-.21982v-.30795l.30891-.2208.21982-.08812.22079-.08813h.4842l.08813.04455h.04357v.04358l-.04357.2208-.35249.704-.21984.39607-.08811.13171-.08812.13266-.30893.26438-.17624.17527-.3525.3525-.17623.21982-.57233.66044-.66045.74857-.397.39605-.83669.88027-.57328.66044"/><path class="cls-8" d="M129.53751,132.53562l.35249-.39607.08812-.08812.1317-.1317.13267-.08813.308-.3525.397-.48419.44063-.61589.1317-.22079.08812-.21982-.57232.1317-.17625.13267-.17624.1317-.13267.08812-.1317.13171-.397.22078-.35152.26342-1.36639.83668-1.54169.96839-.17625.04454H125.969l-.04357-.04454.17624-.26438.08813-.08714.26437-.17626.705-.39605,1.10106-.61687.26437-.21982.1317-.04455.13268-.04357.08812-.04455.17625-.17528.35248-.17624.308-.17625.17625-.08812.08812-.04358.1317-.08812.13268-.17626.1317-.08812.35249-.13169.66141-.3525.48419-.21983.17625-.08812.17624-.04454.21982.04454.2208.08812.08811.04358v.04358l-.04454.13267-.13169.21982-.30892.39607-.57233.83669-.39605.704-.13268.22079-.21982.39606-.26437.43965-.44063.61687-.13266.04358-.17625.04454h-.21983l-.1317-.04454-.08814-.04358-.04454-.08812-.08812-.17626-.04358-.13169.04358-.04454Z"/><path class="cls-9" d="M129.53751,132.53562l.35249-.39607.08812-.08812.1317-.1317.13267-.08813.308-.3525.397-.48419.44063-.61589.1317-.22079.08812-.21982-.57232.1317-.17625.13267-.17624.1317-.13267.08812-.1317.13171-.397.22078-.35152.26342-1.36639.83668-1.54169.96839-.17625.04454H125.969l-.04357-.04454.17624-.26438.08813-.08714.26437-.17626.705-.39605,1.10106-.61687.26437-.21982.1317-.04455.13268-.04357.08812-.04455.17625-.17528.35248-.17624.308-.17625.17625-.08812.08812-.04358.1317-.08812.13268-.17626.1317-.08812.35249-.13169.66141-.3525.48419-.21983.17625-.08812.17624-.04454.21982.04454.2208.08812.08811.04358v.04358l-.04454.13267-.13169.21982-.30892.39607-.57233.83669-.39605.704-.13268.22079-.21982.39606-.26437.43965-.44063.61687-.13266.04358-.17625.04454h-.21983l-.1317-.04454-.08814-.04358-.04454-.08812-.08812-.17626-.04358-.13169.04358-.04454.17624-.308"/><path class="cls-8" d="M140.7708,129.89387l-.1317.04454-.17626.08812-.22079.13171-.1317.17624-.08812-.26437.04358-.1317.04454-.08814.1317-.21981.13268-.08812.13169-.08814h.13266l.3525-.08812.30793-.08813.2208-.04358.52777-.48419.397-.48516.88124-1.10009.26438-.35249.17624-.21983.08813-.04357.1317-.04455.17626-.04357.26437-.08812.08812-.04455h.21983l.04454.08812-.04454.08812-.13171.21983-.61685.66044-.66045.7931-.66141.704-.17625.1317-.1317.13267.04358.04357.04454-.04357h.21983l1.54265-.13267.74855-.04358.30795-.04454.22078-.04358.17626-.04454.04358.04454v.04358l-.04358.04454-.17626.1317-.08812.08813-.08813.08812-.26436.08814-.30891.04356-.704.13268-2.15854.26437-.6614.65947-.4842.61687-.30893.48419-.21981.52777.04357.04454h.17624l.08814-.08812.04455.04358v.04454l-.04455.08812-.04358.13171-.04456.08812-.13169.08812-.26436.13172-.2208.04454-.21983.04358-.1317.04454h-.08812l-.08813-.08814-.13266-.13266-.04358-.17528v-.17625l.04358-.08812.04455-.21982.17626-.30893.48419-.57231.9248-1.1001v-.04454Z"/><path class="cls-9" d="M140.7708,129.89387l-.1317.04454-.17626.08812-.22079.13171-.1317.17624-.08812-.26437.04358-.1317.04454-.08814.1317-.21981.13268-.08812.13169-.08814h.13266l.3525-.08812.30793-.08813.2208-.04358.52777-.48419.397-.48516.88124-1.10009.26438-.35249.17624-.21983.08813-.04357.1317-.04455.17626-.04357.26437-.08812.08812-.04455h.21983l.04454.08812-.04454.08812-.13171.21983-.61685.66044-.66045.7931-.66141.704-.17625.1317-.1317.13267.04358.04357.04454-.04357h.21983l1.54265-.13267.74855-.04358.30795-.04454.22078-.04358.17626-.04454.04358.04454v.04358l-.04358.04454-.17626.1317-.08812.08813-.08813.08812-.26436.08814-.30891.04356-.704.13268-2.15854.26437-.6614.65947-.4842.61687-.30893.48419-.21981.52777.04357.04454h.17624l.08814-.08812.04455.04358v.04454l-.04455.08812-.04358.13171-.04456.08812-.13169.08812-.26436.13172-.2208.04454-.21983.04358-.1317.04454h-.08812l-.08813-.08814-.13266-.13266-.04358-.17528v-.17625l.04358-.08812.04455-.21982.17626-.30893.48419-.57231.9248-1.1001v-.04454"/><path class="cls-8" d="M146.76224,126.24014l-.26438.22079-.39605.26341-.3525.17624-.83766.30795-.26437.08812v-.04357l.04455-.04454.26436-.308.3525-.35152.57232-.39705.26436-.1317.30891-.08812.3525-.08812h.21983l.04358.04454v.04358l-.08813.13267-.21982.17527Z"/><path class="cls-9" d="M146.76224,126.24014l-.26438.22079-.39605.26341-.3525.17624-.83766.30795-.26437.08812v-.04357l.04455-.04454.26436-.308.3525-.35152.57232-.39705.26436-.1317.30891-.08812.3525-.08812h.21983l.04358.04454v.04358l-.08813.13267-.21982.17527"/><path class="cls-8" d="M184.8683,127.38477l-.04455-.13171-.08812-.04454-.13172-.04358-.17625-.04357-.22078.04357-.48419.13171-.66045.13266-.17625.08813-.13268.08813-.26436.17528-.1317.17624V127.869l-.04455-.1317-.04358-.04358-.04454.04358-.17626.04357-.35249.04455-.17625.08812-.17626.08813-.30793.2634-.2208.13267-.1317.17624-.1317.21984-.13267.21981-.08812.22078-.08814.17528-.35247.8367-.21984.52873-.04455.21982v.04358l.04455.04454.04358.08814.17626.04356.22078-.04356.35249-.04456.17625-.08812.1317-.08813.17626-.04357.21983-.08813.30891-.21982.1317-.08814.2208-.04454.21983-.04357.08812-.08812.44061-.308.39705-.26437.26341-.17624.44062-.35153.26435-.22078.17626-.1317.17625-.13171.13266-.26438.21984-.35248.17625-.39607.04456-.17624v-.17625Zm-.88124.79311-.08812.17528-.39705.52873-.17625.1317-.1317.08813-.26437.13266-.52874.35154-.52874.35249-.3525.26437-.26437.08812-.21982.08814-.26437.08714h-.26436l.04454-.08714.04358-.04456.26437-.44061.35249-.43965.17626-.308.26436-.39605.26436-.26438.13171-.08813.13266-.08812.17625-.04454h.17626l.21982-.04358.08813-.1317.04456-.04454.08812-.13171.13169-.04454.61687-.08813h.1317l.08812.04455.04456.04357.04357.13267-.04357.17625Z"/><path class="cls-9" d="M184.8683,127.38477l-.04455-.13171-.08812-.04454-.13172-.04358-.17625-.04357-.22078.04357-.48419.13171-.66045.13266-.17625.08813-.13268.08813-.26436.17528-.1317.17624V127.869l-.04455-.1317-.04358-.04358-.04454.04358-.17626.04357-.35249.04455-.17625.08812-.17626.08813-.30793.2634-.2208.13267-.1317.17624-.1317.21984-.13267.21981-.08812.22078-.08814.17528-.35247.8367-.21984.52873-.04455.21982v.04358l.04455.04454.04358.08814.17626.04356.22078-.04356.35249-.04456.17625-.08812.1317-.08813.17626-.04357.21983-.08813.30891-.21982.1317-.08814.2208-.04454.21983-.04357.08812-.08812.44061-.308.39705-.26437.26341-.17624.44062-.35153.26435-.22078.17626-.1317.17625-.13171.13266-.26438.21984-.35248.17625-.39607.04456-.17624v-.17625Zm-.88124.79311-.08812.17528-.39705.52873-.17625.1317-.1317.08813-.26437.13266-.52874.35154-.52874.35249-.3525.26437-.26437.08812-.21982.08814-.26437.08714h-.26436l.04454-.08714.04358-.04456.26437-.44061.35249-.43965.17626-.308.26436-.39605.26436-.26438.13171-.08813.13266-.08812.17625-.04454h.17626l.21982-.04358.08813-.1317.04456-.04454.08812-.13171.13169-.04454.61687-.08813h.1317l.08812.04455.04456.04357.04357.13267-.04357.17625Z"/><path class="cls-8" d="M184.8683,127.38477h.08812l.04358.04454v.43965l-.1317.39606-.17625.3525-.2208.26437-.08812.1317-.08813.13267-.21982.39608-.17625.35151-.08814.13268-.08812.08812-.17625.13171-.04456.17624-.1317.35249-.21983.4842-.39705.66044-.26436.48419-.21983.35152-.26436.44063-.39705.48419-.30794.35249-.30891.30794-.43964.35153-.79312.52874-.26436.17625-.26437.08812-.22078.08813-.17625.04357h-.74854l-.44061-.08812-.57233-.17626-.44061-.21981-.13266-.08812-.08814-.08814v-.08812l-.13169-.17625-.2208-.2634-.04358-.17625-.04454-.17624v-.21982l.08812-.17625.13266-.21982.17625-.17624.08814-.13268.26436-.26341.08813-.04454.21982-.08812h.13268l-.13268.13266-.08812.08814-.08812.308v.57231l.08812.17625.08812.21982.44063.3525.26436.13169.30891.1317.26438.08814.30793.04454h.26436l.08814.04358h.08812l.17625-.04358.17625-.08814.66045-.52873.35249-.30795.30892-.39606.43965-.66045.705-1.1882.22078-.39607.26437-.30891.1317-.1317.04455-.13172.1317-.26437.26436-.52873.13268-.308.08812-.26437.08715-.30794.04454-.17625.04358-.17624-.04358-.04358-.08812.08814Z"/><path class="cls-9" d="M184.8683,127.38477h.08812l.04358.04454v.43965l-.1317.39606-.17625.3525-.2208.26437-.08812.1317-.08813.13267-.21982.39608-.17625.35151-.08814.13268-.08812.08812-.17625.13171-.04456.17624-.1317.35249-.21983.4842-.39705.66044-.26436.48419-.21983.35152-.26436.44063-.39705.48419-.30794.35249-.30891.30794-.43964.35153-.79312.52874-.26436.17625-.26437.08812-.22078.08813-.17625.04357h-.74854l-.44061-.08812-.57233-.17626-.44061-.21981-.13266-.08812-.08814-.08814v-.08812l-.13169-.17625-.2208-.2634-.04358-.17625-.04454-.17624v-.21982l.08812-.17625.13266-.21982.17625-.17624.08814-.13268.26436-.26341.08813-.04454.21982-.08812h.13268l-.13268.13266-.08812.08814-.08812.308v.57231l.08812.17625.08812.21982.44063.3525.26436.13169.30891.1317.26438.08814.30793.04454h.26436l.08814.04358h.08812l.17625-.04358.17625-.08814.66045-.52873.35249-.30795.30892-.39606.43965-.66045.705-1.1882.22078-.39607.26437-.30891.1317-.1317.04455-.13172.1317-.26437.26436-.52873.13268-.308.08812-.26437.08715-.30794.04454-.17625.04358-.17624-.04358-.04358-.08812.08814"/><path class="cls-8" d="M137.55478,130.02653l.17625-.04454h.48517l.08814.04454h.04358l-.13172.26437-.26436.48419-.22079.39608-.21982.308-.35249.39606-.1317.13171-.08814.13266-.08812.26437-.13267.26342v.17624l.04455.08813.1317.04454-.26436.2634-.26437.08813-.30794.13266-.35249.04358h-.08812l-.04455-.04358.04455-.22078.1317-.30795.13266-.26437.21983-.39606v-.04358l.08814-.17625.08812-.17624.13266-.26438,1.14463-1.58429Z"/><path class="cls-9" d="M137.55478,130.02653l.17625-.04454h.48517l.08814.04454h.04358l-.13172.26437-.26436.48419-.22079.39608-.21982.308-.35249.39606-.1317.13171-.08814.13266-.08812.26437-.13267.26342v.17624l.04455.08813.1317.04454-.26436.2634-.26437.08813-.30794.13266-.35249.04358h-.08812l-.04455-.04358.04455-.22078.1317-.30795.13266-.26437.21983-.39606v-.04358l.08814-.17625.08812-.17624.13266-.26438"/><path class="cls-8" d="M138.30432,129.278l-.13266-.04358-.17625-.04454-.21984.04454-.48516.08716-.704.13268-.17625.04356-.13266.04456-.26436.21981-.17626.1317V129.674l-.04358-.04358-.04455.04358h-.17626l-.39605.04454-.17626.08813-.17625.08714-.35249.2208-.21982.1317-.17624.17624-.13268.21983-.17624.17624-.13171.26437-.08812.1317-.48517.79214-.30794.52875-.08813.21982.04358.04454v.04358l.04454.08812.17625.04454h.21982l.30892-.04454.21981-.04358L133.811,132.8l.17624-.04454.26437-.08813.308-.17528.17624-.08812.21984-.04454.22079-.04358.1317-.04454.44061-.308.44063-.21982.26436-.17626.48517-.30793.30794-.17626.21983-.13267.17625-.17528.17626-.22078.26436-.35153.26437-.3525.04454-.17623.04358-.17626-.04358-.1317-.08812-.08812Zm-.88124.92482-.08812.21982-.48419.44061-.17626.13172-.13267.08812-.30794.1317-.61685.30795-.52875.35249-.44061.17624-.21982.13171-.22079.04454-.308.08812h-.26437v-.04454l.04358-.08812.04454-.04357.35249-.39608.39608-.44061.21981-.26437.30892-.39608.30794-.21981.13266-.08814.17625-.08812.35249-.04358.21984-.04454.13266-.08812.04358-.08813.08811-.08812.13266-.04358.26438-.04358h.35153l.13266.04358h.08812l.04358.08812v.08813l-.04358.17624Z"/><path class="cls-9" d="M138.30432,129.278l-.13266-.04358-.17625-.04454-.21984.04454-.48516.08716-.704.13268-.17625.04356-.13266.04456-.26436.21981-.17626.1317V129.674l-.04358-.04358-.04455.04358h-.17626l-.39605.04454-.17626.08813-.17625.08714-.35249.2208-.21982.1317-.17624.17624-.13268.21983-.17624.17624-.13171.26437-.08812.1317-.48517.79214-.30794.52875-.08813.21982.04358.04454v.04358l.04454.08812.17625.04454h.21982l.30892-.04454.21981-.04358L133.811,132.8l.17624-.04454.26437-.08813.308-.17528.17624-.08812.21984-.04454.22079-.04358.1317-.04454.44061-.308.44063-.21982.26436-.17626.48517-.30793.30794-.17626.21983-.13267.17625-.17528.17626-.22078.26436-.35153.26437-.3525.04454-.17623.04358-.17626-.04358-.1317-.08812-.08812Zm-.88124.92482-.08812.21982-.48419.44061-.17626.13172-.13267.08812-.30794.1317-.61685.30795-.52875.35249-.44061.17624-.21982.13171-.22079.04454-.308.08812h-.26437v-.04454l.04358-.08812.04454-.04357.35249-.39608.39608-.44061.21981-.26437.30892-.39608.30794-.21981.13266-.08814.17625-.08812.35249-.04358.21984-.04454.13266-.08812.04358-.08813.08811-.08812.13266-.04358.26438-.04358h.35153l.13266.04358h.08812l.04358.08812v.08813l-.04358.17624Z"/><path class="cls-8" d="M112.53358,132.93169v.1317l-.04455.2208-.1317.1317-.22079.17625-.26437.1317-.13171.08812-.13266-.04356-.13171-.17626-.08813-.21982v-.13267l.04358-.1317.08813-.1317.17625-.08813.26437-.13266.26437-.04358.17624.04358.08813.04454Z"/><path class="cls-9" d="M112.53358,132.93169v.1317l-.04455.2208-.1317.1317-.22079.17625-.26437.1317-.13171.08812-.13266-.04356-.13171-.17626-.08813-.21982v-.13267l.04358-.1317.08813-.1317.17625-.08813.26437-.13266.26437-.04358.17624.04358.08813.04454.04455.13169"/><path class="cls-8" d="M115.08818,132.88812v.13171l-.08813.17624-.1317.17625-.17624.1317-.26438.17624-.17624.08814-.08813-.04456-.17625-.17528-.04454-.22078v-.17625l.04454-.1317.08813-.08812.17625-.08813.26437-.1317.21983-.04454h.17624l.13267.08812Z"/><path class="cls-9" d="M115.08818,132.88812v.13171l-.08813.17624-.1317.17625-.17624.1317-.26438.17624-.17624.08814-.08813-.04456-.17625-.17528-.04454-.22078v-.17625l.04454-.1317.08813-.08812.17625-.08813.26437-.1317.21983-.04454h.17624l.13267.08812.04357.13267"/><path class="cls-8" d="M117.59921,132.71186v.17626l-.04357.17527-.13267.17624-.21982.13268-.26438.17624-.13266.08715-.13171-.04357-.13267-.21982-.08812-.17624v-.17626l.04454-.13169.08813-.08814.17624-.13266.26437-.08813.26438-.04357h.17624l.08813.08812Z"/><path class="cls-9" d="M117.59921,132.71186v.17626l-.04357.17527-.13267.17624-.21982.13268-.26438.17624-.13266.08715-.13171-.04357-.13267-.21982-.08812-.17624v-.17626l.04454-.13169.08813-.08814.17624-.13266.26437-.08813.26438-.04357h.17624l.08813.08812.04357.08812"/></svg>