<?xml version="1.0" standalone="no"?><!-- Generator: Gravit.io --><svg xmlns="http://www.w3.org/2000/svg" xmlns:xlink="http://www.w3.org/1999/xlink" style="isolation:isolate" viewBox="0 0 196.99 55.248" width="196.99" height="55.248"><g style="isolation:isolate"><path d=" M 144.725767 24.790641 Q 151.403989 25.041404 161.112394 29.195701 C 170.820798 33.349998 186.746061 40.496879 192.878919 43.981467 C 197.009489 46.328376 195.284376 49.073539 194.128126 50.011039 C 193.242216 50.729346 191.879819 51.000464 191.220319 51.214576 C 189.2003 51.870429 174.758543 53.352653 172.08267 53.431342 C 169.406812 53.510047 155.349165 53.747504 151.669447 53.747504 Q 147.989728 53.747504 119.565626 53.524879 L 109.003126 53.274879 Q 98.767179 52.714164 96.700483 52.462119 Q 94.633787 52.21009 61.138258 48.404349 L 27.743543 44.396979 Q 13.296819 42.385688 12.09213 41.901832 Q 11.120481 41.511573 9.622182 40.238395 Q 6.597757 39.431876 6.093683 39.381476 Q 5.589613 39.331061 15.469411 38.574958 Q 18.017965 38.356742 19.927137 38.567527 C 21.085584 38.695426 22.094656 38.832313 22.879255 39.280662 Q 25.349203 40.692054 9.94885 40.224784 Q 9.609984 39.330928 9.45133 38.838111 C 9.160908 37.935993 8.982664 37.030387 8.781805 36.226951 Q 8.57356 35.393973 7.690366 31.613563 Q 6.153711 25.420371 5.734624 23.744025 C 5.315534 22.067664 5.78119 22.067664 6.153711 21.788276 Q 6.526235 21.508887 6.339975 21.066505 Q 2.428484 6.165595 1.776571 3.930465 Q 1.124654 1.695327 2.009397 1.555625 L 11.680891 1.500495 Q 14.45014 1.458526 17.189085 4.974975 Q 19.92803 8.491431 33.76431 24.509589 Q 43.166708 33.125342 51.587186 32.716361 C 54.26769 32.586158 57.197576 32.355674 61.045545 32.039558 Q 67.032476 31.547721 75.231123 30.785483 L 96.461378 26.938544 Q 97.244794 26.506324 97.622983 26.04708 C 98.001188 25.587836 100.45947 25.209647 100.864683 25.128593 Q 101.269895 25.047553 108.428663 23.669837 Q 109.347135 23.129554 109.185056 22.157035 Q 109.022962 21.184531 106.510541 10.292518 Q 106.543348 9.712874 107.658903 9.701934 C 108.774442 9.691001 111.306654 9.058028 112.502775 11.350608 Q 113.698911 13.643195 115.323438 17.282691 Q 117.807035 21.817328 123.010908 21.953681 L 136.323682 22.601081 Q 137.381681 6.257407 137.631223 7.654868 L 138.083204 22.797675 Q 139.823621 23.103263 141.323469 23.635474 C 142.864439 24.182273 144.554548 24.927909 144.604261 25.226157 C 144.627805 25.367469 142.846113 26.60369 141.738966 27.072089 Q 140.276655 27.690757 137.970716 28.02822 L 137.802 35.395972 Q 137.445707 42.298759 137.440626 42.712379 Q 137.420667 44.338355 136.815626 35.649879 L 136.342161 27.689384 L 136.273923 28.410758 Q 134.126691 33.727637 131.870557 34.067267 C 129.614408 34.406898 125.383051 34.34777 121.887983 33.997016 C 116.285119 33.43473 108.055707 30.458945 106.413709 30.060889 Q 104.771711 29.662818 97.188947 26.730033 Q 113.308195 28.679603 118.154279 28.312476 C 123.000364 27.94535 126.451353 27.504798 127.993299 27.064246 C 129.53523 26.623679 129.314954 24.127219 129.241529 23.319541 Q 129.168104 22.511863 123.245222 21.965278" fill="rgb(255,255,255)" vector-effect="non-scaling-stroke" stroke-width="1" stroke="rgb(0,0,0)" stroke-linejoin="miter" stroke-linecap="square" stroke-miterlimit="3"/><path d=" M 151.160261 26.149161 Q 150.442319 27.892737 152.544858 31.584998 Q 154.647398 35.277259 154.749967 35.379828 Q 156.852506 38.456718 161.313993 37.123405 Q 165.77548 35.790076 170.801069 33.892661" fill="none" vector-effect="non-scaling-stroke" stroke-width="1" stroke="rgb(0,0,0)" stroke-linejoin="miter" stroke-linecap="square" stroke-miterlimit="3"/><path d=" M 112.190626 46.931129 Q 114.97999 46.820389 120.128126 47.118629 Q 122.014926 47.483733 122.190626 48.431129 Q 122.434613 49.746736 119.710264 50.181388 L 116.544858 50.2835 Q 109.283094 50.283729 105.517301 49.685462 C 103.729581 49.40145 99.924345 48.717917 101.687849 48.241294 C 104.000349 47.616294 108.470278 47.078829 112.190626 46.931129 Z " fill="rgb(255,255,255)" vector-effect="non-scaling-stroke" stroke-width="1" stroke="rgb(0,0,0)" stroke-linejoin="miter" stroke-linecap="square" stroke-miterlimit="3"/></g><path d=" M 2.065332 4.17076 Q 6.409376 3.868629 7.333814 4.074973 C 7.720174 4.161208 10.595663 11.700957 13.409376 19.118629 C 16.223089 26.536292 18.975034 33.831885 18.589208 33.913749 Q 17.034376 34.243629 11.284376 34.743629 L 8.781805 34.954856" fill="none" vector-effect="non-scaling-stroke" stroke-width="1" stroke="rgb(0,0,0)" stroke-linejoin="miter" stroke-linecap="square" stroke-miterlimit="3"/></svg>