<?xml version="1.0" encoding="utf-8"?>
<!-- Generator: Adobe Illustrator 23.0.2, SVG Export Plug-In . SVG Version: 6.00 Build 0)  -->
<svg version="1.1" id="Vrstva_1" xmlns="http://www.w3.org/2000/svg" xmlns:xlink="http://www.w3.org/1999/xlink" x="0px" y="0px"
	 viewBox="0 0 24 24" style="enable-background:new 0 0 24 24;" xml:space="preserve">
<style type="text/css">
	.st0{fill:#FFFFFF;}
</style>
<path class="st0" d="M7,2h10c1.1,0,2,0.9,2,2v16c0,1.1-0.9,2-2,2H7c-1.1,0-2-0.9-2-2V4C5,2.9,5.9,2,7,2 M7,4v4h10V4H7 M7,10v2h2v-2
	H7 M11,10v2h2v-2H11 M15,10v2h2v-2H15 M7,14v2h2v-2H7 M11,14v2h2v-2H11 M15,14v2h2v-2H15 M7,18v2h2v-2H7 M11,18v2h2v-2H11 M15,18v2
	h2v-2H15z"/>
</svg>
