<?xml version="1.0" encoding="utf-8"?>
<!-- Generator: Adobe Illustrator 23.0.2, SVG Export Plug-In . SVG Version: 6.00 Build 0)  -->
<svg version="1.1" id="Vrstva_1" xmlns="http://www.w3.org/2000/svg" xmlns:xlink="http://www.w3.org/1999/xlink" x="0px" y="0px"
	 viewBox="0 0 210 210" style="enable-background:new 0 0 210 210;" xml:space="preserve">
<style type="text/css">
	.st0{fill:#063761;}
	.st1{fill:#FFFFFF;}
	.st2{fill:#FFFFFF;stroke:#000000;stroke-width:0.25;stroke-linecap:square;stroke-miterlimit:3;}
	.st3{fill:none;stroke:#000000;stroke-width:0.25;stroke-linecap:square;stroke-miterlimit:3;}
	
		.st4{fill-rule:evenodd;clip-rule:evenodd;fill:#6B737A;stroke:#6B737A;stroke-width:0.1;stroke-linecap:square;stroke-miterlimit:3;}
	
		.st5{fill-rule:evenodd;clip-rule:evenodd;fill:#E32219;stroke:#E32219;stroke-width:0.1;stroke-linecap:square;stroke-miterlimit:3;}
	.st6{fill:#E32219;stroke:#E32219;stroke-width:0.1;stroke-linecap:square;stroke-miterlimit:3;}
	
		.st7{fill-rule:evenodd;clip-rule:evenodd;fill:#004B94;stroke:#004B94;stroke-width:0.1;stroke-linecap:square;stroke-miterlimit:3;}
	.st8{fill:#004B94;stroke:#004B94;stroke-width:0.1;stroke-linecap:square;stroke-miterlimit:3;}
	.st9{fill:#6B737A;stroke:#6B737A;stroke-width:0.1;stroke-linecap:square;stroke-miterlimit:3;}
	.st10{fill:#FFFFFF;stroke:#FFFFFF;stroke-width:0.1;stroke-linecap:square;stroke-miterlimit:3;}
	.st11{fill:#FFFFFF;stroke:#E32219;stroke-width:0.1;stroke-linecap:square;stroke-miterlimit:3;}
</style>
<g>
	<circle vector-effect="non-scaling-stroke" class="st0" cx="105" cy="105" r="105"/>
</g>
<g>
	<path class="st1" d="M53.2,147.2l-0.7,0c-12.5-0.2-22.6-10.5-22.5-23c0-9.4,5.7-17.9,14.5-21.4l1.4-0.6l-0.2-1.5
		c-0.2-1.1-0.3-2.3-0.3-3.4c0-12.7,10.3-23.1,23.1-23.1c2,0,4,0.3,6,0.8l1.9,0.5l0.4-2C79.8,60.3,91.5,50.9,105,51
		c10.4,0,20,5.6,25.1,14.7l0.6,1.1l1.3-0.2c1.2-0.2,2.5-0.3,3.7-0.3c14.6,0,26.9,10.9,28.6,25.4l0.1,1l0.8,0.5
		c9,5.1,14.6,14.7,14.7,25.1c0,15.9-12.9,28.8-28.8,28.8L53.2,147.2L53.2,147.2z"/>
</g>
<g>
	<path vector-effect="non-scaling-stroke" class="st2" d="M152.7,99.4c4.5,0.2,9.9,1.6,16.4,4.4c9.7,4.2,25.6,11.3,31.8,14.8
		c4.1,2.3,2.4,5.1,1.2,6c-0.9,0.7-2.2,1-2.9,1.2c-2,0.7-16.5,2.1-19.1,2.2c-2.7,0.1-16.7,0.3-20.4,0.3c-2.5,0-13.2-0.1-32.1-0.2
		l-10.6-0.3c-6.8-0.4-10.9-0.6-12.3-0.8c-1.4-0.2-13.2-1.5-35.6-4.1l-33.4-4c-9.6-1.3-14.8-2.2-15.7-2.5c-0.6-0.3-1.5-0.8-2.5-1.7
		c-2-0.5-3.2-0.8-3.5-0.9c-0.3,0,2.8-0.3,9.4-0.8c1.7-0.1,3.2-0.1,4.5,0c1.2,0.1,2.2,0.3,3,0.7c1.6,0.9-2.7,1.3-12.9,0.9
		c-0.2-0.6-0.4-1.1-0.5-1.4c-0.3-0.9-0.5-1.8-0.7-2.6c-0.1-0.6-0.5-2.1-1.1-4.6c-1-4.1-1.7-6.8-2-7.9c-0.4-1.7,0-1.7,0.4-2
		c0.2-0.2,0.3-0.4,0.2-0.7c-2.6-9.9-4.1-15.6-4.6-17.1c-0.4-1.5-0.4-2.3,0.2-2.4l9.7-0.1c1.8,0,3.7,1.1,5.5,3.5
		c1.8,2.3,7.4,8.9,16.6,19.5c6.3,5.7,12.2,8.5,17.8,8.2c2.7-0.1,5.6-0.4,9.5-0.7c4-0.3,8.7-0.7,14.2-1.3l21.2-3.8
		c0.5-0.3,0.9-0.6,1.2-0.9c0.4-0.5,2.8-0.8,3.2-0.9c0.3-0.1,2.8-0.5,7.6-1.5c0.6-0.4,0.9-0.9,0.8-1.5c-0.1-0.6-1-4.6-2.7-11.9
		c0-0.4,0.4-0.6,1.1-0.6c1.1,0,3.6-0.6,4.8,1.6c0.8,1.5,1.7,3.5,2.8,5.9c1.7,3,4.2,4.6,7.7,4.7l13.3,0.6c0.7-10.9,1.1-15.9,1.3-14.9
		l0.5,15.1c1.2,0.2,2.2,0.5,3.2,0.8c1.5,0.5,3.2,1.3,3.3,1.6c0,0.1-1.8,1.4-2.9,1.8c-1,0.4-2.2,0.7-3.8,1l-0.2,7.4
		c-0.2,4.6-0.4,7-0.4,7.3c0,1.1-0.2-1.3-0.6-7.1l-0.5-8l-0.1,0.7c-1.4,3.5-2.9,5.4-4.4,5.7c-2.3,0.3-6.5,0.3-10-0.1
		c-5.6-0.6-13.8-3.5-15.5-3.9c-1.1-0.3-4.2-1.4-9.2-3.3c10.7,1.3,17.7,1.8,21,1.6c4.8-0.4,8.3-0.8,9.8-1.2c1.5-0.4,1.3-2.9,1.2-3.7
		c0-0.5-2-1-6-1.4"/>
	<path vector-effect="non-scaling-stroke" class="st3" d="M159.2,100.8c-0.5,1.2,0,3,1.4,5.4s2.1,3.7,2.2,3.8
		c1.4,2.1,3.6,2.6,6.6,1.7c3-0.9,6.1-2,9.5-3.2"/>
	<path vector-effect="non-scaling-stroke" class="st2" d="M120.2,121.6c1.9-0.1,4.5,0,7.9,0.2c1.3,0.2,1.9,0.7,2.1,1.3
		c0.2,0.9-0.7,1.5-2.5,1.8l-3.2,0.1c-4.8,0-8.5-0.2-11-0.6c-1.8-0.3-5.6-1-3.8-1.4C112,122.2,116.5,121.7,120.2,121.6z"/>
</g>
<g>
	<path vector-effect="non-scaling-stroke" class="st4" d="M67.7,115.3c-1.9-0.4-3.9-0.8-5.9-1.2l0-0.3c24.4,4.9,39,8,44.1,8.6
		c1,0.1,1.8-0.3,1.8-0.8c0-0.5-0.3-1-1.3-2l-5.9-5.1c-2.1-1.9-1.8-2.6,0.9-2.2s5.4,1.1,8.1,1.9l8.1,2.5l-1.4,0l-7.5-2.3l-5.1-1.2
		c-3.7-0.9-4.3-0.4-1.9,1.4c2.4,1.9,4.3,3.5,5.7,4.9c2.6,2.9,1.4,3.9-3.5,3C99.4,121.7,87.3,119.2,67.7,115.3z M58.3,113.3
		c-2.9-0.6-5.8-1.2-7.7-1.5c-2.1-0.4-5.1-0.9-9-1.6c5.1,0.7,9,1.4,11.7,1.9c2,0.4,4.9,1,8.5,1.7l-0.1,0.3
		C60.8,113.8,59.6,113.6,58.3,113.3z"/>
	<path vector-effect="non-scaling-stroke" class="st5" d="M88.1,117.5l0.3,0.6l15.4-0.2l-0.7-0.7L88.1,117.5z M50,114.4l-0.9-0.1
		l-0.1,0l9.7,1.5c9.3,1.2,19.1,2.1,29.4,1.8l0.3,0.6C77.4,118.6,64.6,117.2,50,114.4z"/>
	<path vector-effect="non-scaling-stroke" class="st6" d="M127,117.3l-6.5-0.2c-4.8-0.1-9.6,0-14.6,0.1l0.6,0.6l12.9,0l12.9,0.3
		l-0.5-0.6L127,117.3z"/>
	<path vector-effect="non-scaling-stroke" class="st7" d="M89.2,120.1c-1.5-0.1-3-0.1-4.7-0.2c-10.1-0.6-19.4-2.1-28.8-3.3
		l-10.1-1.8c18.4,2.5,32.7,3.9,43,4.4l5.2,1C92.3,120.1,90.8,120.2,89.2,120.1z M88.7,119.1l5.2,1l12.2-0.2l-1.3-1.3L88.7,119.1z"/>
	<path vector-effect="non-scaling-stroke" class="st8" d="M119.2,118.4c-2.8,0-6.8,0-11.9,0.2l1.2,1.2c4.7-0.2,8.4-0.2,11-0.2
		c3.3,0,8.1,0.1,14.3,0.4l-0.9-1.2C127,118.5,122.4,118.4,119.2,118.4z"/>
	<path vector-effect="non-scaling-stroke" class="st8" d="M160.9,120.4l-24.8-1.5l1.1,1.3l48,2.3L160.9,120.4z"/>
	<path vector-effect="non-scaling-stroke" class="st9" d="M153.2,121.1l5.9,1.7l6.7,1.9l-0.4-0.3l-6.2-1.9l-4.9-1.3L153.2,121.1z"/>
	<path vector-effect="non-scaling-stroke" class="st10" d="M78.3,117.4c0.1,0,0.1,0,0.2,0c0.9,0,1.7,0.1,2.4,0.1l-2.2-0.4l-2.8-0.1
		L78.3,117.4z"/>
	<path class="st1" d="M82.3,118.3l2.4,0l0.5,0.1l-3.1,0L82.3,118.3z"/>
	<path class="st1" d="M91.8,120.2l2.9,0l0.4,0.2l-3.4,0L91.8,120.2z"/>
	<path class="st1" d="M85.1,118.9l3,0.1l0.5,0.1l-3.2-0.2L85.1,118.9z"/>
	<path vector-effect="non-scaling-stroke" class="st9" d="M149.3,119.3l1.2,0.1l0.5,0.2l-1.1-0.1L149.3,119.3z"/>
	<path vector-effect="non-scaling-stroke" class="st6" d="M148.3,118.5c-3.1-0.2-7.5-0.5-13.3-0.8l0.4,0.6l39.6,2.6
		C163.5,119.7,154.6,118.9,148.3,118.5z"/>
	<path vector-effect="non-scaling-stroke" class="st9" d="M119.9,117.9l1.8,0l0.4,0.2l-1.7,0L119.9,117.9z"/>
	<path vector-effect="non-scaling-stroke" class="st9" d="M132.9,122.4c-2.2-0.6-4.6-1.4-7-2.4l1.6,0.1c4,1.5,6.7,2.4,8.1,2.6
		c2.1,0.3,2,0.4,0.5-1.4c-1-1.2-2.8-3.1-5.4-5.8c-1.4-1.5-0.6-1.9,2.2-1.3c2.8,0.6,7,1.7,12.5,3.2l1.8,0.6l-1.2-0.1
		c-5.7-1.6-9.4-2.6-11-2.9c-1.8-0.3-3.9-1-3.9-0.4c0,0.2,0.4,0.6,1.2,1.4c1.9,1.8,3.6,3.7,5.2,5.5c1.8,1.8,1.1,2.4-1.9,1.6
		C134.7,122.9,133.8,122.7,132.9,122.4z"/>
	<path vector-effect="non-scaling-stroke" class="st6" d="M10,77.2c0,0.2,0.1,0.4,0.1,0.7l0.9,3.1c5.1,1.7,9,3.3,11.7,4.7
		c4.1,2.2,10.1,6.4,17.8,12.7l-16.2-19l-1.2-1.3c-0.4-0.3-0.8-0.6-1.2-0.8c-0.4-0.2-0.7-0.3-1-0.4c-1.1-0.4-2.1-0.2-3.2-0.2
		c-1.8,0-4.4,0-7.8,0C10,76.9,10,77.1,10,77.2z"/>
	<path vector-effect="non-scaling-stroke" class="st6" d="M122,94.8l0.3,0.1l0-0.3c0.3,0.1,0.6,0.1,0.8,0.2c0,0,0.1,0,0.1,0.1
		c0,0,0,0,0,0.1c0,0.1,0,0.2,0,0.3l0.4,0.1c0-0.1,0.1-0.2,0-0.3c0-0.1-0.1-0.1-0.2-0.2c0.1,0,0.1,0,0.2-0.1c0.1-0.1,0.1-0.3,0.1-0.4
		c0-0.2-0.2-0.3-0.3-0.3c-0.3-0.1-0.7-0.3-1.3-0.5L122,94.8z"/>
	<path vector-effect="non-scaling-stroke" class="st11" d="M122.5,93.9c0,0.1,0,0.1,0,0.2c0,0,0,0.1,0,0.2c0.3,0.1,0.9,0.2,0.9,0.2
		c0.1,0,0.1,0,0.1-0.1c0-0.1,0-0.1-0.1-0.2C123.2,94.1,122.8,94,122.5,93.9z"/>
	<path vector-effect="non-scaling-stroke" class="st6" d="M121.3,93.2l0.4,0.1l-0.2,1.4l-0.4-0.1L121.3,93.2z"/>
	<path vector-effect="non-scaling-stroke" class="st8" d="M117.6,94.7l0.4-0.1l0-0.6l0.9-0.1l0-0.4l-1,0.1l0-0.4l1-0.1l0-0.4
		l-1.4,0.2L117.6,94.7z"/>
	<path vector-effect="non-scaling-stroke" class="st6" d="M119.3,94.4l0.2-0.3l0.9,0.1l0.1,0.3l0.4,0.1l-0.6-1.6l-0.4-0.1l-0.9,1.6
		L119.3,94.4z"/>
	<path vector-effect="non-scaling-stroke" class="st11" d="M119.7,93.8l0.6,0.1l-0.2-0.6l-0.1,0L119.7,93.8z"/>
	<path vector-effect="non-scaling-stroke" class="st6" d="M122.5,93.1c-0.8-0.4-1.5-0.6-2.1-0.8c-0.9-0.2-2.1-0.3-3.6-0.1l0.9,0.3
		c1.1-0.2,2-0.2,2.7,0c0.8,0.2,1.9,0.6,3.3,1.2C123.3,93.5,122.9,93.3,122.5,93.1z"/>
	<path vector-effect="non-scaling-stroke" class="st8" d="M117.3,88.3l-1.6-1.3c1.3,0.8,2.2,1.1,3.5,2.1c1.2,1,2.9,2.8,4.2,4.2
		c-0.5-0.3-1-0.6-1.6-0.8c-0.5-0.2-1-0.3-1.6-0.5c-1.1-0.3-2.1-0.2-3.2-0.2l2.3-0.8C119,90.1,118.3,89.1,117.3,88.3z"/>
	<path vector-effect="non-scaling-stroke" class="st6" d="M115.1,85.2c0,0.1,0,0.2,0,0.3l0.3,1.3c1.4,0.6,2.5,1.2,3.2,1.7
		c1.1,0.8,2.8,2.5,5,4.9c-1.5-2.8-2.5-4.8-3.2-6.3c-0.3-0.7-0.6-1.3-1.1-1.7c-0.7-0.7-2.1-0.6-2.4-0.6c-0.5,0-1.1,0.1-2,0.2
		C115.1,85,115.1,85.1,115.1,85.2z"/>
	<path vector-effect="non-scaling-stroke" class="st6" d="M31.7,100.6l0.8,0.1l0.1-0.8c0.9,0.1,1.5,0.2,1.9,0.3
		c0.1,0,0.2,0.1,0.3,0.2c0,0,0.1,0.1,0.1,0.2c0.1,0.2,0.1,0.4,0,0.6l1,0.2c0.1-0.3,0.1-0.6,0-0.7c-0.1-0.2-0.2-0.3-0.5-0.5
		c0.2,0,0.4,0,0.4-0.2c0.2-0.3,0.1-0.7,0.1-0.9c-0.1-0.4-0.4-0.6-0.8-0.7c-0.7-0.3-1.8-0.6-3.4-0.9L31.7,100.6z"/>
	<path vector-effect="non-scaling-stroke" class="st11" d="M32.7,98.4c0,0.2-0.1,0.3-0.1,0.5c0,0.1,0,0.2-0.1,0.4
		c0.8,0.1,2.2,0.4,2.3,0.3c0.2,0,0.3-0.1,0.3-0.3c0-0.2-0.1-0.4-0.3-0.5C34.7,98.7,33.4,98.5,32.7,98.4z"/>
	<path vector-effect="non-scaling-stroke" class="st6" d="M29.8,96.9l1,0.1l-0.1,3.5l-1-0.1L29.8,96.9z"/>
	<path vector-effect="non-scaling-stroke" class="st8" d="M20.8,101.2l0.9-0.3v-1.5l2.2-0.5v-1l-2.3,0.5l0-0.9l2.5-0.4v-1l-3.4,0.7
		L20.8,101.2z"/>
	<path vector-effect="non-scaling-stroke" class="st6" d="M25.1,100.3l0.4-0.7l2.2,0.1l0.3,0.7l1,0.1l-1.9-3.9l-1-0.1l-2,4
		L25.1,100.3z"/>
	<path vector-effect="non-scaling-stroke" class="st11" d="M25.8,98.8l1.5,0l-0.5-1.5l-0.3,0L25.8,98.8z"/>
	<path vector-effect="non-scaling-stroke" class="st6" d="M34,96.5c-2.3-1-4.5-1.6-6.1-1.8c-2.5-0.4-6-0.3-10.6,0.3l3,0.9
		c3-0.7,5.5-0.9,7.6-0.6c2.2,0.3,5.5,1.3,9.7,2.8C36.3,97.5,35.1,97,34,96.5z"/>
	<path vector-effect="non-scaling-stroke" class="st8" d="M17.1,85.2L12,82.4c4.1,1.5,8.2,3.4,12.2,5.6c3.8,2.3,7.9,5.2,12.2,8.6
		c-1.5-0.7-3.1-1.4-4.7-1.9c-1.6-0.5-3.1-0.9-4.8-1.1c-3.1-0.3-6.5-0.2-9.7,0.5l6.7-1.9C22.7,89.4,20.4,87.1,17.1,85.2z"/>
</g>
</svg>
