<?xml version="1.0" encoding="utf-8"?>
<!-- Generator: Adobe Illustrator 23.0.4, SVG Export Plug-In . SVG Version: 6.00 Build 0)  -->
<svg version="1.1" id="Layer_1" xmlns="http://www.w3.org/2000/svg" xmlns:xlink="http://www.w3.org/1999/xlink" x="0px" y="0px"
	 viewBox="0 0 210 210" style="enable-background:new 0 0 210 210;" xml:space="preserve">
<style type="text/css">
	.st0{fill:#063761;}
	.st1{fill:#FFFFFF;}
	.st2{fill:#FFFFFF;stroke:#000000;stroke-width:0.25;stroke-linecap:square;stroke-miterlimit:3;}
	.st3{fill:none;stroke:#000000;stroke-width:0.25;stroke-linecap:square;stroke-miterlimit:3;}
	.st4{fill-rule:evenodd;clip-rule:evenodd;fill:#6B737A;}
	.st5{fill-rule:evenodd;clip-rule:evenodd;fill:#E32219;}
	.st6{fill:#E32219;}
	.st7{fill-rule:evenodd;clip-rule:evenodd;fill:#004B94;}
	.st8{fill:#004B94;}
	.st9{fill:#6B737A;}
</style>
<g>
	<circle vector-effect="non-scaling-stroke" class="st0" cx="105" cy="104.9999847" r="105"/>
</g>
<path class="st1" d="M165.3475037,93.2198029l-0.8461609-0.480751l-0.111557-0.9654083
	c-1.743576-14.4840164-14.0306244-25.383812-28.6194153-25.388237c-1.2692566,0-2.5077057,0.1077042-3.7308197,0.2692566
	l-1.2845612,0.1653595l-0.6384735-1.126915c-5.1154251-9.061451-14.7385712-14.6921616-25.1155472-14.6921616
	c-10.3770218,0-20.0001755,5.6307106-25.1156006,14.6921616l-0.6384583,1.126915l-1.2845764-0.1653595
	c-1.223114-0.1615524-2.4615631-0.2692566-3.7308121-0.2692566c-14.5887947,0.004425-26.875843,10.9042206-28.6194229,25.388237
	l-0.1115608,0.9654083l-0.8461494,0.480751c-9.0377769,5.1240921-14.6318493,14.7029114-14.6539154,25.0920792
	c0,15.9076004,12.9385185,28.8459091,28.8463058,28.8459091h46.1541901h46.1541519
	c15.9077759,0,28.8462982-12.9383087,28.8462982-28.8459091C179.9793549,107.9227142,174.3852692,98.343895,165.3475037,93.2198029z
	"/>
<g>
	<path vector-effect="non-scaling-stroke" class="st2" d="M152.725769,99.4219971
		c4.4521484,0.1671829,9.9143524,1.6355209,16.3866272,4.4050598c9.7084045,4.1542969,25.633667,11.301178,31.7665253,14.7857666
		c4.1305695,2.3469086,2.4054565,5.0920715,1.2492065,6.0295715c-0.88591,0.7183075-2.2483063,0.9894257-2.9078064,1.203537
		c-2.0200195,0.6558533-16.4617767,2.1380768-19.1376495,2.2167664c-2.6758575,0.0787048-16.7335052,0.3161621-20.4132233,0.3161621
		c-2.4531403,0-13.1544189-0.0742035-32.1038208-0.2226257l-10.5625-0.25
		c-6.823967-0.3738098-10.9248428-0.6447372-12.3026428-0.8127594c-1.3777924-0.1680145-13.2318802-1.5206146-35.5622253-4.0577698
		l-33.3947182-4.00737c-9.6311474-1.3408585-14.8482857-2.1725769-15.6514111-2.4951477
		c-0.6477661-0.26017-1.4710827-0.8146591-2.4699478-1.6634369c-2.016284-0.537674-3.1924496-0.8233185-3.5284996-0.8569183
		c-0.3360462-0.0336075,2.789196-0.3024521,9.3757286-0.8065186c1.6990356-0.1454773,3.1849442-0.1479568,4.4577255-0.007431
		c1.1584473,0.1278992,2.1675186,0.2647858,2.9521179,0.7131348c1.6466312,0.9409332-2.6635036,1.2556305-12.9304047,0.9441223
		c-0.2259121-0.5959015-0.3917522-1.0581207-0.4975204-1.386673c-0.2904224-0.9021149-0.4686661-1.807724-0.6695251-2.6111603
		c-0.1388302-0.5553207-0.5026436-2.0931168-1.0914392-4.6133881c-1.024437-4.1287918-1.6763506-6.751976-1.9557419-7.8695374
		c-0.4190903-1.6763611,0.046566-1.6763611,0.4190874-1.9557495c0.2483492-0.1862564,0.3104372-0.4268494,0.186264-0.7217712
		c-2.6076603-9.9339371-4.1287956-15.6459579-4.5634041-17.1360397c-0.4346113-1.4900894-0.3570032-2.2817078,0.2328253-2.3748398
		l9.6714945-0.05513c1.8461647-0.027977,3.68223,1.1301804,5.508194,3.4744797
		c1.8259621,2.3443069,7.351038,8.8558426,16.5752239,19.5346146c6.2682686,5.7438354,12.2092285,8.4794235,17.822876,8.2067719
		c2.6805038-0.1302032,5.6103935-0.3606873,9.4583626-0.6768036c3.9912872-0.3278885,8.7198105-0.7459183,14.1855774-1.2540741
		l21.2302551-3.8469391c0.5222855-0.288147,0.9094772-0.5852966,1.1616058-0.8914642
		c0.3782043-0.4592438,2.8364868-0.8374329,3.2416992-0.9184875c0.2701416-0.0540314,2.7914658-0.5402756,7.5639801-1.4587555
		c0.6123123-0.3601913,0.8644485-0.8644638,0.7563934-1.5128021c-0.1080627-0.6483307-0.9995728-4.6031723-2.6745148-11.8645172
		c0.0218658-0.3864288,0.4046555-0.5832901,1.1483612-0.5905838c1.1155396-0.0109329,3.6477509-0.6439056,4.8438721,1.648674
		c0.7974243,1.5283966,1.7376404,3.5057526,2.8206635,5.9320831c1.6557236,3.0230942,4.2182236,4.5800858,7.6874695,4.67099
		l13.3127747,0.6473999c0.7053223-10.8957825,1.1411743-15.8778534,1.3075409-14.9462128l0.4519806,15.142807
		c1.1602783,0.2037277,2.2403564,0.4829941,3.2402649,0.8377991c1.5409698,0.5467987,3.2310791,1.2924347,3.2807922,1.590683
		c0.0235443,0.1413116-1.7581482,1.377533-2.8652954,1.845932c-0.9748688,0.4124451-2.230957,0.7311478-3.7682495,0.956131
		l-0.1687164,7.3677521c-0.2375336,4.60186-0.3579865,7.040657-0.3613739,7.3164062
		c-0.0133057,1.0839844-0.2216339-1.2701797-0.625-7.0625l-0.473465-7.960495l-0.0682373,0.7213745
		c-1.431488,3.5445786-2.8992767,5.4300919-4.4033661,5.6565094c-2.2561493,0.3396301-6.4875031,0.2805023-9.9825745-0.0702515
		c-5.6028671-0.5622864-13.8322754-3.5380707-15.4742737-3.9361267c-1.0946579-0.2653809-4.1695938-1.3756714-9.224762-3.3308563
		c10.74617,1.2997055,17.7346115,1.8271942,20.965332,1.5824432c4.8460846-0.3671265,8.2970734-0.8076782,9.8390198-1.24823
		c1.5419312-0.440567,1.3216553-2.937027,1.24823-3.7447052c-0.0489502-0.5384598-2.0477295-0.9898758-5.9963074-1.3542633"/>
	<path vector-effect="non-scaling-stroke" class="st3" d="M159.1602631,100.7805176
		c-0.4786224,1.1623764-0.0170898,2.9743271,1.3845978,5.4358368s2.136734,3.7264481,2.2051086,3.7948303
		c1.4016876,2.0512619,3.5897064,2.6324539,6.5640259,1.743576c2.9743347-0.8888931,6.1366882-1.9657974,9.4870758-3.2307434"/>
	<path vector-effect="non-scaling-stroke" class="st2" d="M120.1906281,121.5624847
		c1.8595734-0.0738297,4.5054092-0.0113297,7.9375,0.1875c1.2578583,0.2434082,1.9453583,0.6809082,2.0625,1.3125
		c0.1626587,0.8770752-0.6641235,1.4604874-2.4803619,1.7502594l-3.1654053,0.1021118
		c-4.8411789,0.000145-8.5170288-0.1991959-11.0275574-0.5980377c-1.7877197-0.2840118-5.5929565-0.9675446-3.8294525-1.4441681
		C112.000351,122.2476501,116.4702759,121.7101822,120.1906281,121.5624847z"/>
</g>
<g>
	<path vector-effect="non-scaling-stroke" class="st4" d="M67.6970901,115.2653351
		c-1.8678055-0.3766022-3.9032097-0.8432159-5.9075584-1.2479858l-0.0223007-0.2776947
		c24.3876762,4.8985443,39.0486412,7.9515076,44.0573692,8.6394653c1.0440674,0.1434021,1.7566681-0.2710266,1.8025055-0.7931976
		c0.0409088-0.4660797-0.328125-1.015625-1.25-2l-5.8515625-5.0546875c-2.1145859-1.8854141-1.8072891-2.6041641,0.921875-2.15625
		s5.4375,1.0703125,8.125,1.8671875l8.0866089,2.4657898l-1.3625031-0.0122681l-7.5366058-2.2738342l-5.0841827-1.2255096
		c-3.6895523-0.9090118-4.3223038-0.4366837-1.8982544,1.4170074c2.424057,1.8536911,4.3223114,3.5024109,5.6947479,4.9461517
		c2.6000443,2.9453354,1.432579,3.9479446-3.5023956,3.007782C99.407074,121.6980438,87.3459473,119.2270966,67.6970901,115.2653351
		z M58.2823067,113.2797089c-2.949585-0.6209717-5.8044662-1.1606293-7.7092209-1.5333252
		c-2.1170006-0.4142227-5.1089592-0.944725-8.9758835-1.591507c5.076149,0.7354355,8.9801865,1.3553696,11.7121201,1.8598022
		c2.0094604,0.3710251,4.8586044,0.9517136,8.5474396,1.7420349l-0.0738449,0.2672424
		C60.8165245,113.8058929,59.6496544,113.5578156,58.2823067,113.2797089z"/>
	<path vector-effect="non-scaling-stroke" class="st5" d="M88.0709229,117.5286407l0.2554321,0.6203461l15.3746948-0.2443237
		l-0.7306976-0.7226562L88.0709229,117.5286407z M49.9689064,114.4492035l-0.8828125-0.140625l-0.1114655-0.0167847
		l9.650795,1.4699554c9.3363686,1.2484131,19.1425819,2.1051331,29.409008,1.7668915l0.2554398,0.6203461
		C77.4417038,118.6220856,64.6310654,117.1612396,49.9689064,114.4492035z"/>
	<path vector-effect="non-scaling-stroke" class="st6" d="M126.9914703,117.2713013l-6.4865112-0.1564484
		c-4.7655945-0.1012878-9.5697784,0.0319977-14.6262054,0.0671387l0.5733185,0.6070404l12.8996887-0.016861l12.862915,0.3428345
		l-0.5057373-0.6270905L126.9914703,117.2713013z"/>
	<path vector-effect="non-scaling-stroke" class="st7" d="M89.2268295,120.0750275
		c-1.5398331-0.0528107-3.0472031-0.1277771-4.6964645-0.2290955c-10.143074-0.6231384-19.4124603-2.1344299-28.761734-3.3194275
		l-10.0858612-1.7693939c18.3630219,2.4737549,32.716301,3.9453583,43.0298233,4.3848267l5.1508408,1.0260162
		C92.2761459,120.0869598,90.7765274,120.1642303,89.2268295,120.0750275z M88.6733932,119.1431427l5.2056656,1.0248108
		l12.2104721-0.2041779l-1.3044281-1.2863007L88.6733932,119.1431427z"/>
	<path vector-effect="non-scaling-stroke" class="st8" d="M119.1708374,118.356842
		c-2.7905884-0.0111771-6.7611465,0.0443649-11.9116669,0.1666412l1.2471924,1.220932
		c4.7479706-0.156517,8.4085159-0.2358017,10.9816437-0.2378693c3.3493347-0.0026779,8.1133347,0.1228638,14.2919922,0.3766327
		l-0.9034729-1.1875916C126.9510117,118.4826126,122.3824463,118.3696976,119.1708374,118.356842z"/>
	<path vector-effect="non-scaling-stroke" class="st8" d="M160.8574677,120.3787384l-24.7742462-1.5200958l1.1051331,1.2681885
		l47.9555359,2.2555542L160.8574677,120.3787384z"/>
	<path vector-effect="non-scaling-stroke" class="st9" d="M153.2013245,121.1367111l5.9239502,1.6777039l6.6980896,1.9387665
		l-0.4060974-0.3360748l-6.1985626-1.9063721l-4.891983-1.3143768L153.2013245,121.1367111z"/>
	<path vector-effect="non-scaling-stroke" class="st1" d="M78.2648544,117.4058075
		c0.0656128,0.0014038,0.1264954,0.0119781,0.1917496,0.0136871c0.8566437,0.0224609,1.6842651,0.0587921,2.4015198,0.0547943
		l-2.1683273-0.3857574l-2.8403244-0.0922852L78.2648544,117.4058075z"/>
	<path class="st1" d="M82.3302307,118.2734222l2.4023438,0.0117188l0.4860382,0.0815887l-3.0645752-0.0118866
		L82.3302307,118.2734222z"/>
	<path class="st1" d="M91.7735901,120.175766l2.9395065,0.0289001l0.4242554,0.1533356l-3.3620071,0.0392151L91.7735901,120.175766z
		"/>
	<path class="st1" d="M85.1368713,118.8515472l2.9765625,0.125l0.4746094,0.109375l-3.1503906-0.1601562L85.1368713,118.8515472z"/>
	<path vector-effect="non-scaling-stroke" class="st9" d="M149.2575836,119.3081589l1.2105713,0.0956955l0.4830933,0.1676865
		l-1.1201324-0.0646057L149.2575836,119.3081589z"/>
	<path vector-effect="non-scaling-stroke" class="st6" d="M148.3375702,118.4773865
		c-3.1047821-0.2139053-7.5256195-0.4766998-13.2625122-0.7883911l0.3886261,0.5676575l39.5565643,2.5683899
		C163.4916382,119.6912079,154.5974121,118.9086533,148.3375702,118.4773865z"/>
	<path vector-effect="non-scaling-stroke" class="st9" d="M119.8651123,117.9335785l1.8430099,0.0477448l0.4174881,0.2178268
		l-1.7102051-0.0344238L119.8651123,117.9335785z"/>
	<path vector-effect="non-scaling-stroke" class="st9" d="M132.8878479,122.4063416
		c-2.2103119-0.6338959-4.5595245-1.4497757-7.0476379-2.4476318l1.6132812,0.0896149
		c3.9575958,1.5122375,6.6595917,2.3699646,8.1059723,2.5731812c2.1060181,0.2958832,1.9688721,0.3574829,0.5413513-1.3728485
		c-0.9516907-1.1535568-2.761322-3.0737457-5.4289093-5.7605591c-1.355423-1.4900055-0.6296387-1.9370041,2.1773376-1.3410034
		c2.8069763,0.595993,6.982666,1.6785736,12.5270691,3.2477264l1.8199158,0.5827332l-1.1833954-0.0986176
		c-5.6898804-1.597496-9.3685913-2.5507889-11.0361023-2.8598938c-1.8378601-0.3406677-3.8998566-1.0174561-3.8998566-0.4482574
		c0,0.2289734,0.4027863,0.6064911,1.2102966,1.3985748c1.876709,1.8408432,3.5980225,3.6816864,5.1639404,5.5225372
		c1.7631378,1.8408432,1.1385651,2.3906937-1.8737183,1.6495819
		C134.6903381,122.923233,133.8104095,122.670929,132.8878479,122.4063416z"/>
	<path vector-effect="non-scaling-stroke" class="st6" d="M10.0369797,77.2343597
		c0.0114784,0.1708145,0.0531454,0.4104004,0.125,0.71875l0.8515625,3.125
		c5.1369095,1.7357254,9.0379505,3.3138504,11.703125,4.734375c4.104166,2.1875,10.0520821,6.421875,17.84375,12.703125
		L24.4040527,79.4927902l-1.1940613-1.3184357c-0.4187527-0.3343353-0.812624-0.6079712-1.1816177-0.8209152
		c-0.368988-0.212944-0.6972733-0.3365555-0.9837189-0.4488602c-1.0748596-0.4214172-2.0677795-0.2486191-3.2420502-0.2483444
		c-1.7989731,0.0004196-4.3849106,0.0056229-7.7578125,0.015625C10.0307398,76.9152374,10.0281363,77.1027374,10.0369797,77.2343597
		z"/>
	<path vector-effect="non-scaling-stroke" class="st6" d="M121.9778214,94.7542419l0.3309097,0.0606613l0.0494308-0.3155441
		c0.3427734,0.0626373,0.5941467,0.1233597,0.7541122,0.1821518c0.0430527,0.015831,0.0943146,0.0386887,0.1226349,0.0725555
		c0.0169525,0.0202713,0.0353394,0.043251,0.0437088,0.0700302c0.0203018,0.0650253,0.0113678,0.1507721-0.0268021,0.2572098
		l0.4082108,0.1172333c0.0406265-0.1265717,0.0513763-0.2237625,0.0322418-0.2915421
		c-0.0192261-0.0680847-0.0795746-0.1455078-0.1810684-0.2322922c0.0820541,0.0140991,0.1437302-0.0063782,0.1850204-0.0614471
		c0.0742645-0.0990448,0.0732193-0.2831116,0.0569763-0.3654938c-0.0314255-0.1593475-0.1557007-0.2618179-0.2970123-0.3267136
		c-0.2824707-0.1297226-0.7290955-0.2815628-1.3398514-0.455513L121.9778214,94.7542419z"/>
	<path vector-effect="non-scaling-stroke" class="st1" d="M122.4759674,93.8897247
		c-0.0210495,0.0778885-0.0363846,0.1381454-0.0460129,0.1807709c-0.0092773,0.041069-0.0209579,0.0998383-0.0350266,0.1763
		c0.3014984,0.0616913,0.8715744,0.2116013,0.8982773,0.2101364c0.0713043,0.0080414,0.1112061-0.0337524,0.1196899-0.1253815
		c0.0074921-0.0809555-0.0344467-0.149231-0.1258316-0.2048111
		C123.2488785,94.0936279,122.7575302,93.9560242,122.4759674,93.8897247z"/>
	<path vector-effect="non-scaling-stroke" class="st6" d="M121.3390808,93.2151718l0.4009933,0.0882034l-0.1567612,1.4011078
		l-0.3930359-0.0686111L121.3390808,93.2151718z"/>
	<path vector-effect="non-scaling-stroke" class="st8" d="M117.5700684,94.6530914l0.3536835-0.0915222l0.0462036-0.5920105
		l0.9184418-0.1124344l0.0319138-0.4090271l-0.9640198,0.1413651l0.0169601-0.3560486l1.0037079-0.0949402l0.0327606-0.4197922
		l-1.3780823,0.1740265L117.5700684,94.6530914z"/>
	<path vector-effect="non-scaling-stroke" class="st6" d="M119.3454208,94.4186783l0.1819305-0.2842712l0.8809509,0.0904083
		l0.1157303,0.2817612l0.419632,0.0740662l-0.6252518-1.6443405l-0.4194794-0.0765839l-0.9450684,1.5650635L119.3454208,94.4186783z
		"/>
	<path vector-effect="non-scaling-stroke" class="st1" d="M119.6800308,93.8431015l0.6127014,0.0586395l-0.1696091-0.615036
		l-0.1244278-0.0112915L119.6800308,93.8431015z"/>
	<path vector-effect="non-scaling-stroke" class="st6" d="M122.5333405,93.1419601
		c-0.7864075-0.3667908-1.5363617-0.6193771-2.0846939-0.7546234c-0.8544998-0.2107544-2.0610809-0.2510529-3.6197357-0.1208801
		l0.8919525,0.3188629c1.0616302-0.1712341,1.9574432-0.1770172,2.6874466-0.0173645
		c0.7758713,0.169693,1.8777847,0.5606918,3.3057251,1.1730042
		C123.308403,93.5195541,122.9148331,93.3198929,122.5333405,93.1419601z"/>
	<path vector-effect="non-scaling-stroke" class="st8" d="M117.3069305,88.263855l-1.6276169-1.2656097
		c1.3498001,0.762558,2.236557,1.1147232,3.5061035,2.1111145c1.1789474,1.0159531,2.8615799,2.7860184,4.1846619,4.2311935
		c-0.4956131-0.3489761-1.0346527-0.5733414-1.5584488-0.8383789c-0.5147018-0.2049408-1.044693-0.3375473-1.637413-0.4928055
		c-1.0502396-0.2662506-2.0881729-0.180687-3.2345352-0.1506577l2.3453751-0.7875748
		C119.0150909,90.0522308,118.3473816,89.12854,117.3069305,88.263855z"/>
	<path vector-effect="non-scaling-stroke" class="st6" d="M115.0969391,85.1642609
		c0.0112534,0.0677109,0.0278091,0.1638947,0.0496445,0.288559l0.2982635,1.25
		c1.4135742,0.6247025,2.4929199,1.2041702,3.2380295,1.7383881c1.1474228,0.8226547,2.8124237,2.4546509,4.9949799,4.8959656
		c-1.4898682-2.7531509-2.5475464-4.8371048-3.1730118-6.2518539c-0.3214111-0.7269974-0.6050873-1.2677612-1.0722275-1.7200317
		c-0.7479706-0.7241669-2.0759888-0.6430969-2.3901825-0.6254654c-0.4813385,0.0270081-1.1427155,0.0887756-1.9841309,0.1853104
		C115.0747604,85.0286102,115.0876389,85.1083221,115.0969391,85.1642609z"/>
	<path vector-effect="non-scaling-stroke" class="st6" d="M31.6716843,100.5896606l0.8265762,0.0858002l0.0610962-0.7865906
		c0.8561745,0.0884018,1.4868889,0.1896286,1.8921432,0.3036652c0.1090698,0.0307007,0.2396927,0.0771484,0.3159485,0.1551056
		c0.045639,0.0466614,0.0953522,0.0997162,0.1210938,0.1640625c0.0625,0.15625,0.0569763,0.3691101-0.016571,0.6385803
		l1.027832,0.2102509c0.0757294-0.3195114,0.0835152-0.5609055,0.0233612-0.7241669
		c-0.0604172-0.1639709-0.2239342-0.3430481-0.4905548-0.537262c0.2047768,0.018959,0.3527222-0.043335,0.4438324-0.1868896
		c0.1638718-0.2581787,0.1259155-0.7112732,0.0700836-0.911026c-0.1080093-0.3863831-0.4337616-0.6148529-0.7942352-0.7475128
		c-0.7205658-0.2651901-1.8496208-0.5532913-3.3871613-0.8643036L31.6716843,100.5896606z"/>
	<path vector-effect="non-scaling-stroke" class="st1" d="M32.7323189,98.3649063
		c-0.0368576,0.1958466-0.0630531,0.3471832-0.0785751,0.45401c-0.0149612,0.1029358-0.0324211,0.2498932-0.0523834,0.4409027
		c0.7543564,0.0939941,2.1870804,0.3536072,2.2525558,0.3448792c0.1771469,0.0060959,0.2673645-0.1044998,0.2706604-0.3317719
		c0.0029106-0.2008209-0.1135025-0.3608856-0.3492355-0.4802094C34.6749382,98.7185135,33.4384575,98.4740677,32.7323189,98.3649063
		z"/>
	<path vector-effect="non-scaling-stroke" class="st6" d="M29.8029099,96.9221802l1.0044632,0.140152l-0.1167984,3.4806061
		l-0.9811096-0.0934448L29.8029099,96.9221802z"/>
	<path vector-effect="non-scaling-stroke" class="st8" d="M20.7973862,101.1876221l0.8534164-0.2933655v-1.4668121
		l2.2402191-0.4533844v-1.0134277l-2.3469009,0.5333862l-0.0266647-0.8800812l2.4535751-0.426712v-1.0401001l-3.3603287,0.6934052
		L20.7973862,101.1876221z"/>
	<path vector-effect="non-scaling-stroke" class="st6" d="M25.1244507,100.2691498l0.3933945-0.7350311l2.186882,0.0533447
		l0.3391495,0.6716614l1.0476532,0.1017456l-1.8557968-3.929306l-1.0477524-0.1079865l-2.0266418,4.0358582L25.1244507,100.2691498z
		"/>
	<path vector-effect="non-scaling-stroke" class="st1" d="M25.8378754,98.787384l1.5201492,0.0266724l-0.5358887-1.4820404
		l-0.3085938-0.0039062L25.8378754,98.787384z"/>
	<path vector-effect="non-scaling-stroke" class="st6" d="M33.9822922,96.4843597
		c-2.322052-0.9734497-4.508873-1.5728149-6.09375-1.84375c-2.4698181-0.4222107-6.0114841-0.3284607-10.625,0.28125
		l2.96875,0.90625c2.958334-0.6666641,5.489584-0.8541641,7.59375-0.5625c2.236414,0.3099976,5.4551659,1.2579117,9.65625,2.84375
		C36.2754173,97.4982529,35.1087532,96.9565887,33.9822922,96.4843597z"/>
	<path vector-effect="non-scaling-stroke" class="st8" d="M17.1126862,85.1809845l-5.1417274-2.7781906
		c4.1300163,1.5015182,8.2174644,3.3636398,12.2323265,5.5563889c3.7706985,2.2897644,7.8581467,5.1608887,12.2323303,8.5833588
		c-1.5486755-0.7441711-3.1388092-1.411087-4.727066-1.9074097c-1.5882645-0.4963379-3.0803375-0.9208832-4.8100052-1.0781097
		c-3.0606689-0.25383-6.4704437-0.1633148-9.6614647,0.4561157l6.7174187-1.9074097
		C22.7237701,89.3831177,20.4255219,87.1125183,17.1126862,85.1809845z"/>
</g>
</svg>
