<?xml version="1.0" encoding="utf-8"?>
<!-- Generator: Adobe Illustrator 23.0.3, SVG Export Plug-In . SVG Version: 6.00 Build 0)  -->
<svg version="1.1" id="Vrstva_1" xmlns="http://www.w3.org/2000/svg" xmlns:xlink="http://www.w3.org/1999/xlink" x="0px" y="0px"
	 viewBox="0 0 166 66" style="enable-background:new 0 0 166 66;" xml:space="preserve">
<style type="text/css">
	.st0{fill:#FFFFFF;}
	.st1{fill:#063761;}
	.st2{fill-rule:evenodd;clip-rule:evenodd;fill:#004B94;}
	.st3{fill-rule:evenodd;clip-rule:evenodd;fill:#E32219;}
	.st4{fill:#FFFFFF;stroke:#FFFFFF;stroke-width:10;stroke-miterlimit:10;}
</style>
<g id="Layer_1">
	<g>
		<path class="st0" d="M2.83447,64.00034C2.38232,64.00034,2,63.61752,2,63.16537V27.27328
			c0-0.67529,0.63623-1.52588,1.28418-1.7168L80.8457,2.71908C81.375,2.56332,82.18018,2.47006,83,2.47006
			s1.625,0.09326,2.15332,0.24902l77.56348,22.8374C163.36426,25.7474,164,26.59799,164,27.27328v35.89209
			c0,0.45215-0.38281,0.83496-0.83496,0.83496H2.83447z"/>
		<path class="st1" d="M83,4.47038c0.75359,0,1.32716,0.09015,1.58941,0.16737l77.40696,22.79195
			c0.00122,0.00161,0.00243,0.00323,0.00363,0.00486v34.56541H4v-34.5654c0.0012-0.00163,0.00242-0.00326,0.00364-0.00488
			L81.41062,4.63775C81.67284,4.56053,82.24641,4.47038,83,4.47038 M83,0.47037c-0.98572,0-1.97144,0.11009-2.71922,0.33026
			L2.71922,23.6381C1.22366,24.07847,0,25.71435,0,27.27341v35.89194c0,1.55906,1.27559,2.83463,2.83466,2.83463h160.33072
			c1.55904,0,2.83463-1.27557,2.83463-2.83463V27.27341c0-1.55907-1.22366-3.19494-2.71922-3.63531L85.71922,0.80063
			C84.97144,0.58046,83.98572,0.47037,83,0.47037L83,0.47037z"/>
	</g>
	<path class="st2" d="M74.62032,17.43825h6.47157v1.43858h-4.5614v1.08261h4.34738v1.38155h-4.34738v2.02297h-1.91016v-5.92571
		H74.62032z M75.00511,12.72331l-11.7029,10.88256h8.89499l-2.40901-2.36452L75.00511,12.72331z"/>
	<path class="st3" d="M86.20916,17.43825h1.22582l3.40702,5.92571h-2.10976l-0.59881-1.0541h-1.92427v-1.28222h1.22582
		l-1.22582-2.17933C86.20917,18.84831,86.20917,17.43825,86.20916,17.43825z M84.99745,17.43825h1.21171v1.41006l-0.0141-0.02851
		l-1.1832,2.20785h1.1973v1.28222h-1.89575l-0.55588,1.0541h-2.12387L84.99745,17.43825z M91.626,17.43825h1.89575v5.92571H91.626
		V17.43825z M98.71047,17.43825h1.92427l0.25663,0.0141l0.24222,0.01441l0.21371,0.04262l0.1855,0.05703l0.17109,0.07113
		l0.15667,0.07144l0.12848,0.09964l0.11375,0.11374l0.09995,0.11406l0.08555,0.12816l0.07113,0.15667l0.08554,0.31335
		l0.02852,0.18519l0.01441,0.18519v0.85481l-0.04292,0.25632l-0.02852,0.11406l-0.02851,0.09964l-0.04262,0.09965l-0.05703,0.09964
		l-0.05704,0.08554l-0.07144,0.08554l-0.09964,0.07113l-0.08554,0.05703l-0.11406,0.07113l-0.12816,0.04293l-0.14257,0.04261
		l-0.15699,0.04262v0.02851l0.1996,0.04293l0.1996,0.05703l0.17109,0.08523l0.08554,0.05703l0.14257,0.14257l0.11406,0.19929
		l0.04262,0.11406l0.02852,0.11374l0.02851,0.14257l0.01442,0.15668l0.0141,0.18519v1.01149h-1.89575v-0.71224l-0.01442-0.2137
		l-0.02852-0.18519l-0.02851-0.07113l-0.0282-0.07144l-0.02852-0.05703l-0.04292-0.04262l-0.05704-0.04261l-0.05703-0.04293
		l-0.05703-0.02851l-0.07113-0.02851l-0.17109-0.0282h-1.28284v-1.49592h1.22582l0.17109-0.0141l0.15667-0.02851l0.12847-0.04262
		l0.09965-0.05703l0.07113-0.08554l0.05703-0.11406l0.02852-0.12816v-0.32745l-0.0141-0.18519l-0.01442-0.07144l-0.0141-0.07113
		l-0.04292-0.05703l-0.02852-0.05703l-0.04262-0.04262l-0.05703-0.04262l-0.11406-0.05703l-0.15667-0.02851l-0.1855-0.0141
		l-0.1996-0.01442H98.7105v-1.46709L98.71047,17.43825z M94.90456,17.43825h3.80592v1.46709h-1.91016v1.43858h1.91016v1.49592
		h-1.91016v1.52412h-1.89575v-5.92571H94.90456z M73.0094,13.5496L61.5061,24.27549h9.40794l1.41132,1.2678H57.9283
		L76.38792,8.53542L73.0094,13.5496z"/>
	<path class="st3" d="M103.95592,17.42383l0.15698,0.01442l0.14258,0.04261l0.12816,0.07113l0.11406,0.08554l0.09964,0.11406
		l0.07144,0.12816l0.04262,0.14257l0.01441,0.14226l-0.01441,0.15667l-0.04262,0.14257l-0.07144,0.12816l-0.09964,0.09964
		l-0.11406,0.09965l-0.12816,0.05703l-0.14258,0.04293l-0.15698,0.0141v-0.08554l0.12847-0.0141l0.12816-0.04293l0.11406-0.05672
		l0.09964-0.08554l0.07144-0.08554l0.05703-0.11406l0.04262-0.12816l0.01441-0.12816l-0.01441-0.12816l-0.04262-0.12816
		l-0.05703-0.11406l-0.07144-0.08523l-0.09964-0.08554l-0.11406-0.05703l-0.12816-0.04262h-0.12847V17.42383L103.95592,17.42383z
		 M103.95592,18.20751h0.01441l0.24222,0.38448h0.14257l-0.27073-0.38448l0.09964-0.01441l0.04293-0.0141l0.04261-0.02851
		l0.02852-0.04293l0.02852-0.02851l0.01441-0.05672l0.0141-0.04293l-0.0141-0.05703l-0.01441-0.04262l-0.01411-0.04262
		l-0.02851-0.02851l-0.04293-0.02851l-0.05703-0.01441l-0.05703-0.0141h-0.17109v0.07113h0.14257l0.07144,0.02851l0.04262,0.01441
		l0.01442,0.02851l0.02851,0.08523l-0.01441,0.04293l-0.02852,0.04262l-0.02851,0.02851l-0.04262,0.0141l-0.09996,0.01441h-0.08554
		L103.95592,18.20751L103.95592,18.20751z M103.17192,18.16458l0.01441-0.14226l0.04262-0.14257l0.07144-0.12816l0.09964-0.11406
		l0.11406-0.08554l0.14258-0.07113l0.14257-0.04262l0.15668-0.01441v0.09996h-0.14258l-0.12816,0.04262l-0.11406,0.05703
		l-0.09964,0.08554l-0.07144,0.08523l-0.05703,0.11406l-0.04262,0.12816l-0.01441,0.12816l0.01441,0.12816l0.04262,0.12816
		l0.05703,0.11406l0.07144,0.08554l0.09964,0.08554l0.11406,0.05672l0.12816,0.04293l0.14258,0.0141v0.08554l-0.15668-0.0141
		l-0.14257-0.04293l-0.14258-0.05703l-0.11406-0.09965l-0.09964-0.09965l-0.07144-0.12816l-0.04262-0.14257L103.17192,18.16458
		L103.17192,18.16458z M103.95592,17.75159h-0.28515v0.8404h0.09995v-0.38448h0.1852v-0.08554h-0.1852v-0.29925h0.1852
		C103.95592,17.82272,103.95592,17.75159,103.95592,17.75159z"/>
	<g>
		<path class="st1" d="M85.83465,65.78682c-1.55906,0-4.11024,0-5.6693,0H22.11731c-1.55906,0-2.83465-1.27559-2.83465-2.83464
			V31.97596c0-1.55906,1.27559-2.83465,2.83465-2.83465h121.78046c1.55907,0,2.83466,1.27559,2.83466,2.83465v30.97622
			c0,1.55906-1.27559,2.83464-2.83466,2.83464H85.83465z"/>
	</g>
</g>
<path class="st0" d="M80.41663,47.46407"/>
<polygon class="st0" points="106.04335,34.23573 106.04337,60.69241 92.81503,47.46407 "/>
<line class="st4" x1="105.04337" y1="47.46407" x2="147.43947" y2="47.46407"/>
</svg>
