<?xml version="1.0" encoding="utf-8"?>
<!-- Generator: Adobe Illustrator 23.0.2, SVG Export Plug-In . SVG Version: 6.00 Build 0)  -->
<svg version="1.1" id="Vrstva_1" xmlns="http://www.w3.org/2000/svg" xmlns:xlink="http://www.w3.org/1999/xlink" x="0px" y="0px"
	 viewBox="0 0 210 210" style="enable-background:new 0 0 210 210;" xml:space="preserve">
<style type="text/css">
	.st0{fill:#063761;}
	.st1{fill:#FFFFFF;stroke:#000000;stroke-width:0.25;stroke-miterlimit:10;}
	.st2{fill:none;stroke:#000000;stroke-width:0.25;stroke-miterlimit:10;}
	
		.st3{fill-rule:evenodd;clip-rule:evenodd;fill:#6B737A;stroke:#6B737A;stroke-width:0.1;stroke-linecap:square;stroke-miterlimit:3;}
	
		.st4{fill-rule:evenodd;clip-rule:evenodd;fill:#E32219;stroke:#E32219;stroke-width:0.1;stroke-linecap:square;stroke-miterlimit:3;}
	.st5{fill:#E32219;stroke:#E32219;stroke-width:0.1;stroke-linecap:square;stroke-miterlimit:3;}
	
		.st6{fill-rule:evenodd;clip-rule:evenodd;fill:#004B94;stroke:#004B94;stroke-width:0.1;stroke-linecap:square;stroke-miterlimit:3;}
	.st7{fill:#004B94;stroke:#004B94;stroke-width:0.1;stroke-linecap:square;stroke-miterlimit:3;}
	.st8{fill:#6B737A;stroke:#6B737A;stroke-width:0.1;stroke-linecap:square;stroke-miterlimit:3;}
	.st9{fill:#FFFFFF;stroke:#FFFFFF;stroke-width:0.1;stroke-linecap:square;stroke-miterlimit:3;}
	.st10{fill:#FFFFFF;}
	.st11{fill:#FFFFFF;stroke:#E32219;stroke-width:0.1;stroke-linecap:square;stroke-miterlimit:3;}
</style>
<g>
	<circle vector-effect="non-scaling-stroke" class="st0" cx="105" cy="105" r="105"/>
</g>
<g>
	<path vector-effect="non-scaling-stroke" class="st1" d="M154.4,100.8c4.4,0.8,9.6,3,15.6,6.6c9,5.5,23.8,14.8,29.4,19.1
		c3.8,2.9,1.7,5.4,0.4,6.1c-1,0.6-2.4,0.7-3,0.8c-2.1,0.4-16.6-0.2-19.3-0.5s-16.6-2-20.3-2.5c-2.4-0.3-13-1.9-31.8-4.7L115,124
		c-6.7-1.3-10.7-2.2-12.1-2.5s-12.9-3.3-34.7-9l-32.5-8.6c-9.4-2.7-14.4-4.2-15.2-4.6c-0.6-0.3-1.3-1-2.2-2c-1.9-0.8-3-1.3-3.4-1.3
		c-0.3-0.1,2.8,0.1,9.4,0.5c1.7,0.1,3.2,0.3,4.4,0.6c1.1,0.3,2.1,0.6,2.8,1.1c1.5,1.2-2.8,0.9-12.9-0.9c-0.1-0.6-0.2-1.1-0.3-1.4
		C18.1,95,18.1,94,18,93.2c-0.1-0.6-0.2-2.1-0.4-4.7c-0.4-4.2-0.7-6.9-0.8-8.1c-0.2-1.7,0.3-1.7,0.7-1.9c0.3-0.1,0.4-0.4,0.3-0.7
		c-1.2-10.2-1.9-16.1-2.1-17.6c-0.2-1.5,0-2.3,0.6-2.3l9.6,1.3c1.8,0.2,3.5,1.6,5,4.2s6,9.8,13.7,21.7c5.4,6.6,10.9,10.1,16.5,10.6
		c2.7,0.2,5.6,0.4,9.5,0.6c4,0.2,8.7,0.5,14.2,0.7l21.6-0.9c0.6-0.2,1-0.5,1.3-0.7c0.4-0.4,2.9-0.4,3.3-0.5c0.3,0,2.8-0.1,7.7-0.4
		c0.7-0.3,1-0.7,1-1.4c0-0.7-0.3-4.7-1-12.1c0.1-0.4,0.5-0.5,1.2-0.4c1.1,0.1,3.7-0.1,4.6,2.3c0.6,1.6,1.2,3.7,2,6.3
		c1.2,3.2,3.5,5.1,7,5.7l13.1,2.5c2.2-10.7,3.3-15.6,3.4-14.6l-1.7,15.1c1.1,0.4,2.2,0.8,3.1,1.3c1.4,0.8,3,1.7,3,2
		c0,0.1-1.9,1.1-3.1,1.4c-1,0.3-2.3,0.4-3.9,0.4l-1.2,7.3c-0.9,4.5-1.3,6.9-1.4,7.2c-0.2,1.1,0-1.3,0.4-7.1l0.6-7.9l-0.2,0.7
		c-1.9,3.3-3.6,5-5.1,5c-2.3,0-6.5-0.6-9.9-1.5c-5.5-1.3-13.2-5.4-14.8-6.1c-1-0.4-3.9-1.9-8.7-4.6c10.5,2.8,17.3,4.3,20.5,4.5
		c4.9,0.3,8.3,0.4,9.9,0.1c1.6-0.2,1.7-2.7,1.8-3.5c0-0.5-1.9-1.3-5.7-2.2"/>
	<path vector-effect="non-scaling-stroke" class="st2" d="M160.6,103c-0.6,1.1-0.4,2.9,0.6,5.6c1,2.6,1.6,4,1.7,4.1
		c1.1,2.2,3.2,3.1,6.3,2.6s6.4-1.1,9.8-1.9"/>
	<path vector-effect="non-scaling-stroke" class="st1" d="M119.1,118.2c1.9,0.2,4.5,0.6,7.8,1.3c1.2,0.4,1.8,0.9,1.9,1.6
		c0,0.9-0.9,1.4-2.7,1.4l-3.1-0.3c-4.8-0.7-8.4-1.4-10.8-2.1c-1.7-0.5-5.4-1.7-3.6-2C110.9,117.7,115.4,117.8,119.1,118.2z"/>
</g>
<g>
	<path vector-effect="non-scaling-stroke" class="st1" d="M112.1,129.2c0.3-2.2,2.3-3.7,4.5-3.4c2.2,0.3,3.7,2.3,3.4,4.5
		c-0.3,2.2-2.3,3.7-4.5,3.4C113.3,133.4,111.8,131.4,112.1,129.2z"/>
	<path vector-effect="non-scaling-stroke" class="st1" d="M119.4,124.8L119,127c0.3,0.5,0.6,0.9,0.9,1.4c0.1,0.2,0.2,1.7,0.3,1.4
		c0.5-0.9,0.9-1.5,1.1-2c0.2-0.6,0.4-1.4,0.6-2.5"/>
	<path vector-effect="non-scaling-stroke" class="st1" d="M183.5,133.5l-3.2-0.2v0.2l-0.1,2.9h1.2l0.1-0.9L183.5,133.5"/>
	<path vector-effect="non-scaling-stroke" class="st1" d="M190.8,133.5l-5.9-0.1c-0.1,0.9-0.1,1.7-0.1,2.2c0,0.1,3.1,0.3,6.2,0.4
		c2.9,0,5.6,0,5.6-0.3c0-0.6,0-1.3-0.1-2.2L190.8,133.5z"/>
	<line vector-effect="non-scaling-stroke" class="st2" x1="118.9" y1="121.7" x2="118.5" y2="124.3"/>
	<line vector-effect="non-scaling-stroke" class="st2" x1="123.2" y1="122.3" x2="122.8" y2="125.2"/>
	<path vector-effect="non-scaling-stroke" class="st1" d="M176.9,139.6c0.3-2,2.2-3.5,4.2-3.2s3.5,2.2,3.2,4.2s-2.2,3.5-4.2,3.2
		C178,143.6,176.6,141.7,176.9,139.6z"/>
</g>
<g>
	<path vector-effect="non-scaling-stroke" class="st3" d="M68,104.6c-1.8-0.6-3.7-1.4-5.7-2.1v-0.3c23.5,8.2,37.6,13.3,42.4,14.7
		c1,0.3,1.8,0,1.9-0.5s-0.2-1.1-1-2.2l-5.1-5.8c-1.8-2.2-1.4-2.8,1.2-2s5.2,1.8,7.8,3l7.7,3.6l-1.3-0.2l-7.1-3.3l-4.9-1.9
		c-3.5-1.4-4.2-1-2.1,1.1c2.1,2.2,3.8,4.1,5,5.7c2.2,3.3,0.9,4.1-3.9,2.5C98.5,115.4,86.9,111.3,68,104.6z M58.9,101.3
		c-2.8-1-5.6-2-7.4-2.6c-2-0.7-4.9-1.6-8.7-2.8c4.9,1.4,8.7,2.6,11.3,3.5c1.9,0.6,4.7,1.6,8.2,2.9l-0.1,0.3
		C61.4,102.2,60.2,101.8,58.9,101.3z"/>
	<path vector-effect="non-scaling-stroke" class="st4" d="M87.8,109.7l0.2,0.6l15.3,1.9l-0.6-0.8L87.8,109.7z M50.5,101.3l-0.9-0.3
		h-0.1l9.4,2.8c9.1,2.5,18.7,4.7,28.9,5.8l0.2,0.6C77.2,109.3,64.7,106.1,50.5,101.3z"/>
	<path vector-effect="non-scaling-stroke" class="st5" d="M126.4,114.9l-6.4-1.1c-4.7-0.8-9.5-1.3-14.5-2l0.5,0.7l12.8,1.8l12.7,2.1
		l-0.4-0.7L126.4,114.9z"/>
	<path vector-effect="non-scaling-stroke" class="st6" d="M88.6,112.4c-1.5-0.3-3-0.6-4.6-0.9c-10-2-18.9-4.8-28-7.3l-9.7-3.2
		c17.8,5,31.8,8.5,42,10.3l5,1.7C91.6,112.8,90.2,112.7,88.6,112.4z M88.2,111.4l5,1.7l12.1,1.5l-1.1-1.5L88.2,111.4z"/>
	<path vector-effect="non-scaling-stroke" class="st7" d="M118.5,114.8c-2.8-0.4-6.7-0.9-11.8-1.5l1.1,1.4c4.7,0.5,8.4,0.9,10.9,1.3
		c3.3,0.5,8,1.3,14.1,2.4l-0.7-1.3C126.2,116.1,121.7,115.3,118.5,114.8z"/>
	<path vector-effect="non-scaling-stroke" class="st7" d="M159.5,122.6l-24.3-5l0.9,1.4l47.2,8.9L159.5,122.6z"/>
	<path vector-effect="non-scaling-stroke" class="st8" d="M151.8,122.3l5.6,2.5l6.4,2.9l-0.4-0.4l-5.9-2.8l-4.7-2L151.8,122.3z"/>
	<path vector-effect="non-scaling-stroke" class="st9" d="M78.1,108.2c0.1,0,0.1,0,0.2,0c0.8,0.1,1.7,0.3,2.4,0.4l-2.1-0.7l-2.8-0.5
		L78.1,108.2z"/>
	<path class="st10" d="M82,109.6l2.4,0.3l0.5,0.1L82,109.6L82,109.6z"/>
	<path class="st10" d="M91.1,112.8l2.9,0.4l0.4,0.2l-3.3-0.4V112.8z"/>
	<path class="st10" d="M84.7,110.6l2.9,0.5l0.5,0.2l-3.1-0.6L84.7,110.6z"/>
	<path vector-effect="non-scaling-stroke" class="st8" d="M148.2,120l1.2,0.3l0.5,0.2l-1.1-0.2L148.2,120z"/>
	<path vector-effect="non-scaling-stroke" class="st5" d="M147.4,119c-3-0.6-7.4-1.5-13-2.6l0.3,0.6l38.8,8
		C162.2,122.3,153.5,120.3,147.4,119z"/>
	<path vector-effect="non-scaling-stroke" class="st8" d="M119.3,114.5l1.8,0.3l0.4,0.3l-1.7-0.3L119.3,114.5z"/>
	<path vector-effect="non-scaling-stroke" class="st8" d="M131.5,120.8c-2.1-0.9-4.3-2.1-6.6-3.4l1.6,0.3c3.7,2,6.3,3.3,7.7,3.7
		c2,0.6,1.9,0.6,0.7-1.3c-0.8-1.3-2.3-3.4-4.6-6.5c-1.1-1.7-0.4-2,2.3-1s6.7,2.6,12,5l1.7,0.8l-1.2-0.3c-5.4-2.4-8.9-3.8-10.5-4.4
		c-1.8-0.6-3.7-1.6-3.8-1c0,0.2,0.3,0.7,1,1.6c1.6,2.1,3.1,4.1,4.3,6.2c1.5,2.1,0.8,2.5-2.1,1.4
		C133.3,121.5,132.4,121.2,131.5,120.8z"/>
	<path vector-effect="non-scaling-stroke" class="st5" d="M16.2,58.9c0,0.2,0,0.4,0,0.7l0.4,3.2c4.8,2.4,8.5,4.5,10.9,6.3
		c3.8,2.7,9.1,7.8,15.9,15.1l-13.3-21l-1-1.5c-0.4-0.4-0.7-0.7-1.1-1c-0.3-0.3-0.6-0.4-0.9-0.6c-1-0.6-2-0.5-3.2-0.7
		c-1.8-0.2-4.3-0.6-7.7-1.1C16.2,58.6,16.2,58.8,16.2,58.9z"/>
	<path vector-effect="non-scaling-stroke" class="st5" d="M124.6,91.9l0.3,0.1l0.1-0.3c0.3,0.1,0.6,0.2,0.7,0.3l0.1,0.1
		c0,0,0,0,0,0.1s0,0.2-0.1,0.3l0.4,0.2c0.1-0.1,0.1-0.2,0.1-0.3c0-0.1-0.1-0.2-0.1-0.3c0.1,0,0.1,0,0.2,0c0.1-0.1,0.1-0.3,0.1-0.4
		c0-0.2-0.1-0.3-0.2-0.4c-0.3-0.2-0.7-0.4-1.3-0.6L124.6,91.9z"/>
	<path vector-effect="non-scaling-stroke" class="st11" d="M125.2,91.1c0,0.1-0.1,0.1-0.1,0.2c0,0,0,0.1-0.1,0.2
		c0.3,0.1,0.8,0.3,0.9,0.3s0.1,0,0.1-0.1s0-0.2-0.1-0.2C125.9,91.4,125.5,91.2,125.2,91.1z"/>
	<path vector-effect="non-scaling-stroke" class="st5" d="M124.2,90.2l0.4,0.1l-0.4,1.4l-0.4-0.1L124.2,90.2z"/>
	<path vector-effect="non-scaling-stroke" class="st7" d="M120.2,91.1h0.4l0.1-0.6h0.9l0.1-0.4h-1l0.1-0.4h1l0.1-0.4h-1.4
		L120.2,91.1z"/>
	<path vector-effect="non-scaling-stroke" class="st5" d="M122,91.2l0.2-0.3l0.9,0.2l0.1,0.3l0.4,0.1l-0.4-1.7l-0.4-0.1l-1.2,1.4
		L122,91.2z"/>
	<path vector-effect="non-scaling-stroke" class="st11" d="M122.4,90.6l0.6,0.1l-0.1-0.6h-0.1L122.4,90.6z"/>
	<path vector-effect="non-scaling-stroke" class="st5" d="M125.4,90.3c-0.7-0.5-1.4-0.8-2-1c-0.8-0.3-2-0.5-3.6-0.6l0.8,0.4
		c1.1,0,2,0.1,2.7,0.4s1.8,0.8,3.1,1.6C126.1,90.8,125.7,90.6,125.4,90.3z"/>
	<path vector-effect="non-scaling-stroke" class="st7" d="M120.9,84.8l-1.4-1.5c1.2,0.9,2.1,1.4,3.2,2.6c1,1.2,2.4,3.2,3.6,4.8
		c-0.4-0.4-0.9-0.7-1.4-1s-1-0.5-1.6-0.7c-1-0.4-2-0.5-3.2-0.6l2.4-0.5C122.3,86.8,121.8,85.8,120.9,84.8z"/>
	<path vector-effect="non-scaling-stroke" class="st5" d="M119.1,81.4c0,0.1,0,0.2,0,0.3l0.1,1.3c1.3,0.8,2.3,1.5,3,2.2
		c1,1,2.4,2.8,4.3,5.5c-1.1-2.9-1.8-5.1-2.3-6.6c-0.2-0.8-0.4-1.3-0.8-1.9c-0.6-0.8-2-0.9-2.3-1c-0.5,0-1.1-0.1-2-0.1
		C119.1,81.3,119.1,81.4,119.1,81.4z"/>
	<path vector-effect="non-scaling-stroke" class="st5" d="M34.3,85.1l0.8,0.2l0.2-0.8c0.8,0.2,1.4,0.4,1.8,0.6
		c0.1,0,0.2,0.1,0.3,0.2c0,0.1,0.1,0.1,0.1,0.2c0,0.2,0,0.4-0.1,0.6l1,0.4c0.1-0.3,0.2-0.5,0.1-0.7c0-0.2-0.2-0.4-0.4-0.6
		c0.2,0,0.4,0,0.5-0.1c0.2-0.2,0.2-0.7,0.2-0.9c-0.1-0.4-0.3-0.7-0.7-0.9c-0.7-0.4-1.8-0.8-3.2-1.3L34.3,85.1z"/>
	<path vector-effect="non-scaling-stroke" class="st11" d="M35.7,83c-0.1,0.2-0.1,0.3-0.1,0.4s-0.1,0.2-0.1,0.4
		c0.7,0.2,2.1,0.7,2.2,0.7c0.2,0,0.3-0.1,0.3-0.3c0-0.2-0.1-0.4-0.3-0.5C37.6,83.6,36.4,83.2,35.7,83z"/>
	<path vector-effect="non-scaling-stroke" class="st5" d="M33,81.2l1,0.3l-0.6,3.4l-1-0.2L33,81.2z"/>
	<path vector-effect="non-scaling-stroke" class="st7" d="M23.5,84.2l0.9-0.2l0.2-1.5l2.3-0.1l0.1-1l-2.4,0.2l0.1-0.9l2.5-0.1l0.1-1
		l-3.4,0.2L23.5,84.2z"/>
	<path vector-effect="non-scaling-stroke" class="st5" d="M27.9,83.8l0.5-0.7l2.2,0.4l0.2,0.7l1,0.2l-1.3-4.1l-1-0.3l-2.6,3.7
		L27.9,83.8z"/>
	<path vector-effect="non-scaling-stroke" class="st11" d="M28.8,82.5l1.5,0.2L30,81.2h-0.3L28.8,82.5z"/>
	<path vector-effect="non-scaling-stroke" class="st5" d="M37.2,81.3C35,80,33,79.1,31.4,78.7c-2.4-0.8-5.9-1.2-10.6-1.2l2.8,1.3
		c3-0.2,5.6-0.1,7.6,0.5c2.2,0.6,5.2,2,9.2,4.2C39.3,82.7,38.3,82,37.2,81.3z"/>
	<path vector-effect="non-scaling-stroke" class="st7" d="M22.1,67.8l-4.7-3.5c3.9,2.1,7.7,4.5,11.3,7.2c3.4,2.8,7.1,6.2,10.9,10.2
		c-1.4-1-2.9-1.8-4.4-2.5s-2.9-1.3-4.6-1.7c-3-0.7-6.4-1.1-9.6-0.9l6.9-1C27,72.7,25.1,70.2,22.1,67.8z"/>
</g>
<path class="st10" d="M27.1,150h155.7c3.9,0,7.1,2.7,7.1,6l0,0c0,3.3-3.2,6-7.1,6H27.1c-3.9,0-7.1-2.7-7.1-6l0,0
	C20,152.7,23.2,150,27.1,150z"/>
</svg>
