<?xml version="1.0" encoding="utf-8"?>
<!-- Generator: Adobe Illustrator 23.0.2, SVG Export Plug-In . SVG Version: 6.00 Build 0)  -->
<svg version="1.1" id="Vrstva_1" xmlns="http://www.w3.org/2000/svg" xmlns:xlink="http://www.w3.org/1999/xlink" x="0px" y="0px"
	 viewBox="0 0 210 210" style="enable-background:new 0 0 210 210;" xml:space="preserve">
<style type="text/css">
	.st0{fill:#063761;}
	.st1{fill:#FFFFFF;stroke:#000000;stroke-width:0.25;stroke-miterlimit:10;}
	.st2{fill:none;stroke:#000000;stroke-width:0.25;stroke-miterlimit:10;}
	.st3{fill-rule:evenodd;clip-rule:evenodd;fill:#6B737A;}
	.st4{fill-rule:evenodd;clip-rule:evenodd;fill:#E32219;}
	.st5{fill:#E32219;}
	.st6{fill-rule:evenodd;clip-rule:evenodd;fill:#004B94;}
	.st7{fill:#004B94;}
	.st8{fill:#6B737A;}
	.st9{fill:#FFFFFF;}
</style>
<g>
	<circle vector-effect="non-scaling-stroke" class="st0" cx="105" cy="105" r="105"/>
</g>
<g>
	<path vector-effect="non-scaling-stroke" class="st1" d="M149.4,83c4.3-1.1,10-1.2,17-0.3c10.5,1.3,27.8,3.8,34.6,5.5
		c4.6,1.1,3.7,4.2,2.9,5.5c-0.7,0.9-1.9,1.6-2.5,2c-1.8,1.2-15.2,6.6-17.8,7.4s-16,4.9-19.5,5.9c-2.4,0.7-12.7,3.6-30.9,8.6
		l-10.2,2.7c-6.7,1.5-10.7,2.4-12.1,2.6s-13.1,2.2-35.3,5.9l-33.2,5.4c-9.6,1.4-14.9,2-15.7,1.9c-0.7-0.1-1.6-0.4-2.8-0.9
		c-2.1,0-3.3,0.1-3.6,0.1c-0.3,0.1,2.6-1.1,8.8-3.4c1.6-0.6,3-1,4.3-1.2c1.1-0.2,2.2-0.3,3-0.1c1.8,0.5-2.2,1.9-12.2,4.5
		c-0.4-0.5-0.7-0.9-0.9-1.2c-0.5-0.8-0.9-1.6-1.4-2.3c-0.3-0.5-1.1-1.9-2.3-4.1c-2.1-3.7-3.5-6-4-7c-0.9-1.5-0.4-1.6-0.1-2
		c0.2-0.2,0.2-0.5,0-0.7c-5.2-8.8-8.3-13.9-9.1-15.2c-0.8-1.3-1-2.1-0.4-2.3l9.3-2.7c1.8-0.5,3.9,0.1,6.3,1.8
		c2.4,1.8,9.5,6.5,21.3,14.2c7.6,3.8,14.1,4.8,19.4,3c2.5-0.9,5.3-1.9,8.9-3.3c3.7-1.4,8.2-3.1,13.3-5.1l19.3-9.5
		c0.4-0.4,0.7-0.8,0.9-1.2c0.2-0.5,2.5-1.6,2.9-1.8c0.2-0.1,2.5-1.3,6.9-3.5c0.5-0.5,0.6-1.1,0.3-1.7c-0.3-0.6-2.2-4.1-5.8-10.7
		c-0.1-0.4,0.2-0.7,0.9-0.9c1.1-0.3,3.3-1.6,5.1,0.2c1.2,1.2,2.6,2.9,4.3,4.9c2.4,2.4,5.3,3.2,8.7,2.4l13-3
		c-2.3-10.7-3.3-15.6-2.9-14.7l4.6,14.4c1.2-0.1,2.3-0.2,3.3-0.1c1.6,0.1,3.5,0.4,3.6,0.6c0.1,0.1-1.3,1.8-2.2,2.6
		c-0.8,0.7-1.9,1.3-3.4,2l1.9,7.1c1,4.5,1.6,6.9,1.7,7.1c0.3,1-0.6-1.2-2.5-6.6l-2.6-7.5l0.1,0.7c-0.4,3.8-1.3,6-2.7,6.7
		c-2.1,0.9-6.2,2.1-9.6,2.7c-5.5,1-14.3,0.4-16,0.5c-1.1,0-4.4-0.2-9.8-0.7c10.7-1.7,17.6-3.1,20.6-4.3c4.6-1.7,7.8-3.1,9.1-3.9
		c1.4-0.8,0.5-3.2,0.2-3.9c-0.2-0.5-2.2-0.4-6.1,0.4"/>
	<path vector-effect="non-scaling-stroke" class="st2" d="M155.9,82.6c-0.1,1.2,0.8,2.9,2.8,4.8s3.1,3,3.2,3
		c1.9,1.6,4.2,1.5,6.8-0.1c2.6-1.7,5.4-3.6,8.2-5.7"/>
	<path vector-effect="non-scaling-stroke" class="st1" d="M124.2,113.3c1.8-0.6,4.3-1.3,7.7-2c1.3-0.1,2.1,0.1,2.3,0.7
		c0.4,0.8-0.2,1.6-1.9,2.4l-3,1c-4.7,1.3-8.2,2.2-10.8,2.5c-1.8,0.2-5.6,0.6-4.1-0.3C116.5,116.2,120.7,114.5,124.2,113.3z"/>
	<line class="st2" x1="149.4" y1="83" x2="148.6" y2="83.2"/>
</g>
<g>
	<path vector-effect="non-scaling-stroke" class="st3" d="M72,121.7c-1.9,0.2-4,0.3-6,0.4l-0.1-0.3c24.8-2,39.7-3.1,44.7-3.8
		c1-0.1,1.6-0.7,1.5-1.3c-0.1-0.5-0.6-0.9-1.8-1.6l-7-3.2c-2.6-1.2-2.5-2,0.3-2.3c2.7-0.3,5.5-0.5,8.3-0.4l8.5,0.1l-1.3,0.4
		l-7.9-0.1l-5.2,0.2c-3.8,0.1-4.3,0.8-1.4,1.9c2.8,1.1,5.1,2.2,6.8,3.2c3.3,2.1,2.5,3.4-2.5,3.9C104.3,119.2,92,120.1,72,121.7z
		 M62.4,122.4c-3,0.2-5.9,0.5-7.8,0.7c-2.1,0.2-5.2,0.5-9.1,0.9c5.1-0.7,9-1.2,11.8-1.4c2-0.2,4.9-0.4,8.7-0.7v0.3
		C65,122.2,63.8,122.3,62.4,122.4z"/>
	<path vector-effect="non-scaling-stroke" class="st4" d="M92.2,118.3l0.4,0.5l14.7-4.5l-0.9-0.5L92.2,118.3z M54.7,125.8l-0.9,0.1
		h-0.1l9.7-1.2c9.3-1.4,19-3.3,28.8-6.4l0.4,0.5C82.3,122.3,69.6,124.4,54.7,125.8z"/>
	<path vector-effect="non-scaling-stroke" class="st5" d="M129.6,107.3l-6.3,1.6c-4.6,1.2-9.2,2.7-14,4.1l0.7,0.4l12.4-3.6l12.5-3.2
		l-0.7-0.5L129.6,107.3z"/>
	<path vector-effect="non-scaling-stroke" class="st6" d="M94,120.4c-1.5,0.4-3,0.7-4.6,1.1c-9.9,2.2-19.2,3.3-28.6,4.7l-10.2,1.1
		c18.3-2.7,32.5-5.2,42.6-7.6l5.2-0.4C97,119.6,95.5,120.1,94,120.4z M93.2,119.7l5.3-0.4l11.7-3.6l-1.6-0.9L93.2,119.7z"/>
	<path vector-effect="non-scaling-stroke" class="st7" d="M122.3,110.5c-2.7,0.8-6.5,1.9-11.4,3.4l1.5,0.8c4.5-1.5,8-2.5,10.5-3.3
		c3.2-0.9,7.8-2.1,13.8-3.6l-1.2-0.9C129.8,108.5,125.4,109.6,122.3,110.5z"/>
	<path vector-effect="non-scaling-stroke" class="st7" d="M163,101l-24.2,5.4l1.4,0.9l46.7-11.1L163,101z"/>
	<path vector-effect="non-scaling-stroke" class="st8" d="M155.8,103.8h6.2h7l-0.5-0.2l-6.5-0.1l-5.1,0.1L155.8,103.8z"/>
	<path vector-effect="non-scaling-stroke" class="st9" d="M82.7,120.9c0.1,0,0.1,0,0.2,0c0.8-0.2,1.6-0.4,2.3-0.6l-2.2,0.2l-2.8,0.7
		L82.7,120.9z"/>
	<path class="st9" d="M86.9,120.6l2.3-0.7l0.5-0.1L86.9,120.6L86.9,120.6z"/>
	<path class="st9" d="M96.5,119.8l2.8-0.8h0.5l-3.2,1L96.5,119.8z"/>
	<path class="st9" d="M89.8,120.4l2.9-0.7h0.5l-3.1,0.7H89.8z"/>
	<path vector-effect="non-scaling-stroke" class="st8" d="M151.5,103.1l1.2-0.2h0.5l-1.1,0.2H151.5z"/>
	<path vector-effect="non-scaling-stroke" class="st5" d="M150.4,102.6c-3,0.7-7.4,1.6-13,2.9l0.5,0.4l38.7-8.4
		C165.3,99.6,156.5,101.3,150.4,102.6z"/>
	<path vector-effect="non-scaling-stroke" class="st8" d="M122.9,109.9l1.8-0.5l0.5,0.1l-1.7,0.4H122.9z"/>
	<path vector-effect="non-scaling-stroke" class="st8" d="M136.6,110.6c-2.3,0-4.8-0.1-7.4-0.4l1.6-0.4c4.2,0.4,7.1,0.4,8.5,0.2
		c2.1-0.3,2-0.2,0.1-1.5c-1.2-0.8-3.5-2.2-6.8-4c-1.7-1.1-1.1-1.7,1.7-1.9c2.9-0.2,7.2-0.3,12.9-0.3l1.9,0.1l-1.2,0.2
		c-5.9,0-9.7,0.1-11.4,0.3c-1.9,0.2-4,0.1-3.9,0.6c0.1,0.2,0.6,0.5,1.5,1c2.3,1.3,4.5,2.5,6.5,3.9c2.2,1.3,1.8,2-1.3,2.1
		C138.5,110.6,137.6,110.6,136.6,110.6z"/>
	<path vector-effect="non-scaling-stroke" class="st5" d="M6.1,101c0.1,0.2,0.2,0.4,0.3,0.7l1.7,2.8c5.4,0.3,9.6,0.7,12.6,1.3
		c4.5,1,11.4,3.4,20.7,7.3L20.5,99.3l-1.5-1c-0.5-0.2-0.9-0.4-1.4-0.5c-0.4-0.1-0.8-0.1-1.1-0.2c-1.1-0.1-2.1,0.3-3.2,0.7
		c-1.7,0.5-4.2,1.2-7.5,2.2C6,100.7,6,100.9,6.1,101z"/>
	<path vector-effect="non-scaling-stroke" class="st5" d="M118.5,87h0.3v-0.3c0.3,0,0.6,0,0.8,0h0.1c0,0,0,0,0.1,0.1
		c0,0.1,0.1,0.1,0,0.3h0.4c0-0.1,0-0.2,0-0.3c0-0.1-0.1-0.1-0.2-0.2c0.1,0,0.1,0,0.2-0.1c0-0.1,0-0.3,0-0.4
		c-0.1-0.1-0.2-0.2-0.4-0.2c-0.3,0-0.8-0.1-1.4-0.1L118.5,87z"/>
	<path vector-effect="non-scaling-stroke" class="st9" d="M118.8,86.1c0,0.1,0,0.1,0,0.2c0,0,0,0.1,0,0.2c0.3,0,0.9,0,0.9,0
		c0.1,0,0.1-0.1,0.1-0.2s-0.1-0.1-0.2-0.2C119.6,86,119.1,86.1,118.8,86.1z"/>
	<path vector-effect="non-scaling-stroke" class="st5" d="M117.5,85.7h0.4l0.2,1.4h-0.4L117.5,85.7z"/>
	<path vector-effect="non-scaling-stroke" class="st7" d="M114.3,88.2l0.3-0.2l-0.1-0.6l0.9-0.4l-0.1-0.4l-0.9,0.4l-0.1-0.3l0.9-0.4
		l-0.1-0.4l-1.3,0.5L114.3,88.2z"/>
	<path vector-effect="non-scaling-stroke" class="st5" d="M115.9,87.4l0.1-0.3l0.9-0.2l0.2,0.2h0.4l-1.1-1.4H116l-0.5,1.8
		L115.9,87.4z"/>
	<path vector-effect="non-scaling-stroke" class="st9" d="M116.1,86.8l0.6-0.1l-0.3-0.5h-0.1L116.1,86.8z"/>
	<path vector-effect="non-scaling-stroke" class="st5" d="M118.6,85.3c-0.9-0.1-1.6-0.2-2.2-0.2c-0.9,0-2.1,0.3-3.5,0.9l0.9,0.1
		c1-0.5,1.8-0.7,2.6-0.8c0.8-0.1,2,0,3.5,0.2C119.5,85.5,119,85.4,118.6,85.3z"/>
	<path vector-effect="non-scaling-stroke" class="st7" d="M112.2,82.1l-1.9-0.8c1.5,0.4,2.5,0.5,4,1.1c1.4,0.7,3.5,1.9,5.2,2.9
		c-0.6-0.2-1.2-0.3-1.7-0.4c-0.6-0.1-1.1,0-1.7,0c-1.1,0-2.1,0.4-3.2,0.7l2-1.4C114.4,83.3,113.5,82.6,112.2,82.1z"/>
	<path vector-effect="non-scaling-stroke" class="st5" d="M109.3,79.7c0,0.1,0.1,0.1,0.1,0.3l0.6,1.1c1.5,0.2,2.7,0.5,3.6,0.8
		c1.3,0.5,3.4,1.6,6.2,3.3c-2.2-2.2-3.8-3.9-4.8-5.1c-0.5-0.6-0.9-1.1-1.5-1.4c-0.9-0.5-2.2,0-2.5,0.1c-0.5,0.2-1.1,0.4-1.9,0.7
		C109.2,79.6,109.2,79.7,109.3,79.7z"/>
	<path vector-effect="non-scaling-stroke" class="st5" d="M33.3,117.5l0.8-0.1l-0.2-0.8c0.8-0.2,1.5-0.2,1.9-0.2
		c0.1,0,0.3,0,0.3,0.1c0.1,0,0.1,0.1,0.2,0.1c0.1,0.1,0.2,0.3,0.2,0.6l1-0.1c0-0.3-0.1-0.6-0.2-0.7c-0.1-0.1-0.3-0.3-0.6-0.4
		c0.2,0,0.3-0.1,0.4-0.3c0.1-0.3-0.1-0.7-0.2-0.9c-0.2-0.3-0.6-0.5-1-0.5c-0.8-0.1-1.9,0-3.5,0.1L33.3,117.5z"/>
	<path vector-effect="non-scaling-stroke" class="st9" d="M33.7,115.1c0,0.2,0,0.4,0,0.5s0,0.2,0.1,0.4c0.8-0.1,2.2-0.3,2.3-0.3
		c0.2,0,0.2-0.2,0.2-0.4c-0.1-0.2-0.2-0.3-0.5-0.4C35.7,114.9,34.4,115,33.7,115.1z"/>
	<path vector-effect="non-scaling-stroke" class="st5" d="M30.5,114.5l1-0.1l0.8,3.4l-1,0.2L30.5,114.5z"/>
	<path vector-effect="non-scaling-stroke" class="st7" d="M23,121.1l0.7-0.5l-0.4-1.4l2-1.1l-0.3-1l-2.1,1.2l-0.3-0.8l2.2-1.1
		l-0.3-1l-3,1.6L23,121.1z"/>
	<path vector-effect="non-scaling-stroke" class="st5" d="M26.9,119l0.2-0.8l2.1-0.6l0.5,0.6l1-0.2l-2.9-3.3l-1,0.2l-0.8,4.4
		L26.9,119z"/>
	<path vector-effect="non-scaling-stroke" class="st9" d="M27.2,117.4l1.5-0.4l-0.9-1.3l-0.3,0.1L27.2,117.4z"/>
	<path vector-effect="non-scaling-stroke" class="st5" d="M34.4,113c-2.5-0.3-4.8-0.3-6.4-0.1c-2.5,0.3-5.9,1.3-10.1,3.2l3.1,0.1
		c2.7-1.5,5-2.3,7.1-2.6c2.2-0.3,5.6-0.3,10.1,0.1C36.9,113.3,35.6,113.1,34.4,113z"/>
	<path vector-effect="non-scaling-stroke" class="st7" d="M15.1,106.7l-5.7-1.3c4.4,0.3,8.8,1,13.3,2c4.3,1.2,9,2.8,14.1,4.9
		c-1.7-0.3-3.4-0.5-5.1-0.5c-1.7,0-3.2,0-4.9,0.3c-3,0.6-6.3,1.6-9.2,3.1l5.9-3.7C21.6,109.2,18.8,107.7,15.1,106.7z"/>
</g>
<path class="st9" d="M27.1,150h155.7c3.9,0,7.1,2.7,7.1,6l0,0c0,3.3-3.2,6-7.1,6H27.1c-3.9,0-7.1-2.7-7.1-6l0,0
	C20,152.7,23.2,150,27.1,150z"/>
</svg>
